  0
SECTION
  2
HEADER
  9
$ACADVER
  1
AC1009
  9
$FILLMODE
 70
 0
  9
$SPLFRAME
 70
 1
  9
$EXTMIN
 10
0
 20
0
 30
0.0
  9
$EXTMAX
 10
41.6667
 20
41.6667
 30
0.0
  0
ENDSEC
  0
SECTION
  2
TABLES
  0
TABLE
  2
LAYER
 70
1
  0
LAYER
  2
0
 70
     0
 62
     7
  6
CONTINUOUS
  0
ENDTAB
  0
ENDSEC
  0
SECTION
  2
ENTITIES
  0
POLYLINE
  8
0
 62
     7
 66
     1
 10
0
 20
0
 30
0.0
 70
     1
 40
0
 41
0
  0
VERTEX
  8
0
 10
0
 20
0.216038
 30
0.0
 40
0
 41
0
  0
VERTEX
  8
0
 10
41.5754
 20
0.216038
 30
0.0
 40
0
 41
0
  0
VERTEX
  8
0
 10
41.5754
 20
41.4676
 30
0.0
 40
0
 41
0
  0
VERTEX
  8
0
 10
0
 20
41.4676
 30
0.0
 40
0
 41
0
  0
VERTEX
  8
0
 10
0
 20
0.216038
 30
0.0
 40
0
 41
0
  0
SEQEND
 8
0
  0
POLYLINE
  8
0
 62
     0
 66
     1
 10
0
 20
0
 30
0.0
 40
5.17
 41
5.17
  0
VERTEX
  8
0
 10
19.0522
 20
4.34418
 30
0.0
 40
0.0718056
 41
0.0718056
  0
VERTEX
  8
0
 10
19.0529
 20
4.34343
 30
0.0
 40
0.0718056
 41
0.0718056
  0
SEQEND
 8
0
  0
POLYLINE
  8
0
 62
     0
 66
     1
 10
0
 20
0
 30
0.0
 70
     1
 40
0.7238
 41
0.7238
  0
VERTEX
  8
0
 10
4.15756
 20
28.8435
 30
0.0
 40
0.0100528
 41
0.0100528
  0
VERTEX
  8
0
 10
37.4179
 20
28.8435
 30
0.0
 40
0.0100528
 41
0.0100528
  0
VERTEX
  8
0
 10
37.4179
 20
7.45335
 30
0.0
 40
0.0100528
 41
0.0100528
  0
VERTEX
  8
0
 10
4.15756
 20
7.45335
 30
0.0
 40
0.0100528
 41
0.0100528
  0
VERTEX
  8
0
 10
4.15756
 20
28.8435
 30
0.0
 40
0.0100528
 41
0.0100528
  0
SEQEND
 8
0
  0
POLYLINE
  8
0
 62
     0
 66
     1
 10
0
 20
0
 30
0.0
 40
0.7238
 41
0.7238
  0
VERTEX
  8
0
 10
12.1086
 20
28.7501
 30
0.0
 40
0.0100528
 41
0.0100528
  0
VERTEX
  8
0
 10
12.1086
 20
7.45335
 30
0.0
 40
0.0100528
 41
0.0100528
  0
VERTEX
  8
0
 10
12.1086
 20
7.4426
 30
0.0
 40
0.0100528
 41
0.0100528
  0
SEQEND
 8
0
  0
POLYLINE
  8
0
 62
     0
 66
     1
 10
0
 20
0
 30
0.0
 40
0.7238
 41
0.7238
  0
VERTEX
  8
0
 10
4.15756
 20
28.9368
 30
0.0
 40
0.0100528
 41
0.0100528
  0
VERTEX
  8
0
 10
8.18007
 20
37.3396
 30
0.0
 40
0.0100528
 41
0.0100528
  0
VERTEX
  8
0
 10
8.18007
 20
37.3287
 30
0.0
 40
0.0100528
 41
0.0100528
  0
SEQEND
 8
0
  0
POLYLINE
  8
0
 62
     0
 66
     1
 10
0
 20
0
 30
0.0
 40
0.7238
 41
0.7238
  0
VERTEX
  8
0
 10
8.18007
 20
36.9754
 30
0.0
 40
0.0100528
 41
0.0100528
  0
VERTEX
  8
0
 10
12.1086
 20
28.7501
 30
0.0
 40
0.0100528
 41
0.0100528
  0
VERTEX
  8
0
 10
12.1086
 20
28.7393
 30
0.0
 40
0.0100528
 41
0.0100528
  0
SEQEND
 8
0
  0
POLYLINE
  8
0
 62
     0
 66
     1
 10
0
 20
0
 30
0.0
 40
0.7238
 41
0.7238
  0
VERTEX
  8
0
 10
8.08675
 20
37.2562
 30
0.0
 40
0.0100528
 41
0.0100528
  0
VERTEX
  8
0
 10
37.4179
 20
37.2562
 30
0.0
 40
0.0100528
 41
0.0100528
  0
VERTEX
  8
0
 10
37.4179
 20
37.2456
 30
0.0
 40
0.0100528
 41
0.0100528
  0
SEQEND
 8
0
  0
POLYLINE
  8
0
 62
     0
 66
     1
 10
0
 20
0
 30
0.0
 40
0.7238
 41
0.7238
  0
VERTEX
  8
0
 10
37.3246
 20
37.2562
 30
0.0
 40
0.0100528
 41
0.0100528
  0
VERTEX
  8
0
 10
37.3246
 20
27.9288
 30
0.0
 40
0.0100528
 41
0.0100528
  0
VERTEX
  8
0
 10
37.3246
 20
27.9179
 30
0.0
 40
0.0100528
 41
0.0100528
  0
SEQEND
 8
0
  0
ENDSEC
  0
EOF
