999
dxfrw 0.6.3
  0
SECTION
  2
HEADER
  9
$ACADVER
  1
AC1021
  9
$DWGCODEPAGE
  3
ANSI_1252
  9
$INSBASE
 10
0
 20
0
 30
0
  9
$EXTMIN
 10
10000000000
 20
10000000000
 30
0
  9
$EXTMAX
 10
-10000000000
 20
-10000000000
 30
0
  9
$LIMMIN
 10
0
 20
0
  9
$LIMMAX
 10
420
 20
297
  9
$ORTHOMODE
 70
    0
  9
$REGENMODE
 70
    1
  9
$FILLMODE
 70
    1
  9
$QTEXTMODE
 70
    0
  9
$MIRRTEXT
 70
    0
  9
$LTSCALE
 40
1
  9
$ATTMODE
 70
    0
  9
$TEXTSIZE
 40
2.5
  9
$TRACEWID
 40
15.68
  9
$TEXTSTYLE
  7
STANDARD
  9
$CLAYER
  8
dimension
  9
$CELTYPE
  6
BYLAYER
  9
$CECOLOR
 62
  256
  9
$CELTSCALE
 40
1
  9
$DISPSILH
 70
    0
  9
$DIMSCALE
 40
1.5
  9
$DIMASZ
 40
5
  9
$DIMEXO
 40
0.025
  9
$DIMDLI
 40
3.75
  9
$DIMRND
 40
0
  9
$DIMDLE
 40
0
  9
$DIMEXE
 40
0.05
  9
$DIMTP
 40
0
  9
$DIMTM
 40
0
  9
$DIMTXT
 40
5
  9
$DIMCEN
 40
2.5
  9
$DIMTSZ
 40
5
  9
$DIMTOL
 70
    0
  9
$DIMLIM
 70
    0
  9
$DIMTIH
 70
    0
  9
$DIMTOH
 70
    0
  9
$DIMSE1
 70
    0
  9
$DIMSE2
 70
    0
  9
$DIMTAD
 70
    1
  9
$DIMZIN
 70
    1
  9
$DIMBLK
  1

  9
$DIMASO
 70
    1
  9
$DIMSHO
 70
    1
  9
$DIMPOST
  1

  9
$DIMAPOST
  1

  9
$DIMALT
 70
    0
  9
$DIMALTD
 70
    3
  9
$DIMALTF
 40
0.03937
  9
$DIMLFAC
 40
1
  9
$DIMTOFL
 70
    1
  9
$DIMTVP
 40
0
  9
$DIMTIX
 70
    0
  9
$DIMSOXD
 70
    0
  9
$DIMSAH
 70
    0
  9
$DIMBLK1
  1

  9
$DIMBLK2
  1

  9
$DIMSTYLE
  2
STANDARD
  9
$DIMCLRD
 70
  256
  9
$DIMCLRE
 70
    0
  9
$DIMCLRT
 70
  256
  9
$DIMTFAC
 40
1
  9
$DIMGAP
 40
3
  9
$DIMJUST
 70
    0
  9
$DIMSD1
 70
    0
  9
$DIMSD2
 70
    0
  9
$DIMTOLJ
 70
    0
  9
$DIMTZIN
 70
    8
  9
$DIMALTZ
 70
    0
  9
$DIMALTTZ
 70
    0
  9
$DIMUPT
 70
    0
  9
$DIMDEC
 70
    0
  9
$DIMTDEC
 70
    2
  9
$DIMALTU
 70
    2
  9
$DIMALTTD
 70
    3
  9
$DIMTXSTY
  7
simplex
  9
$DIMAUNIT
 70
    0
  9
$DIMADEC
 70
    2
  9
$DIMALTRND
 40
0
  9
$DIMAZIN
 70
    0
  9
$DIMDSEP
 70
    0
  9
$DIMATFIT
 70
    3
  9
$DIMFRAC
 70
    0
  9
$DIMLDRBLK
  1
STANDARD
  9
$DIMLUNIT
 70
    4
  9
$DIMLWD
 70
   -1
  9
$DIMLWE
 70
   -2
  9
$DIMTMOVE
 70
    0
  9
$DIMFXL
 40
0.0394
  9
$DIMFXLON
 70
    0
  9
$DIMJOGANG
 40
0.7854
  9
$DIMTFILL
 70
    0
  9
$DIMTFILLCLR
 70
    0
  9
$DIMARCSYM
 70
    0
  9
$DIMLTYPE
  6

  9
$DIMLTEX1
  6

  9
$DIMLTEX2
  6

  9
$LUNITS
 70
    4
  9
$LUPREC
 70
    0
  9
$SKETCHINC
 40
1
  9
$FILLETRAD
 40
0
  9
$AUNITS
 70
    0
  9
$AUPREC
 70
    2
  9
$MENU
  1
.
  9
$ELEVATION
 40
0
  9
$PELEVATION
 40
0
  9
$THICKNESS
 40
0
  9
$LIMCHECK
 70
    0
  9
$CHAMFERA
 40
0
  9
$CHAMFERB
 40
0
  9
$CHAMFERC
 40
0
  9
$CHAMFERD
 40
0
  9
$SKPOLY
 70
    0
  9
$USRTIMER
 70
    1
  9
$ANGBASE
 50
0
  9
$ANGDIR
 70
    0
  9
$PDMODE
 70
   34
  9
$PDSIZE
 40
0
  9
$PLINEWID
 40
0
  9
$SPLFRAME
 70
    0
  9
$SPLINETYPE
 70
    2
  9
$SPLINESEGS
 70
    8
  9
$HANDSEED
  5
20000
  9
$SURFTAB1
 70
    6
  9
$SURFTAB2
 70
    6
  9
$SURFTYPE
 70
    6
  9
$SURFU
 70
    6
  9
$SURFV
 70
    6
  9
$UCSBASE
  2

  9
$UCSNAME
  2

  9
$UCSORG
 10
0
 20
0
 30
0
  9
$UCSXDIR
 10
1
 20
0
 30
0
  9
$UCSYDIR
 10
0
 20
1
 30
0
  9
$UCSORTHOREF
  2

  9
$UCSORTHOVIEW
 70
    0
  9
$UCSORGTOP
 10
0
 20
0
 30
0
  9
$UCSORGBOTTOM
 10
0
 20
0
 30
0
  9
$UCSORGLEFT
 10
0
 20
0
 30
0
  9
$UCSORGRIGHT
 10
0
 20
0
 30
0
  9
$UCSORGFRONT
 10
0
 20
0
 30
0
  9
$UCSORGBACK
 10
0
 20
0
 30
0
  9
$PUCSBASE
  2

  9
$PUCSNAME
  2

  9
$PUCSORG
 10
0
 20
0
 30
0
  9
$PUCSXDIR
 10
1
 20
0
 30
0
  9
$PUCSYDIR
 10
0
 20
1
 30
0
  9
$PUCSORTHOREF
  2

  9
$PUCSORTHOVIEW
 70
    0
  9
$PUCSORGTOP
 10
0
 20
0
 30
0
  9
$PUCSORGBOTTOM
 10
0
 20
0
 30
0
  9
$PUCSORGLEFT
 10
0
 20
0
 30
0
  9
$PUCSORGRIGHT
 10
0
 20
0
 30
0
  9
$PUCSORGFRONT
 10
0
 20
0
 30
0
  9
$PUCSORGBACK
 10
0
 20
0
 30
0
  9
$USERI1
 70
    0
  9
$USERI2
 70
    0
  9
$USERI3
 70
    0
  9
$USERI4
 70
    0
  9
$USERI5
 70
    0
  9
$USERR1
 40
0
  9
$USERR2
 40
0
  9
$USERR3
 40
0
  9
$USERR4
 40
0
  9
$USERR5
 40
0
  9
$WORLDVIEW
 70
    1
  9
$SHADEDGE
 70
    3
  9
$SHADEDIF
 70
   70
  9
$TILEMODE
 70
    1
  9
$MAXACTVP
 70
   64
  9
$PINSBASE
 10
0
 20
0
 30
0
  9
$PLIMCHECK
 70
    0
  9
$PEXTMIN
 10
0
 20
0
 30
0
  9
$PEXTMAX
 10
0
 20
0
 30
0
  9
$GRIDMODE
 70
    0
  9
$SNAPSTYLE
 70
    0
  9
$GRIDUNIT
 10
0
 20
0
  9
$PLIMMIN
 10
0
 20
0
  9
$PLIMMAX
 10
0.3255
 20
0.46035
  9
$UNITMODE
 70
    0
  9
$VISRETAIN
 70
    1
  9
$PLINEGEN
 70
    0
  9
$PSLTSCALE
 70
    1
  9
$TREEDEPTH
 70
 3020
  9
$CMLSTYLE
  2
Standard
  9
$CMLJUST
 70
    0
  9
$CMLSCALE
 40
20
  9
$PROXYGRAPHICS
 70
    1
  9
$MEASUREMENT
 70
    0
  9
$CELWEIGHT
370
   -1
  9
$ENDCAPS
280
    0
  9
$JOINSTYLE
280
    0
  9
$LWDISPLAY
290
    0
  9
$INSUNITS
 70
    1
  9
$HYPERLINKBASE
  1

  9
$STYLESHEET
  1

  9
$XEDIT
290
    1
  9
$CEPSNTYPE
380
    0
  9
$PSTYLEMODE
290
    1
  9
$EXTNAMES
290
    1
  9
$PSVPSCALE
 40
0
  9
$OLESTARTUP
290
    0
  9
$SORTENTS
280
  127
  9
$INDEXCTL
280
    0
  9
$HIDETEXT
280
    1
  9
$XCLIPFRAME
290
    0
  9
$HALOGAP
280
    0
  9
$OBSCOLOR
 70
  257
  9
$OBSLTYPE
280
    0
  9
$INTERSECTIONDISPLAY
280
    0
  9
$INTERSECTIONCOLOR
 70
  257
  9
$DIMASSOC
280
    1
  9
$PROJECTNAME
  1

  9
$CAMERADISPLAY
290
    0
  9
$LENSLENGTH
 40
50
  9
$CAMERAHEIGHT
 40
0
  9
$STEPSPERSEC
 40
2
  9
$STEPSIZE
 40
50
  9
$3DDWFPREC
 40
2
  9
$PSOLWIDTH
 40
5
  9
$PSOLHEIGHT
 40
80
  9
$LOFTANG1
 40
1.570796326794897
  9
$LOFTANG2
 40
1.570796326794897
  9
$LOFTMAG1
 40
0
  9
$LOFTMAG2
 40
0
  9
$LOFTPARAM
 70
    7
  9
$LOFTNORMALS
280
    1
  9
$LATITUDE
 40
1
  9
$LONGITUDE
 40
1
  9
$NORTHDIRECTION
 40
0
  9
$TIMEZONE
 70
-8000
  9
$LIGHTGLYPHDISPLAY
280
    1
  9
$TILEMODELIGHTSYNCH
280
    1
  9
$SOLIDHIST
280
    1
  9
$SHOWHIST
280
    1
  9
$DWFFRAME
280
    2
  9
$DGNFRAME
280
    0
  9
$REALWORLDSCALE
290
    1
  9
$INTERFERECOLOR
 62
    1
  9
$CSHADOW
280
    0
  9
$SHADOWPLANELOCATION
 40
0
  0
ENDSEC
  0
SECTION
  2
CLASSES
  0
ENDSEC
  0
SECTION
  2
TABLES
  0
TABLE
  2
VPORT
  5
8
330
0
100
AcDbSymbolTable
 70
    1
  0
VPORT
  5
31
330
2
100
AcDbSymbolTableRecord
100
AcDbViewportTableRecord
  2
*ACTIVE
 70
    0
 10
0
 20
0
 11
1
 21
1
 12
-6902.75352896983
 22
58080.39873105943
 13
0
 23
0
 14
10
 24
10
 15
10
 25
10
 16
0
 26
0
 36
1
 17
0
 27
0
 37
0
 40
536.2717829395407
 41
2.010416666666667
 42
50
 43
0
 44
0
 50
0
 51
0
 71
    0
 72
  100
 73
    1
 74
    3
 75
    0
 76
    0
 77
    0
 78
    0
281
    0
 65
    1
110
0
120
0
130
0
111
1
121
0
131
0
112
0
122
1
132
0
 79
    0
146
0
348
10020
 60
    7
 61
    5
292
1
282
    1
141
0
142
0
 63
  250
421
3358443
  0
ENDTAB
  0
TABLE
  2
LTYPE
  5
5
330
0
100
AcDbSymbolTable
 70
    4
  0
LTYPE
  5
14
330
5
100
AcDbSymbolTableRecord
100
AcDbLinetypeTableRecord
  2
ByBlock
 70
    0
  3

 72
   65
 73
    0
 40
0
  0
LTYPE
  5
15
330
5
100
AcDbSymbolTableRecord
100
AcDbLinetypeTableRecord
  2
ByLayer
 70
    0
  3

 72
   65
 73
    0
 40
0
  0
LTYPE
  5
16
330
5
100
AcDbSymbolTableRecord
100
AcDbLinetypeTableRecord
  2
Continuous
 70
    0
  3
Solid line
 72
   65
 73
    0
 40
0
  0
LTYPE
  5
32
330
5
100
AcDbSymbolTableRecord
100
AcDbLinetypeTableRecord
  2
DOT
 70
    0
  3
Dot . . . . . . . . . . . . . . . . . . . . . .
 72
   65
 73
    2
 40
6.35
 49
0
 74
    0
 49
-6.35
 74
    0
  0
LTYPE
  5
33
330
5
100
AcDbSymbolTableRecord
100
AcDbLinetypeTableRecord
  2
DOTTINY
 70
    0
  3
Dot (.15x) .....................................
 72
   65
 73
    2
 40
0.9525
 49
0
 74
    0
 49
-0.9525
 74
    0
  0
LTYPE
  5
34
330
5
100
AcDbSymbolTableRecord
100
AcDbLinetypeTableRecord
  2
DOT2
 70
    0
  3
Dot (.5x) .....................................
 72
   65
 73
    2
 40
3.175
 49
0
 74
    0
 49
-3.175
 74
    0
  0
LTYPE
  5
35
330
5
100
AcDbSymbolTableRecord
100
AcDbLinetypeTableRecord
  2
DOTX2
 70
    0
  3
Dot (2x) .  .  .  .  .  .  .  .  .  .  .  .  .
 72
   65
 73
    2
 40
12.7
 49
0
 74
    0
 49
-12.7
 74
    0
  0
LTYPE
  5
36
330
5
100
AcDbSymbolTableRecord
100
AcDbLinetypeTableRecord
  2
DASHED
 70
    0
  3
Dashed _ _ _ _ _ _ _ _ _ _ _ _ _ _ _ _ _
 72
   65
 73
    2
 40
19.05
 49
12.7
 74
    0
 49
-6.35
 74
    0
  0
LTYPE
  5
37
330
5
100
AcDbSymbolTableRecord
100
AcDbLinetypeTableRecord
  2
DASHEDTINY
 70
    0
  3
Dashed (.15x) _ _ _ _ _ _ _ _ _ _ _ _ _ _ _ _ _
 72
   65
 73
    2
 40
2.8575
 49
1.905
 74
    0
 49
-0.9525
 74
    0
  0
LTYPE
  5
38
330
5
100
AcDbSymbolTableRecord
100
AcDbLinetypeTableRecord
  2
DASHED2
 70
    0
  3
Dashed (.5x) _ _ _ _ _ _ _ _ _ _ _ _ _ _ _ _ _
 72
   65
 73
    2
 40
9.524999999999999
 49
6.35
 74
    0
 49
-3.175
 74
    0
  0
LTYPE
  5
39
330
5
100
AcDbSymbolTableRecord
100
AcDbLinetypeTableRecord
  2
DASHEDX2
 70
    0
  3
Dashed (2x) ____  ____  ____  ____  ____  ___
 72
   65
 73
    2
 40
38.09999999999999
 49
25.4
 74
    0
 49
-12.7
 74
    0
  0
LTYPE
  5
3A
330
5
100
AcDbSymbolTableRecord
100
AcDbLinetypeTableRecord
  2
DASHDOT
 70
    0
  3
Dash dot __ . __ . __ . __ . __ . __ . __ . __
 72
   65
 73
    4
 40
25.4
 49
12.7
 74
    0
 49
-6.35
 74
    0
 49
0
 74
    0
 49
-6.35
 74
    0
  0
LTYPE
  5
3B
330
5
100
AcDbSymbolTableRecord
100
AcDbLinetypeTableRecord
  2
DASHDOTTINY
 70
    0
  3
Dash dot (.15x) _._._._._._._._._._._._._._._.
 72
   65
 73
    4
 40
3.81
 49
1.905
 74
    0
 49
-0.9525
 74
    0
 49
0
 74
    0
 49
-0.9525
 74
    0
  0
LTYPE
  5
3C
330
5
100
AcDbSymbolTableRecord
100
AcDbLinetypeTableRecord
  2
DASHDOT2
 70
    0
  3
Dash dot (.5x) _._._._._._._._._._._._._._._.
 72
   65
 73
    4
 40
12.7
 49
6.35
 74
    0
 49
-3.175
 74
    0
 49
0
 74
    0
 49
-3.175
 74
    0
  0
LTYPE
  5
3D
330
5
100
AcDbSymbolTableRecord
100
AcDbLinetypeTableRecord
  2
DASHDOTX2
 70
    0
  3
Dash dot (2x) ____  .  ____  .  ____  .  ___
 72
   65
 73
    4
 40
50.8
 49
25.4
 74
    0
 49
-12.7
 74
    0
 49
0
 74
    0
 49
-12.7
 74
    0
  0
LTYPE
  5
3E
330
5
100
AcDbSymbolTableRecord
100
AcDbLinetypeTableRecord
  2
DIVIDE
 70
    0
  3
Divide ____ . . ____ . . ____ . . ____ . . ____
 72
   65
 73
    6
 40
31.75
 49
12.7
 74
    0
 49
-6.35
 74
    0
 49
0
 74
    0
 49
-6.35
 74
    0
 49
0
 74
    0
 49
-6.35
 74
    0
  0
LTYPE
  5
3F
330
5
100
AcDbSymbolTableRecord
100
AcDbLinetypeTableRecord
  2
DIVIDETINY
 70
    0
  3
Divide (.15x) __..__..__..__..__..__..__..__.._
 72
   65
 73
    6
 40
4.7625
 49
1.905
 74
    0
 49
-0.9525
 74
    0
 49
0
 74
    0
 49
-0.9525
 74
    0
 49
0
 74
    0
 49
-0.9525
 74
    0
  0
LTYPE
  5
40
330
5
100
AcDbSymbolTableRecord
100
AcDbLinetypeTableRecord
  2
DIVIDE2
 70
    0
  3
Divide (.5x) __..__..__..__..__..__..__..__.._
 72
   65
 73
    6
 40
15.875
 49
6.35
 74
    0
 49
-3.175
 74
    0
 49
0
 74
    0
 49
-3.175
 74
    0
 49
0
 74
    0
 49
-3.175
 74
    0
  0
LTYPE
  5
41
330
5
100
AcDbSymbolTableRecord
100
AcDbLinetypeTableRecord
  2
DIVIDEX2
 70
    0
  3
Divide (2x) ________  .  .  ________  .  .  _
 72
   65
 73
    6
 40
63.5
 49
25.4
 74
    0
 49
-12.7
 74
    0
 49
0
 74
    0
 49
-12.7
 74
    0
 49
0
 74
    0
 49
-12.7
 74
    0
  0
LTYPE
  5
42
330
5
100
AcDbSymbolTableRecord
100
AcDbLinetypeTableRecord
  2
BORDER
 70
    0
  3
Border __ __ . __ __ . __ __ . __ __ . __ __ .
 72
   65
 73
    6
 40
44.45
 49
12.7
 74
    0
 49
-6.35
 74
    0
 49
12.7
 74
    0
 49
-6.35
 74
    0
 49
0
 74
    0
 49
-6.35
 74
    0
  0
LTYPE
  5
43
330
5
100
AcDbSymbolTableRecord
100
AcDbLinetypeTableRecord
  2
BORDERTINY
 70
    0
  3
Border (.15x) __.__.__.__.__.__.__.__.__.__.__.
 72
   65
 73
    6
 40
6.6675
 49
1.905
 74
    0
 49
-0.9525
 74
    0
 49
1.905
 74
    0
 49
-0.9525
 74
    0
 49
0
 74
    0
 49
-0.9525
 74
    0
  0
LTYPE
  5
44
330
5
100
AcDbSymbolTableRecord
100
AcDbLinetypeTableRecord
  2
BORDER2
 70
    0
  3
Border (.5x) __.__.__.__.__.__.__.__.__.__.__.
 72
   65
 73
    6
 40
22.225
 49
6.35
 74
    0
 49
-3.175
 74
    0
 49
6.35
 74
    0
 49
-3.175
 74
    0
 49
0
 74
    0
 49
-3.175
 74
    0
  0
LTYPE
  5
45
330
5
100
AcDbSymbolTableRecord
100
AcDbLinetypeTableRecord
  2
BORDERX2
 70
    0
  3
Border (2x) ____  ____  .  ____  ____  .  ___
 72
   65
 73
    6
 40
88.89999999999999
 49
25.4
 74
    0
 49
-12.7
 74
    0
 49
25.4
 74
    0
 49
-12.7
 74
    0
 49
0
 74
    0
 49
-12.7
 74
    0
  0
LTYPE
  5
46
330
5
100
AcDbSymbolTableRecord
100
AcDbLinetypeTableRecord
  2
CENTER
 70
    0
  3
Center ____ _ ____ _ ____ _ ____ _ ____ _ ____
 72
   65
 73
    4
 40
50.8
 49
31.75
 74
    0
 49
-6.35
 74
    0
 49
6.35
 74
    0
 49
-6.35
 74
    0
  0
LTYPE
  5
47
330
5
100
AcDbSymbolTableRecord
100
AcDbLinetypeTableRecord
  2
CENTERTINY
 70
    0
  3
Center (.15x) ___ _ ___ _ ___ _ ___ _ ___ _ ___
 72
   65
 73
    4
 40
7.62
 49
4.7625
 74
    0
 49
-0.9525
 74
    0
 49
0.9525
 74
    0
 49
-0.9525
 74
    0
  0
LTYPE
  5
48
330
5
100
AcDbSymbolTableRecord
100
AcDbLinetypeTableRecord
  2
CENTER2
 70
    0
  3
Center (.5x) ___ _ ___ _ ___ _ ___ _ ___ _ ___
 72
   65
 73
    4
 40
28.575
 49
19.05
 74
    0
 49
-3.175
 74
    0
 49
3.175
 74
    0
 49
-3.175
 74
    0
  0
LTYPE
  5
49
330
5
100
AcDbSymbolTableRecord
100
AcDbLinetypeTableRecord
  2
CENTERX2
 70
    0
  3
Center (2x) ________  __  ________  __  _____
 72
   65
 73
    4
 40
101.6
 49
63.5
 74
    0
 49
-12.7
 74
    0
 49
12.7
 74
    0
 49
-12.7
 74
    0
  0
ENDTAB
  0
TABLE
  2
LAYER
  5
2
330
0
100
AcDbSymbolTable
 70
    1
  0
LAYER
  5
10
330
2
100
AcDbSymbolTableRecord
100
AcDbLayerTableRecord
  2
0
 70
    0
 62
    7
  6
CONTINUOUS
370
    0
390
F
  0
LAYER
  5
4A
330
2
100
AcDbSymbolTableRecord
100
AcDbLayerTableRecord
  2
DOOR
 70
    0
 62
    6
  6
CONTINUOUS
370
    0
390
F
  0
LAYER
  5
4B
330
2
100
AcDbSymbolTableRecord
100
AcDbLayerTableRecord
  2
STAIR
 70
    0
 62
    3
  6
CONTINUOUS
370
    0
390
F
  0
LAYER
  5
4C
330
2
100
AcDbSymbolTableRecord
100
AcDbLayerTableRecord
  2
TEXT
 70
    0
 62
    1
  6
CONTINUOUS
370
    0
390
F
  0
LAYER
  5
4D
330
2
100
AcDbSymbolTableRecord
100
AcDbLayerTableRecord
  2
WINDOWS
 70
    0
 62
    5
  6
CONTINUOUS
370
    0
390
F
  0
LAYER
  5
4E
330
2
100
AcDbSymbolTableRecord
100
AcDbLayerTableRecord
  2
dimension
 70
    0
 62
    4
  6
CONTINUOUS
370
    0
390
F
  0
LAYER
  5
4F
330
2
100
AcDbSymbolTableRecord
100
AcDbLayerTableRecord
  2
hatch
 70
    0
 62
   16
420
8388608
  6
CONTINUOUS
370
    0
390
F
  0
ENDTAB
  0
TABLE
  2
STYLE
  5
3
330
0
100
AcDbSymbolTable
 70
    3
  0
STYLE
  5
50
330
2
100
AcDbSymbolTableRecord
100
AcDbTextStyleTableRecord
  2
simplex
 70
    0
 40
0
 41
1
 50
0
 71
    0
 42
1
  3
simplex
  4

  0
STYLE
  5
51
330
2
100
AcDbSymbolTableRecord
100
AcDbTextStyleTableRecord
  2
Standard
 70
    0
 40
0
 41
1
 50
0
 71
    0
 42
1
  3
txt
  4

  0
ENDTAB
  0
TABLE
  2
VIEW
  5
6
330
0
100
AcDbSymbolTable
 70
    0
  0
ENDTAB
  0
TABLE
  2
UCS
  5
7
330
0
100
AcDbSymbolTable
 70
    0
  0
ENDTAB
  0
TABLE
  2
APPID
  5
9
330
0
100
AcDbSymbolTable
 70
    1
  0
APPID
  5
12
330
9
100
AcDbSymbolTableRecord
100
AcDbRegAppTableRecord
  2
ACAD
 70
    0
  0
APPID
  5
52
330
9
100
AcDbSymbolTableRecord
100
AcDbRegAppTableRecord
  2
LibreCad
 70
    0
  0
ENDTAB
  0
TABLE
  2
DIMSTYLE
  5
A
330
0
100
AcDbSymbolTable
 70
    1
100
AcDbDimStyleTable
 71
    1
  0
DIMSTYLE
105
53
330
A
100
AcDbSymbolTableRecord
100
AcDbDimStyleTableRecord
  2
Standard
 70
    0
 40
1.5
 41
5
 42
0.025
 43
0.38
 44
0.05
 45
0
 46
0
 47
0
 48
0
 49
0.0394
140
5
141
0.09
142
5
143
25.4
144
1
145
0
146
1
147
3
148
0
 71
    0
 72
    0
 73
    0
 74
    1
 75
    0
 76
    0
 77
    0
 78
    1
 79
    0
170
    0
171
    2
172
    0
173
    0
174
    0
175
    0
176
  256
177
    0
178
  256
179
    2
271
    0
272
    4
273
    2
274
    2
275
    0
276
    0
277
    4
278
    0
279
    0
280
    0
281
    0
282
    0
283
    1
284
    0
285
    0
286
    0
288
    0
289
    3
340
simplex
341

371
   -1
372
   -2
  0
ENDTAB
  0
TABLE
  2
BLOCK_RECORD
  5
1
330
0
100
AcDbSymbolTable
 70
    2
  0
BLOCK_RECORD
  5
1F
330
1
100
AcDbSymbolTableRecord
100
AcDbBlockTableRecord
  2
*Model_Space
 70
    0
280
    1
281
    0
  0
BLOCK_RECORD
  5
1E
330
1
100
AcDbSymbolTableRecord
100
AcDbBlockTableRecord
  2
*Paper_Space
 70
    0
280
    1
281
    0
  0
BLOCK_RECORD
  5
54
330
1
100
AcDbSymbolTableRecord
100
AcDbBlockTableRecord
  2
*D13
 70
    0
280
    1
281
    0
  0
BLOCK_RECORD
  5
57
330
1
100
AcDbSymbolTableRecord
100
AcDbBlockTableRecord
  2
*D7
 70
    0
280
    1
281
    0
  0
BLOCK_RECORD
  5
5A
330
1
100
AcDbSymbolTableRecord
100
AcDbBlockTableRecord
  2
*D10
 70
    0
280
    1
281
    0
  0
BLOCK_RECORD
  5
5D
330
1
100
AcDbSymbolTableRecord
100
AcDbBlockTableRecord
  2
*D12
 70
    0
280
    1
281
    0
  0
BLOCK_RECORD
  5
60
330
1
100
AcDbSymbolTableRecord
100
AcDbBlockTableRecord
  2
*D6
 70
    0
280
    1
281
    0
  0
BLOCK_RECORD
  5
63
330
1
100
AcDbSymbolTableRecord
100
AcDbBlockTableRecord
  2
*D11
 70
    0
280
    1
281
    0
  0
BLOCK_RECORD
  5
66
330
1
100
AcDbSymbolTableRecord
100
AcDbBlockTableRecord
  2
*D9
 70
    0
280
    1
281
    0
  0
BLOCK_RECORD
  5
69
330
1
100
AcDbSymbolTableRecord
100
AcDbBlockTableRecord
  2
*D4
 70
    0
280
    1
281
    0
  0
BLOCK_RECORD
  5
6C
330
1
100
AcDbSymbolTableRecord
100
AcDbBlockTableRecord
  2
*D5
 70
    0
280
    1
281
    0
  0
BLOCK_RECORD
  5
6F
330
1
100
AcDbSymbolTableRecord
100
AcDbBlockTableRecord
  2
*D2
 70
    0
280
    1
281
    0
  0
BLOCK_RECORD
  5
72
330
1
100
AcDbSymbolTableRecord
100
AcDbBlockTableRecord
  2
*D3
 70
    0
280
    1
281
    0
  0
BLOCK_RECORD
  5
75
330
1
100
AcDbSymbolTableRecord
100
AcDbBlockTableRecord
  2
*D1
 70
    0
280
    1
281
    0
  0
BLOCK_RECORD
  5
78
330
1
100
AcDbSymbolTableRecord
100
AcDbBlockTableRecord
  2
*D8
 70
    0
280
    1
281
    0
  0
BLOCK_RECORD
  5
7B
330
1
100
AcDbSymbolTableRecord
100
AcDbBlockTableRecord
  2
*D14
 70
    0
280
    1
281
    0
  0
BLOCK_RECORD
  5
7E
330
1
100
AcDbSymbolTableRecord
100
AcDbBlockTableRecord
  2
door 1
 70
    0
280
    1
281
    0
  0
BLOCK_RECORD
  5
81
330
1
100
AcDbSymbolTableRecord
100
AcDbBlockTableRecord
  2
door 2
 70
    0
280
    1
281
    0
  0
BLOCK_RECORD
  5
84
330
1
100
AcDbSymbolTableRecord
100
AcDbBlockTableRecord
  2
window 4'
 70
    0
280
    1
281
    0
  0
BLOCK_RECORD
  5
87
330
1
100
AcDbSymbolTableRecord
100
AcDbBlockTableRecord
  2
window 3'
 70
    0
280
    1
281
    0
  0
BLOCK_RECORD
  5
8A
330
1
100
AcDbSymbolTableRecord
100
AcDbBlockTableRecord
  2
v
 70
    0
280
    1
281
    0
  0
ENDTAB
  0
ENDSEC
  0
SECTION
  2
BLOCKS
  0
BLOCK
  5
20
330
1F
100
AcDbEntity
  8
0
100
AcDbBlockBegin
  2
*Model_Space
 70
    0
 10
0
 20
0
 30
0
  3
*Model_Space
  1

  0
ENDBLK
  5
21
330
1F
100
AcDbEntity
  8
0
100
AcDbBlockEnd
  0
BLOCK
  5
1C
330
1B
100
AcDbEntity
  8
0
100
AcDbBlockBegin
  2
*Paper_Space
 70
    0
 10
0
 20
0
 30
0
  3
*Paper_Space
  1

  0
ENDBLK
  5
1D
330
1F
100
AcDbEntity
  8
0
100
AcDbBlockEnd
  0
BLOCK
  5
55
330
54
100
AcDbEntity
  8
0
100
AcDbBlockBegin
  2
*D13
 70
    1
 10
0
 20
0
  3
*D13
  1

  0
LINE
  5
8D
100
AcDbEntity
  8
dimension
  6
ByBlock
 62
    0
370
   -2
100
AcDbLine
 10
-14225.26301434282
 20
116045.9710941688
 11
-14225.26301434282
 21
116066.8250125619
  0
LINE
  5
8E
100
AcDbEntity
  8
dimension
  6
ByBlock
 62
    0
370
   -2
100
AcDbLine
 10
-14152.26301434282
 20
116045.9710941688
 11
-14152.26301434282
 21
116066.8250125619
  0
LINE
  5
8F
100
AcDbEntity
  8
dimension
  6
ByBlock
 62
  256
370
   -1
100
AcDbLine
 10
-14225.26301434282
 20
116066.7500125619
 11
-14152.26301434282
 21
116066.7500125619
  0
MTEXT
  5
90
100
AcDbEntity
  8
dimension
  6
CONTINUOUS
 62
  256
370
   -2
100
AcDbMText
 10
-14188.76301434282
 20
116075.0000125619
 30
0
 40
7.5
 41
26.4285775
 71
    5
 72
    1
  1
6'-1"
  7
simplex
210
0
220
0
230
1
 50
0
 73
    2
 44
1
  0
LINE
  5
91
100
AcDbEntity
  8
dimension
  6
ByBlock
 62
  256
370
   -1
100
AcDbLine
 10
-14219.95971348392
 20
116072.0533134208
 11
-14230.56631520172
 21
116061.446711703
  0
LINE
  5
92
100
AcDbEntity
  8
dimension
  6
ByBlock
 62
  256
370
   -1
100
AcDbLine
 10
-14146.95971348392
 20
116072.0533134208
 11
-14157.56631520172
 21
116061.446711703
  0
ENDBLK
  5
56
330
54
100
AcDbEntity
  8
0
100
AcDbBlockEnd
  0
BLOCK
  5
58
330
57
100
AcDbEntity
  8
0
100
AcDbBlockBegin
  2
*D7
 70
    1
 10
0
 20
0
  3
*D7
  1

  0
LINE
  5
93
100
AcDbEntity
  8
dimension
  6
ByBlock
 62
    0
370
   -2
100
AcDbLine
 10
-14336.26301434282
 20
115815.8960941688
 11
-14336.2630143428
 21
115781.9250124608
  0
LINE
  5
94
100
AcDbEntity
  8
dimension
  6
ByBlock
 62
    0
370
   -2
100
AcDbLine
 10
-14147.25727403288
 20
115815.8960941689
 11
-14147.25727403286
 21
115781.9250124609
  0
LINE
  5
95
100
AcDbEntity
  8
dimension
  6
ByBlock
 62
  256
370
   -1
100
AcDbLine
 10
-14336.2630143428
 20
115782.0000124608
 11
-14147.25727403286
 21
115782.0000124609
  0
MTEXT
  5
96
100
AcDbEntity
  8
dimension
  6
CONTINUOUS
 62
  256
370
   -2
100
AcDbMText
 10
-14241.76014418784
 20
115790.2500124608
 30
0
 40
7.5
 41
33.9285775
 71
    5
 72
    1
  1
15'-9"
  7
simplex
210
0
220
0
230
1
 50
3.087918541557547e-11
 73
    2
 44
1
  0
LINE
  5
97
100
AcDbEntity
  8
dimension
  6
ByBlock
 62
  256
370
   -1
100
AcDbLine
 10
-14330.95971348391
 20
115787.3033133197
 11
-14341.5663152017
 21
115776.6967116019
  0
LINE
  5
98
100
AcDbEntity
  8
dimension
  6
ByBlock
 62
  256
370
   -1
100
AcDbLine
 10
-14141.95397317397
 20
115787.3033133198
 11
-14152.56057489176
 21
115776.696711602
  0
ENDBLK
  5
59
330
57
100
AcDbEntity
  8
0
100
AcDbBlockEnd
  0
BLOCK
  5
5B
330
5A
100
AcDbEntity
  8
0
100
AcDbBlockBegin
  2
*D10
 70
    1
 10
0
 20
0
  3
*D10
  1

  0
LINE
  5
99
100
AcDbEntity
  8
dimension
  6
ByBlock
 62
    0
370
   -2
100
AcDbLine
 10
-14574.26301434282
 20
116045.9710941688
 11
-14574.26301434282
 21
116067.5772112819
  0
LINE
  5
9A
100
AcDbEntity
  8
dimension
  6
ByBlock
 62
    0
370
   -2
100
AcDbLine
 10
-14496.26301434282
 20
116045.9710941688
 11
-14496.26301434282
 21
116067.5772112819
  0
LINE
  5
9B
100
AcDbEntity
  8
dimension
  6
ByBlock
 62
  256
370
   -1
100
AcDbLine
 10
-14574.26301434282
 20
116067.5022112819
 11
-14496.26301434282
 21
116067.5022112819
  0
MTEXT
  5
9C
100
AcDbEntity
  8
dimension
  6
CONTINUOUS
 62
  256
370
   -2
100
AcDbMText
 10
-14535.26301434282
 20
116075.7522112819
 30
0
 40
7.5
 41
29.28571916666667
 71
    5
 72
    1
  1
6'-6"
  7
simplex
210
0
220
0
230
1
 50
0
 73
    2
 44
1
  0
LINE
  5
9D
100
AcDbEntity
  8
dimension
  6
ByBlock
 62
  256
370
   -1
100
AcDbLine
 10
-14568.95971348392
 20
116072.8055121408
 11
-14579.56631520172
 21
116062.198910423
  0
LINE
  5
9E
100
AcDbEntity
  8
dimension
  6
ByBlock
 62
  256
370
   -1
100
AcDbLine
 10
-14490.95971348392
 20
116072.8055121408
 11
-14501.56631520172
 21
116062.198910423
  0
ENDBLK
  5
5C
330
5A
100
AcDbEntity
  8
0
100
AcDbBlockEnd
  0
BLOCK
  5
5E
330
5D
100
AcDbEntity
  8
0
100
AcDbBlockBegin
  2
*D12
 70
    1
 10
0
 20
0
  3
*D12
  1

  0
LINE
  5
9F
100
AcDbEntity
  8
dimension
  6
ByBlock
 62
    0
370
   -2
100
AcDbLine
 10
-14357.26301434282
 20
116045.9710941688
 11
-14357.26301434282
 21
116067.357334444
  0
LINE
  5
A0
100
AcDbEntity
  8
dimension
  6
ByBlock
 62
    0
370
   -2
100
AcDbLine
 10
-14230.26301434282
 20
116045.9710941688
 11
-14230.26301434282
 21
116067.357334444
  0
LINE
  5
A1
100
AcDbEntity
  8
dimension
  6
ByBlock
 62
  256
370
   -1
100
AcDbLine
 10
-14357.26301434282
 20
116067.282334444
 11
-14230.26301434282
 21
116067.282334444
  0
MTEXT
  5
A2
100
AcDbEntity
  8
dimension
  6
CONTINUOUS
 62
  256
370
   -2
100
AcDbMText
 10
-14293.76301434282
 20
116075.532334444
 30
0
 40
7.5
 41
34.28571916666667
 71
    5
 72
    1
  1
10'-7"
  7
simplex
210
0
220
0
230
1
 50
0
 73
    2
 44
1
  0
LINE
  5
A3
100
AcDbEntity
  8
dimension
  6
ByBlock
 62
  256
370
   -1
100
AcDbLine
 10
-14351.95971348392
 20
116072.5856353029
 11
-14362.56631520172
 21
116061.9790335851
  0
LINE
  5
A4
100
AcDbEntity
  8
dimension
  6
ByBlock
 62
  256
370
   -1
100
AcDbLine
 10
-14224.95971348392
 20
116072.5856353029
 11
-14235.56631520172
 21
116061.9790335851
  0
ENDBLK
  5
5F
330
5D
100
AcDbEntity
  8
0
100
AcDbBlockEnd
  0
BLOCK
  5
61
330
60
100
AcDbEntity
  8
0
100
AcDbBlockBegin
  2
*D6
 70
    1
 10
0
 20
0
  3
*D6
  1

  0
LINE
  5
A5
100
AcDbEntity
  8
dimension
  6
ByBlock
 62
    0
370
   -2
100
AcDbLine
 10
-14439.26301434282
 20
115815.8960941688
 11
-14439.26301434282
 21
115782.2558059205
  0
LINE
  5
A6
100
AcDbEntity
  8
dimension
  6
ByBlock
 62
    0
370
   -2
100
AcDbLine
 10
-14341.26301434282
 20
115815.8960941688
 11
-14341.26301434282
 21
115782.2558059205
  0
LINE
  5
A7
100
AcDbEntity
  8
dimension
  6
ByBlock
 62
  256
370
   -1
100
AcDbLine
 10
-14439.26301434282
 20
115782.3308059205
 11
-14341.26301434282
 21
115782.3308059205
  0
MTEXT
  5
A8
100
AcDbEntity
  8
dimension
  6
CONTINUOUS
 62
  256
370
   -2
100
AcDbMText
 10
-14390.26301434282
 20
115790.5808059205
 30
0
 40
7.5
 41
30.0000025
 71
    5
 72
    1
  1
8'-2"
  7
simplex
210
0
220
0
230
1
 50
0
 73
    2
 44
1
  0
LINE
  5
A9
100
AcDbEntity
  8
dimension
  6
ByBlock
 62
  256
370
   -1
100
AcDbLine
 10
-14433.95971348392
 20
115787.6341067794
 11
-14444.56631520172
 21
115777.0275050616
  0
LINE
  5
AA
100
AcDbEntity
  8
dimension
  6
ByBlock
 62
  256
370
   -1
100
AcDbLine
 10
-14335.95971348392
 20
115787.6341067794
 11
-14346.56631520172
 21
115777.0275050616
  0
ENDBLK
  5
62
330
60
100
AcDbEntity
  8
0
100
AcDbBlockEnd
  0
BLOCK
  5
64
330
63
100
AcDbEntity
  8
0
100
AcDbBlockBegin
  2
*D11
 70
    1
 10
0
 20
0
  3
*D11
  1

  0
LINE
  5
AB
100
AcDbEntity
  8
dimension
  6
ByBlock
 62
    0
370
   -2
100
AcDbLine
 10
-14491.26301434282
 20
116045.9710941688
 11
-14491.26301434282
 21
116067.357334413
  0
LINE
  5
AC
100
AcDbEntity
  8
dimension
  6
ByBlock
 62
    0
370
   -2
100
AcDbLine
 10
-14362.26301434282
 20
116045.9710941688
 11
-14362.26301434282
 21
116067.357334413
  0
LINE
  5
AD
100
AcDbEntity
  8
dimension
  6
ByBlock
 62
  256
370
   -1
100
AcDbLine
 10
-14491.26301434282
 20
116067.282334413
 11
-14362.26301434282
 21
116067.282334413
  0
MTEXT
  5
AE
100
AcDbEntity
  8
dimension
  6
CONTINUOUS
 62
  256
370
   -2
100
AcDbMText
 10
-14426.76301434282
 20
116075.532334413
 30
0
 40
7.5
 41
33.9285775
 71
    5
 72
    1
  1
10'-9"
  7
simplex
210
0
220
0
230
1
 50
0
 73
    2
 44
1
  0
LINE
  5
AF
100
AcDbEntity
  8
dimension
  6
ByBlock
 62
  256
370
   -1
100
AcDbLine
 10
-14485.95971348392
 20
116072.5856352719
 11
-14496.56631520172
 21
116061.9790335541
  0
LINE
  5
B0
100
AcDbEntity
  8
dimension
  6
ByBlock
 62
  256
370
   -1
100
AcDbLine
 10
-14356.95971348392
 20
116072.5856352719
 11
-14367.56631520172
 21
116061.9790335541
  0
ENDBLK
  5
65
330
63
100
AcDbEntity
  8
0
100
AcDbBlockEnd
  0
BLOCK
  5
67
330
66
100
AcDbEntity
  8
0
100
AcDbBlockBegin
  2
*D9
 70
    1
 10
0
 20
0
  3
*D9
  1

  0
LINE
  5
B1
100
AcDbEntity
  8
dimension
  6
ByBlock
 62
    0
370
   -2
100
AcDbLine
 10
-14147.22551434282
 20
116050.9335941688
 11
-14123.93062691931
 21
116050.9335941688
  0
LINE
  5
B2
100
AcDbEntity
  8
dimension
  6
ByBlock
 62
    0
370
   -2
100
AcDbLine
 10
-14147.22551434282
 20
115927.9335941688
 11
-14123.93062691931
 21
115927.9335941688
  0
LINE
  5
B3
100
AcDbEntity
  8
dimension
  6
ByBlock
 62
  256
370
   -1
100
AcDbLine
 10
-14124.00562691931
 20
116050.9335941688
 11
-14124.00562691931
 21
115927.9335941688
  0
MTEXT
  5
B4
100
AcDbEntity
  8
dimension
  6
CONTINUOUS
 62
  256
370
   -2
100
AcDbMText
 10
-14132.25562691931
 20
115989.4335941688
 30
0
 40
7.5
 41
34.28571916666667
 71
    5
 72
    1
  1
10'-3"
  7
simplex
210
0
220
0
230
1
 50
90
 73
    2
 44
1
  0
LINE
  5
B5
100
AcDbEntity
  8
dimension
  6
ByBlock
 62
  256
370
   -1
100
AcDbLine
 10
-14118.70232606041
 20
116045.6302933099
 11
-14129.30892777821
 21
116056.2368950277
  0
LINE
  5
B6
100
AcDbEntity
  8
dimension
  6
ByBlock
 62
  256
370
   -1
100
AcDbLine
 10
-14118.70232606041
 20
115922.6302933099
 11
-14129.30892777821
 21
115933.2368950277
  0
ENDBLK
  5
68
330
66
100
AcDbEntity
  8
0
100
AcDbBlockEnd
  0
BLOCK
  5
6A
330
69
100
AcDbEntity
  8
0
100
AcDbBlockBegin
  2
*D4
 70
    1
 10
0
 20
0
  3
*D4
  1

  0
LINE
  5
B7
100
AcDbEntity
  8
dimension
  6
ByBlock
 62
    0
370
   -2
100
AcDbLine
 10
-14574.30051434282
 20
115927.9335941688
 11
-14610.29764765693
 21
115927.9335941688
  0
LINE
  5
B8
100
AcDbEntity
  8
dimension
  6
ByBlock
 62
    0
370
   -2
100
AcDbLine
 10
-14574.30051434282
 20
115815.9335941688
 11
-14610.29764765693
 21
115815.9335941688
  0
LINE
  5
B9
100
AcDbEntity
  8
dimension
  6
ByBlock
 62
  256
370
   -1
100
AcDbLine
 10
-14610.22264765693
 20
115927.9335941688
 11
-14610.22264765693
 21
115815.9335941688
  0
MTEXT
  5
BA
100
AcDbEntity
  8
dimension
  6
CONTINUOUS
 62
  256
370
   -2
100
AcDbMText
 10
-14618.47264765693
 20
115871.9335941688
 30
0
 40
7.5
 41
30.0000025
 71
    5
 72
    1
  1
9'-4"
  7
simplex
210
0
220
0
230
1
 50
90
 73
    2
 44
1
  0
LINE
  5
BB
100
AcDbEntity
  8
dimension
  6
ByBlock
 62
  256
370
   -1
100
AcDbLine
 10
-14604.91934679803
 20
115922.6302933099
 11
-14615.52594851583
 21
115933.2368950277
  0
LINE
  5
BC
100
AcDbEntity
  8
dimension
  6
ByBlock
 62
  256
370
   -1
100
AcDbLine
 10
-14604.91934679803
 20
115810.6302933099
 11
-14615.52594851583
 21
115821.2368950277
  0
ENDBLK
  5
6B
330
69
100
AcDbEntity
  8
0
100
AcDbBlockEnd
  0
BLOCK
  5
6D
330
6C
100
AcDbEntity
  8
0
100
AcDbBlockBegin
  2
*D5
 70
    1
 10
0
 20
0
  3
*D5
  1

  0
LINE
  5
BD
100
AcDbEntity
  8
dimension
  6
ByBlock
 62
    0
370
   -2
100
AcDbLine
 10
-14574.26301434282
 20
115815.8960941688
 11
-14574.26301434282
 21
115782.2558059137
  0
LINE
  5
BE
100
AcDbEntity
  8
dimension
  6
ByBlock
 62
    0
370
   -2
100
AcDbLine
 10
-14444.26301434282
 20
115815.8960941688
 11
-14444.26301434282
 21
115782.2558059137
  0
LINE
  5
BF
100
AcDbEntity
  8
dimension
  6
ByBlock
 62
  256
370
   -1
100
AcDbLine
 10
-14574.26301434282
 20
115782.3308059137
 11
-14444.26301434282
 21
115782.3308059137
  0
MTEXT
  5
C0
100
AcDbEntity
  8
dimension
  6
CONTINUOUS
 62
  256
370
   -2
100
AcDbMText
 10
-14509.26301434282
 20
115790.5808059137
 30
0
 40
7.5
 41
38.57143583333333
 71
    5
 72
    1
  1
10'-10"
  7
simplex
210
0
220
0
230
1
 50
0
 73
    2
 44
1
  0
LINE
  5
C1
100
AcDbEntity
  8
dimension
  6
ByBlock
 62
  256
370
   -1
100
AcDbLine
 10
-14568.95971348392
 20
115787.6341067726
 11
-14579.56631520172
 21
115777.0275050548
  0
LINE
  5
C2
100
AcDbEntity
  8
dimension
  6
ByBlock
 62
  256
370
   -1
100
AcDbLine
 10
-14438.95971348392
 20
115787.6341067726
 11
-14449.56631520172
 21
115777.0275050548
  0
ENDBLK
  5
6E
330
6C
100
AcDbEntity
  8
0
100
AcDbBlockEnd
  0
BLOCK
  5
70
330
6F
100
AcDbEntity
  8
0
100
AcDbBlockBegin
  2
*D2
 70
    1
 10
0
 20
0
  3
*D2
  1

  0
LINE
  5
C3
100
AcDbEntity
  8
dimension
  6
ByBlock
 62
    0
370
   -2
100
AcDbLine
 10
-14574.30051434282
 20
116045.9335941688
 11
-14609.79355916809
 21
116045.9335941688
  0
LINE
  5
C4
100
AcDbEntity
  8
dimension
  6
ByBlock
 62
    0
370
   -2
100
AcDbLine
 10
-14574.30051434282
 20
115981.9335941689
 11
-14609.79355916809
 21
115981.9335941689
  0
LINE
  5
C5
100
AcDbEntity
  8
dimension
  6
ByBlock
 62
  256
370
   -1
100
AcDbLine
 10
-14609.71855916808
 20
116045.9335941688
 11
-14609.71855916808
 21
115981.9335941689
  0
MTEXT
  5
C6
100
AcDbEntity
  8
dimension
  6
CONTINUOUS
 62
  256
370
   -2
100
AcDbMText
 10
-14617.96855916808
 20
116013.9335941689
 30
0
 40
7.5
 41
30.35714416666667
 71
    5
 72
    1
  1
5'-4"
  7
simplex
210
0
220
0
230
1
 50
90
 73
    2
 44
1
  0
LINE
  5
C7
100
AcDbEntity
  8
dimension
  6
ByBlock
 62
  256
370
   -1
100
AcDbLine
 10
-14604.41525830919
 20
116040.6302933099
 11
-14615.02186002698
 21
116051.2368950277
  0
LINE
  5
C8
100
AcDbEntity
  8
dimension
  6
ByBlock
 62
  256
370
   -1
100
AcDbLine
 10
-14604.41525830919
 20
115976.63029331
 11
-14615.02186002698
 21
115987.2368950278
  0
ENDBLK
  5
71
330
6F
100
AcDbEntity
  8
0
100
AcDbBlockEnd
  0
BLOCK
  5
73
330
72
100
AcDbEntity
  8
0
100
AcDbBlockBegin
  2
*D3
 70
    1
 10
0
 20
0
  3
*D3
  1

  0
LINE
  5
C9
100
AcDbEntity
  8
dimension
  6
ByBlock
 62
    0
370
   -2
100
AcDbLine
 10
-14574.30051434282
 20
115976.9335941688
 11
-14610.29836079281
 21
115976.9335941688
  0
LINE
  5
CA
100
AcDbEntity
  8
dimension
  6
ByBlock
 62
    0
370
   -2
100
AcDbLine
 10
-14574.30051434282
 20
115932.9335941688
 11
-14610.29836079281
 21
115932.9335941688
  0
LINE
  5
CB
100
AcDbEntity
  8
dimension
  6
ByBlock
 62
  256
370
   -1
100
AcDbLine
 10
-14610.22336079281
 20
115976.9335941688
 11
-14610.22336079281
 21
115932.9335941688
  0
MTEXT
  5
CC
100
AcDbEntity
  8
dimension
  6
CONTINUOUS
 62
  256
370
   -2
100
AcDbMText
 10
-14618.47336079281
 20
115954.9335941688
 30
0
 40
7.5
 41
30.0000025
 71
    5
 72
    1
  1
3'-8"
  7
simplex
210
0
220
0
230
1
 50
90
 73
    2
 44
1
  0
LINE
  5
CD
100
AcDbEntity
  8
dimension
  6
ByBlock
 62
  256
370
   -1
100
AcDbLine
 10
-14604.92005993391
 20
115971.6302933099
 11
-14615.52666165171
 21
115982.2368950277
  0
LINE
  5
CE
100
AcDbEntity
  8
dimension
  6
ByBlock
 62
  256
370
   -1
100
AcDbLine
 10
-14604.92005993391
 20
115927.6302933099
 11
-14615.52666165171
 21
115938.2368950277
  0
ENDBLK
  5
74
330
72
100
AcDbEntity
  8
0
100
AcDbBlockEnd
  0
BLOCK
  5
76
330
75
100
AcDbEntity
  8
0
100
AcDbBlockBegin
  2
*D1
 70
    1
 10
0
 20
0
  3
*D1
  1

  0
LINE
  5
CF
100
AcDbEntity
  8
dimension
  6
ByBlock
 62
    0
370
   -2
100
AcDbLine
 10
-14579.30051434282
 20
116050.9335941688
 11
-14633.89688929024
 21
116050.9335941688
  0
LINE
  5
D0
100
AcDbEntity
  8
dimension
  6
ByBlock
 62
    0
370
   -2
100
AcDbLine
 10
-14579.30051434282
 20
115810.9335941688
 11
-14633.89688929024
 21
115810.9335941688
  0
LINE
  5
D1
100
AcDbEntity
  8
dimension
  6
ByBlock
 62
  256
370
   -1
100
AcDbLine
 10
-14633.82188929024
 20
116050.9335941688
 11
-14633.82188929024
 21
115810.9335941688
  0
MTEXT
  5
D2
100
AcDbEntity
  8
dimension
  6
CONTINUOUS
 62
  256
370
   -2
100
AcDbMText
 10
-14642.07188929024
 20
115930.9335941688
 30
0
 40
7.5
 41
37.5000025
 71
    5
 72
    1
  1
20'-0"
  7
simplex
210
0
220
0
230
1
 50
90
 73
    2
 44
1
  0
LINE
  5
D3
100
AcDbEntity
  8
dimension
  6
ByBlock
 62
  256
370
   -1
100
AcDbLine
 10
-14628.51858843134
 20
116045.6302933099
 11
-14639.12519014914
 21
116056.2368950277
  0
LINE
  5
D4
100
AcDbEntity
  8
dimension
  6
ByBlock
 62
  256
370
   -1
100
AcDbLine
 10
-14628.51858843134
 20
115805.6302933099
 11
-14639.12519014914
 21
115816.2368950277
  0
ENDBLK
  5
77
330
75
100
AcDbEntity
  8
0
100
AcDbBlockEnd
  0
BLOCK
  5
79
330
78
100
AcDbEntity
  8
0
100
AcDbBlockBegin
  2
*D8
 70
    1
 10
0
 20
0
  3
*D8
  1

  0
LINE
  5
D5
100
AcDbEntity
  8
dimension
  6
ByBlock
 62
    0
370
   -2
100
AcDbLine
 10
-14147.22551434282
 20
115810.9335941688
 11
-14124.67500152016
 21
115810.9335941688
  0
LINE
  5
D6
100
AcDbEntity
  8
dimension
  6
ByBlock
 62
    0
370
   -2
100
AcDbLine
 10
-14147.22551434282
 20
115927.9335941688
 11
-14124.67500152016
 21
115927.9335941688
  0
LINE
  5
D7
100
AcDbEntity
  8
dimension
  6
ByBlock
 62
  256
370
   -1
100
AcDbLine
 10
-14124.75000152016
 20
115810.9335941688
 11
-14124.75000152016
 21
115927.9335941688
  0
MTEXT
  5
D8
100
AcDbEntity
  8
dimension
  6
CONTINUOUS
 62
  256
370
   -2
100
AcDbMText
 10
-14133.00000152016
 20
115869.4335941688
 30
0
 40
7.5
 41
29.28571916666667
 71
    5
 72
    1
  1
9'-9"
  7
simplex
210
0
220
0
230
1
 50
90
 73
    2
 44
1
  0
LINE
  5
D9
100
AcDbEntity
  8
dimension
  6
ByBlock
 62
  256
370
   -1
100
AcDbLine
 10
-14130.05330237906
 20
115816.2368950277
 11
-14119.44670066126
 21
115805.6302933099
  0
LINE
  5
DA
100
AcDbEntity
  8
dimension
  6
ByBlock
 62
  256
370
   -1
100
AcDbLine
 10
-14130.05330237906
 20
115933.2368950277
 11
-14119.44670066126
 21
115922.6302933099
  0
ENDBLK
  5
7A
330
78
100
AcDbEntity
  8
0
100
AcDbBlockEnd
  0
BLOCK
  5
7C
330
7B
100
AcDbEntity
  8
0
100
AcDbBlockBegin
  2
*D14
 70
    1
 10
0
 20
0
  3
*D14
  1

  0
LINE
  5
DB
100
AcDbEntity
  8
dimension
  6
ByBlock
 62
    0
370
   -2
100
AcDbLine
 10
-14579.26301434282
 20
115810.8960941688
 11
-14579.26301434282
 21
115740.0088945192
  0
LINE
  5
DC
100
AcDbEntity
  8
dimension
  6
ByBlock
 62
    0
370
   -2
100
AcDbLine
 10
-14147.26301434282
 20
115810.8960941688
 11
-14147.26301434282
 21
115740.0088945192
  0
LINE
  5
DD
100
AcDbEntity
  8
dimension
  6
ByBlock
 62
  256
370
   -1
100
AcDbLine
 10
-14579.26301434282
 20
115740.0838945192
 11
-14147.26301434282
 21
115740.0838945192
  0
MTEXT
  5
DE
100
AcDbEntity
  8
dimension
  6
CONTINUOUS
 62
  256
370
   -2
100
AcDbMText
 10
-14363.26301434282
 20
115748.3338945192
 30
0
 40
7.5
 41
37.14286083333333
 71
    5
 72
    1
  1
36'-0"
  7
simplex
210
0
220
0
230
1
 50
0
 73
    2
 44
1
  0
LINE
  5
DF
100
AcDbEntity
  8
dimension
  6
ByBlock
 62
  256
370
   -1
100
AcDbLine
 10
-14573.95971348392
 20
115745.3871953781
 11
-14584.56631520172
 21
115734.7805936603
  0
LINE
  5
E0
100
AcDbEntity
  8
dimension
  6
ByBlock
 62
  256
370
   -1
100
AcDbLine
 10
-14141.95971348392
 20
115745.3871953781
 11
-14152.56631520172
 21
115734.7805936603
  0
ENDBLK
  5
7D
330
7B
100
AcDbEntity
  8
0
100
AcDbBlockEnd
  0
BLOCK
  5
7F
330
7E
100
AcDbEntity
  8
0
100
AcDbBlockBegin
  2
door 1
 70
    0
 10
0
 20
0
  3
door 1
  1

  0
LINE
  5
E1
100
AcDbEntity
  8
DOOR
  6
ByLayer
 62
  256
370
   -1
100
AcDbLine
 10
2.999999999998181
 20
0
 11
5.999999999998181
 21
0
  0
LINE
  5
E2
100
AcDbEntity
  8
DOOR
  6
ByLayer
 62
  256
370
   -1
100
AcDbLine
 10
2.999999999998181
 20
36
 11
5.999999999998181
 21
36
  0
LINE
  5
E3
100
AcDbEntity
  8
DOOR
  6
ByLayer
 62
  256
370
   -1
100
AcDbLine
 10
5.999999999998181
 20
0
 11
5.999999999998181
 21
36
  0
LINE
  5
E4
100
AcDbEntity
  8
DOOR
  6
ByLayer
 62
  256
370
   -1
100
AcDbLine
 10
2.999999999998181
 20
36
 11
2.999999999998181
 21
0
  0
LINE
  5
E5
100
AcDbEntity
  8
DOOR
  6
ByLayer
 62
  256
370
   -1
100
AcDbLine
 10
3
 20
0
 11
0
 21
0
  0
LINE
  5
E6
100
AcDbEntity
  8
DOOR
  6
ByLayer
 62
  256
370
   -1
100
AcDbLine
 10
3
 20
-5
 11
0
 21
-5
  0
LINE
  5
E7
100
AcDbEntity
  8
DOOR
  6
ByLayer
 62
  256
370
   -1
100
AcDbLine
 10
3
 20
0
 11
3
 21
-5
  0
LINE
  5
E8
100
AcDbEntity
  8
DOOR
  6
ByLayer
 62
  256
370
   -1
100
AcDbLine
 10
0
 20
0
 11
0
 21
-5
  0
ARC
  5
E9
100
AcDbEntity
  8
DOOR
  6
ByLayer
 62
  256
370
   -1
100
AcDbCircle
 10
6
 20
0
 40
36
100
AcDbArc
 50
0
 51
90
  0
LINE
  5
EA
100
AcDbEntity
  8
DOOR
  6
ByLayer
 62
  256
370
   -1
100
AcDbLine
 10
45
 20
0
 11
42
 21
0
  0
LINE
  5
EB
100
AcDbEntity
  8
DOOR
  6
ByLayer
 62
  256
370
   -1
100
AcDbLine
 10
45
 20
-5
 11
42
 21
-5
  0
LINE
  5
EC
100
AcDbEntity
  8
DOOR
  6
ByLayer
 62
  256
370
   -1
100
AcDbLine
 10
45
 20
0
 11
45
 21
-5
  0
LINE
  5
ED
100
AcDbEntity
  8
DOOR
  6
ByLayer
 62
  256
370
   -1
100
AcDbLine
 10
42
 20
0
 11
42
 21
-5
  0
ENDBLK
  5
80
330
7E
100
AcDbEntity
  8
0
100
AcDbBlockEnd
  0
BLOCK
  5
82
330
81
100
AcDbEntity
  8
0
100
AcDbBlockBegin
  2
door 2
 70
    0
 10
0
 20
0
  3
door 2
  1

  0
LINE
  5
EE
100
AcDbEntity
  8
DOOR
  6
ByLayer
 62
  256
370
   -1
100
AcDbLine
 10
6
 20
29
 11
3
 21
29
  0
LINE
  5
EF
100
AcDbEntity
  8
DOOR
  6
ByLayer
 62
  256
370
   -1
100
AcDbLine
 10
6
 20
0
 11
3
 21
0
  0
LINE
  5
F0
100
AcDbEntity
  8
DOOR
  6
ByLayer
 62
  256
370
   -1
100
AcDbLine
 10
3
 20
0
 11
3
 21
29
  0
LINE
  5
F1
100
AcDbEntity
  8
DOOR
  6
ByLayer
 62
  256
370
   -1
100
AcDbLine
 10
6
 20
29
 11
6
 21
0
  0
LINE
  5
F2
100
AcDbEntity
  8
DOOR
  6
ByLayer
 62
  256
370
   -1
100
AcDbLine
 10
3
 20
0
 11
0
 21
0
  0
LINE
  5
F3
100
AcDbEntity
  8
DOOR
  6
ByLayer
 62
  256
370
   -1
100
AcDbLine
 10
3
 20
-5
 11
0
 21
-5
  0
LINE
  5
F4
100
AcDbEntity
  8
DOOR
  6
ByLayer
 62
  256
370
   -1
100
AcDbLine
 10
0
 20
-5
 11
0
 21
0
  0
LINE
  5
F5
100
AcDbEntity
  8
DOOR
  6
ByLayer
 62
  256
370
   -1
100
AcDbLine
 10
3
 20
-5
 11
3
 21
0
  0
ARC
  5
F6
100
AcDbEntity
  8
DOOR
  6
ByLayer
 62
  256
370
   -1
100
AcDbCircle
 10
6
 20
0
 40
29
100
AcDbArc
 50
0
 51
90
  0
LINE
  5
F7
100
AcDbEntity
  8
DOOR
  6
ByLayer
 62
  256
370
   -1
100
AcDbLine
 10
38
 20
0
 11
35
 21
0
  0
LINE
  5
F8
100
AcDbEntity
  8
DOOR
  6
ByLayer
 62
  256
370
   -1
100
AcDbLine
 10
38
 20
-5
 11
35
 21
-5
  0
LINE
  5
F9
100
AcDbEntity
  8
DOOR
  6
ByLayer
 62
  256
370
   -1
100
AcDbLine
 10
35
 20
-5
 11
35
 21
0
  0
LINE
  5
FA
100
AcDbEntity
  8
DOOR
  6
ByLayer
 62
  256
370
   -1
100
AcDbLine
 10
38
 20
-5
 11
38
 21
0
  0
ENDBLK
  5
83
330
81
100
AcDbEntity
  8
0
100
AcDbBlockEnd
  0
BLOCK
  5
85
330
84
100
AcDbEntity
  8
0
100
AcDbBlockBegin
  2
window 4'
 70
    0
 10
0
 20
0
  3
window 4'
  1

  0
LINE
  5
FB
100
AcDbEntity
  8
WINDOWS
  6
ByLayer
 62
  256
370
   -1
100
AcDbLine
 10
-24
 20
0
 11
24
 21
0
  0
LINE
  5
FC
100
AcDbEntity
  8
WINDOWS
  6
ByLayer
 62
  256
370
   -1
100
AcDbLine
 10
-24
 20
-5
 11
24
 21
-5
  0
LINE
  5
FD
100
AcDbEntity
  8
WINDOWS
  6
ByLayer
 62
  256
370
   -1
100
AcDbLine
 10
24
 20
-5
 11
24
 21
0
  0
LINE
  5
FE
100
AcDbEntity
  8
WINDOWS
  6
ByLayer
 62
  256
370
   -1
100
AcDbLine
 10
-24
 20
-5
 11
-23.96591789145896
 21
0
  0
LINE
  5
FF
100
AcDbEntity
  8
WINDOWS
  6
ByLayer
 62
  256
370
   -1
100
AcDbLine
 10
-24
 20
-1
 11
24
 21
-1
  0
LINE
  5
100
100
AcDbEntity
  8
WINDOWS
  6
ByLayer
 62
  256
370
   -1
100
AcDbLine
 10
-24
 20
-4
 11
24
 21
-4
  0
LINE
  5
101
100
AcDbEntity
  8
WINDOWS
  6
ByLayer
 62
  256
370
   -1
100
AcDbLine
 10
0
 20
0
 11
0
 21
-5
  0
ENDBLK
  5
86
330
84
100
AcDbEntity
  8
0
100
AcDbBlockEnd
  0
BLOCK
  5
88
330
87
100
AcDbEntity
  8
0
100
AcDbBlockBegin
  2
window 3'
 70
    0
 10
0
 20
0
  3
window 3'
  1

  0
LINE
  5
102
100
AcDbEntity
  8
WINDOWS
  6
ByLayer
 62
  256
370
   -1
100
AcDbLine
 10
-18
 20
5
 11
18
 21
5
  0
LINE
  5
103
100
AcDbEntity
  8
WINDOWS
  6
ByLayer
 62
  256
370
   -1
100
AcDbLine
 10
-18
 20
0
 11
18
 21
0
  0
LINE
  5
104
100
AcDbEntity
  8
WINDOWS
  6
ByLayer
 62
  256
370
   -1
100
AcDbLine
 10
-18
 20
4
 11
18
 21
4
  0
LINE
  5
105
100
AcDbEntity
  8
WINDOWS
  6
ByLayer
 62
  256
370
   -1
100
AcDbLine
 10
-18
 20
1
 11
18
 21
1
  0
LINE
  5
106
100
AcDbEntity
  8
WINDOWS
  6
ByLayer
 62
  256
370
   -1
100
AcDbLine
 10
18
 20
0
 11
18
 21
5
  0
LINE
  5
107
100
AcDbEntity
  8
WINDOWS
  6
ByLayer
 62
  256
370
   -1
100
AcDbLine
 10
-18
 20
0
 11
-18
 21
5
  0
LINE
  5
108
100
AcDbEntity
  8
WINDOWS
  6
ByLayer
 62
  256
370
   -1
100
AcDbLine
 10
0
 20
0
 11
0
 21
5
  0
ENDBLK
  5
89
330
87
100
AcDbEntity
  8
0
100
AcDbBlockEnd
  0
BLOCK
  5
8B
330
8A
100
AcDbEntity
  8
0
100
AcDbBlockBegin
  2
v
 70
    0
 10
0
 20
0
  3
v
  1

  0
LINE
  5
109
100
AcDbEntity
  8
WINDOWS
  6
ByLayer
 62
  256
370
   -1
100
AcDbLine
 10
0
 20
0
 11
0
 21
19
  0
LINE
  5
10A
100
AcDbEntity
  8
WINDOWS
  6
ByLayer
 62
  256
370
   -1
100
AcDbLine
 10
-5
 20
0
 11
-5
 21
19
  0
LINE
  5
10B
100
AcDbEntity
  8
WINDOWS
  6
ByLayer
 62
  256
370
   -1
100
AcDbLine
 10
-5
 20
0
 11
0
 21
0
  0
LINE
  5
10C
100
AcDbEntity
  8
WINDOWS
  6
ByLayer
 62
  256
370
   -1
100
AcDbLine
 10
0
 20
19
 11
-5
 21
19
  0
ENDBLK
  5
8C
330
8A
100
AcDbEntity
  8
0
100
AcDbBlockEnd
  0
ENDSEC
  0
SECTION
  2
ENTITIES
  0
HATCH
  5
10D
100
AcDbEntity
  8
hatch
  6
ByLayer
 62
  256
370
   -1
100
AcDbHatch
 10
0
 20
0
 30
0
210
0
220
0
230
1
  2
SOLID
 70
    1
 71
    0
 91
    1
 92
    0
 93
   11
 72
    1
 10
-14444.26301434282
 20
115815.9335941688
 11
-14444.26301434282
 21
115927.9335941688
 72
    2
 10
-14444.26301434282
 20
115927.9335941688
 40
0
 50
0
 51
90
 73
    1
 72
    1
 10
-14444.26301434282
 20
115927.9335941688
 11
-14445.24300800669
 21
115927.9335941688
 72
    1
 10
-14445.24300800669
 20
115927.9335941688
 11
-14445.24300800669
 21
115932.9335941688
 72
    1
 10
-14445.24300800669
 20
115932.9335941688
 11
-14439.26301434282
 21
115932.9335941688
 72
    1
 10
-14439.26301434282
 20
115932.9335941688
 11
-14439.26301434282
 21
115815.9335941688
 72
    1
 10
-14439.26301434282
 20
115815.9335941688
 11
-14414.26301434282
 21
115815.9335941688
 72
    1
 10
-14414.26301434282
 20
115815.9335941688
 11
-14414.26301434282
 21
115810.9335941688
 72
    1
 10
-14414.26301434282
 20
115810.9335941688
 11
-14485.26301434282
 21
115810.9335941688
 72
    1
 10
-14485.26301434282
 20
115810.9335941688
 11
-14485.26301434282
 21
115815.9335941688
 72
    1
 10
-14485.26301434282
 20
115815.9335941688
 11
-14444.26301434282
 21
115815.9335941688
 97
    0
 75
    0
 76
    1
 98
    0
  0
HATCH
  5
10E
100
AcDbEntity
  8
hatch
  6
ByLayer
 62
   16
420
8388608
370
   -1
100
AcDbHatch
 10
0
 20
0
 30
0
210
0
220
0
230
1
  2
SOLID
 70
    1
 71
    0
 91
    1
 92
    0
 93
   23
 72
    2
 10
-14152.26301434282
 20
116045.9335941689
 40
0
 50
270
 51
0
 73
    1
 72
    1
 10
-14152.26301434282
 20
116045.9335941689
 11
-14152.26301434282
 21
115927.9335941688
 72
    1
 10
-14152.26301434282
 20
115927.9335941688
 11
-14147.26301434282
 21
115927.9335941688
 72
    1
 10
-14147.26301434282
 20
115927.9335941688
 11
-14147.26301434282
 21
116050.9335941688
 72
    1
 10
-14147.26301434282
 20
116050.9335941688
 11
-14263.82625109545
 21
116050.9335941688
 72
    1
 10
-14263.82625109545
 20
116050.9335941688
 11
-14263.82625109545
 21
116045.9335941688
 72
    1
 10
-14263.82625109545
 20
116045.9335941688
 11
-14230.26301434282
 21
116045.9335941688
 72
    1
 10
-14230.26301434282
 20
116045.9335941688
 11
-14230.26301434282
 21
115932.9335941688
 72
    1
 10
-14230.26301434282
 20
115932.9335941688
 11
-14357.26301434282
 21
115932.9335941688
 72
    1
 10
-14357.26301434282
 20
115932.9335941688
 11
-14357.26301434282
 21
115938.5058377542
 72
    1
 10
-14357.26301434282
 20
115938.5058377542
 11
-14362.26301434282
 21
115938.5058377542
 72
    1
 10
-14362.26301434282
 20
115938.5058377542
 11
-14362.26301434282
 21
115927.9335941688
 72
    2
 10
-14362.26301434282
 20
115927.9335941688
 40
0
 50
0
 51
0
 73
    1
 72
    1
 10
-14362.26301434282
 20
115927.9335941688
 11
-14341.26301434282
 21
115927.9335941688
 72
    2
 10
-14341.26301434282
 20
115927.9335941688
 40
0
 50
0
 51
0
 73
    1
 72
    1
 10
-14341.26301434282
 20
115927.9335941688
 11
-14341.26301434282
 21
115922.9152090007
 72
    1
 10
-14341.26301434282
 20
115922.9152090007
 11
-14336.26301434282
 21
115922.9152090007
 72
    1
 10
-14336.26301434282
 20
115922.9152090007
 11
-14336.26301434282
 21
115927.9335941688
 72
    1
 10
-14336.26301434282
 20
115927.9335941688
 11
-14225.26301434282
 21
115927.9335941688
 72
    1
 10
-14225.26301434282
 20
115927.9335941688
 11
-14225.26301434282
 21
116045.9335941688
 72
    1
 10
-14225.26301434282
 20
116045.9335941688
 11
-14152.26301434282
 21
116045.9335941688
 72
    2
 10
-14225.26301434282
 20
115927.9335941688
 40
0
 50
0
 51
0
 73
    1
 72
    2
 10
-14336.26301434282
 20
115927.9335941688
 40
0
 50
0
 51
0
 73
    1
 97
    0
 75
    0
 76
    1
 98
    0
  0
HATCH
  5
10F
100
AcDbEntity
  8
hatch
  6
ByLayer
 62
   16
420
8388608
370
   -1
100
AcDbHatch
 10
0
 20
0
 30
0
210
0
220
0
230
1
  2
SOLID
 70
    1
 71
    0
 91
    1
 92
    0
 93
   10
 72
    2
 10
-14152.26301434282
 20
115815.9335941689
 40
0
 50
270
 51
0
 73
    1
 72
    1
 10
-14152.26301434282
 20
115815.9335941689
 11
-14147.25727403288
 21
115815.9335941689
 72
    1
 10
-14147.25727403288
 20
115815.9335941689
 11
-14147.26301434282
 21
115810.9335941688
 72
    1
 10
-14147.26301434282
 20
115810.9335941688
 11
-14366.26301434282
 21
115810.9335941688
 72
    1
 10
-14366.26301434282
 20
115810.9335941688
 11
-14366.26301434282
 21
115815.9335941688
 72
    1
 10
-14366.26301434282
 20
115815.9335941688
 11
-14341.26301434282
 21
115815.9335941688
 72
    1
 10
-14341.26301434282
 20
115815.9335941688
 11
-14341.26301434282
 21
115877.9152090007
 72
    1
 10
-14341.26301434282
 20
115877.9152090007
 11
-14336.26301434282
 21
115877.9152090007
 72
    1
 10
-14336.26301434282
 20
115877.9152090007
 11
-14336.26301434282
 21
115815.9335941688
 72
    1
 10
-14336.26301434282
 20
115815.9335941688
 11
-14152.26301434282
 21
115815.9335941688
 97
    0
 75
    0
 76
    1
 98
    0
  0
HATCH
  5
110
100
AcDbEntity
  8
hatch
  6
ByLayer
 62
  256
370
   -1
100
AcDbHatch
 10
0
 20
0
 30
0
210
0
220
0
230
1
  2
SOLID
 70
    1
 71
    0
 91
    1
 92
    0
 93
    8
 72
    1
 10
-14357.26301434282
 20
115983.5058377542
 11
-14357.26301434282
 21
116045.9335941688
 72
    1
 10
-14357.26301434282
 20
116045.9335941688
 11
-14311.82625109545
 21
116045.9335941688
 72
    1
 10
-14311.82625109545
 20
116045.9335941688
 11
-14311.82625109545
 21
116050.9335941688
 72
    1
 10
-14311.82625109545
 20
116050.9335941688
 11
-14402.00000109337
 21
116050.9335941688
 72
    1
 10
-14402.00000109337
 20
116050.9335941688
 11
-14402.00000109337
 21
116045.9335941688
 72
    1
 10
-14402.00000109337
 20
116045.9335941688
 11
-14362.26301434282
 21
116045.9335941688
 72
    1
 10
-14362.26301434282
 20
116045.9335941688
 11
-14362.26301434282
 21
115983.5058377542
 72
    1
 10
-14362.26301434282
 20
115983.5058377542
 11
-14357.26301434282
 21
115983.5058377542
 97
    0
 75
    0
 76
    1
 98
    0
  0
HATCH
  5
111
100
AcDbEntity
  8
hatch
  6
ByLayer
 62
  256
370
   -1
100
AcDbHatch
 10
0
 20
0
 30
0
210
0
220
0
230
1
  2
SOLID
 70
    1
 71
    0
 91
    1
 92
    0
 93
   11
 72
    2
 10
-14574.26301434282
 20
116045.9335941688
 40
0
 50
0
 51
0
 73
    1
 72
    1
 10
-14574.26301434282
 20
116045.9335941688
 11
-14496.26301434282
 21
116045.9335941688
 72
    1
 10
-14496.26301434282
 20
116045.9335941688
 11
-14496.26301434282
 21
116032.4274735538
 72
    1
 10
-14496.26301434282
 20
116032.4274735538
 11
-14491.26301434282
 21
116032.4274735538
 72
    1
 10
-14491.26301434282
 20
116032.4274735538
 11
-14491.26301434282
 21
116045.9335941688
 72
    1
 10
-14491.26301434282
 20
116045.9335941688
 11
-14450.00000109337
 21
116045.9335941688
 72
    1
 10
-14450.00000109337
 20
116045.9335941688
 11
-14449.96591898482
 21
116050.9335941688
 72
    1
 10
-14449.96591898482
 20
116050.9335941688
 11
-14579.26301434282
 21
116050.9335941688
 72
    1
 10
-14579.26301434282
 20
116050.9335941688
 11
-14579.26301434282
 21
116031.9335941689
 72
    1
 10
-14579.26301434282
 20
116031.9335941689
 11
-14574.26301434282
 21
116031.9335941689
 72
    1
 10
-14574.26301434282
 20
116031.9335941689
 11
-14574.26301434282
 21
116045.9335941688
 97
    0
 75
    0
 76
    1
 98
    0
  0
HATCH
  5
112
100
AcDbEntity
  8
hatch
  6
ByLayer
 62
  256
370
   -1
100
AcDbHatch
 10
0
 20
0
 30
0
210
0
220
0
230
1
  2
SOLID
 70
    1
 71
    0
 91
    1
 92
    0
 93
   12
 72
    1
 10
-14574.26301434282
 20
115976.9335941688
 11
-14496.26301434282
 21
115976.9335941688
 72
    1
 10
-14496.26301434282
 20
115976.9335941688
 11
-14496.26301434282
 21
115974.6069627874
 72
    1
 10
-14496.26301434282
 20
115974.6069627874
 11
-14491.26301434282
 21
115974.6069627874
 72
    1
 10
-14491.26301434282
 20
115974.6069627874
 11
-14491.26301434282
 21
115994.4274735538
 72
    1
 10
-14491.26301434282
 20
115994.4274735538
 11
-14496.26301434282
 21
115994.4274735538
 72
    1
 10
-14496.26301434282
 20
115994.4274735538
 11
-14496.26301434282
 21
115981.9335941688
 72
    1
 10
-14496.26301434282
 20
115981.9335941688
 11
-14574.26301434282
 21
115981.9335941688
 72
    1
 10
-14574.26301434282
 20
115981.9335941689
 11
-14574.26301434282
 21
115995.9335941689
 72
    1
 10
-14574.26301434282
 20
115995.9335941689
 11
-14579.26301434282
 21
115995.9335941689
 72
    1
 10
-14579.26301434282
 20
115995.9335941689
 11
-14579.26301434282
 21
115963.7500089289
 72
    1
 10
-14579.26301434282
 20
115963.7500089289
 11
-14574.26301434282
 21
115963.7500089289
 72
    1
 10
-14574.26301434282
 20
115963.7500089289
 11
-14574.26301434282
 21
115976.9335941689
 97
    0
 75
    0
 76
    1
 98
    0
  0
HATCH
  5
113
100
AcDbEntity
  8
hatch
  6
ByLayer
 62
  256
370
   -1
100
AcDbHatch
 10
0
 20
0
 30
0
210
0
220
0
230
1
  2
SOLID
 70
    1
 71
    0
 91
    1
 92
    0
 93
   13
 72
    1
 10
-14574.26301434282
 20
115932.9335941688
 11
-14496.26301434282
 21
115932.9335941688
 72
    2
 10
-14496.26301434282
 20
115932.9335941688
 40
0
 50
0
 51
0
 73
    1
 72
    1
 10
-14496.26301434282
 20
115932.9335941688
 11
-14496.26301434282
 21
115936.6069627874
 72
    1
 10
-14496.26301434282
 20
115936.6069627874
 11
-14491.26301434282
 21
115936.6069627874
 72
    1
 10
-14491.26301434282
 20
115936.6069627874
 11
-14491.26301434282
 21
115932.9335941688
 72
    1
 10
-14491.26301434282
 20
115932.9335941688
 11
-14490.24300800669
 21
115932.9335941688
 72
    1
 10
-14490.24300800669
 20
115932.9335941688
 11
-14490.24300800669
 21
115927.9335941688
 72
    1
 10
-14490.24300800669
 20
115927.9335941688
 11
-14574.26301434282
 21
115927.9335941688
 72
    1
 10
-14574.26301434282
 20
115927.9335941688
 11
-14574.26301434282
 21
115894.0000085988
 72
    1
 10
-14574.26301434282
 20
115894.0000085988
 11
-14579.26301434282
 21
115894.0000085988
 72
    1
 10
-14579.26301434282
 20
115894.0000085988
 11
-14579.26301434282
 21
115944.7500089289
 72
    1
 10
-14579.26301434282
 20
115944.7500089289
 11
-14574.26301434282
 21
115944.7500089289
 72
    1
 10
-14574.26301434282
 20
115944.7500089289
 11
-14574.26301434282
 21
115932.9335941688
 97
    0
 75
    0
 76
    1
 98
    0
  0
HATCH
  5
114
100
AcDbEntity
  8
hatch
  6
ByLayer
 62
  256
370
   -1
100
AcDbHatch
 10
0
 20
0
 30
0
210
0
220
0
230
1
  2
SOLID
 70
    1
 71
    0
 91
    1
 92
    0
 93
    8
 72
    2
 10
-14574.26301434282
 20
115815.9335941688
 40
0
 50
0
 51
0
 73
    1
 72
    1
 10
-14574.26301434282
 20
115815.9335941688
 11
-14533.26301434282
 21
115815.9335941688
 72
    1
 10
-14533.26301434282
 20
115815.9335941688
 11
-14533.26301434282
 21
115810.9335941688
 72
    1
 10
-14533.26301434282
 20
115810.9335941688
 11
-14579.26301434282
 21
115810.9335941688
 72
    1
 10
-14579.26301434282
 20
115810.9335941688
 11
-14579.26301434282
 21
115840.7042581195
 72
    1
 10
-14579.26301434282
 20
115840.7042581195
 11
-14579.26301434282
 21
115846.0000085988
 72
    1
 10
-14579.26301434282
 20
115846.0000085988
 11
-14574.26301434282
 21
115846.0000085988
 72
    1
 10
-14574.26301434282
 20
115846.0000085988
 11
-14574.26301434282
 21
115815.9335941688
 97
    0
 75
    0
 76
    1
 98
    0
  0
ARC
  5
115
100
AcDbEntity
  8
0
  6
ByLayer
 62
  256
370
   -1
100
AcDbCircle
 10
-14574.26301434282
 20
116045.9335941688
 40
0
100
AcDbArc
 50
0
 51
0
  0
ARC
  5
116
100
AcDbEntity
  8
0
  6
ByLayer
 62
  256
370
   -1
100
AcDbCircle
 10
-14574.26301434282
 20
115815.9335941688
 40
0
100
AcDbArc
 50
0
 51
0
  0
ARC
  5
117
100
AcDbEntity
  8
0
  6
ByLayer
 62
  256
370
   -1
100
AcDbCircle
 10
-14152.26301434282
 20
115815.9335941689
 40
0
100
AcDbArc
 50
270
 51
0
  0
ARC
  5
118
100
AcDbEntity
  8
0
  6
ByLayer
 62
  256
370
   -1
100
AcDbCircle
 10
-14152.26301434282
 20
116045.9335941689
 40
0
100
AcDbArc
 50
270
 51
0
  0
LINE
  5
119
100
AcDbEntity
  8
0
  6
ByLayer
 62
  256
370
   -1
100
AcDbLine
 10
-14444.26301434282
 20
115815.9335941688
 11
-14444.26301434282
 21
115927.9335941688
  0
ARC
  5
11A
100
AcDbEntity
  8
0
  6
ByLayer
 62
  256
370
   -1
100
AcDbCircle
 10
-14444.26301434282
 20
115927.9335941688
 40
0
100
AcDbArc
 50
0
 51
90
  0
LINE
  5
11B
100
AcDbEntity
  8
0
  6
ByLayer
 62
  256
370
   -1
100
AcDbLine
 10
-14439.26301434282
 20
115815.9335941688
 11
-14439.26301434282
 21
115932.9335941688
  0
ARC
  5
11C
100
AcDbEntity
  8
0
  6
ByLayer
 62
  256
370
   -1
100
AcDbCircle
 10
-14439.26301434282
 20
115932.9335941688
 40
0
100
AcDbArc
 50
0
 51
90
  0
LINE
  5
11D
100
AcDbEntity
  8
0
  6
ByLayer
 62
  256
370
   -1
100
AcDbLine
 10
-14574.26301434282
 20
115932.9335941688
 11
-14496.26301434282
 21
115932.9335941688
  0
ARC
  5
11E
100
AcDbEntity
  8
0
  6
ByLayer
 62
  256
370
   -1
100
AcDbCircle
 10
-14496.26301434282
 20
115932.9335941688
 40
0
100
AcDbArc
 50
0
 51
0
  0
LINE
  5
11F
100
AcDbEntity
  8
0
  6
ByLayer
 62
  256
370
   -1
100
AcDbLine
 10
-14574.26301434282
 20
115976.9335941688
 11
-14496.26301434282
 21
115976.9335941688
  0
LINE
  5
120
100
AcDbEntity
  8
0
  6
ByLayer
 62
  256
370
   -1
100
AcDbLine
 10
-14574.26301434282
 20
115981.9335941688
 11
-14496.26301434282
 21
115981.9335941688
  0
LINE
  5
121
100
AcDbEntity
  8
0
  6
ByLayer
 62
  256
370
   -1
100
AcDbLine
 10
-14230.26301434282
 20
115932.9335941688
 11
-14230.26301434282
 21
116045.9335941688
  0
LINE
  5
122
100
AcDbEntity
  8
0
  6
ByLayer
 62
  256
370
   -1
100
AcDbLine
 10
-14357.26301434282
 20
115932.9335941688
 11
-14230.26301434282
 21
115932.9335941688
  0
LINE
  5
123
100
AcDbEntity
  8
0
  6
ByLayer
 62
  256
370
   -1
100
AcDbLine
 10
-14225.26301434282
 20
115927.9335941688
 11
-14225.26301434282
 21
116045.9335941688
  0
ARC
  5
124
100
AcDbEntity
  8
0
  6
ByLayer
 62
  256
370
   -1
100
AcDbCircle
 10
-14225.26301434282
 20
115927.9335941688
 40
0
100
AcDbArc
 50
0
 51
0
  0
ARC
  5
125
100
AcDbEntity
  8
0
  6
ByLayer
 62
  256
370
   -1
100
AcDbCircle
 10
-14362.26301434282
 20
115927.9335941688
 40
0
100
AcDbArc
 50
0
 51
0
  0
LINE
  5
126
100
AcDbEntity
  8
0
  6
ByLayer
 62
  256
370
   -1
100
AcDbLine
 10
-14336.26301434282
 20
115927.9335941688
 11
-14225.26301434282
 21
115927.9335941688
  0
ARC
  5
127
100
AcDbEntity
  8
0
  6
ByLayer
 62
  256
370
   -1
100
AcDbCircle
 10
-14336.26301434282
 20
115927.9335941688
 40
0
100
AcDbArc
 50
0
 51
0
  0
ARC
  5
128
100
AcDbEntity
  8
0
  6
ByLayer
 62
  256
370
   -1
100
AcDbCircle
 10
-14341.26301434282
 20
115927.9335941688
 40
0
100
AcDbArc
 50
0
 51
0
  0
LINE
  5
129
100
AcDbEntity
  8
0
  6
ByLayer
 62
  256
370
   -1
100
AcDbLine
 10
-14362.26301434282
 20
115927.9335941688
 11
-14341.26301434282
 21
115927.9335941688
  0
LINE
  5
12A
100
AcDbEntity
  8
0
  6
ByLayer
 62
  256
370
   -1
100
AcDbLine
 10
-14152.26301434282
 20
115815.9335941689
 11
-14147.25727403288
 21
115815.9335941689
  0
LINE
  5
12B
100
AcDbEntity
  8
0
  6
ByLayer
 62
  256
370
   -1
100
AcDbLine
 10
-14152.26301434282
 20
115927.9335941688
 11
-14152.26301434282
 21
116045.9335941689
  0
LINE
  5
12C
100
AcDbEntity
  8
0
  6
ByLayer
 62
  256
370
   -1
100
AcDbLine
 10
-14147.26301434282
 20
115927.9335941688
 11
-14147.26301434282
 21
116050.9335941688
  0
LINE
  5
12D
100
AcDbEntity
  8
0
  6
ByLayer
 62
  256
370
   -1
100
AcDbLine
 10
-14147.26301434282
 20
115810.9335941688
 11
-14147.25727403288
 21
115815.9335941689
  0
LINE
  5
12E
100
AcDbEntity
  8
0
  6
ByLayer
 62
  256
370
   -1
100
AcDbLine
 10
-14152.26301434282
 20
115927.9335941688
 11
-14147.26301434282
 21
115927.9335941688
  0
LINE
  5
12F
100
AcDbEntity
  8
0
  6
ByLayer
 62
  256
370
   -1
100
AcDbLine
 10
-14336.26301434282
 20
115815.9335941688
 11
-14152.26301434282
 21
115815.9335941688
  0
LINE
  5
130
100
AcDbEntity
  8
0
  6
ByLayer
 62
  256
370
   -1
100
AcDbLine
 10
-14225.26301434282
 20
116045.9335941688
 11
-14152.26301434282
 21
116045.9335941688
  0
LINE
  5
131
100
AcDbEntity
  8
0
  6
ByLayer
 62
  256
370
   -1
100
AcDbLine
 10
-14574.26301434282
 20
116045.9335941688
 11
-14496.26301434282
 21
116045.9335941688
  0
LINE
  5
132
100
AcDbEntity
  8
STAIR
  6
ByLayer
 62
  256
370
   -1
100
AcDbLine
 10
-14190.76301434281
 20
116009.9335941688
 11
-14190.76301434281
 21
115927.7899427069
  0
LINE
  5
133
100
AcDbEntity
  8
STAIR
  6
ByLayer
 62
  256
370
   -1
100
AcDbLine
 10
-14186.76301434281
 20
116009.9335941688
 11
-14186.76301434281
 21
115927.7899427069
  0
LINE
  5
134
100
AcDbEntity
  8
STAIR
  6
ByLayer
 62
  256
370
   -1
100
AcDbLine
 10
-14225.26301434281
 20
116009.9335941688
 11
-14190.76301434281
 21
116009.9335941688
  0
LINE
  5
135
100
AcDbEntity
  8
STAIR
  6
ByLayer
 62
  256
370
   -1
100
AcDbLine
 10
-14186.76301434281
 20
116009.9335941688
 11
-14152.26301434281
 21
116009.9335941688
  0
LINE
  5
136
100
AcDbEntity
  8
STAIR
  6
DASHEDTINY
 62
  256
370
   -1
100
AcDbLine
 10
-14225.26301434281
 20
115998.9335941688
 11
-14190.76301434281
 21
115998.9335941688
  0
LINE
  5
137
100
AcDbEntity
  8
STAIR
  6
DASHEDTINY
 62
  256
370
   -1
100
AcDbLine
 10
-14225.26301434281
 20
115987.9335941688
 11
-14190.76301434281
 21
115987.9335941688
  0
LINE
  5
138
100
AcDbEntity
  8
STAIR
  6
DASHEDTINY
 62
  256
370
   -1
100
AcDbLine
 10
-14225.26301434281
 20
115976.9335941688
 11
-14190.76301434281
 21
115976.9335941688
  0
LINE
  5
139
100
AcDbEntity
  8
STAIR
  6
DASHEDTINY
 62
  256
370
   -1
100
AcDbLine
 10
-14225.26301434281
 20
115965.9335941688
 11
-14190.76301434281
 21
115965.9335941688
  0
LINE
  5
13A
100
AcDbEntity
  8
STAIR
  6
DASHEDTINY
 62
  256
370
   -1
100
AcDbLine
 10
-14225.26301434281
 20
115954.9335941688
 11
-14190.76301434281
 21
115954.9335941688
  0
LINE
  5
13B
100
AcDbEntity
  8
STAIR
  6
DASHEDTINY
 62
  256
370
   -1
100
AcDbLine
 10
-14225.26301434281
 20
115943.9335941688
 11
-14190.76301434281
 21
115943.9335941688
  0
LINE
  5
13C
100
AcDbEntity
  8
STAIR
  6
DASHEDTINY
 62
  256
370
   -1
100
AcDbLine
 10
-14225.26301434281
 20
115932.9335941688
 11
-14190.76301434281
 21
115932.9335941688
  0
LINE
  5
13D
100
AcDbEntity
  8
STAIR
  6
DASHEDTINY
 62
  256
370
   -1
100
AcDbLine
 10
-14186.76301434281
 20
115998.9335941688
 11
-14152.26301434281
 21
115998.9335941688
  0
LINE
  5
13E
100
AcDbEntity
  8
STAIR
  6
DASHEDTINY
 62
  256
370
   -1
100
AcDbLine
 10
-14186.7630143428
 20
115987.9335941688
 11
-14152.2630143428
 21
115987.9335941688
  0
LINE
  5
13F
100
AcDbEntity
  8
STAIR
  6
DASHEDTINY
 62
  256
370
   -1
100
AcDbLine
 10
-14186.7630143428
 20
115976.9335941688
 11
-14152.2630143428
 21
115976.9335941688
  0
LWPOLYLINE
  5
140
100
AcDbEntity
  8
STAIR
  6
CONTINUOUS
 62
    3
370
    0
100
AcDbPolyline
 90
    6
 70
    0
 43
0
 10
-14186.76301434279
 20
115954.9335941688
 10
-14173.85304868574
 20
115963.1660360371
 10
-14173.39583595127
 20
115967.1260215776
 10
-14165.90586715222
 20
115964.142212869
 10
-14164.636852658
 20
115969.0430306055
 10
-14152.2630143428
 20
115976.9335941688
  0
LINE
  5
141
100
AcDbEntity
  8
STAIR
  6
DASHEDTINY
 62
  256
370
   -1
100
AcDbLine
 10
-14170.40259980279
 20
115965.9335941688
 11
-14165.44200806658
 21
115965.9335941688
  0
LINE
  5
142
100
AcDbEntity
  8
STAIR
  6
DASHEDTINY
 62
  256
370
   -1
100
AcDbLine
 10
-14186.76301434279
 20
115965.9335941688
 11
-14173.53351145302
 21
115965.9335941688
  0
LINE
  5
143
100
AcDbEntity
  8
STAIR
  6
ByLayer
 62
  256
370
   -1
100
AcDbLine
 10
-14165.44200806658
 20
115965.9335941688
 11
-14152.2588853182
 21
115965.9335941688
  0
LINE
  5
144
100
AcDbEntity
  8
STAIR
  6
ByLayer
 62
  256
370
   -1
100
AcDbLine
 10
-14173.53351145302
 20
115965.9335941688
 11
-14170.40259980279
 21
115965.9335941688
  0
LINE
  5
145
100
AcDbEntity
  8
STAIR
  6
ByLayer
 62
  256
370
   -1
100
AcDbLine
 10
-14186.76301434281
 20
115954.9335941688
 11
-14152.25938019529
 21
115954.9335941688
  0
LINE
  5
146
100
AcDbEntity
  8
STAIR
  6
ByLayer
 62
  256
370
   -1
100
AcDbLine
 10
-14186.76301434281
 20
115943.9335941688
 11
-14152.25938019529
 21
115943.9335941688
  0
LINE
  5
147
100
AcDbEntity
  8
STAIR
  6
ByLayer
 62
  256
370
   -1
100
AcDbLine
 10
-14186.76301434281
 20
115932.9335941688
 11
-14152.25938019529
 21
115932.9335941688
  0
INSERT
  5
148
100
AcDbEntity
  8
DOOR
  6
ByLayer
 62
  256
370
   -1
100
AcDbBlockReference
  2
door 1
 10
-14357.26301434282
 20
115938.5058377542
 30
0
 41
-1
 42
1
 43
0
 50
270
 70
    1
 71
    1
 44
0
 45
0
  0
INSERT
  5
149
100
AcDbEntity
  8
DOOR
  6
ByLayer
 62
  256
370
   -1
100
AcDbBlockReference
  2
door 1
 10
-14445.24300800669
 20
115927.9335941688
 30
0
 41
1
 42
1
 43
0
 50
180
 70
    1
 71
    1
 44
0
 45
0
  0
INSERT
  5
14A
100
AcDbEntity
  8
DOOR
  6
ByLayer
 62
  256
370
   -1
100
AcDbBlockReference
  2
door 1
 10
-14341.26301434282
 20
115922.9152090007
 30
0
 41
-1
 42
1
 43
0
 50
90
 70
    1
 71
    1
 44
0
 45
0
  0
INSERT
  5
14B
100
AcDbEntity
  8
DOOR
  6
ByLayer
 62
  256
370
   -1
100
AcDbBlockReference
  2
door 2
 10
-14496.26301434282
 20
115936.6069627874
 30
0
 41
1
 42
1
 43
0
 50
90
 70
    1
 71
    1
 44
0
 45
0
  0
INSERT
  5
14C
100
AcDbEntity
  8
DOOR
  6
ByLayer
 62
  256
370
   -1
100
AcDbBlockReference
  2
door 2
 10
-14496.26301434282
 20
115994.4274735538
 30
0
 41
1
 42
1
 43
0
 50
90
 70
    1
 71
    1
 44
0
 45
0
  0
INSERT
  5
14D
100
AcDbEntity
  8
WINDOWS
  6
ByLayer
 62
  256
370
   -1
100
AcDbBlockReference
  2
window 3'
 10
-14574.26301434282
 20
116013.9335941689
 30
0
 41
1
 42
1
 43
0
 50
90
 70
    1
 71
    1
 44
0
 45
0
  0
INSERT
  5
14E
100
AcDbEntity
  8
WINDOWS
  6
ByLayer
 62
  256
370
   -1
100
AcDbBlockReference
  2
window 4'
 10
-14579.26301434282
 20
115870.0000085988
 30
0
 41
1
 42
1
 43
0
 50
90
 70
    1
 71
    1
 44
0
 45
0
  0
INSERT
  5
14F
100
AcDbEntity
  8
WINDOWS
  6
ByLayer
 62
  256
370
   -1
100
AcDbBlockReference
  2
window 4'
 10
-14509.26301434282
 20
115815.9335941688
 30
0
 41
1
 42
1
 43
0
 50
0
 70
    1
 71
    1
 44
0
 45
0
  0
INSERT
  5
150
100
AcDbEntity
  8
WINDOWS
  6
ByLayer
 62
  256
370
   -1
100
AcDbBlockReference
  2
window 4'
 10
-14426.00000109337
 20
116050.9335941688
 30
0
 41
1
 42
1
 43
0
 50
0
 70
    1
 71
    1
 44
0
 45
0
  0
INSERT
  5
151
100
AcDbEntity
  8
WINDOWS
  6
ByLayer
 62
  256
370
   -1
100
AcDbBlockReference
  2
window 4'
 10
-14390.26301434282
 20
115815.9335941688
 30
0
 41
1
 42
1
 43
0
 50
0
 70
    1
 71
    1
 44
0
 45
0
  0
INSERT
  5
152
100
AcDbEntity
  8
WINDOWS
  6
ByLayer
 62
  256
370
   -1
100
AcDbBlockReference
  2
window 4'
 10
-14287.82625109545
 20
116050.9335941688
 30
0
 41
1
 42
1
 43
0
 50
0
 70
    1
 71
    1
 44
0
 45
0
  0
INSERT
  5
153
100
AcDbEntity
  8
WINDOWS
  6
ByLayer
 62
  256
370
   -1
100
AcDbBlockReference
  2
v
 10
-14574.26301434282
 20
115944.7500089289
 30
0
 41
1
 42
1
 43
0
 50
0
 70
    1
 71
    1
 44
0
 45
0
  0
LINE
  5
154
100
AcDbEntity
  8
0
  6
ByLayer
 62
  256
370
   -1
100
AcDbLine
 10
-14357.26301434282
 20
115932.9335941688
 11
-14357.26301434282
 21
115938.5058377542
  0
LINE
  5
155
100
AcDbEntity
  8
0
  6
ByLayer
 62
  256
370
   -1
100
AcDbLine
 10
-14357.26301434282
 20
115983.5058377542
 11
-14357.26301434282
 21
116045.9335941688
  0
LINE
  5
156
100
AcDbEntity
  8
0
  6
ByLayer
 62
  256
370
   -1
100
AcDbLine
 10
-14362.26301434282
 20
115983.5058377542
 11
-14362.26301434282
 21
116045.9335941688
  0
LINE
  5
157
100
AcDbEntity
  8
0
  6
ByLayer
 62
  256
370
   -1
100
AcDbLine
 10
-14362.26301434282
 20
115927.9335941688
 11
-14362.26301434282
 21
115938.5058377542
  0
LINE
  5
158
100
AcDbEntity
  8
0
  6
ByLayer
 62
  256
370
   -1
100
AcDbLine
 10
-14336.26301434282
 20
115922.9152090007
 11
-14336.26301434282
 21
115927.9335941688
  0
LINE
  5
159
100
AcDbEntity
  8
0
  6
ByLayer
 62
  256
370
   -1
100
AcDbLine
 10
-14336.26301434282
 20
115815.9335941688
 11
-14336.26301434282
 21
115877.9152090007
  0
LINE
  5
15A
100
AcDbEntity
  8
0
  6
ByLayer
 62
  256
370
   -1
100
AcDbLine
 10
-14341.26301434282
 20
115815.9335941688
 11
-14341.26301434282
 21
115877.9152090007
  0
LINE
  5
15B
100
AcDbEntity
  8
0
  6
ByLayer
 62
  256
370
   -1
100
AcDbLine
 10
-14341.26301434282
 20
115922.9152090007
 11
-14341.26301434282
 21
115927.9335941688
  0
LINE
  5
15C
100
AcDbEntity
  8
0
  6
ByLayer
 62
  256
370
   -1
100
AcDbLine
 10
-14574.26301434282
 20
115927.9335941688
 11
-14490.24300800669
 21
115927.9335941688
  0
LINE
  5
15D
100
AcDbEntity
  8
0
  6
ByLayer
 62
  256
370
   -1
100
AcDbLine
 10
-14491.26301434282
 20
115932.9335941688
 11
-14490.24300800669
 21
115932.9335941688
  0
LINE
  5
15E
100
AcDbEntity
  8
0
  6
ByLayer
 62
  256
370
   -1
100
AcDbLine
 10
-14439.26301434282
 20
115932.9335941688
 11
-14445.24300800669
 21
115932.9335941688
  0
LINE
  5
15F
100
AcDbEntity
  8
0
  6
ByLayer
 62
  256
370
   -1
100
AcDbLine
 10
-14444.26301434282
 20
115927.9335941688
 11
-14445.24300800669
 21
115927.9335941688
  0
LINE
  5
160
100
AcDbEntity
  8
0
  6
ByLayer
 62
  256
370
   -1
100
AcDbLine
 10
-14491.26301434282
 20
115932.9335941688
 11
-14491.26301434282
 21
115936.6069627874
  0
LINE
  5
161
100
AcDbEntity
  8
0
  6
ByLayer
 62
  256
370
   -1
100
AcDbLine
 10
-14496.26301434282
 20
115932.9335941688
 11
-14496.26301434282
 21
115936.6069627874
  0
LINE
  5
162
100
AcDbEntity
  8
0
  6
ByLayer
 62
  256
370
   -1
100
AcDbLine
 10
-14496.26301434282
 20
115976.9335941688
 11
-14496.26301434282
 21
115974.6069627874
  0
LINE
  5
163
100
AcDbEntity
  8
0
  6
ByLayer
 62
  256
370
   -1
100
AcDbLine
 10
-14491.26301434282
 20
115974.6069627874
 11
-14491.26301434282
 21
115994.4274735538
  0
LINE
  5
164
100
AcDbEntity
  8
0
  6
ByLayer
 62
  256
370
   -1
100
AcDbLine
 10
-14496.26301434282
 20
116032.4274735538
 11
-14496.26301434282
 21
116045.9335941688
  0
LINE
  5
165
100
AcDbEntity
  8
0
  6
ByLayer
 62
  256
370
   -1
100
AcDbLine
 10
-14491.26301434282
 20
116032.4274735538
 11
-14491.26301434282
 21
116045.9335941688
  0
LINE
  5
166
100
AcDbEntity
  8
0
  6
ByLayer
 62
  256
370
   -1
100
AcDbLine
 10
-14496.26301434282
 20
115981.9335941688
 11
-14496.26301434282
 21
115994.4274735538
  0
LINE
  5
167
100
AcDbEntity
  8
0
  6
ByLayer
 62
  256
370
   -1
100
AcDbLine
 10
-14357.26301434282
 20
116045.9335941688
 11
-14311.82625109545
 21
116045.9335941688
  0
LINE
  5
168
100
AcDbEntity
  8
0
  6
ByLayer
 62
  256
370
   -1
100
AcDbLine
 10
-14263.82625109545
 20
116050.9335941688
 11
-14147.26301434282
 21
116050.9335941688
  0
LINE
  5
169
100
AcDbEntity
  8
0
  6
ByLayer
 62
  256
370
   -1
100
AcDbLine
 10
-14263.82625109545
 20
116045.9335941688
 11
-14230.26301434282
 21
116045.9335941688
  0
LINE
  5
16A
100
AcDbEntity
  8
0
  6
ByLayer
 62
  256
370
   -1
100
AcDbLine
 10
-14579.26301434282
 20
116050.9335941688
 11
-14449.96591898482
 21
116050.9335941688
  0
LINE
  5
16B
100
AcDbEntity
  8
0
  6
ByLayer
 62
  256
370
   -1
100
AcDbLine
 10
-14491.26301434282
 20
116045.9335941688
 11
-14450.00000109337
 21
116045.9335941688
  0
LINE
  5
16C
100
AcDbEntity
  8
0
  6
ByLayer
 62
  256
370
   -1
100
AcDbLine
 10
-14402.00000109337
 20
116050.9335941688
 11
-14311.82625109545
 21
116050.9335941688
  0
LINE
  5
16D
100
AcDbEntity
  8
0
  6
ByLayer
 62
  256
370
   -1
100
AcDbLine
 10
-14402.00000109337
 20
116045.9335941688
 11
-14362.26301434282
 21
116045.9335941688
  0
LINE
  5
16E
100
AcDbEntity
  8
0
  6
ByLayer
 62
  256
370
   -1
100
AcDbLine
 10
-14574.26301434282
 20
116031.9335941689
 11
-14574.26301434282
 21
116045.9335941688
  0
LINE
  5
16F
100
AcDbEntity
  8
0
  6
ByLayer
 62
  256
370
   -1
100
AcDbLine
 10
-14579.26301434282
 20
116031.9335941689
 11
-14579.26301434282
 21
116050.9335941688
  0
LINE
  5
170
100
AcDbEntity
  8
0
  6
ByLayer
 62
  256
370
   -1
100
AcDbLine
 10
-14574.26301434282
 20
115963.7500089289
 11
-14574.26301434282
 21
115976.9335941689
  0
LINE
  5
171
100
AcDbEntity
  8
0
  6
ByLayer
 62
  256
370
   -1
100
AcDbLine
 10
-14574.26301434282
 20
115894.0000085988
 11
-14574.26301434282
 21
115927.9335941688
  0
LINE
  5
172
100
AcDbEntity
  8
0
  6
ByLayer
 62
  256
370
   -1
100
AcDbLine
 10
-14574.26301434282
 20
115815.9335941688
 11
-14533.26301434282
 21
115815.9335941688
  0
LINE
  5
173
100
AcDbEntity
  8
0
  6
ByLayer
 62
  256
370
   -1
100
AcDbLine
 10
-14579.26301434282
 20
115810.9335941688
 11
-14533.26301434282
 21
115810.9335941688
  0
LINE
  5
174
100
AcDbEntity
  8
0
  6
ByLayer
 62
  256
370
   -1
100
AcDbLine
 10
-14574.26301434282
 20
115981.9335941689
 11
-14574.26301434282
 21
115995.9335941689
  0
LINE
  5
175
100
AcDbEntity
  8
0
  6
ByLayer
 62
  256
370
   -1
100
AcDbLine
 10
-14579.26301434282
 20
115963.7500089289
 11
-14579.26301434282
 21
115995.9335941689
  0
LINE
  5
176
100
AcDbEntity
  8
0
  6
ByLayer
 62
  256
370
   -1
100
AcDbLine
 10
-14574.26301434282
 20
115932.9335941688
 11
-14574.26301434282
 21
115944.7500089289
  0
LINE
  5
177
100
AcDbEntity
  8
0
  6
ByLayer
 62
  256
370
   -1
100
AcDbLine
 10
-14579.26301434282
 20
115894.0000085988
 11
-14579.26301434282
 21
115944.7500089289
  0
LINE
  5
178
100
AcDbEntity
  8
0
  6
ByLayer
 62
  256
370
   -1
100
AcDbLine
 10
-14579.26301434282
 20
115810.9335941688
 11
-14579.26301434282
 21
115840.7042581195
  0
LINE
  5
179
100
AcDbEntity
  8
0
  6
ByLayer
 62
  256
370
   -1
100
AcDbLine
 10
-14579.26301434282
 20
115840.7042581195
 11
-14579.26301434282
 21
115846.0000085988
  0
LINE
  5
17A
100
AcDbEntity
  8
0
  6
ByLayer
 62
  256
370
   -1
100
AcDbLine
 10
-14574.26301434282
 20
115815.9335941688
 11
-14574.26301434282
 21
115846.0000085988
  0
LINE
  5
17B
100
AcDbEntity
  8
0
  6
ByLayer
 62
  256
370
   -1
100
AcDbLine
 10
-14485.26301434282
 20
115815.9335941688
 11
-14444.26301434282
 21
115815.9335941688
  0
LINE
  5
17C
100
AcDbEntity
  8
0
  6
ByLayer
 62
  256
370
   -1
100
AcDbLine
 10
-14439.26301434282
 20
115815.9335941688
 11
-14414.26301434282
 21
115815.9335941688
  0
LINE
  5
17D
100
AcDbEntity
  8
0
  6
ByLayer
 62
  256
370
   -1
100
AcDbLine
 10
-14414.26301434282
 20
115815.9335941688
 11
-14414.22893223428
 21
115815.9335941688
  0
LINE
  5
17E
100
AcDbEntity
  8
0
  6
ByLayer
 62
  256
370
   -1
100
AcDbLine
 10
-14485.26301434282
 20
115810.9335941688
 11
-14414.26301434282
 21
115810.9335941688
  0
LINE
  5
17F
100
AcDbEntity
  8
0
  6
ByLayer
 62
  256
370
   -1
100
AcDbLine
 10
-14366.26301434282
 20
115815.9335941688
 11
-14341.26301434282
 21
115815.9335941688
  0
LINE
  5
180
100
AcDbEntity
  8
0
  6
ByLayer
 62
  256
370
   -1
100
AcDbLine
 10
-14366.26301434282
 20
115810.9335941688
 11
-14147.26301434282
 21
115810.9335941688
  0
LINE
  5
181
100
AcDbEntity
  8
0
  6
ByLayer
 62
  256
370
   -1
100
AcDbLine
 10
-14533.26301434282
 20
115815.9335941688
 11
-14533.26301434282
 21
115810.9335941688
  0
LINE
  5
182
100
AcDbEntity
  8
0
  6
ByLayer
 62
  256
370
   -1
100
AcDbLine
 10
-14485.26301434282
 20
115810.9335941688
 11
-14485.26301434282
 21
115815.9335941688
  0
LINE
  5
183
100
AcDbEntity
  8
0
  6
ByLayer
 62
  256
370
   -1
100
AcDbLine
 10
-14574.26301434282
 20
115846.0000085988
 11
-14579.26301434282
 21
115846.0000085988
  0
LINE
  5
184
100
AcDbEntity
  8
0
  6
ByLayer
 62
  256
370
   -1
100
AcDbLine
 10
-14579.26301434282
 20
115894.0000085988
 11
-14574.26301434282
 21
115894.0000085988
  0
LINE
  5
185
100
AcDbEntity
  8
0
  6
ByLayer
 62
  256
370
   -1
100
AcDbLine
 10
-14414.26301434282
 20
115810.9335941688
 11
-14414.26301434282
 21
115815.9335941688
  0
LINE
  5
186
100
AcDbEntity
  8
0
  6
ByLayer
 62
  256
370
   -1
100
AcDbLine
 10
-14366.26301434282
 20
115810.9335941688
 11
-14366.26301434282
 21
115815.9335941688
  0
LINE
  5
187
100
AcDbEntity
  8
0
  6
ByLayer
 62
  256
370
   -1
100
AcDbLine
 10
-14341.26301434282
 20
115877.9152090007
 11
-14336.26301434282
 21
115877.9152090007
  0
LINE
  5
188
100
AcDbEntity
  8
0
  6
ByLayer
 62
  256
370
   -1
100
AcDbLine
 10
-14341.26301434282
 20
115922.9152090007
 11
-14336.26301434282
 21
115922.9152090007
  0
LINE
  5
189
100
AcDbEntity
  8
0
  6
ByLayer
 62
  256
370
   -1
100
AcDbLine
 10
-14445.24300800669
 20
115927.9335941688
 11
-14445.24300800669
 21
115932.9335941688
  0
LINE
  5
18A
100
AcDbEntity
  8
0
  6
ByLayer
 62
  256
370
   -1
100
AcDbLine
 10
-14490.24300800669
 20
115927.9335941688
 11
-14490.24300800669
 21
115932.9335941688
  0
LINE
  5
18B
100
AcDbEntity
  8
0
  6
ByLayer
 62
  256
370
   -1
100
AcDbLine
 10
-14362.26301434282
 20
115938.5058377542
 11
-14357.26301434282
 21
115938.5058377542
  0
LINE
  5
18C
100
AcDbEntity
  8
0
  6
ByLayer
 62
  256
370
   -1
100
AcDbLine
 10
-14362.26301434282
 20
115983.5058377542
 11
-14357.26301434282
 21
115983.5058377542
  0
LINE
  5
18D
100
AcDbEntity
  8
0
  6
ByLayer
 62
  256
370
   -1
100
AcDbLine
 10
-14579.26301434282
 20
115944.7500089289
 11
-14574.26301434282
 21
115944.7500089289
  0
LINE
  5
18E
100
AcDbEntity
  8
0
  6
ByLayer
 62
  256
370
   -1
100
AcDbLine
 10
-14579.26301434282
 20
115963.7500089289
 11
-14574.26301434282
 21
115963.7500089289
  0
LINE
  5
18F
100
AcDbEntity
  8
0
  6
ByLayer
 62
  256
370
   -1
100
AcDbLine
 10
-14579.26301434282
 20
115995.9335941689
 11
-14574.26301434282
 21
115995.9335941689
  0
LINE
  5
190
100
AcDbEntity
  8
0
  6
ByLayer
 62
  256
370
   -1
100
AcDbLine
 10
-14496.26301434282
 20
115994.4274735538
 11
-14491.26301434282
 21
115994.4274735538
  0
LINE
  5
191
100
AcDbEntity
  8
0
  6
ByLayer
 62
  256
370
   -1
100
AcDbLine
 10
-14496.26301434282
 20
115974.6069627874
 11
-14491.26301434282
 21
115974.6069627874
  0
LINE
  5
192
100
AcDbEntity
  8
0
  6
ByLayer
 62
  256
370
   -1
100
AcDbLine
 10
-14496.26301434282
 20
115936.6069627874
 11
-14491.26301434282
 21
115936.6069627874
  0
LINE
  5
193
100
AcDbEntity
  8
0
  6
ByLayer
 62
  256
370
   -1
100
AcDbLine
 10
-14574.26301434282
 20
116031.9335941689
 11
-14579.26301434282
 21
116031.9335941689
  0
LINE
  5
194
100
AcDbEntity
  8
0
  6
ByLayer
 62
  256
370
   -1
100
AcDbLine
 10
-14496.26301434282
 20
116032.4274735538
 11
-14491.26301434282
 21
116032.4274735538
  0
LINE
  5
195
100
AcDbEntity
  8
0
  6
ByLayer
 62
  256
370
   -1
100
AcDbLine
 10
-14450.00000109337
 20
116045.9335941688
 11
-14449.96591898482
 21
116050.9335941688
  0
LINE
  5
196
100
AcDbEntity
  8
0
  6
ByLayer
 62
  256
370
   -1
100
AcDbLine
 10
-14402.00000109337
 20
116045.9335941688
 11
-14402.00000109337
 21
116050.9335941688
  0
LINE
  5
197
100
AcDbEntity
  8
0
  6
ByLayer
 62
  256
370
   -1
100
AcDbLine
 10
-14311.82625109545
 20
116050.9335941688
 11
-14311.82625109545
 21
116045.9335941688
  0
LINE
  5
198
100
AcDbEntity
  8
0
  6
ByLayer
 62
  256
370
   -1
100
AcDbLine
 10
-14263.82625109545
 20
116050.9335941688
 11
-14263.82625109545
 21
116045.9335941688
  0
MTEXT
  5
199
100
AcDbEntity
  8
TEXT
  6
ByLayer
 62
  256
370
   -1
100
AcDbMText
 10
-14538.21842986184
 20
115873.7288776671
 30
0
 40
7
 41
53.58332777777778
 71
    1
 72
    1
  1
BED ROOM
  7
simplex
210
0
220
0
230
1
 50
0
 73
    2
 44
1
  0
MTEXT
  5
19A
100
AcDbEntity
  8
TEXT
  6
ByLayer
 62
  256
370
   -1
100
AcDbMText
 10
-14313.35569343396
 20
115998.03783163
 30
0
 40
7
 41
53.58332777777778
 71
    1
 72
    1
  1
BED ROOM
  7
simplex
210
0
220
0
230
1
 50
0
 73
    2
 44
1
  0
MTEXT
  5
19B
100
AcDbEntity
  8
TEXT
  6
ByLayer
 62
  256
370
   -1
100
AcDbMText
 10
-14443.52029549174
 20
116002.3133112596
 30
0
 40
7
 41
30.66666555555555
 71
    1
 72
    1
  1
DINING
  7
simplex
210
0
220
0
230
1
 50
0
 73
    2
 44
1
  0
MTEXT
  5
19C
100
AcDbEntity
  8
TEXT
  6
ByLayer
 62
  256
370
   -1
100
AcDbMText
 10
-14413.11688479211
 20
115855.0467906833
 30
0
 40
7
 41
44.99999777777778
 71
    1
 72
    1
  1
DRAWING
  7
simplex
210
0
220
0
230
1
 50
0
 73
    2
 44
1
  0
MTEXT
  5
19D
100
AcDbEntity
  8
TEXT
  6
ByLayer
 62
  256
370
   -1
100
AcDbMText
 10
-14273.4512168907
 20
115878.7994552924
 30
0
 40
7
 41
70.24999333333334
 71
    1
 72
    1
  1
CAR PARKING
  7
simplex
210
0
220
0
230
1
 50
0
 73
    2
 44
1
  0
MTEXT
  5
19E
100
AcDbEntity
  8
TEXT
  6
ByLayer
 62
  256
370
   -1
100
AcDbMText
 10
-14560.85845866061
 20
115958.1333550867
 30
0
 40
7
 41
22.33333666666666
 71
    1
 72
    1
  1
W/C
  7
simplex
210
0
220
0
230
1
 50
0
 73
    2
 44
1
  0
MTEXT
  5
19F
100
AcDbEntity
  8
TEXT
  6
ByLayer
 62
  256
370
   -1
100
AcDbMText
 10
-14567.50920475116
 20
116025.1158692843
 30
0
 40
7
 41
42
 71
    1
 72
    1
  1
KITCHEN
  7
simplex
210
0
220
0
230
1
 50
0
 73
    2
 44
1
  0
DIMENSION
  5
1A0
100
AcDbEntity
  8
dimension
  6
ByLayer
 62
  256
370
   -1
100
AcDbDimension
  2
*D1
 10
-14633.82188929024
 20
115810.9335941688
 30
0
 11
-14642.07188929024
 21
115930.9335941688
 31
0
 70
   33
 71
    5
  3
Standard
 53
0
210
0
220
0
230
1
100
AcDbAlignedDimension
 13
-14579.26301434282
 23
116050.9335941688
 33
0
 14
-14579.26301434282
 24
115810.9335941688
 34
0
  0
DIMENSION
  5
1A1
100
AcDbEntity
  8
dimension
  6
ByLayer
 62
  256
370
   -1
100
AcDbDimension
  2
*D2
 10
-14609.71855916808
 20
115981.9335941689
 30
0
 11
-14617.96855916808
 21
116013.9335941689
 31
0
 70
   33
 71
    5
  3
Standard
 53
0
210
0
220
0
230
1
100
AcDbAlignedDimension
 13
-14574.26301434282
 23
116045.9335941688
 33
0
 14
-14574.26301434282
 24
115981.9335941689
 34
0
  0
DIMENSION
  5
1A2
100
AcDbEntity
  8
dimension
  6
ByLayer
 62
  256
370
   -1
100
AcDbDimension
  2
*D3
 10
-14610.22336079281
 20
115932.9335941688
 30
0
 11
-14618.47336079281
 21
115954.9335941688
 31
0
 70
   33
 71
    5
  3
Standard
 53
0
210
0
220
0
230
1
100
AcDbAlignedDimension
 13
-14574.26301434282
 23
115976.9335941688
 33
0
 14
-14574.26301434282
 24
115932.9335941688
 34
0
  0
DIMENSION
  5
1A3
100
AcDbEntity
  8
dimension
  6
ByLayer
 62
  256
370
   -1
100
AcDbDimension
  2
*D4
 10
-14610.22264765693
 20
115815.9335941688
 30
0
 11
-14618.47264765693
 21
115871.9335941688
 31
0
 70
   33
 71
    5
  3
Standard
 53
0
210
0
220
0
230
1
100
AcDbAlignedDimension
 13
-14574.26301434282
 23
115927.9335941688
 33
0
 14
-14574.26301434282
 24
115815.9335941688
 34
0
  0
DIMENSION
  5
1A4
100
AcDbEntity
  8
dimension
  6
ByLayer
 62
  256
370
   -1
100
AcDbDimension
  2
*D5
 10
-14444.26301434282
 20
115782.3308059137
 30
0
 11
-14509.26301434282
 21
115790.5808059137
 31
0
 70
   33
 71
    5
  3
Standard
 53
0
210
0
220
0
230
1
100
AcDbAlignedDimension
 13
-14574.26301434282
 23
115815.9335941688
 33
0
 14
-14444.26301434282
 24
115815.9335941688
 34
0
  0
DIMENSION
  5
1A5
100
AcDbEntity
  8
dimension
  6
ByLayer
 62
  256
370
   -1
100
AcDbDimension
  2
*D6
 10
-14341.26301434282
 20
115782.3308059205
 30
0
 11
-14390.26301434282
 21
115790.5808059205
 31
0
 70
   33
 71
    5
  3
Standard
 53
0
210
0
220
0
230
1
100
AcDbAlignedDimension
 13
-14439.26301434282
 23
115815.9335941688
 33
0
 14
-14341.26301434282
 24
115815.9335941688
 34
0
  0
DIMENSION
  5
1A6
100
AcDbEntity
  8
dimension
  6
ByLayer
 62
  256
370
   -1
100
AcDbDimension
  2
*D7
 10
-14147.25727403286
 20
115782.0000124609
 30
0
 11
-14241.76014418784
 21
115790.2500124608
 31
0
 70
   33
 71
    5
  3
Standard
 53
0
210
0
220
0
230
1
100
AcDbAlignedDimension
 13
-14336.26301434282
 23
115815.9335941688
 33
0
 14
-14147.25727403288
 24
115815.9335941689
 34
0
  0
DIMENSION
  5
1A7
100
AcDbEntity
  8
dimension
  6
ByLayer
 62
  256
370
   -1
100
AcDbDimension
  2
*D8
 10
-14124.75000152016
 20
115927.9335941688
 30
0
 11
-14133.00000152016
 21
115869.4335941688
 31
0
 70
   33
 71
    5
  3
Standard
 53
0
210
0
220
0
230
1
100
AcDbAlignedDimension
 13
-14147.26301434282
 23
115810.9335941688
 33
0
 14
-14147.26301434282
 24
115927.9335941688
 34
0
  0
DIMENSION
  5
1A8
100
AcDbEntity
  8
dimension
  6
ByLayer
 62
  256
370
   -1
100
AcDbDimension
  2
*D9
 10
-14124.00562691931
 20
115927.9335941688
 30
0
 11
-14132.25562691931
 21
115989.4335941688
 31
0
 70
   33
 71
    5
  3
Standard
 53
0
210
0
220
0
230
1
100
AcDbAlignedDimension
 13
-14147.26301434282
 23
116050.9335941688
 33
0
 14
-14147.26301434282
 24
115927.9335941688
 34
0
  0
DIMENSION
  5
1A9
100
AcDbEntity
  8
dimension
  6
ByLayer
 62
  256
370
   -1
100
AcDbDimension
  2
*D10
 10
-14496.26301434282
 20
116067.5022112819
 30
0
 11
-14535.26301434282
 21
116075.7522112819
 31
0
 70
   33
 71
    5
  3
Standard
 53
0
210
0
220
0
230
1
100
AcDbAlignedDimension
 13
-14574.26301434282
 23
116045.9335941688
 33
0
 14
-14496.26301434282
 24
116045.9335941688
 34
0
  0
DIMENSION
  5
1AA
100
AcDbEntity
  8
dimension
  6
ByLayer
 62
  256
370
   -1
100
AcDbDimension
  2
*D11
 10
-14362.26301434282
 20
116067.282334413
 30
0
 11
-14426.76301434282
 21
116075.532334413
 31
0
 70
   33
 71
    5
  3
Standard
 53
0
210
0
220
0
230
1
100
AcDbAlignedDimension
 13
-14491.26301434282
 23
116045.9335941688
 33
0
 14
-14362.26301434282
 24
116045.9335941688
 34
0
  0
DIMENSION
  5
1AB
100
AcDbEntity
  8
dimension
  6
ByLayer
 62
  256
370
   -1
100
AcDbDimension
  2
*D12
 10
-14230.26301434282
 20
116067.282334444
 30
0
 11
-14293.76301434282
 21
116075.532334444
 31
0
 70
   33
 71
    5
  3
Standard
 53
0
210
0
220
0
230
1
100
AcDbAlignedDimension
 13
-14357.26301434282
 23
116045.9335941688
 33
0
 14
-14230.26301434282
 24
116045.9335941688
 34
0
  0
DIMENSION
  5
1AC
100
AcDbEntity
  8
dimension
  6
ByLayer
 62
  256
370
   -1
100
AcDbDimension
  2
*D13
 10
-14152.26301434282
 20
116066.7500125619
 30
0
 11
-14188.76301434282
 21
116075.0000125619
 31
0
 70
   33
 71
    5
  3
Standard
 53
0
210
0
220
0
230
1
100
AcDbAlignedDimension
 13
-14225.26301434282
 23
116045.9335941688
 33
0
 14
-14152.26301434282
 24
116045.9335941688
 34
0
  0
DIMENSION
  5
1AD
100
AcDbEntity
  8
dimension
  6
ByLayer
 62
  256
370
   -1
100
AcDbDimension
  2
*D14
 10
-14147.26301434282
 20
115740.0838945192
 30
0
 11
-14363.26301434282
 21
115748.3338945192
 31
0
 70
   33
 71
    5
  3
Standard
 53
0
210
0
220
0
230
1
100
AcDbAlignedDimension
 13
-14579.26301434282
 23
115810.9335941688
 33
0
 14
-14147.26301434282
 24
115810.9335941688
 34
0
  0
ENDSEC
  0
SECTION
  2
OBJECTS
  0
DICTIONARY
  5
C
330
0
100
AcDbDictionary
281
    1
  3
ACAD_GROUP
350
D
  0
DICTIONARY
  5
D
330
C
100
AcDbDictionary
281
    1
  0
PLOTSETTINGS
  5
1AE
100
AcDbPlotSettings
  6
1x1
 40
0
 41
0
 42
0
 43
0
  0
ENDSEC
  0
EOF
