999
dxfrw 0.6.3
  0
SECTION
  2
HEADER
  9
$ACADVER
  1
AC1021
  9
$DWGCODEPAGE
  3
ANSI_1252
  9
$INSBASE
 10
0
 20
0
 30
0
  9
$EXTMIN
 10
145.4621204048449
 20
-259.8678628837573
 30
0
  9
$EXTMAX
 10
798.1826858427929
 20
407.0068612601397
 30
0
  9
$LIMMIN
 10
0
 20
0
  9
$LIMMAX
 10
420
 20
297
  9
$ORTHOMODE
 70
    0
  9
$REGENMODE
 70
    1
  9
$FILLMODE
 70
    1
  9
$QTEXTMODE
 70
    0
  9
$MIRRTEXT
 70
    0
  9
$LTSCALE
 40
1
  9
$ATTMODE
 70
    0
  9
$TEXTSIZE
 40
2.5
  9
$TRACEWID
 40
15.68
  9
$TEXTSTYLE
  7
STANDARD
  9
$CLAYER
  8
Dimension
  9
$CELTYPE
  6
BYLAYER
  9
$CECOLOR
 62
  256
  9
$CELTSCALE
 40
1
  9
$DISPSILH
 70
    0
  9
$DIMSCALE
 40
9
  9
$DIMASZ
 40
1
  9
$DIMEXO
 40
1
  9
$DIMDLI
 40
3.75
  9
$DIMRND
 40
0
  9
$DIMDLE
 40
0
  9
$DIMEXE
 40
1.25
  9
$DIMTP
 40
0
  9
$DIMTM
 40
0
  9
$DIMTXT
 40
1
  9
$DIMCEN
 40
2.5
  9
$DIMTSZ
 40
1
  9
$DIMTOL
 70
    0
  9
$DIMLIM
 70
    0
  9
$DIMTIH
 70
    0
  9
$DIMTOH
 70
    0
  9
$DIMSE1
 70
    0
  9
$DIMSE2
 70
    0
  9
$DIMTAD
 70
    1
  9
$DIMZIN
 70
    1
  9
$DIMBLK
  1

  9
$DIMASO
 70
    1
  9
$DIMSHO
 70
    1
  9
$DIMPOST
  1

  9
$DIMAPOST
  1

  9
$DIMALT
 70
    0
  9
$DIMALTD
 70
    3
  9
$DIMALTF
 40
0.03937
  9
$DIMLFAC
 40
1
  9
$DIMTOFL
 70
    1
  9
$DIMTVP
 40
0
  9
$DIMTIX
 70
    0
  9
$DIMSOXD
 70
    0
  9
$DIMSAH
 70
    0
  9
$DIMBLK1
  1

  9
$DIMBLK2
  1

  9
$DIMSTYLE
  2
STANDARD
  9
$DIMCLRD
 70
    0
  9
$DIMCLRE
 70
    0
  9
$DIMCLRT
 70
    0
  9
$DIMTFAC
 40
1
  9
$DIMGAP
 40
1
  9
$DIMJUST
 70
    0
  9
$DIMSD1
 70
    0
  9
$DIMSD2
 70
    0
  9
$DIMTOLJ
 70
    0
  9
$DIMTZIN
 70
    8
  9
$DIMALTZ
 70
    0
  9
$DIMALTTZ
 70
    0
  9
$DIMUPT
 70
    0
  9
$DIMDEC
 70
    2
  9
$DIMTDEC
 70
    2
  9
$DIMALTU
 70
    2
  9
$DIMALTTD
 70
    3
  9
$DIMTXSTY
  7
iso
  9
$DIMAUNIT
 70
    0
  9
$DIMADEC
 70
    2
  9
$DIMALTRND
 40
0
  9
$DIMAZIN
 70
    0
  9
$DIMDSEP
 70
    0
  9
$DIMATFIT
 70
    3
  9
$DIMFRAC
 70
    0
  9
$DIMLDRBLK
  1
STANDARD
  9
$DIMLUNIT
 70
    2
  9
$DIMLWD
 70
   -2
  9
$DIMLWE
 70
   -2
  9
$DIMTMOVE
 70
    0
  9
$DIMFXL
 40
0.1
  9
$DIMFXLON
 70
    0
  9
$DIMJOGANG
 40
0.7854
  9
$DIMTFILL
 70
    0
  9
$DIMTFILLCLR
 70
    0
  9
$DIMARCSYM
 70
    0
  9
$DIMLTYPE
  6

  9
$DIMLTEX1
  6

  9
$DIMLTEX2
  6

  9
$LUNITS
 70
    2
  9
$LUPREC
 70
    4
  9
$SKETCHINC
 40
1
  9
$FILLETRAD
 40
0
  9
$AUNITS
 70
    0
  9
$AUPREC
 70
    2
  9
$MENU
  1
.
  9
$ELEVATION
 40
0
  9
$PELEVATION
 40
0
  9
$THICKNESS
 40
0
  9
$LIMCHECK
 70
    0
  9
$CHAMFERA
 40
0
  9
$CHAMFERB
 40
0
  9
$CHAMFERC
 40
0
  9
$CHAMFERD
 40
0
  9
$SKPOLY
 70
    0
  9
$USRTIMER
 70
    1
  9
$ANGBASE
 50
0
  9
$ANGDIR
 70
    0
  9
$PDMODE
 70
   34
  9
$PDSIZE
 40
0
  9
$PLINEWID
 40
0
  9
$SPLFRAME
 70
    0
  9
$SPLINETYPE
 70
    2
  9
$SPLINESEGS
 70
    8
  9
$HANDSEED
  5
20000
  9
$SURFTAB1
 70
    6
  9
$SURFTAB2
 70
    6
  9
$SURFTYPE
 70
    6
  9
$SURFU
 70
    6
  9
$SURFV
 70
    6
  9
$UCSBASE
  2

  9
$UCSNAME
  2

  9
$UCSORG
 10
0
 20
0
 30
0
  9
$UCSXDIR
 10
1
 20
0
 30
0
  9
$UCSYDIR
 10
0
 20
1
 30
0
  9
$UCSORTHOREF
  2

  9
$UCSORTHOVIEW
 70
    0
  9
$UCSORGTOP
 10
0
 20
0
 30
0
  9
$UCSORGBOTTOM
 10
0
 20
0
 30
0
  9
$UCSORGLEFT
 10
0
 20
0
 30
0
  9
$UCSORGRIGHT
 10
0
 20
0
 30
0
  9
$UCSORGFRONT
 10
0
 20
0
 30
0
  9
$UCSORGBACK
 10
0
 20
0
 30
0
  9
$PUCSBASE
  2

  9
$PUCSNAME
  2

  9
$PUCSORG
 10
0
 20
0
 30
0
  9
$PUCSXDIR
 10
1
 20
0
 30
0
  9
$PUCSYDIR
 10
0
 20
1
 30
0
  9
$PUCSORTHOREF
  2

  9
$PUCSORTHOVIEW
 70
    0
  9
$PUCSORGTOP
 10
0
 20
0
 30
0
  9
$PUCSORGBOTTOM
 10
0
 20
0
 30
0
  9
$PUCSORGLEFT
 10
0
 20
0
 30
0
  9
$PUCSORGRIGHT
 10
0
 20
0
 30
0
  9
$PUCSORGFRONT
 10
0
 20
0
 30
0
  9
$PUCSORGBACK
 10
0
 20
0
 30
0
  9
$USERI1
 70
    0
  9
$USERI2
 70
    0
  9
$USERI3
 70
    0
  9
$USERI4
 70
    0
  9
$USERI5
 70
    0
  9
$USERR1
 40
0
  9
$USERR2
 40
0
  9
$USERR3
 40
0
  9
$USERR4
 40
0
  9
$USERR5
 40
0
  9
$WORLDVIEW
 70
    1
  9
$SHADEDGE
 70
    3
  9
$SHADEDIF
 70
   70
  9
$TILEMODE
 70
    1
  9
$MAXACTVP
 70
   64
  9
$PINSBASE
 10
0
 20
0
 30
0
  9
$PLIMCHECK
 70
    0
  9
$PEXTMIN
 10
0
 20
0
 30
0
  9
$PEXTMAX
 10
0
 20
0
 30
0
  9
$GRIDMODE
 70
    1
  9
$SNAPSTYLE
 70
    0
  9
$GRIDUNIT
 10
0
 20
0
  9
$PLIMMIN
 10
0
 20
0
  9
$PLIMMAX
 10
297
 20
210
  9
$UNITMODE
 70
    0
  9
$VISRETAIN
 70
    1
  9
$PLINEGEN
 70
    0
  9
$PSLTSCALE
 70
    1
  9
$TREEDEPTH
 70
 3020
  9
$CMLSTYLE
  2
Standard
  9
$CMLJUST
 70
    0
  9
$CMLSCALE
 40
20
  9
$PROXYGRAPHICS
 70
    1
  9
$MEASUREMENT
 70
    1
  9
$CELWEIGHT
370
   -1
  9
$ENDCAPS
280
    0
  9
$JOINSTYLE
280
    0
  9
$LWDISPLAY
290
    0
  9
$INSUNITS
 70
    5
  9
$HYPERLINKBASE
  1

  9
$STYLESHEET
  1

  9
$XEDIT
290
    1
  9
$CEPSNTYPE
380
    0
  9
$PSTYLEMODE
290
    1
  9
$EXTNAMES
290
    1
  9
$PSVPSCALE
 40
1
  9
$OLESTARTUP
290
    0
  9
$SORTENTS
280
  127
  9
$INDEXCTL
280
    0
  9
$HIDETEXT
280
    1
  9
$XCLIPFRAME
290
    0
  9
$HALOGAP
280
    0
  9
$OBSCOLOR
 70
  257
  9
$OBSLTYPE
280
    0
  9
$INTERSECTIONDISPLAY
280
    0
  9
$INTERSECTIONCOLOR
 70
  257
  9
$DIMASSOC
280
    1
  9
$PROJECTNAME
  1

  9
$CAMERADISPLAY
290
    0
  9
$LENSLENGTH
 40
50
  9
$CAMERAHEIGHT
 40
0
  9
$STEPSPERSEC
 40
2
  9
$STEPSIZE
 40
50
  9
$3DDWFPREC
 40
2
  9
$PSOLWIDTH
 40
5
  9
$PSOLHEIGHT
 40
80
  9
$LOFTANG1
 40
1.570796326794897
  9
$LOFTANG2
 40
1.570796326794897
  9
$LOFTMAG1
 40
0
  9
$LOFTMAG2
 40
0
  9
$LOFTPARAM
 70
    7
  9
$LOFTNORMALS
280
    1
  9
$LATITUDE
 40
1
  9
$LONGITUDE
 40
1
  9
$NORTHDIRECTION
 40
0
  9
$TIMEZONE
 70
-8000
  9
$LIGHTGLYPHDISPLAY
280
    1
  9
$TILEMODELIGHTSYNCH
280
    1
  9
$SOLIDHIST
280
    1
  9
$SHOWHIST
280
    1
  9
$DWFFRAME
280
    2
  9
$DGNFRAME
280
    0
  9
$REALWORLDSCALE
290
    1
  9
$INTERFERECOLOR
 62
    1
  9
$CSHADOW
280
    0
  9
$SHADOWPLANELOCATION
 40
0
  0
ENDSEC
  0
SECTION
  2
CLASSES
  0
ENDSEC
  0
SECTION
  2
TABLES
  0
TABLE
  2
VPORT
  5
8
330
0
100
AcDbSymbolTable
 70
    1
  0
VPORT
  5
31
330
2
100
AcDbSymbolTableRecord
100
AcDbViewportTableRecord
  2
*ACTIVE
 70
    0
 10
0
 20
0
 11
1
 21
1
 12
676.9935606147613
 22
316.0749850306097
 13
0
 23
0
 14
10
 24
10
 15
10
 25
10
 16
0
 26
0
 36
1
 17
0
 27
0
 37
0
 40
1168.826489266511
 41
1.469059405940594
 42
50
 43
0
 44
0
 50
0
 51
0
 71
    0
 72
  100
 73
    1
 74
    3
 75
    0
 76
    1
 77
    0
 78
    0
281
    0
 65
    1
110
0
120
0
130
0
111
1
121
0
131
0
112
0
122
1
132
0
 79
    0
146
0
348
10020
 60
    7
 61
    5
292
1
282
    1
141
0
142
0
 63
  250
421
3358443
  0
ENDTAB
  0
TABLE
  2
LTYPE
  5
5
330
0
100
AcDbSymbolTable
 70
    4
  0
LTYPE
  5
14
330
5
100
AcDbSymbolTableRecord
100
AcDbLinetypeTableRecord
  2
ByBlock
 70
    0
  3

 72
   65
 73
    0
 40
0
  0
LTYPE
  5
15
330
5
100
AcDbSymbolTableRecord
100
AcDbLinetypeTableRecord
  2
ByLayer
 70
    0
  3

 72
   65
 73
    0
 40
0
  0
LTYPE
  5
16
330
5
100
AcDbSymbolTableRecord
100
AcDbLinetypeTableRecord
  2
Continuous
 70
    0
  3
Solid line
 72
   65
 73
    0
 40
0
  0
LTYPE
  5
32
330
5
100
AcDbSymbolTableRecord
100
AcDbLinetypeTableRecord
  2
DOT
 70
    0
  3
Dot . . . . . . . . . . . . . . . . . . . . . .
 72
   65
 73
    2
 40
6.35
 49
0
 74
    0
 49
-6.35
 74
    0
  0
LTYPE
  5
33
330
5
100
AcDbSymbolTableRecord
100
AcDbLinetypeTableRecord
  2
DOTTINY
 70
    0
  3
Dot (.15x) .....................................
 72
   65
 73
    2
 40
0.9525
 49
0
 74
    0
 49
-0.9525
 74
    0
  0
LTYPE
  5
34
330
5
100
AcDbSymbolTableRecord
100
AcDbLinetypeTableRecord
  2
DOT2
 70
    0
  3
Dot (.5x) .....................................
 72
   65
 73
    2
 40
3.175
 49
0
 74
    0
 49
-3.175
 74
    0
  0
LTYPE
  5
35
330
5
100
AcDbSymbolTableRecord
100
AcDbLinetypeTableRecord
  2
DOTX2
 70
    0
  3
Dot (2x) .  .  .  .  .  .  .  .  .  .  .  .  .
 72
   65
 73
    2
 40
12.7
 49
0
 74
    0
 49
-12.7
 74
    0
  0
LTYPE
  5
36
330
5
100
AcDbSymbolTableRecord
100
AcDbLinetypeTableRecord
  2
DASHED
 70
    0
  3
Dashed _ _ _ _ _ _ _ _ _ _ _ _ _ _ _ _ _
 72
   65
 73
    2
 40
19.05
 49
12.7
 74
    0
 49
-6.35
 74
    0
  0
LTYPE
  5
37
330
5
100
AcDbSymbolTableRecord
100
AcDbLinetypeTableRecord
  2
DASHEDTINY
 70
    0
  3
Dashed (.15x) _ _ _ _ _ _ _ _ _ _ _ _ _ _ _ _ _
 72
   65
 73
    2
 40
2.8575
 49
1.905
 74
    0
 49
-0.9525
 74
    0
  0
LTYPE
  5
38
330
5
100
AcDbSymbolTableRecord
100
AcDbLinetypeTableRecord
  2
DASHED2
 70
    0
  3
Dashed (.5x) _ _ _ _ _ _ _ _ _ _ _ _ _ _ _ _ _
 72
   65
 73
    2
 40
9.524999999999999
 49
6.35
 74
    0
 49
-3.175
 74
    0
  0
LTYPE
  5
39
330
5
100
AcDbSymbolTableRecord
100
AcDbLinetypeTableRecord
  2
DASHEDX2
 70
    0
  3
Dashed (2x) ____  ____  ____  ____  ____  ___
 72
   65
 73
    2
 40
38.09999999999999
 49
25.4
 74
    0
 49
-12.7
 74
    0
  0
LTYPE
  5
3A
330
5
100
AcDbSymbolTableRecord
100
AcDbLinetypeTableRecord
  2
DASHDOT
 70
    0
  3
Dash dot __ . __ . __ . __ . __ . __ . __ . __
 72
   65
 73
    4
 40
25.4
 49
12.7
 74
    0
 49
-6.35
 74
    0
 49
0
 74
    0
 49
-6.35
 74
    0
  0
LTYPE
  5
3B
330
5
100
AcDbSymbolTableRecord
100
AcDbLinetypeTableRecord
  2
DASHDOTTINY
 70
    0
  3
Dash dot (.15x) _._._._._._._._._._._._._._._.
 72
   65
 73
    4
 40
3.81
 49
1.905
 74
    0
 49
-0.9525
 74
    0
 49
0
 74
    0
 49
-0.9525
 74
    0
  0
LTYPE
  5
3C
330
5
100
AcDbSymbolTableRecord
100
AcDbLinetypeTableRecord
  2
DASHDOT2
 70
    0
  3
Dash dot (.5x) _._._._._._._._._._._._._._._.
 72
   65
 73
    4
 40
12.7
 49
6.35
 74
    0
 49
-3.175
 74
    0
 49
0
 74
    0
 49
-3.175
 74
    0
  0
LTYPE
  5
3D
330
5
100
AcDbSymbolTableRecord
100
AcDbLinetypeTableRecord
  2
DASHDOTX2
 70
    0
  3
Dash dot (2x) ____  .  ____  .  ____  .  ___
 72
   65
 73
    4
 40
50.8
 49
25.4
 74
    0
 49
-12.7
 74
    0
 49
0
 74
    0
 49
-12.7
 74
    0
  0
LTYPE
  5
3E
330
5
100
AcDbSymbolTableRecord
100
AcDbLinetypeTableRecord
  2
DIVIDE
 70
    0
  3
Divide ____ . . ____ . . ____ . . ____ . . ____
 72
   65
 73
    6
 40
31.75
 49
12.7
 74
    0
 49
-6.35
 74
    0
 49
0
 74
    0
 49
-6.35
 74
    0
 49
0
 74
    0
 49
-6.35
 74
    0
  0
LTYPE
  5
3F
330
5
100
AcDbSymbolTableRecord
100
AcDbLinetypeTableRecord
  2
DIVIDETINY
 70
    0
  3
Divide (.15x) __..__..__..__..__..__..__..__.._
 72
   65
 73
    6
 40
4.7625
 49
1.905
 74
    0
 49
-0.9525
 74
    0
 49
0
 74
    0
 49
-0.9525
 74
    0
 49
0
 74
    0
 49
-0.9525
 74
    0
  0
LTYPE
  5
40
330
5
100
AcDbSymbolTableRecord
100
AcDbLinetypeTableRecord
  2
DIVIDE2
 70
    0
  3
Divide (.5x) __..__..__..__..__..__..__..__.._
 72
   65
 73
    6
 40
15.875
 49
6.35
 74
    0
 49
-3.175
 74
    0
 49
0
 74
    0
 49
-3.175
 74
    0
 49
0
 74
    0
 49
-3.175
 74
    0
  0
LTYPE
  5
41
330
5
100
AcDbSymbolTableRecord
100
AcDbLinetypeTableRecord
  2
DIVIDEX2
 70
    0
  3
Divide (2x) ________  .  .  ________  .  .  _
 72
   65
 73
    6
 40
63.5
 49
25.4
 74
    0
 49
-12.7
 74
    0
 49
0
 74
    0
 49
-12.7
 74
    0
 49
0
 74
    0
 49
-12.7
 74
    0
  0
LTYPE
  5
42
330
5
100
AcDbSymbolTableRecord
100
AcDbLinetypeTableRecord
  2
BORDER
 70
    0
  3
Border __ __ . __ __ . __ __ . __ __ . __ __ .
 72
   65
 73
    6
 40
44.45
 49
12.7
 74
    0
 49
-6.35
 74
    0
 49
12.7
 74
    0
 49
-6.35
 74
    0
 49
0
 74
    0
 49
-6.35
 74
    0
  0
LTYPE
  5
43
330
5
100
AcDbSymbolTableRecord
100
AcDbLinetypeTableRecord
  2
BORDERTINY
 70
    0
  3
Border (.15x) __.__.__.__.__.__.__.__.__.__.__.
 72
   65
 73
    6
 40
6.6675
 49
1.905
 74
    0
 49
-0.9525
 74
    0
 49
1.905
 74
    0
 49
-0.9525
 74
    0
 49
0
 74
    0
 49
-0.9525
 74
    0
  0
LTYPE
  5
44
330
5
100
AcDbSymbolTableRecord
100
AcDbLinetypeTableRecord
  2
BORDER2
 70
    0
  3
Border (.5x) __.__.__.__.__.__.__.__.__.__.__.
 72
   65
 73
    6
 40
22.225
 49
6.35
 74
    0
 49
-3.175
 74
    0
 49
6.35
 74
    0
 49
-3.175
 74
    0
 49
0
 74
    0
 49
-3.175
 74
    0
  0
LTYPE
  5
45
330
5
100
AcDbSymbolTableRecord
100
AcDbLinetypeTableRecord
  2
BORDERX2
 70
    0
  3
Border (2x) ____  ____  .  ____  ____  .  ___
 72
   65
 73
    6
 40
88.89999999999999
 49
25.4
 74
    0
 49
-12.7
 74
    0
 49
25.4
 74
    0
 49
-12.7
 74
    0
 49
0
 74
    0
 49
-12.7
 74
    0
  0
LTYPE
  5
46
330
5
100
AcDbSymbolTableRecord
100
AcDbLinetypeTableRecord
  2
CENTER
 70
    0
  3
Center ____ _ ____ _ ____ _ ____ _ ____ _ ____
 72
   65
 73
    4
 40
50.8
 49
31.75
 74
    0
 49
-6.35
 74
    0
 49
6.35
 74
    0
 49
-6.35
 74
    0
  0
LTYPE
  5
47
330
5
100
AcDbSymbolTableRecord
100
AcDbLinetypeTableRecord
  2
CENTERTINY
 70
    0
  3
Center (.15x) ___ _ ___ _ ___ _ ___ _ ___ _ ___
 72
   65
 73
    4
 40
7.619999999999999
 49
4.7625
 74
    0
 49
-0.9525
 74
    0
 49
0.9525
 74
    0
 49
-0.9525
 74
    0
  0
LTYPE
  5
48
330
5
100
AcDbSymbolTableRecord
100
AcDbLinetypeTableRecord
  2
CENTER2
 70
    0
  3
Center (.5x) ___ _ ___ _ ___ _ ___ _ ___ _ ___
 72
   65
 73
    4
 40
28.575
 49
19.05
 74
    0
 49
-3.175
 74
    0
 49
3.175
 74
    0
 49
-3.175
 74
    0
  0
LTYPE
  5
49
330
5
100
AcDbSymbolTableRecord
100
AcDbLinetypeTableRecord
  2
CENTERX2
 70
    0
  3
Center (2x) ________  __  ________  __  _____
 72
   65
 73
    4
 40
101.6
 49
63.5
 74
    0
 49
-12.7
 74
    0
 49
12.7
 74
    0
 49
-12.7
 74
    0
  0
ENDTAB
  0
TABLE
  2
LAYER
  5
2
330
0
100
AcDbSymbolTable
 70
    1
  0
LAYER
  5
10
330
2
100
AcDbSymbolTableRecord
100
AcDbLayerTableRecord
  2
0
 70
    0
 62
    7
  6
CONTINUOUS
370
    0
390
F
  0
LAYER
  5
4A
330
2
100
AcDbSymbolTableRecord
100
AcDbLayerTableRecord
  2
Dimension
 70
    0
 62
  176
420
  128
  6
CONTINUOUS
370
   15
390
F
  0
LAYER
  5
4B
330
2
100
AcDbSymbolTableRecord
100
AcDbLayerTableRecord
  2
Door & Window
 70
    0
 62
   16
420
8388608
  6
CONTINUOUS
370
   13
390
F
  0
LAYER
  5
4C
330
2
100
AcDbSymbolTableRecord
100
AcDbLayerTableRecord
  2
Hatch
 70
    0
 62
  188
420
1707335
  6
CONTINUOUS
370
   13
390
F
  0
LAYER
  5
4D
330
2
100
AcDbSymbolTableRecord
100
AcDbLayerTableRecord
  2
Only A Line
 70
    0
 62
  216
420
8388736
  6
CONTINUOUS
370
   15
390
F
1001
LibreCad
1070
    1
  0
LAYER
  5
4E
330
2
100
AcDbSymbolTableRecord
100
AcDbLayerTableRecord
  2
Property
 70
    0
 62
   96
420
32768
  6
CONTINUOUS
370
   13
390
F
  0
LAYER
  5
4F
330
2
100
AcDbSymbolTableRecord
100
AcDbLayerTableRecord
  2
Wall
 70
    0
 62
    7
  6
CONTINUOUS
370
   15
390
F
  0
ENDTAB
  0
TABLE
  2
STYLE
  5
3
330
0
100
AcDbSymbolTable
 70
    3
  0
STYLE
  5
50
330
2
100
AcDbSymbolTableRecord
100
AcDbTextStyleTableRecord
  2
Standard
 70
    0
 40
0
 41
1
 50
0
 71
    0
 42
1
  3
txt
  4

  0
ENDTAB
  0
TABLE
  2
VIEW
  5
6
330
0
100
AcDbSymbolTable
 70
    0
  0
ENDTAB
  0
TABLE
  2
UCS
  5
7
330
0
100
AcDbSymbolTable
 70
    0
  0
ENDTAB
  0
TABLE
  2
APPID
  5
9
330
0
100
AcDbSymbolTable
 70
    1
  0
APPID
  5
12
330
9
100
AcDbSymbolTableRecord
100
AcDbRegAppTableRecord
  2
ACAD
 70
    0
  0
APPID
  5
51
330
9
100
AcDbSymbolTableRecord
100
AcDbRegAppTableRecord
  2
LibreCad
 70
    0
  0
ENDTAB
  0
TABLE
  2
DIMSTYLE
  5
A
330
0
100
AcDbSymbolTable
 70
    1
100
AcDbDimStyleTable
 71
    1
  0
DIMSTYLE
105
52
330
A
100
AcDbSymbolTableRecord
100
AcDbDimStyleTableRecord
  2
Standard
 70
    0
 40
9
 41
1
 42
1
 43
0.38
 44
1.25
 45
0
 46
0
 47
0
 48
0
 49
0.1
140
1
141
0.09
142
1
143
25.4
144
1
145
0
146
1
147
1
148
0
 71
    0
 72
    0
 73
    0
 74
    1
 75
    0
 76
    0
 77
    0
 78
    1
 79
    0
170
    0
171
    2
172
    0
173
    0
174
    0
175
    0
176
    0
177
    0
178
    0
179
    2
271
    2
272
    4
273
    2
274
    2
275
    0
276
    0
277
    2
278
    0
279
    0
280
    0
281
    0
282
    0
283
    1
284
    0
285
    0
286
    0
288
    0
289
    3
340
iso
341

371
   -2
372
   -2
  0
ENDTAB
  0
TABLE
  2
BLOCK_RECORD
  5
1
330
0
100
AcDbSymbolTable
 70
    2
  0
BLOCK_RECORD
  5
1F
330
1
100
AcDbSymbolTableRecord
100
AcDbBlockTableRecord
  2
*Model_Space
 70
    0
280
    1
281
    0
  0
BLOCK_RECORD
  5
1E
330
1
100
AcDbSymbolTableRecord
100
AcDbBlockTableRecord
  2
*Paper_Space
 70
    0
280
    1
281
    0
  0
BLOCK_RECORD
  5
53
330
1
100
AcDbSymbolTableRecord
100
AcDbBlockTableRecord
  2
*D5
 70
    0
280
    1
281
    0
  0
BLOCK_RECORD
  5
56
330
1
100
AcDbSymbolTableRecord
100
AcDbBlockTableRecord
  2
*D7
 70
    0
280
    1
281
    0
  0
BLOCK_RECORD
  5
59
330
1
100
AcDbSymbolTableRecord
100
AcDbBlockTableRecord
  2
*D3
 70
    0
280
    1
281
    0
  0
BLOCK_RECORD
  5
5C
330
1
100
AcDbSymbolTableRecord
100
AcDbBlockTableRecord
  2
*D2
 70
    0
280
    1
281
    0
  0
BLOCK_RECORD
  5
5F
330
1
100
AcDbSymbolTableRecord
100
AcDbBlockTableRecord
  2
*D1
 70
    0
280
    1
281
    0
  0
BLOCK_RECORD
  5
62
330
1
100
AcDbSymbolTableRecord
100
AcDbBlockTableRecord
  2
*D4
 70
    0
280
    1
281
    0
  0
BLOCK_RECORD
  5
65
330
1
100
AcDbSymbolTableRecord
100
AcDbBlockTableRecord
  2
*D6
 70
    0
280
    1
281
    0
  0
ENDTAB
  0
ENDSEC
  0
SECTION
  2
BLOCKS
  0
BLOCK
  5
20
330
1F
100
AcDbEntity
  8
0
100
AcDbBlockBegin
  2
*Model_Space
 70
    0
 10
0
 20
0
 30
0
  3
*Model_Space
  1

  0
ENDBLK
  5
21
330
1F
100
AcDbEntity
  8
0
100
AcDbBlockEnd
  0
BLOCK
  5
1C
330
1B
100
AcDbEntity
  8
0
100
AcDbBlockBegin
  2
*Paper_Space
 70
    0
 10
0
 20
0
 30
0
  3
*Paper_Space
  1

  0
ENDBLK
  5
1D
330
1F
100
AcDbEntity
  8
0
100
AcDbBlockEnd
  0
BLOCK
  5
54
330
53
100
AcDbEntity
  8
0
100
AcDbBlockBegin
  2
*D5
 70
    1
 10
0
 20
0
  3
*D5
  1

  0
LINE
  5
68
100
AcDbEntity
  8
Dimension
  6
ByBlock
 62
    0
370
   -2
100
AcDbLine
 10
786.9326858427929
 20
61.4960981469217
 11
786.9326858427929
 21
-253.5039018530783
  0
MTEXT
  5
69
100
AcDbEntity
  8
Dimension
  6
CONTINUOUS
 62
    0
370
   -2
100
AcDbMText
 10
773.4326858427929
 20
-96.00390185307828
 30
0
 40
9
 41
33.00000000000112
 71
    5
 72
    1
  1
315.00
  7
iso
210
0
220
0
230
1
 50
90
 73
    2
 44
1
  0
LINE
  5
6A
100
AcDbEntity
  8
Dimension
  6
ByBlock
 62
    0
370
   -2
100
AcDbLine
 10
793.2966468734719
 20
55.13213711624277
 11
780.5687248121139
 21
67.86005917760062
  0
LINE
  5
6B
100
AcDbEntity
  8
Dimension
  6
ByBlock
 62
    0
370
   -2
100
AcDbLine
 10
793.2966468734719
 20
-259.8678628837573
 11
780.5687248121139
 21
-247.1399408223994
  0
LINE
  5
6C
100
AcDbEntity
  8
Dimension
  6
ByBlock
 62
    0
370
   -2
100
AcDbLine
 10
723.4159023186398
 20
61.49609814692172
 11
798.1826858427929
 21
61.4960981469217
  0
LINE
  5
6D
100
AcDbEntity
  8
Dimension
  6
ByBlock
 62
    0
370
   -2
100
AcDbLine
 10
723.4159023186398
 20
-253.5039018530783
 11
798.1826858427929
 21
-253.5039018530783
  0
ENDBLK
  5
55
330
53
100
AcDbEntity
  8
0
100
AcDbBlockEnd
  0
BLOCK
  5
57
330
56
100
AcDbEntity
  8
0
100
AcDbBlockBegin
  2
*D7
 70
    1
 10
0
 20
0
  3
*D7
  1

  0
LINE
  5
6E
100
AcDbEntity
  8
Dimension
  6
ByBlock
 62
    0
370
   -2
100
AcDbLine
 10
305.517970142314
 20
-182.2674970885881
 11
449.5219933679718
 21
-182.2674970885881
  0
MTEXT
  5
6F
100
AcDbEntity
  8
Dimension
  6
CONTINUOUS
 62
    0
370
   -2
100
AcDbMText
 10
377.5199817551429
 20
-168.7674970885881
 30
0
 40
9
 41
35
 71
    5
 72
    1
  1
144.00
  7
iso
210
0
220
0
230
1
 50
0
 73
    2
 44
1
  0
LINE
  5
70
100
AcDbEntity
  8
Dimension
  6
ByBlock
 62
    0
370
   -2
100
AcDbLine
 10
311.8819311729929
 20
-175.9035360579092
 11
299.1540091116351
 21
-188.631458119267
  0
LINE
  5
71
100
AcDbEntity
  8
Dimension
  6
ByBlock
 62
    0
370
   -2
100
AcDbLine
 10
455.8859543986507
 20
-175.9035360579092
 11
443.1580323372929
 21
-188.631458119267
  0
LINE
  5
72
100
AcDbEntity
  8
Dimension
  6
ByBlock
 62
    0
370
   -2
100
AcDbLine
 10
305.517970142314
 20
-244.5784795688325
 11
305.517970142314
 21
-171.0174970885881
  0
LINE
  5
73
100
AcDbEntity
  8
Dimension
  6
ByBlock
 62
    0
370
   -2
100
AcDbLine
 10
449.5219933679718
 20
-244.549469455444
 11
449.5219933679718
 21
-171.0174970885881
  0
ENDBLK
  5
58
330
56
100
AcDbEntity
  8
0
100
AcDbBlockEnd
  0
BLOCK
  5
5A
330
59
100
AcDbEntity
  8
0
100
AcDbBlockBegin
  2
*D3
 70
    1
 10
0
 20
0
  3
*D3
  1

  0
LINE
  5
74
100
AcDbEntity
  8
Dimension
  6
ByBlock
 62
    0
370
   -2
100
AcDbLine
 10
163.4621204048449
 20
-253.5039018530783
 11
163.4621204048449
 21
346.4960981469217
  0
MTEXT
  5
75
100
AcDbEntity
  8
Dimension
  6
CONTINUOUS
 62
    0
370
   -2
100
AcDbMText
 10
149.9621204048449
 20
46.49609814692167
 30
0
 40
9
 41
35.00000000000055
 71
    5
 72
    1
  1
600.00
  7
iso
210
0
220
0
230
1
 50
90
 73
    2
 44
1
  0
LINE
  5
76
100
AcDbEntity
  8
Dimension
  6
ByBlock
 62
    0
370
   -2
100
AcDbLine
 10
157.098159374166
 20
-247.1399408223994
 11
169.8260814355238
 21
-259.8678628837572
  0
LINE
  5
77
100
AcDbEntity
  8
Dimension
  6
ByBlock
 62
    0
370
   -2
100
AcDbLine
 10
157.098159374166
 20
352.8600591776006
 11
169.8260814355238
 21
340.1321371162428
  0
LINE
  5
78
100
AcDbEntity
  8
Dimension
  6
ByBlock
 62
    0
370
   -2
100
AcDbLine
 10
205.4159023186398
 20
-253.5039018530783
 11
152.2121204048449
 21
-253.5039018530783
  0
LINE
  5
79
100
AcDbEntity
  8
Dimension
  6
ByBlock
 62
    0
370
   -2
100
AcDbLine
 10
205.4159023186397
 20
346.4960981469217
 11
152.2121204048449
 21
346.4960981469217
  0
ENDBLK
  5
5B
330
59
100
AcDbEntity
  8
0
100
AcDbBlockEnd
  0
BLOCK
  5
5D
330
5C
100
AcDbEntity
  8
0
100
AcDbBlockBegin
  2
*D2
 70
    1
 10
0
 20
0
  3
*D2
  1

  0
LINE
  5
7A
100
AcDbEntity
  8
Dimension
  6
ByBlock
 62
    0
370
   -2
100
AcDbLine
 10
214.4159023186397
 20
363.8850874409918
 11
514.4159023186398
 21
363.8850874409918
  0
MTEXT
  5
7B
100
AcDbEntity
  8
Dimension
  6
CONTINUOUS
 62
    0
370
   -2
100
AcDbMText
 10
364.4159023186398
 20
377.3850874409918
 30
0
 40
9
 41
35.00000000000055
 71
    5
 72
    1
  1
300.00
  7
iso
210
0
220
0
230
1
 50
0
 73
    2
 44
1
  0
LINE
  5
7C
100
AcDbEntity
  8
Dimension
  6
ByBlock
 62
    0
370
   -2
100
AcDbLine
 10
220.7798633493186
 20
370.2490484716707
 11
208.0519412879608
 21
357.5211264103129
  0
LINE
  5
7D
100
AcDbEntity
  8
Dimension
  6
ByBlock
 62
    0
370
   -2
100
AcDbLine
 10
520.7798633493188
 20
370.2490484716707
 11
508.0519412879609
 21
357.5211264103129
  0
LINE
  5
7E
100
AcDbEntity
  8
Dimension
  6
ByBlock
 62
    0
370
   -2
100
AcDbLine
 10
214.4159023186397
 20
355.4960981469217
 11
214.4159023186398
 21
375.1350874409918
  0
LINE
  5
7F
100
AcDbEntity
  8
Dimension
  6
ByBlock
 62
    0
370
   -2
100
AcDbLine
 10
514.4159023186398
 20
355.2794764960373
 11
514.4159023186398
 21
375.1350874409918
  0
ENDBLK
  5
5E
330
5C
100
AcDbEntity
  8
0
100
AcDbBlockEnd
  0
BLOCK
  5
60
330
5F
100
AcDbEntity
  8
0
100
AcDbBlockBegin
  2
*D1
 70
    1
 10
0
 20
0
  3
*D1
  1

  0
LINE
  5
80
100
AcDbEntity
  8
Dimension
  6
ByBlock
 62
    0
370
   -2
100
AcDbLine
 10
214.4159023186398
 20
389.0068612601397
 11
714.4159023186398
 21
389.0068612601397
  0
MTEXT
  5
81
100
AcDbEntity
  8
Dimension
  6
CONTINUOUS
 62
    0
370
   -2
100
AcDbMText
 10
464.4159023186398
 20
402.5068612601397
 30
0
 40
9
 41
35.00000000000055
 71
    5
 72
    1
  1
500.00
  7
iso
210
0
220
0
230
1
 50
0
 73
    2
 44
1
  0
LINE
  5
82
100
AcDbEntity
  8
Dimension
  6
ByBlock
 62
    0
370
   -2
100
AcDbLine
 10
220.7798633493188
 20
395.3708222908186
 11
208.0519412879609
 21
382.6429002294608
  0
LINE
  5
83
100
AcDbEntity
  8
Dimension
  6
ByBlock
 62
    0
370
   -2
100
AcDbLine
 10
720.7798633493188
 20
395.3708222908186
 11
708.0519412879609
 21
382.6429002294608
  0
LINE
  5
84
100
AcDbEntity
  8
Dimension
  6
ByBlock
 62
    0
370
   -2
100
AcDbLine
 10
214.4159023186398
 20
355.4960981469217
 11
214.4159023186398
 21
400.2568612601397
  0
LINE
  5
85
100
AcDbEntity
  8
Dimension
  6
ByBlock
 62
    0
370
   -2
100
AcDbLine
 10
714.4159023186398
 20
355.2269152120554
 11
714.4159023186398
 21
400.2568612601397
  0
ENDBLK
  5
61
330
5F
100
AcDbEntity
  8
0
100
AcDbBlockEnd
  0
BLOCK
  5
63
330
62
100
AcDbEntity
  8
0
100
AcDbBlockBegin
  2
*D4
 70
    1
 10
0
 20
0
  3
*D4
  1

  0
LINE
  5
86
100
AcDbEntity
  8
Dimension
  6
ByBlock
 62
    0
370
   -2
100
AcDbLine
 10
786.9326858427929
 20
346.4960981469217
 11
786.9326858427929
 21
61.49609814692172
  0
MTEXT
  5
87
100
AcDbEntity
  8
Dimension
  6
CONTINUOUS
 62
    0
370
   -2
100
AcDbMText
 10
773.4326858427929
 20
203.9960981469217
 30
0
 40
9
 41
35.00000000000055
 71
    5
 72
    1
  1
285.00
  7
iso
210
0
220
0
230
1
 50
90
 73
    2
 44
1
  0
LINE
  5
88
100
AcDbEntity
  8
Dimension
  6
ByBlock
 62
    0
370
   -2
100
AcDbLine
 10
793.2966468734719
 20
340.1321371162428
 11
780.5687248121139
 21
352.8600591776006
  0
LINE
  5
89
100
AcDbEntity
  8
Dimension
  6
ByBlock
 62
    0
370
   -2
100
AcDbLine
 10
793.2966468734719
 20
55.13213711624279
 11
780.5687248121139
 21
67.86005917760065
  0
LINE
  5
8A
100
AcDbEntity
  8
Dimension
  6
ByBlock
 62
    0
370
   -2
100
AcDbLine
 10
723.4159023186398
 20
346.4960981469217
 11
798.1826858427929
 21
346.4960981469217
  0
LINE
  5
8B
100
AcDbEntity
  8
Dimension
  6
ByBlock
 62
    0
370
   -2
100
AcDbLine
 10
723.4159023186398
 20
61.49609814692172
 11
798.1826858427929
 21
61.49609814692172
  0
ENDBLK
  5
64
330
62
100
AcDbEntity
  8
0
100
AcDbBlockEnd
  0
BLOCK
  5
66
330
65
100
AcDbEntity
  8
0
100
AcDbBlockBegin
  2
*D6
 70
    1
 10
0
 20
0
  3
*D6
  1

  0
LINE
  5
8C
100
AcDbEntity
  8
Dimension
  6
ByBlock
 62
    0
370
   -2
100
AcDbLine
 10
289.3134874422033
 20
217.8046838814203
 11
289.3134874422033
 21
137.8046838814202
  0
MTEXT
  5
8D
100
AcDbEntity
  8
Dimension
  6
CONTINUOUS
 62
    0
370
   -2
100
AcDbMText
 10
275.8134874422033
 20
177.8046838814203
 30
0
 40
9
 41
28
 71
    5
 72
    1
  1
80.00
  7
iso
210
0
220
0
230
1
 50
90
 73
    2
 44
1
  0
LINE
  5
8E
100
AcDbEntity
  8
Dimension
  6
ByBlock
 62
    0
370
   -2
100
AcDbLine
 10
295.6774484728822
 20
211.4407228507414
 11
282.9495264115244
 21
224.1686449120992
  0
LINE
  5
8F
100
AcDbEntity
  8
Dimension
  6
ByBlock
 62
    0
370
   -2
100
AcDbLine
 10
295.6774484728822
 20
131.4407228507413
 11
282.9495264115244
 21
144.1686449120991
  0
LINE
  5
90
100
AcDbEntity
  8
Dimension
  6
ByBlock
 62
    0
370
   -2
100
AcDbLine
 10
223.4159023186398
 20
217.8046838814203
 11
300.5634874422033
 21
217.8046838814203
  0
LINE
  5
91
100
AcDbEntity
  8
Dimension
  6
ByBlock
 62
    0
370
   -2
100
AcDbLine
 10
223.4550419467355
 20
137.8046838814202
 11
300.5634874422033
 21
137.8046838814202
  0
ENDBLK
  5
67
330
65
100
AcDbEntity
  8
0
100
AcDbBlockEnd
  0
ENDSEC
  0
SECTION
  2
ENTITIES
  0
HATCH
  5
92
100
AcDbEntity
  8
Hatch
  6
ByLayer
 62
  256
370
   -1
100
AcDbHatch
 10
0
 20
0
 30
0
210
0
220
0
230
1
  2
SOLID
 70
    1
 71
    0
 91
    1
 92
    0
 93
    4
 72
    1
 10
514.4689832085843
 20
-233.5039018530783
 11
449.5219933679718
 21
-233.5039018530783
 72
    1
 10
449.5219933679718
 20
-233.5039018530783
 11
449.5219933679718
 21
-253.549469455444
 72
    1
 10
449.5219933679718
 20
-253.549469455444
 11
514.4689832085843
 21
-253.549469455444
 72
    1
 10
514.4689832085843
 20
-253.549469455444
 11
514.4689832085843
 21
-233.5039018530783
 97
    0
 75
    0
 76
    1
 98
    0
  0
HATCH
  5
93
100
AcDbEntity
  8
Hatch
  6
ByLayer
 62
  256
370
   -1
100
AcDbHatch
 10
0
 20
0
 30
0
210
0
220
0
230
1
  2
SOLID
 70
    1
 71
    0
 91
    1
 92
    0
 93
    4
 72
    1
 10
514.4159023186398
 20
326.4960981469217
 11
529.4159023186397
 21
326.4960981469217
 72
    1
 10
529.4159023186397
 20
326.4960981469217
 11
529.4159023186397
 21
61.49609814692171
 72
    1
 10
529.4159023186397
 20
61.49609814692171
 11
514.4159023186398
 21
61.49609814692171
 72
    1
 10
514.4159023186398
 20
61.49609814692171
 11
514.4159023186398
 21
326.4960981469217
 97
    0
 75
    0
 76
    1
 98
    0
  0
HATCH
  5
94
100
AcDbEntity
  8
Hatch
  6
ByLayer
 62
  256
370
   -1
100
AcDbHatch
 10
0
 20
0
 30
0
210
0
220
0
230
1
  2
SOLID
 70
    1
 71
    0
 91
    1
 92
    0
 93
   24
 72
    1
 10
654.1341694167036
 20
346.2269152120554
 11
714.4159023186398
 21
346.2269152120554
 72
    1
 10
714.4159023186398
 20
346.2269152120554
 11
714.4159023186398
 21
326.4960981469217
 72
    1
 10
714.4159023186398
 20
326.4960981469217
 11
654.1341694167036
 21
326.4960981469217
 72
    1
 10
654.1341694167036
 20
326.4960981469217
 11
654.1341694167036
 21
346.2269152120554
 72
    1
 10
694.4159023186398
 20
-233.5039018530783
 11
616.4689832085842
 21
-233.5039018530783
 72
    1
 10
616.4689832085842
 20
-233.5039018530783
 11
616.4689832085842
 21
-253.4164831224134
 72
    1
 10
616.4689832085842
 20
-253.4164831224134
 11
694.4159023186398
 21
-253.4164831224134
 72
    1
 10
694.4159023186398
 20
-253.4164831224134
 11
694.4159023186398
 21
-233.5039018530783
 72
    1
 10
305.517970142314
 20
-233.5784795688325
 11
214.4159023186398
 21
-233.5784795688325
 72
    1
 10
214.4159023186398
 20
-233.5784795688325
 11
214.4159023186398
 21
-253.5039018530783
 72
    1
 10
214.4159023186398
 20
-253.5039018530783
 11
305.517970142314
 21
-253.5039018530783
 72
    1
 10
305.517970142314
 20
-253.5039018530783
 11
305.517970142314
 21
-233.5784795688325
 72
    1
 10
214.4159023186398
 20
61.49609814692172
 11
422.4159023186398
 21
61.49609814692172
 72
    1
 10
422.4159023186398
 20
61.49609814692172
 11
422.4159023186398
 21
46.49609814692172
 72
    1
 10
422.4159023186398
 20
46.49609814692172
 11
214.4159023186398
 21
46.49609814692172
 72
    1
 10
214.4159023186398
 20
46.49609814692172
 11
214.4159023186398
 21
61.49609814692172
 72
    1
 10
364.4159023186398
 20
46.49609814692172
 11
379.4159023186397
 21
46.49609814692172
 72
    1
 10
379.4159023186397
 20
46.49609814692172
 11
379.4159023186397
 21
-11.50390185307828
 72
    1
 10
379.4159023186397
 20
-11.50390185307828
 11
364.4159023186398
 21
-11.50390185307828
 72
    1
 10
364.4159023186398
 20
-11.50390185307828
 11
364.4159023186398
 21
46.49609814692172
 72
    1
 10
379.4159023186397
 20
-88.50390185307828
 11
234.4159023186397
 21
-88.50390185307828
 72
    1
 10
234.4159023186397
 20
-88.50390185307828
 11
234.4159023186397
 21
-103.5039018530783
 72
    1
 10
234.4159023186397
 20
-103.5039018530783
 11
379.4159023186397
 21
-103.5039018530783
 72
    1
 10
379.4159023186397
 20
-103.5039018530783
 11
379.4159023186397
 21
-88.50390185307828
 97
    0
 75
    0
 76
    1
 98
    0
  0
HATCH
  5
95
100
AcDbEntity
  8
Hatch
  6
ByLayer
 62
  256
370
   -1
100
AcDbHatch
 10
0
 20
0
 30
0
210
0
220
0
230
1
  2
SOLID
 70
    1
 71
    0
 91
    1
 92
    0
 93
    4
 72
    1
 10
408.3983557075882
 20
346.2794764960373
 11
574.1341694167036
 21
346.2794764960373
 72
    1
 10
574.1341694167036
 20
346.2794764960373
 11
574.1341694167036
 21
326.4960981469217
 72
    1
 10
574.1341694167036
 20
326.4960981469217
 11
408.3983557075882
 21
326.4960981469217
 72
    1
 10
408.3983557075882
 20
326.4960981469217
 11
408.3983557075882
 21
346.2794764960373
 97
    0
 75
    0
 76
    1
 98
    0
  0
HATCH
  5
96
100
AcDbEntity
  8
Hatch
  6
ByLayer
 62
  256
370
   -1
100
AcDbHatch
 10
0
 20
0
 30
0
210
0
220
0
230
1
  2
SOLID
 70
    1
 71
    0
 91
    1
 92
    0
 93
    4
 72
    1
 10
514.4159023186398
 20
61.49609814692171
 11
602.4159023186398
 21
61.49609814692171
 72
    1
 10
602.4159023186398
 20
61.49609814692171
 11
602.4159023186398
 21
46.49609814692172
 72
    1
 10
602.4159023186398
 20
46.49609814692172
 11
514.4159023186398
 21
46.49609814692172
 72
    1
 10
514.4159023186398
 20
46.49609814692172
 11
514.4159023186398
 21
61.49609814692171
 97
    0
 75
    0
 76
    1
 98
    0
  0
HATCH
  5
97
100
AcDbEntity
  8
Hatch
  6
ByLayer
 62
  256
370
   -1
100
AcDbHatch
 10
0
 20
0
 30
0
210
0
220
0
230
1
  2
SOLID
 70
    1
 71
    0
 91
    1
 92
    0
 93
    4
 72
    1
 10
694.4159023186398
 20
326.4960981469217
 11
714.4063220735787
 21
326.4960981469217
 72
    1
 10
714.4063220735787
 20
326.4960981469217
 11
714.4063220735787
 21
-11.3003325749668
 72
    1
 10
714.4063220735787
 20
-11.3003325749668
 11
694.4159023186398
 21
-11.3003325749668
 72
    1
 10
694.4159023186398
 20
-11.3003325749668
 11
694.4159023186398
 21
326.4960981469217
 97
    0
 75
    0
 76
    1
 98
    0
  0
HATCH
  5
98
100
AcDbEntity
  8
Hatch
  6
ByLayer
 62
  256
370
   -1
100
AcDbHatch
 10
0
 20
0
 30
0
210
0
220
0
230
1
  2
SOLID
 70
    1
 71
    0
 91
    1
 92
    0
 93
    4
 72
    1
 10
694.3237543659633
 20
-167.9875761289181
 11
714.4159023186398
 21
-167.9875761289181
 72
    1
 10
714.4159023186398
 20
-167.9875761289181
 11
714.4159023186398
 21
-253.5039018530783
 72
    1
 10
714.4159023186398
 20
-253.5039018530783
 11
694.3237543659633
 21
-253.5039018530783
 72
    1
 10
694.3237543659633
 20
-253.5039018530783
 11
694.3237543659633
 21
-167.9875761289181
 97
    0
 75
    0
 76
    1
 98
    0
  0
HATCH
  5
99
100
AcDbEntity
  8
Hatch
  6
ByLayer
 62
  256
370
   -1
100
AcDbHatch
 10
0
 20
0
 30
0
210
0
220
0
230
1
  2
SOLID
 70
    1
 71
    0
 91
    1
 92
    0
 93
    4
 72
    1
 10
214.4159023186397
 20
346.4960981469217
 11
328.3983557075882
 21
346.4960981469217
 72
    1
 10
328.3983557075882
 20
346.4960981469217
 11
328.3983557075882
 21
326.4960981469217
 72
    1
 10
328.3983557075882
 20
326.4960981469217
 11
214.4159023186397
 21
326.4960981469217
 72
    1
 10
214.4159023186397
 20
326.4960981469217
 11
214.4159023186397
 21
346.4960981469217
 97
    0
 75
    0
 76
    1
 98
    0
  0
HATCH
  5
9A
100
AcDbEntity
  8
Hatch
  6
ByLayer
 62
  256
370
   -1
100
AcDbHatch
 10
0
 20
0
 30
0
210
0
220
0
230
1
  2
SOLID
 70
    1
 71
    0
 91
    1
 92
    0
 93
    4
 72
    1
 10
234.4550419467355
 20
217.8046838814203
 11
214.4159023186398
 21
217.8046838814203
 72
    1
 10
214.4159023186398
 20
217.8046838814203
 11
214.4159023186398
 21
326.4960981469217
 72
    1
 10
214.4159023186398
 20
326.4960981469217
 11
234.4550419467355
 21
326.4960981469217
 72
    1
 10
234.4550419467355
 20
326.4960981469217
 11
234.4550419467355
 21
217.8046838814203
 97
    0
 75
    0
 76
    1
 98
    0
  0
HATCH
  5
9B
100
AcDbEntity
  8
Hatch
  6
ByLayer
 62
  256
370
   -1
100
AcDbHatch
 10
0
 20
0
 30
0
210
0
220
0
230
1
  2
SOLID
 70
    1
 71
    0
 91
    1
 92
    0
 93
    4
 72
    1
 10
214.4159023186398
 20
-233.5039018530783
 11
234.4066148425849
 21
-233.5039018530783
 72
    1
 10
234.4066148425849
 20
-233.5039018530783
 11
234.4066148425849
 21
-58.80150777786708
 72
    1
 10
234.4066148425849
 20
-58.80150777786708
 11
214.4159023186398
 21
-58.80150777786708
 72
    1
 10
214.4159023186398
 20
-58.80150777786708
 11
214.4159023186398
 21
-233.5039018530783
 97
    0
 75
    0
 76
    1
 98
    0
  0
HATCH
  5
9C
100
AcDbEntity
  8
Hatch
  6
ByLayer
 62
  256
370
   -1
100
AcDbHatch
 10
0
 20
0
 30
0
210
0
220
0
230
1
  2
SOLID
 70
    1
 71
    0
 91
    1
 92
    0
 93
    4
 72
    1
 10
214.4550419467355
 20
137.8046838814202
 11
234.4066148425849
 21
137.8046838814202
 72
    1
 10
234.4066148425849
 20
137.8046838814202
 11
234.4066148425849
 21
21.19849222213294
 72
    1
 10
234.4066148425849
 20
21.19849222213294
 11
214.4550419467355
 21
21.19849222213294
 72
    1
 10
214.4550419467355
 20
21.19849222213294
 11
214.4550419467355
 21
137.8046838814202
 97
    0
 75
    0
 76
    1
 98
    0
  0
LWPOLYLINE
  5
9D
100
AcDbEntity
  8
Wall
  6
ByLayer
 62
  256
370
   -1
100
AcDbPolyline
 90
    4
 70
    1
 43
0
 10
214.4159023186397
 20
346.4960981469217
 10
714.4159023186398
 20
346.4960981469217
 10
714.4159023186398
 20
326.4960981469217
 10
214.4159023186397
 20
326.4960981469217
  0
LWPOLYLINE
  5
9E
100
AcDbEntity
  8
Wall
  6
ByLayer
 62
  256
370
   -1
100
AcDbPolyline
 90
    4
 70
    1
 43
0
 10
214.4159023186398
 20
346.4960981469217
 10
234.4159023186397
 20
346.4960981469217
 10
234.4159023186397
 20
-253.5039018530783
 10
214.4159023186398
 20
-253.5039018530783
  0
LWPOLYLINE
  5
9F
100
AcDbEntity
  8
Wall
  6
ByLayer
 62
  256
370
   -1
100
AcDbPolyline
 90
    4
 70
    1
 43
0
 10
214.4159023186398
 20
-233.5039018530783
 10
714.4159023186396
 20
-233.5039018530783
 10
714.4159023186396
 20
-253.5039018530783
 10
214.4159023186398
 20
-253.5039018530783
  0
LWPOLYLINE
  5
A0
100
AcDbEntity
  8
Wall
  6
ByLayer
 62
  256
370
   -1
100
AcDbPolyline
 90
    4
 70
    1
 43
0
 10
514.4159023186398
 20
346.4960981469217
 10
529.4159023186397
 20
346.4960981469217
 10
529.4159023186397
 20
46.49609814692172
 10
514.4159023186398
 20
46.49609814692172
  0
LWPOLYLINE
  5
A1
100
AcDbEntity
  8
Wall
  6
ByLayer
 62
  256
370
   -1
100
AcDbPolyline
 90
    4
 70
    1
 43
0
 10
514.4159023186398
 20
61.49609814692172
 10
714.4159023186398
 20
61.49609814692172
 10
714.4159023186398
 20
46.49609814692172
 10
514.4159023186398
 20
46.49609814692172
  0
LWPOLYLINE
  5
A2
100
AcDbEntity
  8
Wall
  6
ByLayer
 62
  256
370
   -1
100
AcDbPolyline
 90
    4
 70
    1
 43
0
 10
214.4159023186397
 20
61.49609814692172
 10
514.4159023186398
 20
61.49609814692172
 10
514.4159023186398
 20
46.49609814692172
 10
214.4159023186397
 20
46.49609814692172
  0
LWPOLYLINE
  5
A3
100
AcDbEntity
  8
Wall
  6
ByLayer
 62
  256
370
   -1
100
AcDbPolyline
 90
    4
 70
    1
 43
0
 10
214.4159023186397
 20
-88.50390185307828
 10
379.4159023186397
 20
-88.50390185307828
 10
379.4159023186397
 20
-103.5039018530783
 10
214.4159023186397
 20
-103.5039018530783
  0
LWPOLYLINE
  5
A4
100
AcDbEntity
  8
Wall
  6
ByLayer
 62
  256
370
   -1
100
AcDbPolyline
 90
    4
 70
    1
 43
0
 10
364.4159023186397
 20
61.49609814692172
 10
379.4159023186397
 20
61.49609814692172
 10
379.4159023186397
 20
-103.5039018530783
 10
364.4159023186397
 20
-103.5039018530783
  0
LWPOLYLINE
  5
A5
100
AcDbEntity
  8
Wall
  6
ByLayer
 62
  256
370
   -1
100
AcDbPolyline
 90
    4
 70
    1
 43
0
 10
694.4159023186398
 20
346.4960981469217
 10
714.4159023186398
 20
346.4960981469217
 10
714.4159023186398
 20
-253.5039018530783
 10
694.4159023186398
 20
-253.5039018530783
  0
LWPOLYLINE
  5
A6
100
AcDbEntity
  8
Wall
  6
ByLayer
 62
  256
370
   -1
100
AcDbPolyline
 90
    4
 70
    1
 43
0
 10
364.4159023186397
 20
61.49609814692172
 10
379.4159023186397
 20
61.49609814692172
 10
379.4159023186397
 20
-103.5039018530783
 10
364.4159023186397
 20
-103.5039018530783
  0
LWPOLYLINE
  5
A7
100
AcDbEntity
  8
Door & Window
  6
ByLayer
 62
  256
370
   -1
100
AcDbPolyline
 90
    4
 70
    1
 43
0
 10
514.4689832085843
 20
-253.4164831224134
 10
520.4689832085842
 20
-253.4164831224134
 10
520.4689832085842
 20
-233.4164831224134
 10
514.4689832085843
 20
-233.4164831224134
  0
LWPOLYLINE
  5
A8
100
AcDbEntity
  8
Door & Window
  6
ByLayer
 62
  256
370
   -1
100
AcDbPolyline
 90
    4
 70
    1
 43
0
 10
616.4689832085842
 20
-253.4164831224134
 10
610.4689832085842
 20
-253.4164831224134
 10
610.4689832085842
 20
-233.4164831224134
 10
616.4689832085842
 20
-233.4164831224134
  0
LWPOLYLINE
  5
A9
100
AcDbEntity
  8
Door & Window
  6
ByLayer
 62
  256
370
   -1
100
AcDbPolyline
 90
    4
 70
    1
 43
0
 10
524.4689832085842
 20
-233.4164831224134
 10
524.4689832085842
 20
-143.4164831224134
 10
520.4689832085842
 20
-143.4164831224134
 10
520.4689832085842
 20
-233.4164831224134
  0
ARC
  5
AA
100
AcDbEntity
  8
Door & Window
  6
ByLayer
 62
  256
370
   -1
100
AcDbCircle
 10
506.4687672431384
 20
-246.7055783782838
 40
104.8458152411386
100
AcDbArc
 50
7.281765714010671
 51
80.11432894083158
  0
LWPOLYLINE
  5
AB
100
AcDbEntity
  8
Door & Window
  6
ByLayer
 62
  256
370
   -1
100
AcDbPolyline
 90
    4
 70
    1
 43
0
 10
422.4159023186398
 20
46.49609814692172
 10
428.4159023186398
 20
46.49609814692172
 10
428.4159023186398
 20
61.49609814692172
 10
422.4159023186398
 20
61.49609814692172
  0
LWPOLYLINE
  5
AC
100
AcDbEntity
  8
Door & Window
  6
ByLayer
 62
  256
370
   -1
100
AcDbPolyline
 90
    4
 70
    1
 43
0
 10
514.4159023186398
 20
46.49609814692172
 10
508.4159023186398
 20
46.49609814692172
 10
508.4159023186398
 20
61.49609814692172
 10
514.4159023186398
 20
61.49609814692172
  0
LWPOLYLINE
  5
AD
100
AcDbEntity
  8
Door & Window
  6
ByLayer
 62
  256
370
   -1
100
AcDbPolyline
 90
    4
 70
    1
 43
0
 10
504.4159023186398
 20
141.4960981469217
 10
504.4159023186398
 20
61.49609814692172
 10
508.4159023186398
 20
61.49609814692172
 10
508.4159023186398
 20
141.4960981469217
  0
ARC
  5
AE
100
AcDbEntity
  8
Door & Window
  6
ByLayer
 62
  256
370
   -1
100
AcDbCircle
 10
504.4333529763912
 20
65.37952002205793
 40
76.11658012525227
100
AcDbArc
 50
90.0131357589371
 51
182.9244656698346
  0
LINE
  5
AF
100
AcDbEntity
  8
Door & Window
  6
ByLayer
 62
  256
370
   -1
100
AcDbLine
 10
428.4159023186398
 20
46.49609814692172
 11
508.4159023186398
 21
46.49609814692172
  0
LWPOLYLINE
  5
B0
100
AcDbEntity
  8
Door & Window
  6
ByLayer
 62
  256
370
   -1
100
AcDbPolyline
 90
    4
 70
    1
 43
0
 10
602.4159023186398
 20
46.49609814692172
 10
608.4159023186398
 20
46.49609814692172
 10
608.4159023186398
 20
61.49609814692172
 10
602.4159023186398
 20
61.49609814692172
  0
LWPOLYLINE
  5
B1
100
AcDbEntity
  8
Door & Window
  6
ByLayer
 62
  256
370
   -1
100
AcDbPolyline
 90
    4
 70
    1
 43
0
 10
694.4159023186398
 20
46.49609814692172
 10
688.4159023186398
 20
46.49609814692172
 10
688.4159023186398
 20
61.49609814692172
 10
694.4159023186398
 20
61.49609814692172
  0
LWPOLYLINE
  5
B2
100
AcDbEntity
  8
Door & Window
  6
ByLayer
 62
  256
370
   -1
100
AcDbPolyline
 90
    4
 70
    1
 43
0
 10
684.4159023186398
 20
141.4960981469217
 10
684.4159023186398
 20
61.49609814692172
 10
688.4159023186398
 20
61.49609814692172
 10
688.4159023186398
 20
141.4960981469217
  0
ARC
  5
B3
100
AcDbEntity
  8
Door & Window
  6
ByLayer
 62
  256
370
   -1
100
AcDbCircle
 10
684.4333529763912
 20
65.37952002205793
 40
76.11658012525227
100
AcDbArc
 50
90.0131357589371
 51
182.9244656698346
  0
LWPOLYLINE
  5
B4
100
AcDbEntity
  8
Door & Window
  6
ByLayer
 62
  256
370
   -1
100
AcDbPolyline
 90
    4
 70
    1
 43
0
 10
379.4159023186397
 20
-88.50390185307828
 10
379.4159023186397
 20
-82.50390185307828
 10
364.4159023186397
 20
-82.50390185307828
 10
364.4159023186397
 20
-88.50390185307828
  0
LWPOLYLINE
  5
B5
100
AcDbEntity
  8
Door & Window
  6
ByLayer
 62
  256
370
   -1
100
AcDbPolyline
 90
    4
 70
    1
 43
0
 10
379.4159023186397
 20
-11.50390185307828
 10
379.4159023186397
 20
-17.50390185307828
 10
364.4159023186397
 20
-17.50390185307828
 10
364.4159023186397
 20
-11.50390185307828
  0
LWPOLYLINE
  5
B6
100
AcDbEntity
  8
Door & Window
  6
ByLayer
 62
  256
370
   -1
100
AcDbPolyline
 90
    4
 70
    1
 43
0
 10
364.4159023186397
 20
-78.50390185307828
 10
299.4159023186397
 20
-78.50390185307828
 10
299.4159023186397
 20
-82.50390185307828
 10
364.4159023186397
 20
-82.50390185307828
  0
ARC
  5
B7
100
AcDbEntity
  8
Door & Window
  6
ByLayer
 62
  256
370
   -1
100
AcDbCircle
 10
365.057452223922
 20
-83.3186681455922
 40
65.81789307186305
100
AcDbArc
 50
90.55849074314555
 51
175.8049033279508
  0
LWPOLYLINE
  5
B8
100
AcDbEntity
  8
Door & Window
  6
ByLayer
 62
  256
370
   -1
100
AcDbPolyline
 90
    4
 70
    1
 43
0
 10
577.1341694167036
 20
328.7269152120554
 10
582.1341694167036
 20
328.7269152120554
 10
582.1341694167036
 20
343.7269152120554
 10
577.1341694167036
 20
343.7269152120554
  0
LINE
  5
B9
100
AcDbEntity
  8
Door & Window
  6
ByLayer
 62
  256
370
   -1
100
AcDbLine
 10
577.1341694167036
 20
343.7269152120554
 11
574.1341694167036
 21
343.7269152120554
  0
LINE
  5
BA
100
AcDbEntity
  8
Door & Window
  6
ByLayer
 62
  256
370
   -1
100
AcDbLine
 10
577.1341694167036
 20
328.7269152120554
 11
574.1341694167036
 21
328.7269152120554
  0
LWPOLYLINE
  5
BB
100
AcDbEntity
  8
Door & Window
  6
ByLayer
 62
  256
370
   -1
100
AcDbPolyline
 90
    4
 70
    1
 43
0
 10
582.1341694167036
 20
333.7269152120554
 10
587.1341694167036
 20
333.7269152120554
 10
587.1341694167036
 20
338.7269152120554
 10
582.1341694167036
 20
338.7269152120554
  0
LINE
  5
BC
100
AcDbEntity
  8
Door & Window
  6
ByLayer
 62
  256
370
   -1
100
AcDbLine
 10
574.1341694167036
 20
326.2269152120554
 11
654.1341694167036
 21
326.2269152120554
  0
LINE
  5
BD
100
AcDbEntity
  8
Door & Window
  6
ByLayer
 62
  256
370
   -1
100
AcDbLine
 10
654.1341694167036
 20
346.2269152120554
 11
574.1341694167036
 21
346.2269152120554
  0
LINE
  5
BE
100
AcDbEntity
  8
Door & Window
  6
ByLayer
 62
  256
370
   -1
100
AcDbLine
 10
574.1341694167036
 20
346.2269152120554
 11
574.1341694167036
 21
343.7269152120554
  0
LINE
  5
BF
100
AcDbEntity
  8
Door & Window
  6
ByLayer
 62
  256
370
   -1
100
AcDbLine
 10
574.1341694167036
 20
328.7269152120554
 11
574.1341694167036
 21
326.2269152120554
  0
LWPOLYLINE
  5
C0
100
AcDbEntity
  8
Door & Window
  6
ByLayer
 62
  256
370
   -1
100
AcDbPolyline
 90
    4
 70
    1
 43
0
 10
651.1341694167036
 20
328.7269152120554
 10
646.1341694167036
 20
328.7269152120554
 10
646.1341694167036
 20
343.7269152120554
 10
651.1341694167036
 20
343.7269152120554
  0
LINE
  5
C1
100
AcDbEntity
  8
Door & Window
  6
ByLayer
 62
  256
370
   -1
100
AcDbLine
 10
651.1341694167036
 20
343.7269152120554
 11
654.1341694167036
 21
343.7269152120554
  0
LINE
  5
C2
100
AcDbEntity
  8
Door & Window
  6
ByLayer
 62
  256
370
   -1
100
AcDbLine
 10
651.1341694167036
 20
328.7269152120554
 11
654.1341694167036
 21
328.7269152120554
  0
LWPOLYLINE
  5
C3
100
AcDbEntity
  8
Door & Window
  6
ByLayer
 62
  256
370
   -1
100
AcDbPolyline
 90
    4
 70
    1
 43
0
 10
646.1341694167036
 20
333.7269152120554
 10
641.1341694167036
 20
333.7269152120554
 10
641.1341694167036
 20
338.7269152120554
 10
646.1341694167036
 20
338.7269152120554
  0
LINE
  5
C4
100
AcDbEntity
  8
Door & Window
  6
ByLayer
 62
  256
370
   -1
100
AcDbLine
 10
654.1341694167036
 20
346.2269152120554
 11
654.1341694167036
 21
343.7269152120554
  0
LINE
  5
C5
100
AcDbEntity
  8
Door & Window
  6
ByLayer
 62
  256
370
   -1
100
AcDbLine
 10
654.1341694167036
 20
328.7269152120554
 11
654.1341694167036
 21
326.2269152120554
  0
LINE
  5
C6
100
AcDbEntity
  8
Door & Window
  6
ByLayer
 62
  256
370
   -1
100
AcDbLine
 10
587.1341694167036
 20
336.2269152120554
 11
641.1341694167036
 21
336.2269152120554
  0
LWPOLYLINE
  5
C7
100
AcDbEntity
  8
Door & Window
  6
ByLayer
 62
  256
370
   -1
100
AcDbPolyline
 90
    4
 70
    1
 43
0
 10
331.3983557075882
 20
328.7794764960373
 10
336.3983557075882
 20
328.7794764960373
 10
336.3983557075882
 20
343.7794764960373
 10
331.3983557075882
 20
343.7794764960373
  0
LINE
  5
C8
100
AcDbEntity
  8
Door & Window
  6
ByLayer
 62
  256
370
   -1
100
AcDbLine
 10
331.3983557075882
 20
343.7794764960373
 11
328.3983557075882
 21
343.7794764960373
  0
LINE
  5
C9
100
AcDbEntity
  8
Door & Window
  6
ByLayer
 62
  256
370
   -1
100
AcDbLine
 10
331.3983557075882
 20
328.7794764960373
 11
328.3983557075882
 21
328.7794764960373
  0
LWPOLYLINE
  5
CA
100
AcDbEntity
  8
Door & Window
  6
ByLayer
 62
  256
370
   -1
100
AcDbPolyline
 90
    4
 70
    1
 43
0
 10
336.3983557075882
 20
333.7794764960373
 10
341.3983557075882
 20
333.7794764960373
 10
341.3983557075882
 20
338.7794764960373
 10
336.3983557075882
 20
338.7794764960373
  0
LINE
  5
CB
100
AcDbEntity
  8
Door & Window
  6
ByLayer
 62
  256
370
   -1
100
AcDbLine
 10
328.3983557075882
 20
326.2794764960373
 11
408.3983557075882
 21
326.2794764960373
  0
LINE
  5
CC
100
AcDbEntity
  8
Door & Window
  6
ByLayer
 62
  256
370
   -1
100
AcDbLine
 10
408.3983557075882
 20
346.2794764960373
 11
328.3983557075882
 21
346.2794764960373
  0
LINE
  5
CD
100
AcDbEntity
  8
Door & Window
  6
ByLayer
 62
  256
370
   -1
100
AcDbLine
 10
328.3983557075882
 20
346.2794764960373
 11
328.3983557075882
 21
343.7794764960373
  0
LINE
  5
CE
100
AcDbEntity
  8
Door & Window
  6
ByLayer
 62
  256
370
   -1
100
AcDbLine
 10
328.3983557075882
 20
328.7794764960373
 11
328.3983557075882
 21
326.2794764960373
  0
LWPOLYLINE
  5
CF
100
AcDbEntity
  8
Door & Window
  6
ByLayer
 62
  256
370
   -1
100
AcDbPolyline
 90
    4
 70
    1
 43
0
 10
405.3983557075882
 20
328.7794764960373
 10
400.3983557075882
 20
328.7794764960373
 10
400.3983557075882
 20
343.7794764960373
 10
405.3983557075882
 20
343.7794764960373
  0
LINE
  5
D0
100
AcDbEntity
  8
Door & Window
  6
ByLayer
 62
  256
370
   -1
100
AcDbLine
 10
405.3983557075882
 20
343.7794764960373
 11
408.3983557075882
 21
343.7794764960373
  0
LINE
  5
D1
100
AcDbEntity
  8
Door & Window
  6
ByLayer
 62
  256
370
   -1
100
AcDbLine
 10
405.3983557075882
 20
328.7794764960373
 11
408.3983557075882
 21
328.7794764960373
  0
LWPOLYLINE
  5
D2
100
AcDbEntity
  8
Door & Window
  6
ByLayer
 62
  256
370
   -1
100
AcDbPolyline
 90
    4
 70
    1
 43
0
 10
400.3983557075882
 20
333.7794764960373
 10
395.3983557075882
 20
333.7794764960373
 10
395.3983557075882
 20
338.7794764960373
 10
400.3983557075882
 20
338.7794764960373
  0
LINE
  5
D3
100
AcDbEntity
  8
Door & Window
  6
ByLayer
 62
  256
370
   -1
100
AcDbLine
 10
408.3983557075882
 20
346.2794764960373
 11
408.3983557075882
 21
343.7794764960373
  0
LINE
  5
D4
100
AcDbEntity
  8
Door & Window
  6
ByLayer
 62
  256
370
   -1
100
AcDbLine
 10
408.3983557075882
 20
328.7794764960373
 11
408.3983557075882
 21
326.2794764960373
  0
LINE
  5
D5
100
AcDbEntity
  8
Door & Window
  6
ByLayer
 62
  256
370
   -1
100
AcDbLine
 10
341.3983557075882
 20
336.2794764960373
 11
395.3983557075882
 21
336.2794764960373
  0
LWPOLYLINE
  5
D6
100
AcDbEntity
  8
Door & Window
  6
ByLayer
 62
  256
370
   -1
100
AcDbPolyline
 90
    4
 70
    1
 43
0
 10
308.517970142314
 20
-251.0784795688325
 10
313.517970142314
 20
-251.0784795688325
 10
313.517970142314
 20
-236.0784795688325
 10
308.517970142314
 20
-236.0784795688325
  0
LINE
  5
D7
100
AcDbEntity
  8
Door & Window
  6
ByLayer
 62
  256
370
   -1
100
AcDbLine
 10
308.517970142314
 20
-236.0784795688325
 11
305.517970142314
 21
-236.0784795688325
  0
LINE
  5
D8
100
AcDbEntity
  8
Door & Window
  6
ByLayer
 62
  256
370
   -1
100
AcDbLine
 10
308.517970142314
 20
-251.0784795688325
 11
305.517970142314
 21
-251.0784795688325
  0
LWPOLYLINE
  5
D9
100
AcDbEntity
  8
Door & Window
  6
ByLayer
 62
  256
370
   -1
100
AcDbPolyline
 90
    4
 70
    1
 43
0
 10
313.517970142314
 20
-246.0784795688325
 10
318.517970142314
 20
-246.0784795688325
 10
318.517970142314
 20
-241.0784795688325
 10
313.517970142314
 20
-241.0784795688325
  0
LINE
  5
DA
100
AcDbEntity
  8
Door & Window
  6
ByLayer
 62
  256
370
   -1
100
AcDbLine
 10
305.517970142314
 20
-253.5784795688325
 11
385.517970142314
 21
-253.5784795688325
  0
LINE
  5
DB
100
AcDbEntity
  8
Door & Window
  6
ByLayer
 62
  256
370
   -1
100
AcDbLine
 10
385.517970142314
 20
-233.5784795688325
 11
305.517970142314
 21
-233.5784795688325
  0
LINE
  5
DC
100
AcDbEntity
  8
Door & Window
  6
ByLayer
 62
  256
370
   -1
100
AcDbLine
 10
305.517970142314
 20
-233.5784795688325
 11
305.517970142314
 21
-236.0784795688325
  0
LINE
  5
DD
100
AcDbEntity
  8
Door & Window
  6
ByLayer
 62
  256
370
   -1
100
AcDbLine
 10
305.517970142314
 20
-251.0784795688325
 11
305.517970142314
 21
-253.5784795688325
  0
LWPOLYLINE
  5
DE
100
AcDbEntity
  8
Door & Window
  6
ByLayer
 62
  256
370
   -1
100
AcDbPolyline
 90
    4
 70
    1
 43
0
 10
382.517970142314
 20
-251.0784795688325
 10
377.517970142314
 20
-251.0784795688325
 10
377.517970142314
 20
-236.0784795688325
 10
382.517970142314
 20
-236.0784795688325
  0
LWPOLYLINE
  5
DF
100
AcDbEntity
  8
Door & Window
  6
ByLayer
 62
  256
370
   -1
100
AcDbPolyline
 90
    4
 70
    1
 43
0
 10
377.517970142314
 20
-246.0784795688325
 10
372.517970142314
 20
-246.0784795688325
 10
372.517970142314
 20
-241.0784795688325
 10
377.517970142314
 20
-241.0784795688325
  0
LINE
  5
E0
100
AcDbEntity
  8
Door & Window
  6
ByLayer
 62
  256
370
   -1
100
AcDbLine
 10
318.517970142314
 20
-243.5784795688325
 11
372.517970142314
 21
-243.5784795688325
  0
LWPOLYLINE
  5
E1
100
AcDbEntity
  8
Door & Window
  6
ByLayer
 62
  256
370
   -1
100
AcDbPolyline
 90
    4
 70
    1
 43
0
 10
446.5209863440523
 20
-251.0506783792665
 10
441.5209867498872
 20
-251.0526929141081
 10
441.5149431453626
 20
-236.0526941316133
 10
446.5149427395277
 20
-236.0506795967717
  0
LINE
  5
E2
100
AcDbEntity
  8
Door & Window
  6
ByLayer
 62
  256
370
   -1
100
AcDbLine
 10
446.5149427395277
 20
-236.0506795967718
 11
449.5149424960266
 21
-236.0494708758669
  0
LINE
  5
E3
100
AcDbEntity
  8
Door & Window
  6
ByLayer
 62
  256
370
   -1
100
AcDbLine
 10
446.5209863440523
 20
-251.0506783792665
 11
449.5209861005512
 21
-251.0494696583616
  0
LWPOLYLINE
  5
E4
100
AcDbEntity
  8
Door & Window
  6
ByLayer
 62
  256
370
   -1
100
AcDbPolyline
 90
    4
 70
    1
 43
0
 10
441.5189722150458
 20
-246.0526933199431
 10
436.5189726208807
 20
-246.0547078547847
 10
436.5169580860393
 20
-241.0547082606198
 10
441.5169576802041
 20
-241.0526937257782
  0
LINE
  5
E5
100
AcDbEntity
  8
Door & Window
  6
ByLayer
 62
  256
370
   -1
100
AcDbLine
 10
449.5219933679718
 20
-253.549469455444
 11
369.5219998613331
 21
-253.5817020129088
  0
LINE
  5
E6
100
AcDbEntity
  8
Door & Window
  6
ByLayer
 62
  256
370
   -1
100
AcDbLine
 10
369.5139417219671
 20
-233.5817036362491
 11
449.5139352286058
 21
-233.5494710787844
  0
LINE
  5
E7
100
AcDbEntity
  8
Door & Window
  6
ByLayer
 62
  256
370
   -1
100
AcDbLine
 10
449.5139352286058
 20
-233.5494710787844
 11
449.5149424960266
 21
-236.0494708758669
  0
LINE
  5
E8
100
AcDbEntity
  8
Door & Window
  6
ByLayer
 62
  256
370
   -1
100
AcDbLine
 10
449.5209861005512
 20
-251.0494696583616
 11
449.5219933679718
 21
-253.549469455444
  0
LWPOLYLINE
  5
E9
100
AcDbEntity
  8
Door & Window
  6
ByLayer
 62
  256
370
   -1
100
AcDbPolyline
 90
    4
 70
    1
 43
0
 10
377.5189774097348
 20
-246.0784793659149
 10
382.5189770038996
 20
-246.0764648310734
 10
382.5169624690582
 20
-241.0764652369085
 10
377.5169628748931
 20
-241.07847977175
  0
LINE
  5
EA
100
AcDbEntity
  8
Door & Window
  6
ByLayer
 62
  256
370
   -1
100
AcDbLine
 10
436.5179653534601
 20
-243.5547080577022
 11
382.5179697364788
 21
-243.576465033991
  0
LWPOLYLINE
  5
EB
100
AcDbEntity
  8
Hatch
  6
ByLayer
 62
  256
370
   -1
100
AcDbPolyline
 90
    4
 70
    1
 43
0
 10
214.4159023186398
 20
346.4960981469217
 10
328.3983557075882
 20
346.4960981469217
 10
328.3983557075882
 20
326.4960981469217
 10
214.4159023186398
 20
326.4960981469217
  0
LWPOLYLINE
  5
EC
100
AcDbEntity
  8
Hatch
  6
ByLayer
 62
  256
370
   -1
100
AcDbPolyline
 90
    4
 70
    1
 43
0
 10
408.3983557075882
 20
346.2794764960373
 10
574.1341694167036
 20
346.2794764960373
 10
574.1341694167036
 20
326.4960981469217
 10
408.3983557075882
 20
326.4960981469217
  0
LWPOLYLINE
  5
ED
100
AcDbEntity
  8
Hatch
  6
ByLayer
 62
  256
370
   -1
100
AcDbPolyline
 90
    4
 70
    1
 43
0
 10
654.1341694167036
 20
346.2269152120554
 10
714.4159023186398
 20
346.2269152120554
 10
714.4159023186398
 20
326.4960981469217
 10
654.1341694167036
 20
326.4960981469217
  0
LWPOLYLINE
  5
EE
100
AcDbEntity
  8
Door & Window
  6
ByLayer
 62
  256
370
   -1
100
AcDbPolyline
 90
    4
 70
    1
 43
0
 10
711.8237543659633
 20
-164.9875761289181
 10
711.8237543659633
 20
-159.9875761289181
 10
696.8237543659633
 20
-159.9875761289181
 10
696.8237543659633
 20
-164.9875761289181
  0
LINE
  5
EF
100
AcDbEntity
  8
Door & Window
  6
ByLayer
 62
  256
370
   -1
100
AcDbLine
 10
696.8237543659633
 20
-164.9875761289181
 11
696.8237543659633
 21
-167.9875761289181
  0
LINE
  5
F0
100
AcDbEntity
  8
Door & Window
  6
ByLayer
 62
  256
370
   -1
100
AcDbLine
 10
711.8237543659633
 20
-164.9875761289181
 11
711.8237543659633
 21
-167.9875761289181
  0
LWPOLYLINE
  5
F1
100
AcDbEntity
  8
Door & Window
  6
ByLayer
 62
  256
370
   -1
100
AcDbPolyline
 90
    4
 70
    1
 43
0
 10
706.8237543659633
 20
-159.9875761289181
 10
706.8237543659633
 20
-154.9875761289181
 10
701.8237543659633
 20
-154.9875761289181
 10
701.8237543659633
 20
-159.9875761289181
  0
LINE
  5
F2
100
AcDbEntity
  8
Door & Window
  6
ByLayer
 62
  256
370
   -1
100
AcDbLine
 10
694.3237543659633
 20
-167.9875761289181
 11
696.8237543659633
 21
-167.9875761289181
  0
LINE
  5
F3
100
AcDbEntity
  8
Door & Window
  6
ByLayer
 62
  256
370
   -1
100
AcDbLine
 10
711.8237543659633
 20
-167.9875761289181
 11
714.3237543659633
 21
-167.9875761289181
  0
LINE
  5
F4
100
AcDbEntity
  8
Door & Window
  6
ByLayer
 62
  256
370
   -1
100
AcDbLine
 10
714.4353321869671
 20
-155.3043558006248
 11
714.4353321869671
 21
-75.3043558006249
  0
LINE
  5
F5
100
AcDbEntity
  8
Door & Window
  6
ByLayer
 62
  256
370
   -1
100
AcDbLine
 10
694.4353321869671
 20
-75.3043558006249
 11
694.4353321869671
 21
-155.3043558006248
  0
LWPOLYLINE
  5
F6
100
AcDbEntity
  8
Door & Window
  6
ByLayer
 62
  256
370
   -1
100
AcDbPolyline
 90
    4
 70
    1
 43
0
 10
711.9353321869671
 20
-78.3043558006249
 10
711.9353321869671
 20
-83.3043558006249
 10
696.9353321869671
 20
-83.3043558006249
 10
696.9353321869671
 20
-78.3043558006249
  0
LWPOLYLINE
  5
F7
100
AcDbEntity
  8
Door & Window
  6
ByLayer
 62
  256
370
   -1
100
AcDbPolyline
 90
    4
 70
    1
 43
0
 10
706.9353321869671
 20
-83.3043558006249
 10
706.9353321869671
 20
-88.3043558006249
 10
701.9353321869671
 20
-88.3043558006249
 10
701.9353321869671
 20
-83.3043558006249
  0
LINE
  5
F8
100
AcDbEntity
  8
Door & Window
  6
ByLayer
 62
  256
370
   -1
100
AcDbLine
 10
704.4353321869671
 20
-142.3043558006248
 11
704.4353321869671
 21
-88.3043558006249
  0
LWPOLYLINE
  5
F9
100
AcDbEntity
  8
Door & Window
  6
ByLayer
 62
  256
370
   -1
100
AcDbPolyline
 90
    4
 70
    1
 43
0
 10
711.9075309974012
 20
-14.30133959888636
 10
711.9095455322426
 20
-19.3013391930514
 10
696.909546749748
 20
-19.30738279757603
 10
696.9075322149065
 20
-14.30738320341098
  0
LINE
  5
FA
100
AcDbEntity
  8
Door & Window
  6
ByLayer
 62
  256
370
   -1
100
AcDbLine
 10
696.9075322149065
 20
-14.30738320341098
 11
696.9063234940015
 21
-11.30738344691227
  0
LINE
  5
FB
100
AcDbEntity
  8
Door & Window
  6
ByLayer
 62
  256
370
   -1
100
AcDbLine
 10
711.9075309974012
 20
-14.30133959888636
 11
711.9063222764962
 21
-11.30133984238765
  0
LWPOLYLINE
  5
FC
100
AcDbEntity
  8
Door & Window
  6
ByLayer
 62
  256
370
   -1
100
AcDbPolyline
 90
    4
 70
    1
 43
0
 10
706.9095459380778
 20
-19.3033537278931
 10
706.9115604729193
 20
-24.30335332205792
 10
701.9115608787545
 20
-24.30536785689961
 10
701.9095463439128
 20
-19.30536826273479
  0
LINE
  5
FD
100
AcDbEntity
  8
Door & Window
  6
ByLayer
 62
  256
370
   -1
100
AcDbLine
 10
714.4063220735786
 20
-11.3003325749668
 11
714.4385546310434
 21
-91.3003260816055
  0
LINE
  5
FE
100
AcDbEntity
  8
Door & Window
  6
ByLayer
 62
  256
370
   -1
100
AcDbLine
 10
694.4385562543837
 20
-91.30838422097182
 11
694.4063236969191
 21
-11.30839071433311
  0
LINE
  5
FF
100
AcDbEntity
  8
Door & Window
  6
ByLayer
 62
  256
370
   -1
100
AcDbLine
 10
694.4063236969191
 20
-11.30839071433311
 11
696.9063234940015
 21
-11.30738344691227
  0
LWPOLYLINE
  5
100
100
AcDbEntity
  8
Door & Window
  6
ByLayer
 62
  256
370
   -1
100
AcDbPolyline
 90
    4
 70
    1
 43
0
 10
706.9353319840495
 20
-83.30334853320406
 10
706.9333174492081
 20
-78.30334893903924
 10
701.9333178550432
 20
-78.30536347388048
 10
701.9353323898847
 20
-83.30536306804575
  0
LINE
  5
101
100
AcDbEntity
  8
Door & Window
  6
ByLayer
 62
  256
370
   -1
100
AcDbLine
 10
704.4115606758369
 20
-24.30436058947876
 11
704.4333176521257
 21
-78.30435620646008
  0
LINE
  5
102
100
AcDbEntity
  8
Door & Window
  6
ByLayer
 62
  256
370
   -1
100
AcDbLine
 10
711.9063222764962
 20
-11.30133984238765
 11
714.4063220735787
 21
-11.3003325749668
  0
LWPOLYLINE
  5
103
100
AcDbEntity
  8
Hatch
  6
ByLayer
 62
  256
370
   -1
100
AcDbPolyline
 90
    4
 70
    1
 43
0
 10
214.4159023186397
 20
346.4960981469217
 10
328.3983557075882
 20
346.4960981469217
 10
328.3983557075882
 20
326.4960981469217
 10
214.4159023186397
 20
326.4960981469217
  0
LWPOLYLINE
  5
104
100
AcDbEntity
  8
Hatch
  6
ByLayer
 62
  256
370
   -1
100
AcDbPolyline
 90
    4
 70
    1
 43
0
 10
408.3983557075882
 20
346.2794764960373
 10
574.1341694167036
 20
346.2794764960373
 10
574.1341694167036
 20
326.4960981469217
 10
408.3983557075882
 20
326.4960981469217
  0
LWPOLYLINE
  5
105
100
AcDbEntity
  8
Hatch
  6
ByLayer
 62
  256
370
   -1
100
AcDbPolyline
 90
    4
 70
    1
 43
0
 10
654.1341694167036
 20
346.2269152120554
 10
714.4159023186398
 20
346.2269152120554
 10
714.4159023186398
 20
326.4960981469217
 10
654.1341694167036
 20
326.4960981469217
  0
LWPOLYLINE
  5
106
100
AcDbEntity
  8
Hatch
  6
ByLayer
 62
  256
370
   -1
100
AcDbPolyline
 90
    4
 70
    1
 43
0
 10
694.4159023186398
 20
326.4960981469217
 10
714.4063220735787
 20
326.4960981469217
 10
714.4063220735787
 20
-11.3003325749668
 10
694.4159023186398
 20
-11.3003325749668
  0
LWPOLYLINE
  5
107
100
AcDbEntity
  8
Hatch
  6
ByLayer
 62
  256
370
   -1
100
AcDbPolyline
 90
    4
 70
    1
 43
0
 10
694.3237543659633
 20
-167.9875761289181
 10
714.4159023186398
 20
-167.9875761289181
 10
714.4159023186398
 20
-253.5039018530783
 10
694.3237543659633
 20
-253.5039018530783
  0
LWPOLYLINE
  5
108
100
AcDbEntity
  8
Hatch
  6
ByLayer
 62
  256
370
   -1
100
AcDbPolyline
 90
    4
 70
    1
 43
0
 10
694.4159023186398
 20
-233.5039018530783
 10
616.4689832085842
 20
-233.5039018530783
 10
616.4689832085842
 20
-253.4164831224134
 10
694.4159023186398
 20
-253.4164831224134
  0
LWPOLYLINE
  5
109
100
AcDbEntity
  8
Hatch
  6
ByLayer
 62
  256
370
   -1
100
AcDbPolyline
 90
    4
 70
    1
 43
0
 10
514.4689832085843
 20
-233.5039018530783
 10
449.5219933679718
 20
-233.5039018530783
 10
449.5219933679718
 20
-253.549469455444
 10
514.4689832085843
 20
-253.549469455444
  0
LWPOLYLINE
  5
10A
100
AcDbEntity
  8
Hatch
  6
ByLayer
 62
  256
370
   -1
100
AcDbPolyline
 90
    4
 70
    1
 43
0
 10
305.517970142314
 20
-233.5784795688325
 10
214.4159023186398
 20
-233.5784795688325
 10
214.4159023186398
 20
-253.5039018530783
 10
305.517970142314
 20
-253.5039018530783
  0
LWPOLYLINE
  5
10B
100
AcDbEntity
  8
Hatch
  6
ByLayer
 62
  256
370
   -1
100
AcDbPolyline
 90
    4
 70
    1
 43
0
 10
214.4159023186398
 20
61.49609814692172
 10
422.4159023186398
 20
61.49609814692172
 10
422.4159023186398
 20
46.49609814692172
 10
214.4159023186398
 20
46.49609814692172
  0
LWPOLYLINE
  5
10C
100
AcDbEntity
  8
Hatch
  6
ByLayer
 62
  256
370
   -1
100
AcDbPolyline
 90
    4
 70
    1
 43
0
 10
364.4159023186398
 20
46.49609814692172
 10
379.4159023186397
 20
46.49609814692172
 10
379.4159023186397
 20
-11.50390185307828
 10
364.4159023186398
 20
-11.50390185307828
  0
LWPOLYLINE
  5
10D
100
AcDbEntity
  8
Hatch
  6
ByLayer
 62
  256
370
   -1
100
AcDbPolyline
 90
    4
 70
    1
 43
0
 10
379.4159023186397
 20
-88.50390185307828
 10
234.4159023186397
 20
-88.50390185307828
 10
234.4159023186397
 20
-103.5039018530783
 10
379.4159023186397
 20
-103.5039018530783
  0
LWPOLYLINE
  5
10E
100
AcDbEntity
  8
Door & Window
  6
ByLayer
 62
  256
370
   -1
100
AcDbPolyline
 90
    4
 70
    1
 43
0
 10
231.9066148425849
 20
-55.80150777786708
 10
231.9066148425849
 20
-50.80150777786708
 10
216.9066148425849
 20
-50.80150777786708
 10
216.9066148425849
 20
-55.80150777786708
  0
LINE
  5
10F
100
AcDbEntity
  8
Door & Window
  6
ByLayer
 62
  256
370
   -1
100
AcDbLine
 10
216.9066148425849
 20
-55.80150777786708
 11
216.9066148425849
 21
-58.80150777786708
  0
LINE
  5
110
100
AcDbEntity
  8
Door & Window
  6
ByLayer
 62
  256
370
   -1
100
AcDbLine
 10
231.9066148425849
 20
-55.80150777786708
 11
231.9066148425849
 21
-58.80150777786708
  0
LWPOLYLINE
  5
111
100
AcDbEntity
  8
Door & Window
  6
ByLayer
 62
  256
370
   -1
100
AcDbPolyline
 90
    4
 70
    1
 43
0
 10
226.9066148425849
 20
-50.80150777786708
 10
226.9066148425849
 20
-45.80150777786708
 10
221.9066148425849
 20
-45.80150777786708
 10
221.9066148425849
 20
-50.80150777786708
  0
LINE
  5
112
100
AcDbEntity
  8
Door & Window
  6
ByLayer
 62
  256
370
   -1
100
AcDbLine
 10
234.4066148425849
 20
-58.80150777786708
 11
234.4066148425849
 21
21.19849222213294
  0
LINE
  5
113
100
AcDbEntity
  8
Door & Window
  6
ByLayer
 62
  256
370
   -1
100
AcDbLine
 10
214.4066148425849
 20
21.19849222213294
 11
214.4066148425849
 21
-58.80150777786708
  0
LINE
  5
114
100
AcDbEntity
  8
Door & Window
  6
ByLayer
 62
  256
370
   -1
100
AcDbLine
 10
214.4066148425849
 20
-58.80150777786708
 11
216.9066148425849
 21
-58.80150777786708
  0
LINE
  5
115
100
AcDbEntity
  8
Door & Window
  6
ByLayer
 62
  256
370
   -1
100
AcDbLine
 10
231.9066148425849
 20
-58.80150777786708
 11
234.4066148425849
 21
-58.80150777786708
  0
LWPOLYLINE
  5
116
100
AcDbEntity
  8
Door & Window
  6
ByLayer
 62
  256
370
   -1
100
AcDbPolyline
 90
    4
 70
    1
 43
0
 10
231.9066148425849
 20
18.19849222213294
 10
231.9066148425849
 20
13.19849222213294
 10
216.9066148425849
 20
13.19849222213294
 10
216.9066148425849
 20
18.19849222213294
  0
LINE
  5
117
100
AcDbEntity
  8
Door & Window
  6
ByLayer
 62
  256
370
   -1
100
AcDbLine
 10
216.9066148425849
 20
18.19849222213294
 11
216.9066148425849
 21
21.19849222213294
  0
LINE
  5
118
100
AcDbEntity
  8
Door & Window
  6
ByLayer
 62
  256
370
   -1
100
AcDbLine
 10
231.9066148425849
 20
18.19849222213294
 11
231.9066148425849
 21
21.19849222213294
  0
LWPOLYLINE
  5
119
100
AcDbEntity
  8
Door & Window
  6
ByLayer
 62
  256
370
   -1
100
AcDbPolyline
 90
    4
 70
    1
 43
0
 10
226.9066148425849
 20
13.19849222213294
 10
226.9066148425849
 20
8.198492222132945
 10
221.9066148425849
 20
8.198492222132945
 10
221.9066148425849
 20
13.19849222213294
  0
LINE
  5
11A
100
AcDbEntity
  8
Door & Window
  6
ByLayer
 62
  256
370
   -1
100
AcDbLine
 10
214.4066148425849
 20
21.19849222213294
 11
216.906614842585
 21
21.19849222213294
  0
LINE
  5
11B
100
AcDbEntity
  8
Door & Window
  6
ByLayer
 62
  256
370
   -1
100
AcDbLine
 10
231.9066148425849
 20
21.19849222213294
 11
234.4066148425849
 21
21.19849222213294
  0
LINE
  5
11C
100
AcDbEntity
  8
Door & Window
  6
ByLayer
 62
  256
370
   -1
100
AcDbLine
 10
224.4066148425849
 20
-45.80150777786708
 11
224.4066148425849
 21
8.198492222132945
  0
LWPOLYLINE
  5
11D
100
AcDbEntity
  8
Door & Window
  6
ByLayer
 62
  256
370
   -1
100
AcDbPolyline
 90
    4
 70
    1
 43
0
 10
231.9550419467355
 20
140.8046838814202
 10
231.9550419467355
 20
145.8046838814202
 10
216.9550419467355
 20
145.8046838814202
 10
216.9550419467355
 20
140.8046838814202
  0
LINE
  5
11E
100
AcDbEntity
  8
Door & Window
  6
ByLayer
 62
  256
370
   -1
100
AcDbLine
 10
216.9550419467355
 20
140.8046838814202
 11
216.9550419467355
 21
137.8046838814202
  0
LINE
  5
11F
100
AcDbEntity
  8
Door & Window
  6
ByLayer
 62
  256
370
   -1
100
AcDbLine
 10
231.9550419467355
 20
140.8046838814202
 11
231.9550419467355
 21
137.8046838814202
  0
LWPOLYLINE
  5
120
100
AcDbEntity
  8
Door & Window
  6
ByLayer
 62
  256
370
   -1
100
AcDbPolyline
 90
    4
 70
    1
 43
0
 10
226.9550419467355
 20
145.8046838814202
 10
226.9550419467355
 20
150.8046838814202
 10
221.9550419467355
 20
150.8046838814202
 10
221.9550419467355
 20
145.8046838814202
  0
LINE
  5
121
100
AcDbEntity
  8
Door & Window
  6
ByLayer
 62
  256
370
   -1
100
AcDbLine
 10
234.4550419467355
 20
137.8046838814202
 11
234.4550419467355
 21
217.8046838814203
  0
LINE
  5
122
100
AcDbEntity
  8
Door & Window
  6
ByLayer
 62
  256
370
   -1
100
AcDbLine
 10
214.4550419467355
 20
217.8046838814203
 11
214.4550419467355
 21
137.8046838814202
  0
LINE
  5
123
100
AcDbEntity
  8
Door & Window
  6
ByLayer
 62
  256
370
   -1
100
AcDbLine
 10
214.4550419467355
 20
137.8046838814202
 11
216.9550419467355
 21
137.8046838814202
  0
LINE
  5
124
100
AcDbEntity
  8
Door & Window
  6
ByLayer
 62
  256
370
   -1
100
AcDbLine
 10
231.9550419467355
 20
137.8046838814202
 11
234.4550419467355
 21
137.8046838814202
  0
LWPOLYLINE
  5
125
100
AcDbEntity
  8
Door & Window
  6
ByLayer
 62
  256
370
   -1
100
AcDbPolyline
 90
    4
 70
    1
 43
0
 10
231.9550419467355
 20
214.8046838814203
 10
231.9550419467355
 20
209.8046838814203
 10
216.9550419467355
 20
209.8046838814203
 10
216.9550419467355
 20
214.8046838814203
  0
LINE
  5
126
100
AcDbEntity
  8
Door & Window
  6
ByLayer
 62
  256
370
   -1
100
AcDbLine
 10
216.9550419467355
 20
214.8046838814203
 11
216.9550419467355
 21
217.8046838814203
  0
LINE
  5
127
100
AcDbEntity
  8
Door & Window
  6
ByLayer
 62
  256
370
   -1
100
AcDbLine
 10
231.9550419467355
 20
214.8046838814203
 11
231.9550419467355
 21
217.8046838814203
  0
LWPOLYLINE
  5
128
100
AcDbEntity
  8
Door & Window
  6
ByLayer
 62
  256
370
   -1
100
AcDbPolyline
 90
    4
 70
    1
 43
0
 10
226.9550419467355
 20
209.8046838814203
 10
226.9550419467355
 20
204.8046838814203
 10
221.9550419467355
 20
204.8046838814203
 10
221.9550419467355
 20
209.8046838814203
  0
LINE
  5
129
100
AcDbEntity
  8
Door & Window
  6
ByLayer
 62
  256
370
   -1
100
AcDbLine
 10
214.4550419467355
 20
217.8046838814203
 11
216.9550419467356
 21
217.8046838814203
  0
LINE
  5
12A
100
AcDbEntity
  8
Door & Window
  6
ByLayer
 62
  256
370
   -1
100
AcDbLine
 10
231.9550419467355
 20
217.8046838814203
 11
234.4550419467355
 21
217.8046838814203
  0
LINE
  5
12B
100
AcDbEntity
  8
Door & Window
  6
ByLayer
 62
  256
370
   -1
100
AcDbLine
 10
224.4550419467355
 20
150.8046838814202
 11
224.4550419467355
 21
204.8046838814203
  0
LWPOLYLINE
  5
12C
100
AcDbEntity
  8
Hatch
  6
ByLayer
 62
  256
370
   -1
100
AcDbPolyline
 90
    4
 70
    1
 43
0
 10
514.4159023186398
 20
326.4960981469217
 10
529.4159023186397
 20
326.4960981469217
 10
529.4159023186397
 20
61.49609814692171
 10
514.4159023186398
 20
61.49609814692171
  0
LWPOLYLINE
  5
12D
100
AcDbEntity
  8
Hatch
  6
ByLayer
 62
  256
370
   -1
100
AcDbPolyline
 90
    4
 70
    1
 43
0
 10
514.4159023186398
 20
61.49609814692171
 10
602.4159023186398
 20
61.49609814692171
 10
602.4159023186398
 20
46.49609814692172
 10
514.4159023186398
 20
46.49609814692172
  0
LWPOLYLINE
  5
12E
100
AcDbEntity
  8
Hatch
  6
ByLayer
 62
  256
370
   -1
100
AcDbPolyline
 90
    4
 70
    1
 43
0
 10
214.4550419467355
 20
137.8046838814202
 10
234.4066148425849
 20
137.8046838814202
 10
234.4066148425849
 20
21.19849222213294
 10
214.4550419467355
 20
21.19849222213294
  0
LWPOLYLINE
  5
12F
100
AcDbEntity
  8
Hatch
  6
ByLayer
 62
  256
370
   -1
100
AcDbPolyline
 90
    4
 70
    1
 43
0
 10
214.4159023186398
 20
-233.5039018530783
 10
234.4066148425849
 20
-233.5039018530783
 10
234.4066148425849
 20
-58.80150777786708
 10
214.4159023186398
 20
-58.80150777786708
  0
LWPOLYLINE
  5
130
100
AcDbEntity
  8
Hatch
  6
ByLayer
 62
  256
370
   -1
100
AcDbPolyline
 90
    4
 70
    1
 43
0
 10
234.4550419467355
 20
217.8046838814203
 10
214.4159023186398
 20
217.8046838814203
 10
214.4159023186398
 20
326.4960981469217
 10
234.4550419467355
 20
326.4960981469217
  0
DIMENSION
  5
131
100
AcDbEntity
  8
Dimension
  6
ByLayer
 62
  256
370
   -1
100
AcDbDimension
  2
*D1
 10
714.4159023186398
 20
389.0068612601397
 30
0
 11
464.4159023186398
 21
402.5068612601397
 31
0
 70
   32
 71
    5
  3
Standard
 53
0
210
0
220
0
230
1
100
AcDbAlignedDimension
 13
214.4159023186398
 23
346.4960981469217
 33
0
 14
714.4159023186398
 24
346.2269152120554
 34
0
100
AcDbRotatedDimension
  0
DIMENSION
  5
132
100
AcDbEntity
  8
Dimension
  6
ByLayer
 62
  256
370
   -1
100
AcDbDimension
  2
*D2
 10
514.4159023186398
 20
363.8850874409918
 30
0
 11
364.4159023186398
 21
377.3850874409918
 31
0
 70
   32
 71
    5
  3
Standard
 53
0
210
0
220
0
230
1
100
AcDbAlignedDimension
 13
214.4159023186397
 23
346.4960981469217
 33
0
 14
514.4159023186398
 24
346.2794764960373
 34
0
100
AcDbRotatedDimension
  0
DIMENSION
  5
133
100
AcDbEntity
  8
Dimension
  6
ByLayer
 62
  256
370
   -1
100
AcDbDimension
  2
*D3
 10
163.4621204048449
 20
346.4960981469217
 30
0
 11
149.9621204048449
 21
46.49609814692167
 31
0
 70
   32
 71
    5
  3
Standard
 53
0
210
0
220
0
230
1
100
AcDbAlignedDimension
 13
214.4159023186398
 23
-253.5039018530783
 33
0
 14
214.4159023186397
 24
346.4960981469217
 34
0
 50
90
100
AcDbRotatedDimension
  0
DIMENSION
  5
134
100
AcDbEntity
  8
Dimension
  6
ByLayer
 62
  256
370
   -1
100
AcDbDimension
  2
*D4
 10
786.9326858427929
 20
61.49609814692171
 30
0
 11
773.4326858427929
 21
203.9960981469217
 31
0
 70
   32
 71
    5
  3
Standard
 53
0
210
0
220
0
230
1
100
AcDbAlignedDimension
 13
714.4159023186398
 23
346.4960981469217
 33
0
 14
714.4159023186398
 24
61.49609814692172
 34
0
 50
90
100
AcDbRotatedDimension
  0
DIMENSION
  5
135
100
AcDbEntity
  8
Dimension
  6
ByLayer
 62
  256
370
   -1
100
AcDbDimension
  2
*D5
 10
786.9326858427929
 20
-253.5039018530783
 30
0
 11
773.4326858427929
 21
-96.00390185307828
 31
0
 70
   32
 71
    5
  3
Standard
 53
0
210
0
220
0
230
1
100
AcDbAlignedDimension
 13
714.4159023186398
 23
61.49609814692172
 33
0
 14
714.4159023186398
 24
-253.5039018530783
 34
0
 50
90
100
AcDbRotatedDimension
  0
DIMENSION
  5
136
100
AcDbEntity
  8
Dimension
  6
ByLayer
 62
  256
370
   -1
100
AcDbDimension
  2
*D6
 10
289.3134874422033
 20
137.8046838814202
 30
0
 11
275.8134874422033
 21
177.8046838814203
 31
0
 70
   32
 71
    5
  3
Standard
 53
0
210
0
220
0
230
1
100
AcDbAlignedDimension
 13
214.4159023186398
 23
217.8046838814203
 33
0
 14
214.4550419467355
 24
137.8046838814202
 34
0
 50
90
100
AcDbRotatedDimension
  0
DIMENSION
  5
137
100
AcDbEntity
  8
Dimension
  6
ByLayer
 62
  256
370
   -1
100
AcDbDimension
  2
*D7
 10
449.5219933679718
 20
-182.2674970885881
 30
0
 11
377.5199817551429
 21
-168.7674970885881
 31
0
 70
   32
 71
    5
  3
Standard
 53
0
210
0
220
0
230
1
100
AcDbAlignedDimension
 13
305.517970142314
 23
-253.5784795688325
 33
0
 14
449.5219933679718
 24
-253.549469455444
 34
0
100
AcDbRotatedDimension
  0
MTEXT
  5
138
100
AcDbEntity
  8
Dimension
  6
ByLayer
 62
  256
370
   -1
100
AcDbMText
 10
316.7495770204776
 20
215.5030403251442
 30
0
 40
20
 41
126.1111111111121
 71
    1
 72
    1
  1
Bed Room
  7

210
0
220
0
230
1
 50
0
 73
    2
 44
1
  0
MTEXT
  5
139
100
AcDbEntity
  8
Dimension
  6
ByLayer
 62
  256
370
   -1
100
AcDbMText
 10
554.9628216411821
 20
213.9157103994131
 30
0
 40
15
 41
117.9166634866365
 71
    1
 72
    1
  1
Single Room
  7

210
0
220
0
230
1
 50
0
 73
    2
 44
1
  0
MTEXT
  5
13A
100
AcDbEntity
  8
Dimension
  6
ByLayer
 62
  256
370
   -1
100
AcDbMText
 10
278.5282350887674
 20
-11.38216345314674
 30
0
 40
15
 41
36.66666666666666
 71
    1
 72
    1
  1
W/C
  7

210
0
220
0
230
1
 50
0
 73
    2
 44
1
  0
MTEXT
  5
13B
100
AcDbEntity
  8
Dimension
  6
ByLayer
 62
  256
370
   -1
100
AcDbMText
 10
260.4506813690637
 20
-125.8733370112699
 30
0
 40
15
 41
68.33333333333474
 71
    1
 72
    1
  1
Kitchen
  7

210
0
220
0
230
1
 50
0
 73
    2
 44
1
  0
ENDSEC
  0
SECTION
  2
OBJECTS
  0
DICTIONARY
  5
C
330
0
100
AcDbDictionary
281
    1
  3
ACAD_GROUP
350
D
  0
DICTIONARY
  5
D
330
C
100
AcDbDictionary
281
    1
  0
PLOTSETTINGS
  5
13C
100
AcDbPlotSettings
  6
1x1
 40
0
 41
0
 42
0
 43
0
  0
ENDSEC
  0
EOF
