999
dxfrw 0.6.3
  0
SECTION
  2
HEADER
  9
$ACADVER
  1
AC1021
  9
$DWGCODEPAGE
  3
ANSI_1252
  9
$INSBASE
 10
0
 20
0
 30
0
  9
$EXTMIN
 10
-10.32874831263674
 20
-167.2724885023934
 30
0
  9
$EXTMAX
 10
508.9401986866768
 20
235.8660263389756
 30
0
  9
$LIMMIN
 10
0
 20
0
  9
$LIMMAX
 10
420
 20
297
  9
$ORTHOMODE
 70
    0
  9
$REGENMODE
 70
    1
  9
$FILLMODE
 70
    1
  9
$QTEXTMODE
 70
    0
  9
$MIRRTEXT
 70
    0
  9
$LTSCALE
 40
1
  9
$ATTMODE
 70
    0
  9
$TEXTSIZE
 40
2.5
  9
$TRACEWID
 40
15.68
  9
$TEXTSTYLE
  7
STANDARD
  9
$CLAYER
  8
Dimention
  9
$CELTYPE
  6
BYLAYER
  9
$CECOLOR
 62
  256
  9
$CELTSCALE
 40
1
  9
$DISPSILH
 70
    0
  9
$DIMSCALE
 40
1.5
  9
$DIMASZ
 40
5
  9
$DIMEXO
 40
0.025
  9
$DIMDLI
 40
3.75
  9
$DIMRND
 40
0
  9
$DIMDLE
 40
0
  9
$DIMEXE
 40
1.25
  9
$DIMTP
 40
0
  9
$DIMTM
 40
0
  9
$DIMTXT
 40
5
  9
$DIMCEN
 40
2.5
  9
$DIMTSZ
 40
5
  9
$DIMTOL
 70
    0
  9
$DIMLIM
 70
    0
  9
$DIMTIH
 70
    0
  9
$DIMTOH
 70
    0
  9
$DIMSE1
 70
    0
  9
$DIMSE2
 70
    0
  9
$DIMTAD
 70
    1
  9
$DIMZIN
 70
    1
  9
$DIMBLK
  1

  9
$DIMASO
 70
    1
  9
$DIMSHO
 70
    1
  9
$DIMPOST
  1

  9
$DIMAPOST
  1

  9
$DIMALT
 70
    0
  9
$DIMALTD
 70
    3
  9
$DIMALTF
 40
0.03937
  9
$DIMLFAC
 40
1
  9
$DIMTOFL
 70
    1
  9
$DIMTVP
 40
0
  9
$DIMTIX
 70
    0
  9
$DIMSOXD
 70
    0
  9
$DIMSAH
 70
    0
  9
$DIMBLK1
  1

  9
$DIMBLK2
  1

  9
$DIMSTYLE
  2
STANDARD
  9
$DIMCLRD
 70
  256
  9
$DIMCLRE
 70
    0
  9
$DIMCLRT
 70
  256
  9
$DIMTFAC
 40
1
  9
$DIMGAP
 40
3
  9
$DIMJUST
 70
    0
  9
$DIMSD1
 70
    0
  9
$DIMSD2
 70
    0
  9
$DIMTOLJ
 70
    0
  9
$DIMTZIN
 70
    8
  9
$DIMALTZ
 70
    0
  9
$DIMALTTZ
 70
    0
  9
$DIMUPT
 70
    0
  9
$DIMDEC
 70
    0
  9
$DIMTDEC
 70
    2
  9
$DIMALTU
 70
    2
  9
$DIMALTTD
 70
    3
  9
$DIMTXSTY
  7
simplex
  9
$DIMAUNIT
 70
    0
  9
$DIMADEC
 70
    2
  9
$DIMALTRND
 40
0
  9
$DIMAZIN
 70
    0
  9
$DIMDSEP
 70
    0
  9
$DIMATFIT
 70
    3
  9
$DIMFRAC
 70
    0
  9
$DIMLDRBLK
  1
STANDARD
  9
$DIMLUNIT
 70
    4
  9
$DIMLWD
 70
   -1
  9
$DIMLWE
 70
   -2
  9
$DIMTMOVE
 70
    0
  9
$DIMFXL
 40
0.0394
  9
$DIMFXLON
 70
    0
  9
$DIMJOGANG
 40
0.7854
  9
$DIMTFILL
 70
    0
  9
$DIMTFILLCLR
 70
    0
  9
$DIMARCSYM
 70
    0
  9
$DIMLTYPE
  6

  9
$DIMLTEX1
  6

  9
$DIMLTEX2
  6

  9
$LUNITS
 70
    4
  9
$LUPREC
 70
    0
  9
$SKETCHINC
 40
1
  9
$FILLETRAD
 40
0
  9
$AUNITS
 70
    0
  9
$AUPREC
 70
    2
  9
$MENU
  1
.
  9
$ELEVATION
 40
0
  9
$PELEVATION
 40
0
  9
$THICKNESS
 40
0
  9
$LIMCHECK
 70
    0
  9
$CHAMFERA
 40
0
  9
$CHAMFERB
 40
0
  9
$CHAMFERC
 40
0
  9
$CHAMFERD
 40
0
  9
$SKPOLY
 70
    0
  9
$USRTIMER
 70
    1
  9
$ANGBASE
 50
0
  9
$ANGDIR
 70
    0
  9
$PDMODE
 70
   34
  9
$PDSIZE
 40
0
  9
$PLINEWID
 40
0
  9
$SPLFRAME
 70
    0
  9
$SPLINETYPE
 70
    2
  9
$SPLINESEGS
 70
    8
  9
$HANDSEED
  5
20000
  9
$SURFTAB1
 70
    6
  9
$SURFTAB2
 70
    6
  9
$SURFTYPE
 70
    6
  9
$SURFU
 70
    6
  9
$SURFV
 70
    6
  9
$UCSBASE
  2

  9
$UCSNAME
  2

  9
$UCSORG
 10
0
 20
0
 30
0
  9
$UCSXDIR
 10
1
 20
0
 30
0
  9
$UCSYDIR
 10
0
 20
1
 30
0
  9
$UCSORTHOREF
  2

  9
$UCSORTHOVIEW
 70
    0
  9
$UCSORGTOP
 10
0
 20
0
 30
0
  9
$UCSORGBOTTOM
 10
0
 20
0
 30
0
  9
$UCSORGLEFT
 10
0
 20
0
 30
0
  9
$UCSORGRIGHT
 10
0
 20
0
 30
0
  9
$UCSORGFRONT
 10
0
 20
0
 30
0
  9
$UCSORGBACK
 10
0
 20
0
 30
0
  9
$PUCSBASE
  2

  9
$PUCSNAME
  2

  9
$PUCSORG
 10
0
 20
0
 30
0
  9
$PUCSXDIR
 10
1
 20
0
 30
0
  9
$PUCSYDIR
 10
0
 20
1
 30
0
  9
$PUCSORTHOREF
  2

  9
$PUCSORTHOVIEW
 70
    0
  9
$PUCSORGTOP
 10
0
 20
0
 30
0
  9
$PUCSORGBOTTOM
 10
0
 20
0
 30
0
  9
$PUCSORGLEFT
 10
0
 20
0
 30
0
  9
$PUCSORGRIGHT
 10
0
 20
0
 30
0
  9
$PUCSORGFRONT
 10
0
 20
0
 30
0
  9
$PUCSORGBACK
 10
0
 20
0
 30
0
  9
$USERI1
 70
    0
  9
$USERI2
 70
    0
  9
$USERI3
 70
    0
  9
$USERI4
 70
    0
  9
$USERI5
 70
    0
  9
$USERR1
 40
0
  9
$USERR2
 40
0
  9
$USERR3
 40
0
  9
$USERR4
 40
0
  9
$USERR5
 40
0
  9
$WORLDVIEW
 70
    1
  9
$SHADEDGE
 70
    3
  9
$SHADEDIF
 70
   70
  9
$TILEMODE
 70
    1
  9
$MAXACTVP
 70
   64
  9
$PINSBASE
 10
0
 20
0
 30
0
  9
$PLIMCHECK
 70
    0
  9
$PEXTMIN
 10
0
 20
0
 30
0
  9
$PEXTMAX
 10
0
 20
0
 30
0
  9
$GRIDMODE
 70
    0
  9
$SNAPSTYLE
 70
    0
  9
$GRIDUNIT
 10
0
 20
0
  9
$PLIMMIN
 10
0
 20
0
  9
$PLIMMAX
 10
8.503937007874017
 20
10.98425196850394
  9
$UNITMODE
 70
    0
  9
$VISRETAIN
 70
    1
  9
$PLINEGEN
 70
    0
  9
$PSLTSCALE
 70
    1
  9
$TREEDEPTH
 70
 3020
  9
$CMLSTYLE
  2
Standard
  9
$CMLJUST
 70
    0
  9
$CMLSCALE
 40
20
  9
$PROXYGRAPHICS
 70
    1
  9
$MEASUREMENT
 70
    0
  9
$CELWEIGHT
370
   -1
  9
$ENDCAPS
280
    0
  9
$JOINSTYLE
280
    0
  9
$LWDISPLAY
290
    0
  9
$INSUNITS
 70
    1
  9
$HYPERLINKBASE
  1

  9
$STYLESHEET
  1

  9
$XEDIT
290
    1
  9
$CEPSNTYPE
380
    0
  9
$PSTYLEMODE
290
    1
  9
$EXTNAMES
290
    1
  9
$PSVPSCALE
 40
0
  9
$OLESTARTUP
290
    0
  9
$SORTENTS
280
  127
  9
$INDEXCTL
280
    0
  9
$HIDETEXT
280
    1
  9
$XCLIPFRAME
290
    0
  9
$HALOGAP
280
    0
  9
$OBSCOLOR
 70
  257
  9
$OBSLTYPE
280
    0
  9
$INTERSECTIONDISPLAY
280
    0
  9
$INTERSECTIONCOLOR
 70
  257
  9
$DIMASSOC
280
    1
  9
$PROJECTNAME
  1

  9
$CAMERADISPLAY
290
    0
  9
$LENSLENGTH
 40
50
  9
$CAMERAHEIGHT
 40
0
  9
$STEPSPERSEC
 40
2
  9
$STEPSIZE
 40
50
  9
$3DDWFPREC
 40
2
  9
$PSOLWIDTH
 40
5
  9
$PSOLHEIGHT
 40
80
  9
$LOFTANG1
 40
1.570796326794897
  9
$LOFTANG2
 40
1.570796326794897
  9
$LOFTMAG1
 40
0
  9
$LOFTMAG2
 40
0
  9
$LOFTPARAM
 70
    7
  9
$LOFTNORMALS
280
    1
  9
$LATITUDE
 40
1
  9
$LONGITUDE
 40
1
  9
$NORTHDIRECTION
 40
0
  9
$TIMEZONE
 70
-8000
  9
$LIGHTGLYPHDISPLAY
280
    1
  9
$TILEMODELIGHTSYNCH
280
    1
  9
$SOLIDHIST
280
    1
  9
$SHOWHIST
280
    1
  9
$DWFFRAME
280
    2
  9
$DGNFRAME
280
    0
  9
$REALWORLDSCALE
290
    1
  9
$INTERFERECOLOR
 62
    1
  9
$CSHADOW
280
    0
  9
$SHADOWPLANELOCATION
 40
0
  0
ENDSEC
  0
SECTION
  2
CLASSES
  0
ENDSEC
  0
SECTION
  2
TABLES
  0
TABLE
  2
VPORT
  5
8
330
0
100
AcDbSymbolTable
 70
    1
  0
VPORT
  5
31
330
2
100
AcDbSymbolTableRecord
100
AcDbViewportTableRecord
  2
*ACTIVE
 70
    0
 10
0
 20
0
 11
1
 21
1
 12
337.9249315582069
 22
101.054106327215
 13
0
 23
0
 14
10
 24
10
 15
10
 25
10
 16
0
 26
0
 36
1
 17
0
 27
0
 37
0
 40
413.9176195162726
 41
2.005208333333333
 42
50
 43
0
 44
0
 50
0
 51
0
 71
    0
 72
  100
 73
    1
 74
    3
 75
    0
 76
    0
 77
    0
 78
    0
281
    0
 65
    1
110
0
120
0
130
0
111
1
121
0
131
0
112
0
122
1
132
0
 79
    0
146
0
348
10020
 60
    7
 61
    5
292
1
282
    1
141
0
142
0
 63
  250
421
3358443
  0
ENDTAB
  0
TABLE
  2
LTYPE
  5
5
330
0
100
AcDbSymbolTable
 70
    4
  0
LTYPE
  5
14
330
5
100
AcDbSymbolTableRecord
100
AcDbLinetypeTableRecord
  2
ByBlock
 70
    0
  3

 72
   65
 73
    0
 40
0
  0
LTYPE
  5
15
330
5
100
AcDbSymbolTableRecord
100
AcDbLinetypeTableRecord
  2
ByLayer
 70
    0
  3

 72
   65
 73
    0
 40
0
  0
LTYPE
  5
16
330
5
100
AcDbSymbolTableRecord
100
AcDbLinetypeTableRecord
  2
Continuous
 70
    0
  3
Solid line
 72
   65
 73
    0
 40
0
  0
LTYPE
  5
32
330
5
100
AcDbSymbolTableRecord
100
AcDbLinetypeTableRecord
  2
DOT
 70
    0
  3
Dot . . . . . . . . . . . . . . . . . . . . . .
 72
   65
 73
    2
 40
6.35
 49
0
 74
    0
 49
-6.35
 74
    0
  0
LTYPE
  5
33
330
5
100
AcDbSymbolTableRecord
100
AcDbLinetypeTableRecord
  2
DOTTINY
 70
    0
  3
Dot (.15x) .....................................
 72
   65
 73
    2
 40
0.9525
 49
0
 74
    0
 49
-0.9525
 74
    0
  0
LTYPE
  5
34
330
5
100
AcDbSymbolTableRecord
100
AcDbLinetypeTableRecord
  2
DOT2
 70
    0
  3
Dot (.5x) .....................................
 72
   65
 73
    2
 40
3.175
 49
0
 74
    0
 49
-3.175
 74
    0
  0
LTYPE
  5
35
330
5
100
AcDbSymbolTableRecord
100
AcDbLinetypeTableRecord
  2
DOTX2
 70
    0
  3
Dot (2x) .  .  .  .  .  .  .  .  .  .  .  .  .
 72
   65
 73
    2
 40
12.7
 49
0
 74
    0
 49
-12.7
 74
    0
  0
LTYPE
  5
36
330
5
100
AcDbSymbolTableRecord
100
AcDbLinetypeTableRecord
  2
DASHED
 70
    0
  3
Dashed _ _ _ _ _ _ _ _ _ _ _ _ _ _ _ _ _
 72
   65
 73
    2
 40
19.05
 49
12.7
 74
    0
 49
-6.35
 74
    0
  0
LTYPE
  5
37
330
5
100
AcDbSymbolTableRecord
100
AcDbLinetypeTableRecord
  2
DASHEDTINY
 70
    0
  3
Dashed (.15x) _ _ _ _ _ _ _ _ _ _ _ _ _ _ _ _ _
 72
   65
 73
    2
 40
2.8575
 49
1.905
 74
    0
 49
-0.9525
 74
    0
  0
LTYPE
  5
38
330
5
100
AcDbSymbolTableRecord
100
AcDbLinetypeTableRecord
  2
DASHED2
 70
    0
  3
Dashed (.5x) _ _ _ _ _ _ _ _ _ _ _ _ _ _ _ _ _
 72
   65
 73
    2
 40
9.524999999999999
 49
6.35
 74
    0
 49
-3.175
 74
    0
  0
LTYPE
  5
39
330
5
100
AcDbSymbolTableRecord
100
AcDbLinetypeTableRecord
  2
DASHEDX2
 70
    0
  3
Dashed (2x) ____  ____  ____  ____  ____  ___
 72
   65
 73
    2
 40
38.09999999999999
 49
25.4
 74
    0
 49
-12.7
 74
    0
  0
LTYPE
  5
3A
330
5
100
AcDbSymbolTableRecord
100
AcDbLinetypeTableRecord
  2
DASHDOT
 70
    0
  3
Dash dot __ . __ . __ . __ . __ . __ . __ . __
 72
   65
 73
    4
 40
25.4
 49
12.7
 74
    0
 49
-6.35
 74
    0
 49
0
 74
    0
 49
-6.35
 74
    0
  0
LTYPE
  5
3B
330
5
100
AcDbSymbolTableRecord
100
AcDbLinetypeTableRecord
  2
DASHDOTTINY
 70
    0
  3
Dash dot (.15x) _._._._._._._._._._._._._._._.
 72
   65
 73
    4
 40
3.81
 49
1.905
 74
    0
 49
-0.9525
 74
    0
 49
0
 74
    0
 49
-0.9525
 74
    0
  0
LTYPE
  5
3C
330
5
100
AcDbSymbolTableRecord
100
AcDbLinetypeTableRecord
  2
DASHDOT2
 70
    0
  3
Dash dot (.5x) _._._._._._._._._._._._._._._.
 72
   65
 73
    4
 40
12.7
 49
6.35
 74
    0
 49
-3.175
 74
    0
 49
0
 74
    0
 49
-3.175
 74
    0
  0
LTYPE
  5
3D
330
5
100
AcDbSymbolTableRecord
100
AcDbLinetypeTableRecord
  2
DASHDOTX2
 70
    0
  3
Dash dot (2x) ____  .  ____  .  ____  .  ___
 72
   65
 73
    4
 40
50.8
 49
25.4
 74
    0
 49
-12.7
 74
    0
 49
0
 74
    0
 49
-12.7
 74
    0
  0
LTYPE
  5
3E
330
5
100
AcDbSymbolTableRecord
100
AcDbLinetypeTableRecord
  2
DIVIDE
 70
    0
  3
Divide ____ . . ____ . . ____ . . ____ . . ____
 72
   65
 73
    6
 40
31.75
 49
12.7
 74
    0
 49
-6.35
 74
    0
 49
0
 74
    0
 49
-6.35
 74
    0
 49
0
 74
    0
 49
-6.35
 74
    0
  0
LTYPE
  5
3F
330
5
100
AcDbSymbolTableRecord
100
AcDbLinetypeTableRecord
  2
DIVIDETINY
 70
    0
  3
Divide (.15x) __..__..__..__..__..__..__..__.._
 72
   65
 73
    6
 40
4.7625
 49
1.905
 74
    0
 49
-0.9525
 74
    0
 49
0
 74
    0
 49
-0.9525
 74
    0
 49
0
 74
    0
 49
-0.9525
 74
    0
  0
LTYPE
  5
40
330
5
100
AcDbSymbolTableRecord
100
AcDbLinetypeTableRecord
  2
DIVIDE2
 70
    0
  3
Divide (.5x) __..__..__..__..__..__..__..__.._
 72
   65
 73
    6
 40
15.875
 49
6.35
 74
    0
 49
-3.175
 74
    0
 49
0
 74
    0
 49
-3.175
 74
    0
 49
0
 74
    0
 49
-3.175
 74
    0
  0
LTYPE
  5
41
330
5
100
AcDbSymbolTableRecord
100
AcDbLinetypeTableRecord
  2
DIVIDEX2
 70
    0
  3
Divide (2x) ________  .  .  ________  .  .  _
 72
   65
 73
    6
 40
63.5
 49
25.4
 74
    0
 49
-12.7
 74
    0
 49
0
 74
    0
 49
-12.7
 74
    0
 49
0
 74
    0
 49
-12.7
 74
    0
  0
LTYPE
  5
42
330
5
100
AcDbSymbolTableRecord
100
AcDbLinetypeTableRecord
  2
BORDER
 70
    0
  3
Border __ __ . __ __ . __ __ . __ __ . __ __ .
 72
   65
 73
    6
 40
44.45
 49
12.7
 74
    0
 49
-6.35
 74
    0
 49
12.7
 74
    0
 49
-6.35
 74
    0
 49
0
 74
    0
 49
-6.35
 74
    0
  0
LTYPE
  5
43
330
5
100
AcDbSymbolTableRecord
100
AcDbLinetypeTableRecord
  2
BORDERTINY
 70
    0
  3
Border (.15x) __.__.__.__.__.__.__.__.__.__.__.
 72
   65
 73
    6
 40
6.6675
 49
1.905
 74
    0
 49
-0.9525
 74
    0
 49
1.905
 74
    0
 49
-0.9525
 74
    0
 49
0
 74
    0
 49
-0.9525
 74
    0
  0
LTYPE
  5
44
330
5
100
AcDbSymbolTableRecord
100
AcDbLinetypeTableRecord
  2
BORDER2
 70
    0
  3
Border (.5x) __.__.__.__.__.__.__.__.__.__.__.
 72
   65
 73
    6
 40
22.225
 49
6.35
 74
    0
 49
-3.175
 74
    0
 49
6.35
 74
    0
 49
-3.175
 74
    0
 49
0
 74
    0
 49
-3.175
 74
    0
  0
LTYPE
  5
45
330
5
100
AcDbSymbolTableRecord
100
AcDbLinetypeTableRecord
  2
BORDERX2
 70
    0
  3
Border (2x) ____  ____  .  ____  ____  .  ___
 72
   65
 73
    6
 40
88.89999999999999
 49
25.4
 74
    0
 49
-12.7
 74
    0
 49
25.4
 74
    0
 49
-12.7
 74
    0
 49
0
 74
    0
 49
-12.7
 74
    0
  0
LTYPE
  5
46
330
5
100
AcDbSymbolTableRecord
100
AcDbLinetypeTableRecord
  2
CENTER
 70
    0
  3
Center ____ _ ____ _ ____ _ ____ _ ____ _ ____
 72
   65
 73
    4
 40
50.8
 49
31.75
 74
    0
 49
-6.35
 74
    0
 49
6.35
 74
    0
 49
-6.35
 74
    0
  0
LTYPE
  5
47
330
5
100
AcDbSymbolTableRecord
100
AcDbLinetypeTableRecord
  2
CENTERTINY
 70
    0
  3
Center (.15x) ___ _ ___ _ ___ _ ___ _ ___ _ ___
 72
   65
 73
    4
 40
7.62
 49
4.7625
 74
    0
 49
-0.9525
 74
    0
 49
0.9525
 74
    0
 49
-0.9525
 74
    0
  0
LTYPE
  5
48
330
5
100
AcDbSymbolTableRecord
100
AcDbLinetypeTableRecord
  2
CENTER2
 70
    0
  3
Center (.5x) ___ _ ___ _ ___ _ ___ _ ___ _ ___
 72
   65
 73
    4
 40
28.575
 49
19.05
 74
    0
 49
-3.175
 74
    0
 49
3.175
 74
    0
 49
-3.175
 74
    0
  0
LTYPE
  5
49
330
5
100
AcDbSymbolTableRecord
100
AcDbLinetypeTableRecord
  2
CENTERX2
 70
    0
  3
Center (2x) ________  __  ________  __  _____
 72
   65
 73
    4
 40
101.6
 49
63.5
 74
    0
 49
-12.7
 74
    0
 49
12.7
 74
    0
 49
-12.7
 74
    0
  0
ENDTAB
  0
TABLE
  2
LAYER
  5
2
330
0
100
AcDbSymbolTable
 70
    1
  0
LAYER
  5
10
330
2
100
AcDbSymbolTableRecord
100
AcDbLayerTableRecord
  2
0
 70
    0
 62
    7
  6
CONTINUOUS
370
    0
390
F
  0
LAYER
  5
4A
330
2
100
AcDbSymbolTableRecord
100
AcDbLayerTableRecord
  2
Dimention
 70
    0
 62
    4
  6
CONTINUOUS
370
    0
390
F
  0
LAYER
  5
4B
330
2
100
AcDbSymbolTableRecord
100
AcDbLayerTableRecord
  2
Door
 70
    0
 62
    6
  6
CONTINUOUS
370
    0
390
F
  0
LAYER
  5
4C
330
2
100
AcDbSymbolTableRecord
100
AcDbLayerTableRecord
  2
Hatch
 70
    0
 62
   16
420
8388608
  6
CONTINUOUS
370
    0
390
F
  0
LAYER
  5
4D
330
2
100
AcDbSymbolTableRecord
100
AcDbLayerTableRecord
  2
Stair
 70
    0
 62
    3
  6
CONTINUOUS
370
    0
390
F
  0
LAYER
  5
4E
330
2
100
AcDbSymbolTableRecord
100
AcDbLayerTableRecord
  2
Text
 70
    0
 62
    1
  6
CONTINUOUS
370
    0
390
F
  0
LAYER
  5
4F
330
2
100
AcDbSymbolTableRecord
100
AcDbLayerTableRecord
  2
Windows
 70
    0
 62
    5
  6
CONTINUOUS
370
    0
390
F
  0
ENDTAB
  0
TABLE
  2
STYLE
  5
3
330
0
100
AcDbSymbolTable
 70
    3
  0
STYLE
  5
50
330
2
100
AcDbSymbolTableRecord
100
AcDbTextStyleTableRecord
  2
STANDARD
 70
    0
 40
0
 41
1
 50
0
 71
    0
 42
1
  3
STANDARD
  4

  0
ENDTAB
  0
TABLE
  2
VIEW
  5
6
330
0
100
AcDbSymbolTable
 70
    0
  0
ENDTAB
  0
TABLE
  2
UCS
  5
7
330
0
100
AcDbSymbolTable
 70
    0
  0
ENDTAB
  0
TABLE
  2
APPID
  5
9
330
0
100
AcDbSymbolTable
 70
    1
  0
APPID
  5
12
330
9
100
AcDbSymbolTableRecord
100
AcDbRegAppTableRecord
  2
ACAD
 70
    0
  0
APPID
  5
51
330
9
100
AcDbSymbolTableRecord
100
AcDbRegAppTableRecord
  2
LibreCad
 70
    0
  0
ENDTAB
  0
TABLE
  2
DIMSTYLE
  5
A
330
0
100
AcDbSymbolTable
 70
    1
100
AcDbDimStyleTable
 71
    1
  0
DIMSTYLE
105
52
330
A
100
AcDbSymbolTableRecord
100
AcDbDimStyleTableRecord
  2
Standard
 70
    0
 40
1.5
 41
5
 42
0.025
 43
0.38
 44
1.25
 45
0
 46
0
 47
0
 48
0
 49
0.0394
140
5
141
0.09
142
5
143
25.4
144
1
145
0
146
1
147
3
148
0
 71
    0
 72
    0
 73
    0
 74
    1
 75
    0
 76
    0
 77
    0
 78
    1
 79
    0
170
    0
171
    2
172
    0
173
    0
174
    0
175
    0
176
  256
177
    0
178
  256
179
    2
271
    0
272
    4
273
    2
274
    2
275
    0
276
    0
277
    4
278
    0
279
    0
280
    0
281
    0
282
    0
283
    1
284
    0
285
    0
286
    0
288
    0
289
    3
340
simplex
341

371
   -1
372
   -2
  0
ENDTAB
  0
TABLE
  2
BLOCK_RECORD
  5
1
330
0
100
AcDbSymbolTable
 70
    2
  0
BLOCK_RECORD
  5
1F
330
1
100
AcDbSymbolTableRecord
100
AcDbBlockTableRecord
  2
*Model_Space
 70
    0
280
    1
281
    0
  0
BLOCK_RECORD
  5
1E
330
1
100
AcDbSymbolTableRecord
100
AcDbBlockTableRecord
  2
*Paper_Space
 70
    0
280
    1
281
    0
  0
BLOCK_RECORD
  5
53
330
1
100
AcDbSymbolTableRecord
100
AcDbBlockTableRecord
  2
*D2
 70
    0
280
    1
281
    0
  0
BLOCK_RECORD
  5
56
330
1
100
AcDbSymbolTableRecord
100
AcDbBlockTableRecord
  2
*D12
 70
    0
280
    1
281
    0
  0
BLOCK_RECORD
  5
59
330
1
100
AcDbSymbolTableRecord
100
AcDbBlockTableRecord
  2
*D9
 70
    0
280
    1
281
    0
  0
BLOCK_RECORD
  5
5C
330
1
100
AcDbSymbolTableRecord
100
AcDbBlockTableRecord
  2
*D11
 70
    0
280
    1
281
    0
  0
BLOCK_RECORD
  5
5F
330
1
100
AcDbSymbolTableRecord
100
AcDbBlockTableRecord
  2
*D1
 70
    0
280
    1
281
    0
  0
BLOCK_RECORD
  5
62
330
1
100
AcDbSymbolTableRecord
100
AcDbBlockTableRecord
  2
*D8
 70
    0
280
    1
281
    0
  0
BLOCK_RECORD
  5
65
330
1
100
AcDbSymbolTableRecord
100
AcDbBlockTableRecord
  2
*D10
 70
    0
280
    1
281
    0
  0
BLOCK_RECORD
  5
68
330
1
100
AcDbSymbolTableRecord
100
AcDbBlockTableRecord
  2
*D6
 70
    0
280
    1
281
    0
  0
BLOCK_RECORD
  5
6B
330
1
100
AcDbSymbolTableRecord
100
AcDbBlockTableRecord
  2
*D7
 70
    0
280
    1
281
    0
  0
BLOCK_RECORD
  5
6E
330
1
100
AcDbSymbolTableRecord
100
AcDbBlockTableRecord
  2
*D5
 70
    0
280
    1
281
    0
  0
BLOCK_RECORD
  5
71
330
1
100
AcDbSymbolTableRecord
100
AcDbBlockTableRecord
  2
*D3
 70
    0
280
    1
281
    0
  0
BLOCK_RECORD
  5
74
330
1
100
AcDbSymbolTableRecord
100
AcDbBlockTableRecord
  2
*D4
 70
    0
280
    1
281
    0
  0
BLOCK_RECORD
  5
77
330
1
100
AcDbSymbolTableRecord
100
AcDbBlockTableRecord
  2
*D13
 70
    0
280
    1
281
    0
  0
BLOCK_RECORD
  5
7A
330
1
100
AcDbSymbolTableRecord
100
AcDbBlockTableRecord
  2
*D14
 70
    0
280
    1
281
    0
  0
BLOCK_RECORD
  5
7D
330
1
100
AcDbSymbolTableRecord
100
AcDbBlockTableRecord
  2
Door 1
 70
    0
280
    1
281
    0
  0
BLOCK_RECORD
  5
80
330
1
100
AcDbSymbolTableRecord
100
AcDbBlockTableRecord
  2
Door 2
 70
    0
280
    1
281
    0
  0
BLOCK_RECORD
  5
83
330
1
100
AcDbSymbolTableRecord
100
AcDbBlockTableRecord
  2
window 4 feet
 70
    0
280
    1
281
    0
  0
BLOCK_RECORD
  5
86
330
1
100
AcDbSymbolTableRecord
100
AcDbBlockTableRecord
  2
window 3feet
 70
    0
280
    1
281
    0
  0
BLOCK_RECORD
  5
89
330
1
100
AcDbSymbolTableRecord
100
AcDbBlockTableRecord
  2
Window 3 feet
 70
    0
280
    1
281
    0
  0
BLOCK_RECORD
  5
8C
330
1
100
AcDbSymbolTableRecord
100
AcDbBlockTableRecord
  2
v
 70
    0
280
    1
281
    0
  0
BLOCK_RECORD
  5
8F
330
1
100
AcDbSymbolTableRecord
100
AcDbBlockTableRecord
  2
v2
 70
    0
280
    1
281
    0
  0
ENDTAB
  0
ENDSEC
  0
SECTION
  2
BLOCKS
  0
BLOCK
  5
20
330
1F
100
AcDbEntity
  8
0
100
AcDbBlockBegin
  2
*Model_Space
 70
    0
 10
0
 20
0
 30
0
  3
*Model_Space
  1

  0
ENDBLK
  5
21
330
1F
100
AcDbEntity
  8
0
100
AcDbBlockEnd
  0
BLOCK
  5
1C
330
1B
100
AcDbEntity
  8
0
100
AcDbBlockBegin
  2
*Paper_Space
 70
    0
 10
0
 20
0
 30
0
  3
*Paper_Space
  1

  0
ENDBLK
  5
1D
330
1F
100
AcDbEntity
  8
0
100
AcDbBlockEnd
  0
BLOCK
  5
54
330
53
100
AcDbEntity
  8
0
100
AcDbBlockBegin
  2
*D2
 70
    1
 10
0
 20
0
  3
*D2
  1

  0
LINE
  5
92
100
AcDbEntity
  8
Dimention
  6
ByBlock
 62
    0
370
   -2
100
AcDbLine
 10
49.9518603362765
 20
60.00002789150638
 11
24.47662693845934
 21
60.01897570034235
  0
LINE
  5
93
100
AcDbEntity
  8
Dimention
  6
ByBlock
 62
    0
370
   -2
100
AcDbLine
 10
49.91918108177358
 20
16.06293506271372
 11
24.44394768395642
 21
16.08188287154969
  0
LINE
  5
94
100
AcDbEntity
  8
Dimention
  6
ByBlock
 62
  256
370
   -1
100
AcDbLine
 10
26.35162641983518
 20
60.01758112502342
 11
26.31894716533226
 21
16.08048829623076
  0
MTEXT
  5
95
100
AcDbEntity
  8
Dimention
  6
CONTINUOUS
 62
  256
370
   -2
100
AcDbMText
 10
18.08528907453002
 20
38.0551708420304
 30
0
 40
7.5
 41
30.0000025
 71
    5
 72
    1
  1
3'-8"
  7
simplex
210
0
220
0
230
1
 50
89.95738491341061
 73
    2
 44
1
  0
LINE
  5
96
100
AcDbEntity
  8
Dimention
  6
ByBlock
 62
  256
370
   -1
100
AcDbLine
 10
31.65098135718408
 20
54.71033727835537
 11
21.05227148248629
 21
65.32482497169147
  0
LINE
  5
97
100
AcDbEntity
  8
Dimention
  6
ByBlock
 62
  256
370
   -1
100
AcDbLine
 10
31.61830210268116
 20
10.77324444956271
 11
21.01959222798336
 21
21.38773214289881
  0
ENDBLK
  5
55
330
53
100
AcDbEntity
  8
0
100
AcDbBlockEnd
  0
BLOCK
  5
57
330
56
100
AcDbEntity
  8
0
100
AcDbBlockBegin
  2
*D12
 70
    1
 10
0
 20
0
  3
*D12
  1

  0
LINE
  5
98
100
AcDbEntity
  8
Dimention
  6
ByBlock
 62
    0
370
   -2
100
AcDbLine
 10
266.9251346543755
 20
129.0980776667529
 11
266.9187374441973
 21
152.0140233523417
  0
LINE
  5
99
100
AcDbEntity
  8
Dimention
  6
ByBlock
 62
    0
370
   -2
100
AcDbLine
 10
393.9251297058095
 20
129.1335309564451
 11
393.9187324956313
 21
152.0494766420339
  0
LINE
  5
9A
100
AcDbEntity
  8
Dimention
  6
ByBlock
 62
  256
370
   -1
100
AcDbLine
 10
266.9192608687499
 20
150.1390234254012
 11
393.9192559201839
 21
150.1744767150934
  0
MTEXT
  5
9B
100
AcDbEntity
  8
Dimention
  6
CONTINUOUS
 62
  256
370
   -2
100
AcDbMText
 10
330.4169553264357
 20
158.4067497487854
 30
0
 40
7.5
 41
34.28571916666667
 71
    5
 72
    1
  1
10'-7"
  7
simplex
210
0
220
0
230
1
 50
0.01599467634331066
 73
    2
 44
1
  0
LINE
  5
9C
100
AcDbEntity
  8
Dimention
  6
ByBlock
 62
  256
370
   -1
100
AcDbLine
 10
272.2210810528033
 20
155.4438045458589
 11
261.6174406846965
 21
144.8342423049435
  0
LINE
  5
9D
100
AcDbEntity
  8
Dimention
  6
ByBlock
 62
  256
370
   -1
100
AcDbLine
 10
399.2210761042373
 20
155.4792578355511
 11
388.6174357361305
 21
144.8696955946357
  0
ENDBLK
  5
58
330
56
100
AcDbEntity
  8
0
100
AcDbBlockEnd
  0
BLOCK
  5
5A
330
59
100
AcDbEntity
  8
0
100
AcDbBlockBegin
  2
*D9
 70
    1
 10
0
 20
0
  3
*D9
  1

  0
LINE
  5
9E
100
AcDbEntity
  8
Dimention
  6
ByBlock
 62
    0
370
   -2
100
AcDbLine
 10
472.0657803625647
 20
128.9999863740963
 11
505.3809742944005
 21
128.9878810499878
  0
LINE
  5
9F
100
AcDbEntity
  8
Dimention
  6
ByBlock
 62
    0
370
   -2
100
AcDbLine
 10
472.0247209700528
 20
15.99998637409631
 11
505.3399149018886
 21
15.98788104998781
  0
LINE
  5
A0
100
AcDbEntity
  8
Dimention
  6
ByBlock
 62
  256
370
   -1
100
AcDbLine
 10
503.5059744181773
 20
128.9885623451726
 11
503.4649150256654
 21
15.98856234517257
  0
MTEXT
  5
A1
100
AcDbEntity
  8
Dimention
  6
CONTINUOUS
 62
  256
370
   -2
100
AcDbMText
 10
495.2354452665394
 20
72.4915600439855
 30
0
 40
7.5
 41
29.64286083333333
 71
    5
 72
    1
  1
9'-5"
  7
simplex
210
0
220
0
230
1
 50
89.97918115224098
 73
    2
 44
1
  0
LINE
  5
A2
100
AcDbEntity
  8
Dimention
  6
ByBlock
 62
  256
370
   -1
100
AcDbLine
 10
508.8073479332021
 20
123.6833348425867
 11
498.2046009031525
 21
134.2937898477584
  0
LINE
  5
A3
100
AcDbEntity
  8
Dimention
  6
ByBlock
 62
  256
370
   -1
100
AcDbLine
 10
508.7662885406902
 20
10.6833348425867
 11
498.1635415106406
 21
21.29378984775843
  0
ENDBLK
  5
5B
330
59
100
AcDbEntity
  8
0
100
AcDbBlockEnd
  0
BLOCK
  5
5D
330
5C
100
AcDbEntity
  8
0
100
AcDbBlockBegin
  2
*D11
 70
    1
 10
0
 20
0
  3
*D11
  1

  0
LINE
  5
A4
100
AcDbEntity
  8
Dimention
  6
ByBlock
 62
    0
370
   -2
100
AcDbLine
 10
132.9251570797281
 20
129.0606702595876
 11
132.9293672123038
 21
152.5005084894118
  0
LINE
  5
A5
100
AcDbEntity
  8
Dimention
  6
ByBlock
 62
    0
370
   -2
100
AcDbLine
 10
261.925168574429
 20
129.0374999993951
 11
261.9293787070046
 21
152.4773382292193
  0
LINE
  5
A6
100
AcDbEntity
  8
Dimention
  6
ByBlock
 62
  256
370
   -1
100
AcDbLine
 10
132.9290304353015
 20
150.6255085196568
 11
261.9290419300024
 21
150.6023382594643
  0
MTEXT
  5
A7
100
AcDbEntity
  8
Dimention
  6
CONTINUOUS
 62
  256
370
   -2
100
AcDbMText
 10
197.4305180014618
 20
158.8639232564825
 30
0
 40
7.5
 41
33.9285775
 71
    5
 72
    1
  1
10'-9"
  7
simplex
210
0
220
0
230
1
 50
359.9897088528164
 73
    2
 44
1
  0
LINE
  5
A8
100
AcDbEntity
  8
Dimention
  6
ByBlock
 62
  256
370
   -1
100
AcDbLine
 10
138.233283757863
 20
155.927856743802
 11
127.6247771127401
 21
145.3231602955116
  0
LINE
  5
A9
100
AcDbEntity
  8
Dimention
  6
ByBlock
 62
  256
370
   -1
100
AcDbLine
 10
267.2332952525638
 20
155.9046864836095
 11
256.6247886074409
 21
145.2999900353191
  0
ENDBLK
  5
5E
330
5C
100
AcDbEntity
  8
0
100
AcDbBlockEnd
  0
BLOCK
  5
60
330
5F
100
AcDbEntity
  8
0
100
AcDbBlockBegin
  2
*D1
 70
    1
 10
0
 20
0
  3
*D1
  1

  0
LINE
  5
AA
100
AcDbEntity
  8
Dimention
  6
ByBlock
 62
    0
370
   -2
100
AcDbLine
 10
49.88765359716164
 20
128.9999623788777
 11
23.55219726720846
 21
128.9735418476611
  0
LINE
  5
AB
100
AcDbEntity
  8
Dimention
  6
ByBlock
 62
    0
370
   -2
100
AcDbLine
 10
49.95186034477535
 20
64.99996237887775
 11
23.61640401482217
 21
64.97354184766107
  0
LINE
  5
AC
100
AcDbEntity
  8
Dimention
  6
ByBlock
 62
  256
370
   -1
100
AcDbLine
 10
25.42719632364232
 20
128.9754229037734
 11
25.49140307125603
 21
64.97542290377345
  0
MTEXT
  5
AD
100
AcDbEntity
  8
Dimention
  6
CONTINUOUS
 62
  256
370
   -2
100
AcDbMText
 10
33.70929554575821
 20
96.98369955066792
 30
0
 40
7.5
 41
30.35714416666667
 71
    5
 72
    1
  1
5'-4"
  7
simplex
210
0
220
0
230
1
 50
270.0574808503177
 73
    2
 44
1
  0
LINE
  5
AE
100
AcDbEntity
  8
Dimention
  6
ByBlock
 62
  256
370
   -1
100
AcDbLine
 10
30.73581494386482
 20
123.6774451438138
 11
20.11857770341982
 21
134.2734006637331
  0
LINE
  5
AF
100
AcDbEntity
  8
Dimention
  6
ByBlock
 62
  256
370
   -1
100
AcDbLine
 10
30.80002169147853
 20
59.67744514381381
 11
20.18278445103353
 21
70.27340066373309
  0
ENDBLK
  5
61
330
5F
100
AcDbEntity
  8
0
100
AcDbBlockEnd
  0
BLOCK
  5
63
330
62
100
AcDbEntity
  8
0
100
AcDbBlockBegin
  2
*D8
 70
    1
 10
0
 20
0
  3
*D8
  1

  0
LINE
  5
B0
100
AcDbEntity
  8
Dimention
  6
ByBlock
 62
    0
370
   -2
100
AcDbLine
 10
477.0752776411389
 20
11.05345151910127
 11
505.5163197553156
 21
11.02974356844424
  0
LINE
  5
B1
100
AcDbEntity
  8
Dimention
  6
ByBlock
 62
    0
370
   -2
100
AcDbLine
 10
476.9818369543987
 20
-101.0418765504161
 11
505.4228790685754
 21
-101.0655845010731
  0
LINE
  5
B2
100
AcDbEntity
  8
Dimention
  6
ByBlock
 62
  256
370
   -1
100
AcDbLine
 10
503.641320406746
 20
11.03130653480318
 11
503.5478797200059
 21
-101.0640215347142
  0
MTEXT
  5
B3
100
AcDbEntity
  8
Dimention
  6
CONTINUOUS
 62
  256
370
   -2
100
AcDbMText
 10
495.3446029296701
 20
-45.00948044797613
 30
0
 40
7.5
 41
30.0000025
 71
    5
 72
    1
  1
9'-4"
  7
simplex
210
0
220
0
230
1
 50
89.9522392606616
 73
    2
 44
1
  0
LINE
  5
B4
100
AcDbEntity
  8
Dimention
  6
ByBlock
 62
  256
370
   -1
100
AcDbLine
 10
508.9401986866768
 20
5.723586781982979
 11
498.3424421268153
 21
16.33902628762339
  0
LINE
  5
B5
100
AcDbEntity
  8
Dimention
  6
ByBlock
 62
  256
370
   -1
100
AcDbLine
 10
508.8467579999366
 20
-106.3717412875344
 11
498.2490014400751
 21
-95.75630178189397
  0
ENDBLK
  5
64
330
62
100
AcDbEntity
  8
0
100
AcDbBlockEnd
  0
BLOCK
  5
66
330
65
100
AcDbEntity
  8
0
100
AcDbBlockBegin
  2
*D10
 70
    1
 10
0
 20
0
  3
*D10
  1

  0
LINE
  5
B6
100
AcDbEntity
  8
Dimention
  6
ByBlock
 62
    0
370
   -2
100
AcDbLine
 10
49.92515613312736
 20
129.0375
 11
49.92515613312736
 21
153.2724703592044
  0
LINE
  5
B7
100
AcDbEntity
  8
Dimention
  6
ByBlock
 62
    0
370
   -2
100
AcDbLine
 10
127.9251566175672
 20
129.0375
 11
127.9251566175672
 21
153.2724703592044
  0
LINE
  5
B8
100
AcDbEntity
  8
Dimention
  6
ByBlock
 62
  256
370
   -1
100
AcDbLine
 10
49.92515613312736
 20
151.3974703592044
 11
127.9251566175672
 21
151.3974703592044
  0
MTEXT
  5
B9
100
AcDbEntity
  8
Dimention
  6
CONTINUOUS
 62
  256
370
   -2
100
AcDbMText
 10
88.92515637534729
 20
159.6474703592044
 30
0
 40
7.5
 41
29.28571916666667
 71
    5
 72
    1
  1
6'-6"
  7
simplex
210
0
220
0
230
1
 50
0
 73
    2
 44
1
  0
LINE
  5
BA
100
AcDbEntity
  8
Dimention
  6
ByBlock
 62
  256
370
   -1
100
AcDbLine
 10
55.22845699202647
 20
156.7007712181035
 11
44.62185527422825
 21
146.0941695003053
  0
LINE
  5
BB
100
AcDbEntity
  8
Dimention
  6
ByBlock
 62
  256
370
   -1
100
AcDbLine
 10
133.2284574764663
 20
156.7007712181035
 11
122.6218557586681
 21
146.0941695003053
  0
ENDBLK
  5
67
330
65
100
AcDbEntity
  8
0
100
AcDbBlockEnd
  0
BLOCK
  5
69
330
68
100
AcDbEntity
  8
0
100
AcDbBlockBegin
  2
*D6
 70
    1
 10
0
 20
0
  3
*D6
  1

  0
LINE
  5
BC
100
AcDbEntity
  8
Dimention
  6
ByBlock
 62
    0
370
   -2
100
AcDbLine
 10
190.0347799206687
 20
-101.0375
 11
190.0347799206687
 21
-131.7982845001746
  0
LINE
  5
BD
100
AcDbEntity
  8
Dimention
  6
ByBlock
 62
    0
370
   -2
100
AcDbLine
 10
288.1255687876264
 20
-101.0375
 11
288.1255687876264
 21
-131.7982845001746
  0
LINE
  5
BE
100
AcDbEntity
  8
Dimention
  6
ByBlock
 62
  256
370
   -1
100
AcDbLine
 10
190.0347799206687
 20
-129.9232845001746
 11
288.1255687876264
 21
-129.9232845001746
  0
MTEXT
  5
BF
100
AcDbEntity
  8
Dimention
  6
CONTINUOUS
 62
  256
370
   -2
100
AcDbMText
 10
239.0801743541475
 20
-121.6732845001746
 30
0
 40
7.5
 41
30.0000025
 71
    5
 72
    1
  1
8'-2"
  7
simplex
210
0
220
0
230
1
 50
0
 73
    2
 44
1
  0
LINE
  5
C0
100
AcDbEntity
  8
Dimention
  6
ByBlock
 62
  256
370
   -1
100
AcDbLine
 10
195.3380807795678
 20
-124.6199836412755
 11
184.7314790617696
 21
-135.2265853590737
  0
LINE
  5
C1
100
AcDbEntity
  8
Dimention
  6
ByBlock
 62
  256
370
   -1
100
AcDbLine
 10
293.4288696465255
 20
-124.6199836412755
 11
282.8222679287273
 21
-135.2265853590737
  0
ENDBLK
  5
6A
330
68
100
AcDbEntity
  8
0
100
AcDbBlockEnd
  0
BLOCK
  5
6C
330
6B
100
AcDbEntity
  8
0
100
AcDbBlockBegin
  2
*D7
 70
    1
 10
0
 20
0
  3
*D7
  1

  0
LINE
  5
C2
100
AcDbEntity
  8
Dimention
  6
ByBlock
 62
    0
370
   -2
100
AcDbLine
 10
292.8618709829911
 20
-101.0374999990311
 11
292.8545836033659
 21
-133.0955575468191
  0
LINE
  5
C3
100
AcDbEntity
  8
Dimention
  6
ByBlock
 62
    0
370
   -2
100
AcDbLine
 10
476.9443284429953
 20
-101.07934529012
 11
476.9370410633701
 21
-133.137402837908
  0
LINE
  5
C4
100
AcDbEntity
  8
Dimention
  6
ByBlock
 62
  256
370
   -1
100
AcDbLine
 10
292.8550098249617
 20
-131.2205575952631
 11
476.9374672849659
 21
-131.262402886352
  0
MTEXT
  5
C5
100
AcDbEntity
  8
Dimention
  6
CONTINUOUS
 62
  256
370
   -2
100
AcDbMText
 10
384.898113929985
 20
-122.991480453961
 30
0
 40
7.5
 41
34.64286083333333
 71
    5
 72
    1
  1
15'-4"
  7
simplex
210
0
220
0
230
1
 50
359.9869756273158
 73
    2
 44
1
  0
LINE
  5
C6
100
AcDbEntity
  8
Dimention
  6
ByBlock
 62
  256
370
   -1
100
AcDbLine
 10
298.1595160835631
 20
-125.9184624101067
 11
287.5505035663602
 21
-136.5226527804195
  0
LINE
  5
C7
100
AcDbEntity
  8
Dimention
  6
ByBlock
 62
  256
370
   -1
100
AcDbLine
 10
482.2419735435673
 20
-125.9603077011956
 11
471.6329610263645
 21
-136.5644980715084
  0
ENDBLK
  5
6D
330
6B
100
AcDbEntity
  8
0
100
AcDbBlockEnd
  0
BLOCK
  5
6F
330
6E
100
AcDbEntity
  8
0
100
AcDbBlockBegin
  2
*D5
 70
    1
 10
0
 20
0
  3
*D5
  1

  0
LINE
  5
C8
100
AcDbEntity
  8
Dimention
  6
ByBlock
 62
    0
370
   -2
100
AcDbLine
 10
49.9893707935849
 20
-101.0374989729655
 11
49.99785393159048
 21
-131.4264364536236
  0
LINE
  5
C9
100
AcDbEntity
  8
Dimention
  6
ByBlock
 62
    0
370
   -2
100
AcDbLine
 10
184.9893655338235
 20
-100.9998134307559
 11
184.997848671829
 21
-131.388750911414
  0
LINE
  5
CA
100
AcDbEntity
  8
Dimention
  6
ByBlock
 62
  256
370
   -1
100
AcDbLine
 10
49.99733052128202
 20
-129.5514365266791
 11
184.9973252615206
 21
-129.5137509844695
  0
MTEXT
  5
CB
100
AcDbEntity
  8
Dimention
  6
CONTINUOUS
 62
  256
370
   -2
100
AcDbMText
 10
117.495024886044
 20
-121.2825940770188
 30
0
 40
7.5
 41
31.07143583333334
 71
    5
 72
    1
  1
11'-3"
  7
simplex
210
0
220
0
230
1
 50
0.01599424107638292
 73
    2
 44
1
  0
LINE
  5
CC
100
AcDbEntity
  8
Dimention
  6
ByBlock
 62
  256
370
   -1
100
AcDbLine
 10
55.29915074563495
 20
-124.2466554464985
 11
44.69551029692908
 21
-134.8562176068597
  0
LINE
  5
CD
100
AcDbEntity
  8
Dimention
  6
ByBlock
 62
  256
370
   -1
100
AcDbLine
 10
190.2991454858735
 20
-124.2089699042889
 11
179.6955050371676
 21
-134.8185320646501
  0
ENDBLK
  5
70
330
6E
100
AcDbEntity
  8
0
100
AcDbBlockEnd
  0
BLOCK
  5
72
330
71
100
AcDbEntity
  8
0
100
AcDbBlockBegin
  2
*D3
 70
    1
 10
0
 20
0
  3
*D3
  1

  0
LINE
  5
CE
100
AcDbEntity
  8
Dimention
  6
ByBlock
 62
    0
370
   -2
100
AcDbLine
 10
44.9625
 20
134
 11
-0.2037483126367192
 21
134
  0
LINE
  5
CF
100
AcDbEntity
  8
Dimention
  6
ByBlock
 62
    0
370
   -2
100
AcDbLine
 10
44.96249999999996
 20
-106
 11
-0.2037483126367619
 21
-106
  0
LINE
  5
D0
100
AcDbEntity
  8
Dimention
  6
ByBlock
 62
  256
370
   -1
100
AcDbLine
 10
1.671251687363281
 20
134
 11
1.671251687363238
 21
-106
  0
MTEXT
  5
D1
100
AcDbEntity
  8
Dimention
  6
CONTINUOUS
 62
  256
370
   -2
100
AcDbMText
 10
-6.578748312636741
 20
14
 30
0
 40
7.5
 41
37.5000025
 71
    5
 72
    1
  1
20'-0"
  7
simplex
210
0
220
0
230
1
 50
90
 73
    2
 44
1
  0
LINE
  5
D2
100
AcDbEntity
  8
Dimention
  6
ByBlock
 62
  256
370
   -1
100
AcDbLine
 10
6.974552546262387
 20
128.6966991411009
 11
-3.632049171535825
 21
139.3033008588991
  0
LINE
  5
D3
100
AcDbEntity
  8
Dimention
  6
ByBlock
 62
  256
370
   -1
100
AcDbLine
 10
6.974552546262344
 20
-111.3033008588991
 11
-3.632049171535868
 21
-100.6966991411009
  0
ENDBLK
  5
73
330
71
100
AcDbEntity
  8
0
100
AcDbBlockEnd
  0
BLOCK
  5
75
330
74
100
AcDbEntity
  8
0
100
AcDbBlockBegin
  2
*D4
 70
    1
 10
0
 20
0
  3
*D4
  1

  0
LINE
  5
D4
100
AcDbEntity
  8
Dimention
  6
ByBlock
 62
    0
370
   -2
100
AcDbLine
 10
49.95186032590402
 20
11.00000000000018
 11
24.02940115464628
 21
11.00000000012176
  0
LINE
  5
D5
100
AcDbEntity
  8
Dimention
  6
ByBlock
 62
    0
370
   -2
100
AcDbLine
 10
49.95186032537873
 20
-100.9999989744264
 11
24.02940115412099
 21
-100.9999989743048
  0
LINE
  5
D6
100
AcDbEntity
  8
Dimention
  6
ByBlock
 62
  256
370
   -1
100
AcDbLine
 10
25.90440115464628
 20
11.00000000011296
 11
25.90440115412099
 21
-100.9999989743136
  0
MTEXT
  5
D7
100
AcDbEntity
  8
Dimention
  6
CONTINUOUS
 62
  256
370
   -2
100
AcDbMText
 10
17.65440115438363
 20
-44.99999948706164
 30
0
 40
7.5
 41
30.0000025
 71
    5
 72
    1
  1
9'-4"
  7
simplex
210
0
220
0
230
1
 50
89.99999999973126
 73
    2
 44
1
  0
LINE
  5
D8
100
AcDbEntity
  8
Dimention
  6
ByBlock
 62
  256
370
   -1
100
AcDbLine
 10
31.20770201352051
 20
5.696699141188983
 11
20.60110029577205
 21
16.30330085903694
  0
LINE
  5
D9
100
AcDbEntity
  8
Dimention
  6
ByBlock
 62
  256
370
   -1
100
AcDbLine
 10
31.20770201299522
 20
-106.3032998332376
 11
20.60110029524676
 21
-95.69669811538967
  0
ENDBLK
  5
76
330
74
100
AcDbEntity
  8
0
100
AcDbBlockEnd
  0
BLOCK
  5
78
330
77
100
AcDbEntity
  8
0
100
AcDbBlockBegin
  2
*D13
 70
    1
 10
0
 20
0
  3
*D13
  1

  0
LINE
  5
DA
100
AcDbEntity
  8
Dimention
  6
ByBlock
 62
    0
370
   -2
100
AcDbLine
 10
398.9251899568099
 20
129.13492672341
 11
398.956835884298
 21
152.8801149842356
  0
LINE
  5
DB
100
AcDbEntity
  8
Dimention
  6
ByBlock
 62
    0
370
   -2
100
AcDbLine
 10
472.0283303423752
 20
129.0374999666969
 11
472.0599762698633
 21
152.7826882275225
  0
LINE
  5
DC
100
AcDbEntity
  8
Dimention
  6
ByBlock
 62
  256
370
   -1
100
AcDbLine
 10
398.9543370175511
 20
151.0051166493923
 11
472.0574774031164
 21
150.9076898926792
  0
MTEXT
  5
DD
100
AcDbEntity
  8
Dimention
  6
CONTINUOUS
 62
  256
370
   -2
100
AcDbMText
 10
435.5169022240203
 20
159.2063959443461
 30
0
 40
7.5
 41
26.4285775
 71
    5
 72
    1
  1
6'-1"
  7
simplex
210
0
220
0
230
1
 50
359.923640234374
 73
    2
 44
1
  0
LINE
  5
DE
100
AcDbEntity
  8
Dimention
  6
ByBlock
 62
  256
370
   -1
100
AcDbLine
 10
404.2647010291639
 20
156.3013449360288
 11
393.6439730059383
 21
145.7088883627559
  0
LINE
  5
DF
100
AcDbEntity
  8
Dimention
  6
ByBlock
 62
  256
370
   -1
100
AcDbLine
 10
477.3678414147292
 20
156.2039181793157
 11
466.7471133915037
 21
145.6114616060428
  0
ENDBLK
  5
79
330
77
100
AcDbEntity
  8
0
100
AcDbBlockEnd
  0
BLOCK
  5
7B
330
7A
100
AcDbEntity
  8
0
100
AcDbBlockBegin
  2
*D14
 70
    1
 10
0
 20
0
  3
*D14
  1

  0
LINE
  5
E0
100
AcDbEntity
  8
Dimention
  6
ByBlock
 62
    0
370
   -2
100
AcDbLine
 10
44.99076110415265
 20
-106.0516386048684
 11
44.99265250712867
 21
-163.8440140812756
  0
LINE
  5
E1
100
AcDbEntity
  8
Dimention
  6
ByBlock
 62
    0
370
   -2
100
AcDbLine
 10
477.0000012272831
 20
-106.0374999999799
 11
477.0018926302591
 21
-163.8298754763871
  0
LINE
  5
E2
100
AcDbEntity
  8
Dimention
  6
ByBlock
 62
  256
370
   -1
100
AcDbLine
 10
44.99259114296862
 20
-161.9690140822797
 11
477.001831266099
 21
-161.9548754773912
  0
MTEXT
  5
E3
100
AcDbEntity
  8
Dimention
  6
CONTINUOUS
 62
  256
370
   -2
100
AcDbMText
 10
260.9969412022296
 20
-153.7119447842537
 30
0
 40
7.5
 41
37.14286083333333
 71
    5
 72
    1
  1
36'-0"
  7
simplex
210
0
220
0
230
1
 50
0.001875150605098244
 73
    2
 44
1
  0
LINE
  5
E4
100
AcDbEntity
  8
Dimention
  6
ByBlock
 62
  256
370
   -1
100
AcDbLine
 10
50.29571843497281
 20
-156.665539662166
 11
39.68946385096444
 21
-167.2724885023934
  0
LINE
  5
E5
100
AcDbEntity
  8
Dimention
  6
ByBlock
 62
  256
370
   -1
100
AcDbLine
 10
482.3049585581032
 20
-156.6514010572775
 11
471.6987039740948
 21
-167.2583498975049
  0
ENDBLK
  5
7C
330
7A
100
AcDbEntity
  8
0
100
AcDbBlockEnd
  0
BLOCK
  5
7E
330
7D
100
AcDbEntity
  8
0
100
AcDbBlockBegin
  2
Door 1
 70
    0
 10
0
 20
0
  3
Door 1
  1

  0
LINE
  5
E6
100
AcDbEntity
  8
Door
  6
ByLayer
 62
  256
370
   -1
100
AcDbLine
 10
3
 20
36
 11
6
 21
36
  0
LINE
  5
E7
100
AcDbEntity
  8
Door
  6
ByLayer
 62
  256
370
   -1
100
AcDbLine
 10
3
 20
0
 11
6
 21
0
  0
LINE
  5
E8
100
AcDbEntity
  8
Door
  6
ByLayer
 62
  256
370
   -1
100
AcDbLine
 10
3.062151704930443
 20
36
 11
3
 21
0
  0
LINE
  5
E9
100
AcDbEntity
  8
Door
  6
ByLayer
 62
  256
370
   -1
100
AcDbLine
 10
6
 20
0
 11
6
 21
36
  0
LINE
  5
EA
100
AcDbEntity
  8
Door
  6
ByLayer
 62
  256
370
   -1
100
AcDbLine
 10
3
 20
0
 11
0
 21
0
  0
LINE
  5
EB
100
AcDbEntity
  8
Door
  6
ByLayer
 62
  256
370
   -1
100
AcDbLine
 10
3
 20
-5
 11
0
 21
-5
  0
LINE
  5
EC
100
AcDbEntity
  8
Door
  6
ByLayer
 62
  256
370
   -1
100
AcDbLine
 10
3
 20
-5
 11
2.999388639729546
 21
-5
  0
LINE
  5
ED
100
AcDbEntity
  8
Door
  6
ByLayer
 62
  256
370
   -1
100
AcDbLine
 10
2.999388639729546
 20
-5
 11
3
 21
0
  0
LINE
  5
EE
100
AcDbEntity
  8
Door
  6
ByLayer
 62
  256
370
   -1
100
AcDbLine
 10
3
 20
0
 11
2.999388639729546
 21
-5
  0
LINE
  5
EF
100
AcDbEntity
  8
Door
  6
ByLayer
 62
  256
370
   -1
100
AcDbLine
 10
0
 20
-5
 11
0
 21
0
  0
ARC
  5
F0
100
AcDbEntity
  8
Door
  6
ByLayer
 62
  256
370
   -1
100
AcDbCircle
 10
6
 20
0
 40
36
100
AcDbArc
 50
0
 51
90
  0
LINE
  5
F1
100
AcDbEntity
  8
Door
  6
ByLayer
 62
  256
370
   -1
100
AcDbLine
 10
45
 20
0
 11
42
 21
0
  0
LINE
  5
F2
100
AcDbEntity
  8
Door
  6
ByLayer
 62
  256
370
   -1
100
AcDbLine
 10
45
 20
-5
 11
42
 21
-5
  0
LINE
  5
F3
100
AcDbEntity
  8
Door
  6
ByLayer
 62
  256
370
   -1
100
AcDbLine
 10
45
 20
-5
 11
44.99938863972955
 21
-5
  0
LINE
  5
F4
100
AcDbEntity
  8
Door
  6
ByLayer
 62
  256
370
   -1
100
AcDbLine
 10
44.99938863972955
 20
-5
 11
45
 21
0
  0
LINE
  5
F5
100
AcDbEntity
  8
Door
  6
ByLayer
 62
  256
370
   -1
100
AcDbLine
 10
45
 20
0
 11
44.99938863972955
 21
-5
  0
LINE
  5
F6
100
AcDbEntity
  8
Door
  6
ByLayer
 62
  256
370
   -1
100
AcDbLine
 10
42
 20
-5
 11
42
 21
0
  0
ENDBLK
  5
7F
330
7D
100
AcDbEntity
  8
0
100
AcDbBlockEnd
  0
BLOCK
  5
81
330
80
100
AcDbEntity
  8
0
100
AcDbBlockBegin
  2
Door 2
 70
    0
 10
0
 20
0
  3
Door 2
  1

  0
LINE
  5
F7
100
AcDbEntity
  8
Door
  6
ByLayer
 62
  256
370
   -1
100
AcDbLine
 10
5.974299837633637
 20
29
 11
2.974299837633637
 21
29
  0
LINE
  5
F8
100
AcDbEntity
  8
Door
  6
ByLayer
 62
  256
370
   -1
100
AcDbLine
 10
5.974299837633637
 20
0
 11
2.974299837633637
 21
0
  0
LINE
  5
F9
100
AcDbEntity
  8
Door
  6
ByLayer
 62
  256
370
   -1
100
AcDbLine
 10
5.974299837633637
 20
0
 11
5.974299837633637
 21
29
  0
LINE
  5
FA
100
AcDbEntity
  8
Door
  6
ByLayer
 62
  256
370
   -1
100
AcDbLine
 10
2.974299837633637
 20
29
 11
2.974299837633637
 21
0
  0
LINE
  5
FB
100
AcDbEntity
  8
Door
  6
ByLayer
 62
  256
370
   -1
100
AcDbLine
 10
2.974299837633637
 20
0
 11
-0.02570016236636263
 21
0
  0
LINE
  5
FC
100
AcDbEntity
  8
Door
  6
ByLayer
 62
  256
370
   -1
100
AcDbLine
 10
2.974299837633637
 20
-5
 11
-0.02570016236636263
 21
-5
  0
LINE
  5
FD
100
AcDbEntity
  8
Door
  6
ByLayer
 62
  256
370
   -1
100
AcDbLine
 10
-0.02570016236636263
 20
-5
 11
0
 21
0
  0
LINE
  5
FE
100
AcDbEntity
  8
Door
  6
ByLayer
 62
  256
370
   -1
100
AcDbLine
 10
2.452061517526019
 20
-5
 11
2.974299837633637
 21
-5
  0
LINE
  5
FF
100
AcDbEntity
  8
Door
  6
ByLayer
 62
  256
370
   -1
100
AcDbLine
 10
2.974299837633637
 20
-5
 11
2.974299837633637
 21
1.760758073032775e-05
  0
ARC
  5
100
100
AcDbEntity
  8
Door
  6
ByLayer
 62
  256
370
   -1
100
AcDbCircle
 10
5.974299837633637
 20
0
 40
29
100
AcDbArc
 50
0
 51
90
  0
LINE
  5
101
100
AcDbEntity
  8
Door
  6
ByLayer
 62
  256
370
   -1
100
AcDbLine
 10
2.974299837633637
 20
0
 11
-0.02570016236636263
 21
0
  0
LINE
  5
102
100
AcDbEntity
  8
Door
  6
ByLayer
 62
  256
370
   -1
100
AcDbLine
 10
2.974299837633637
 20
-5
 11
-0.02570016236636263
 21
-5
  0
LINE
  5
103
100
AcDbEntity
  8
Door
  6
ByLayer
 62
  256
370
   -1
100
AcDbLine
 10
-0.02570016236636263
 20
-5
 11
0
 21
0
  0
LINE
  5
104
100
AcDbEntity
  8
Door
  6
ByLayer
 62
  256
370
   -1
100
AcDbLine
 10
2.452061517526019
 20
-5
 11
2.974299837633637
 21
-5
  0
LINE
  5
105
100
AcDbEntity
  8
Door
  6
ByLayer
 62
  256
370
   -1
100
AcDbLine
 10
2.974299837633637
 20
-5
 11
2.974299837633637
 21
1.760758073032775e-05
  0
LINE
  5
106
100
AcDbEntity
  8
Door
  6
ByLayer
 62
  256
370
   -1
100
AcDbLine
 10
37.97429983763364
 20
0
 11
34.97429983763364
 21
0
  0
LINE
  5
107
100
AcDbEntity
  8
Door
  6
ByLayer
 62
  256
370
   -1
100
AcDbLine
 10
37.97429983763364
 20
-5
 11
34.97429983763364
 21
-5
  0
LINE
  5
108
100
AcDbEntity
  8
Door
  6
ByLayer
 62
  256
370
   -1
100
AcDbLine
 10
34.97429983763364
 20
-5
 11
35
 21
0
  0
LINE
  5
109
100
AcDbEntity
  8
Door
  6
ByLayer
 62
  256
370
   -1
100
AcDbLine
 10
37.45206151752602
 20
-5
 11
37.97429983763364
 21
-5
  0
LINE
  5
10A
100
AcDbEntity
  8
Door
  6
ByLayer
 62
  256
370
   -1
100
AcDbLine
 10
37.97429983763364
 20
-5
 11
37.97429983763364
 21
1.760758073032775e-05
  0
LINE
  5
10B
100
AcDbEntity
  8
Door
  6
ByLayer
 62
  256
370
   -1
100
AcDbLine
 10
37.97429983763364
 20
0
 11
34.97429983763364
 21
0
  0
LINE
  5
10C
100
AcDbEntity
  8
Door
  6
ByLayer
 62
  256
370
   -1
100
AcDbLine
 10
37.97429983763364
 20
-5
 11
34.97429983763364
 21
-5
  0
LINE
  5
10D
100
AcDbEntity
  8
Door
  6
ByLayer
 62
  256
370
   -1
100
AcDbLine
 10
34.97429983763364
 20
-5
 11
35
 21
0
  0
LINE
  5
10E
100
AcDbEntity
  8
Door
  6
ByLayer
 62
  256
370
   -1
100
AcDbLine
 10
37.45206151752602
 20
-5
 11
37.97429983763364
 21
-5
  0
LINE
  5
10F
100
AcDbEntity
  8
Door
  6
ByLayer
 62
  256
370
   -1
100
AcDbLine
 10
37.97429983763364
 20
-5
 11
37.97429983763364
 21
1.760758073032775e-05
  0
ENDBLK
  5
82
330
80
100
AcDbEntity
  8
0
100
AcDbBlockEnd
  0
BLOCK
  5
84
330
83
100
AcDbEntity
  8
0
100
AcDbBlockBegin
  2
window 4 feet
 70
    0
 10
0
 20
0
  3
window 4 feet
  1

  0
LINE
  5
110
100
AcDbEntity
  8
Windows
  6
ByLayer
 62
  256
370
   -1
100
AcDbLine
 10
-24
 20
0
 11
24
 21
0
  0
LINE
  5
111
100
AcDbEntity
  8
Windows
  6
ByLayer
 62
  256
370
   -1
100
AcDbLine
 10
-24
 20
-5
 11
24
 21
-5
  0
LINE
  5
112
100
AcDbEntity
  8
Windows
  6
ByLayer
 62
  256
370
   -1
100
AcDbLine
 10
24
 20
0
 11
24
 21
-5
  0
LINE
  5
113
100
AcDbEntity
  8
Windows
  6
ByLayer
 62
  256
370
   -1
100
AcDbLine
 10
-24
 20
0
 11
-24
 21
-5
  0
LINE
  5
114
100
AcDbEntity
  8
Windows
  6
ByLayer
 62
  256
370
   -1
100
AcDbLine
 10
-24
 20
-1
 11
24
 21
-1
  0
LINE
  5
115
100
AcDbEntity
  8
Windows
  6
ByLayer
 62
  256
370
   -1
100
AcDbLine
 10
-24
 20
-4
 11
24
 21
-4
  0
LINE
  5
116
100
AcDbEntity
  8
Windows
  6
ByLayer
 62
  256
370
   -1
100
AcDbLine
 10
0
 20
0
 11
0
 21
-5
  0
ENDBLK
  5
85
330
83
100
AcDbEntity
  8
0
100
AcDbBlockEnd
  0
BLOCK
  5
87
330
86
100
AcDbEntity
  8
0
100
AcDbBlockBegin
  2
window 3feet
 70
    0
 10
0
 20
0
  3
window 3feet
  1

  0
LINE
  5
117
100
AcDbEntity
  8
Windows
  6
ByLayer
 62
  256
370
   -1
100
AcDbLine
 10
-18.70856686808978
 20
0
 11
17.29143313191022
 21
0
  0
LINE
  5
118
100
AcDbEntity
  8
Windows
  6
ByLayer
 62
  256
370
   -1
100
AcDbLine
 10
-18.70856686808978
 20
-5
 11
17.29143313191022
 21
-5
  0
LINE
  5
119
100
AcDbEntity
  8
Windows
  6
ByLayer
 62
  256
370
   -1
100
AcDbLine
 10
-18.70856686808978
 20
-1
 11
17.29143313191022
 21
-1
  0
LINE
  5
11A
100
AcDbEntity
  8
Windows
  6
ByLayer
 62
  256
370
   -1
100
AcDbLine
 10
-18.70856686808978
 20
-4
 11
17.29143313191022
 21
-4
  0
LINE
  5
11B
100
AcDbEntity
  8
Windows
  6
ByLayer
 62
  256
370
   -1
100
AcDbLine
 10
17.29143313191022
 20
-5
 11
17.29143313191022
 21
0
  0
LINE
  5
11C
100
AcDbEntity
  8
Windows
  6
ByLayer
 62
  256
370
   -1
100
AcDbLine
 10
-18.70856686808978
 20
-5
 11
-18.70856686808978
 21
0
  0
ENDBLK
  5
88
330
86
100
AcDbEntity
  8
0
100
AcDbBlockEnd
  0
BLOCK
  5
8A
330
89
100
AcDbEntity
  8
0
100
AcDbBlockBegin
  2
Window 3 feet
 70
    0
 10
0
 20
0
  3
Window 3 feet
  1

  0
LINE
  5
11D
100
AcDbEntity
  8
Windows
  6
ByLayer
 62
  256
370
   -1
100
AcDbLine
 10
-18
 20
0
 11
18
 21
0
  0
LINE
  5
11E
100
AcDbEntity
  8
Windows
  6
ByLayer
 62
  256
370
   -1
100
AcDbLine
 10
-18
 20
-5
 11
18
 21
-5
  0
LINE
  5
11F
100
AcDbEntity
  8
Windows
  6
ByLayer
 62
  256
370
   -1
100
AcDbLine
 10
-18
 20
-1
 11
18
 21
-1
  0
LINE
  5
120
100
AcDbEntity
  8
Windows
  6
ByLayer
 62
  256
370
   -1
100
AcDbLine
 10
-18
 20
-4
 11
18
 21
-4
  0
LINE
  5
121
100
AcDbEntity
  8
Windows
  6
ByLayer
 62
  256
370
   -1
100
AcDbLine
 10
-18
 20
-4
 11
18
 21
-4
  0
LINE
  5
122
100
AcDbEntity
  8
Windows
  6
ByLayer
 62
  256
370
   -1
100
AcDbLine
 10
18
 20
-5
 11
18
 21
0
  0
LINE
  5
123
100
AcDbEntity
  8
Windows
  6
ByLayer
 62
  256
370
   -1
100
AcDbLine
 10
-18
 20
-5
 11
-18
 21
0
  0
LINE
  5
124
100
AcDbEntity
  8
Windows
  6
ByLayer
 62
  256
370
   -1
100
AcDbLine
 10
0
 20
0
 11
0
 21
-5
  0
ENDBLK
  5
8B
330
89
100
AcDbEntity
  8
0
100
AcDbBlockEnd
  0
BLOCK
  5
8D
330
8C
100
AcDbEntity
  8
0
100
AcDbBlockBegin
  2
v
 70
    0
 10
0
 20
0
  3
v
  1

  0
LINE
  5
125
100
AcDbEntity
  8
Windows
  6
ByLayer
 62
  256
370
   -1
100
AcDbLine
 10
-5
 20
0
 11
-5
 21
18
  0
LINE
  5
126
100
AcDbEntity
  8
Windows
  6
ByLayer
 62
  256
370
   -1
100
AcDbLine
 10
0
 20
0
 11
0
 21
18
  0
LINE
  5
127
100
AcDbEntity
  8
Windows
  6
ByLayer
 62
  256
370
   -1
100
AcDbLine
 10
-5
 20
18
 11
0
 21
18
  0
LINE
  5
128
100
AcDbEntity
  8
Windows
  6
ByLayer
 62
  256
370
   -1
100
AcDbLine
 10
0
 20
0
 11
-5
 21
0
  0
ENDBLK
  5
8E
330
8C
100
AcDbEntity
  8
0
100
AcDbBlockEnd
  0
BLOCK
  5
90
330
8F
100
AcDbEntity
  8
0
100
AcDbBlockBegin
  2
v2
 70
    0
 10
0
 20
0
  3
v2
  1

  0
LINE
  5
129
100
AcDbEntity
  8
Windows
  6
ByLayer
 62
  256
370
   -1
100
AcDbLine
 10
-5
 20
0
 11
-5
 21
18
  0
LINE
  5
12A
100
AcDbEntity
  8
Windows
  6
ByLayer
 62
  256
370
   -1
100
AcDbLine
 10
0
 20
0
 11
0
 21
18
  0
LINE
  5
12B
100
AcDbEntity
  8
Windows
  6
ByLayer
 62
  256
370
   -1
100
AcDbLine
 10
0
 20
18
 11
-5
 21
18
  0
LINE
  5
12C
100
AcDbEntity
  8
Windows
  6
ByLayer
 62
  256
370
   -1
100
AcDbLine
 10
0
 20
0
 11
-5
 21
0
  0
ENDBLK
  5
91
330
8F
100
AcDbEntity
  8
0
100
AcDbBlockEnd
  0
ENDSEC
  0
SECTION
  2
ENTITIES
  0
ARC
  5
12D
100
AcDbEntity
  8
0
  6
ByLayer
 62
  256
370
   -1
100
AcDbCircle
 10
49.92515357829031
 20
129
 40
0
100
AcDbArc
 50
0
 51
0
  0
ARC
  5
12E
100
AcDbEntity
  8
0
  6
ByLayer
 62
  256
370
   -1
100
AcDbCircle
 10
49.98936032590402
 20
-101
 40
0
100
AcDbArc
 50
180
 51
0
  0
ARC
  5
12F
100
AcDbEntity
  8
0
  6
ByLayer
 62
  256
370
   -1
100
AcDbCircle
 10
471.9245038784716
 20
-101
 40
0
100
AcDbArc
 50
0
 51
0
  0
ARC
  5
130
100
AcDbEntity
  8
0
  6
ByLayer
 62
  256
370
   -1
100
AcDbCircle
 10
472.0282803650403
 20
129
 40
0
100
AcDbArc
 50
0
 51
0
  0
LINE
  5
131
100
AcDbEntity
  8
0
  6
ByLayer
 62
  256
370
   -1
100
AcDbLine
 10
184.9580996917008
 20
11
 11
184.9893550656173
 21
-100.962313432217
  0
ARC
  5
132
100
AcDbEntity
  8
0
  6
ByLayer
 62
  256
370
   -1
100
AcDbCircle
 10
184.9580996917008
 20
11
 40
0
100
AcDbArc
 50
0
 51
0
  0
LINE
  5
133
100
AcDbEntity
  8
0
  6
ByLayer
 62
  256
370
   -1
100
AcDbLine
 10
189.9567040876651
 20
16
 11
189.9893548707918
 21
-100.9609176334102
  0
ARC
  5
134
100
AcDbEntity
  8
0
  6
ByLayer
 62
  256
370
   -1
100
AcDbCircle
 10
189.9567040876651
 20
16
 40
0
100
AcDbArc
 50
0
 51
0
  0
LINE
  5
135
100
AcDbEntity
  8
0
  6
ByLayer
 62
  256
370
   -1
100
AcDbLine
 10
49.98936032590402
 20
16
 11
127.9567016718296
 21
16
  0
ARC
  5
136
100
AcDbEntity
  8
0
  6
ByLayer
 62
  256
370
   -1
100
AcDbCircle
 10
127.9567016718296
 20
16
 40
0
100
AcDbArc
 50
0
 51
90
  0
LINE
  5
137
100
AcDbEntity
  8
0
  6
ByLayer
 62
  256
370
   -1
100
AcDbLine
 10
49.98936032590402
 20
60
 11
127.9444186418513
 21
59.99999999999999
  0
LINE
  5
138
100
AcDbEntity
  8
0
  6
ByLayer
 62
  256
370
   -1
100
AcDbLine
 10
49.98936032590402
 20
65
 11
127.9430228429902
 21
65
  0
LINE
  5
139
100
AcDbEntity
  8
0
  6
ByLayer
 62
  256
370
   -1
100
AcDbLine
 10
393.9251401743004
 20
129.0960309579063
 11
393.9566913071164
 21
16.07425649652059
  0
LINE
  5
13A
100
AcDbEntity
  8
0
  6
ByLayer
 62
  256
370
   -1
100
AcDbLine
 10
267.0059242354784
 20
16.02427976754116
 11
393.9461499998636
 21
16.03012807981922
  0
ARC
  5
13B
100
AcDbEntity
  8
0
  6
ByLayer
 62
  256
370
   -1
100
AcDbCircle
 10
261.9580959790012
 20
11.02404720178518
 40
0
100
AcDbArc
 50
270
 51
12.3390872783262
  0
LINE
  5
13C
100
AcDbEntity
  8
0
  6
ByLayer
 62
  256
370
   -1
100
AcDbLine
 10
398.925139979475
 20
129.0974267567131
 11
398.9580995552232
 21
11.03035898198081
  0
ARC
  5
13D
100
AcDbEntity
  8
0
  6
ByLayer
 62
  256
370
   -1
100
AcDbCircle
 10
398.9580995552232
 20
11.03035898198082
 40
0
100
AcDbArc
 50
270
 51
1.789910608246069
  0
LINE
  5
13E
100
AcDbEntity
  8
0
  6
ByLayer
 62
  256
370
   -1
100
AcDbLine
 10
292.9580967882193
 20
11.02547541482215
 11
398.9580995552233
 21
11.03035898198082
  0
ARC
  5
13F
100
AcDbEntity
  8
0
  6
ByLayer
 62
  256
370
   -1
100
AcDbCircle
 10
292.9580967882193
 20
11.02547541482215
 40
0
100
AcDbArc
 50
0
 51
90
  0
ARC
  5
140
100
AcDbEntity
  8
0
  6
ByLayer
 62
  256
370
   -1
100
AcDbCircle
 10
287.9580974968611
 20
11.02223903436666
 40
0
100
AcDbArc
 50
0
 51
0
  0
LINE
  5
141
100
AcDbEntity
  8
0
  6
ByLayer
 62
  256
370
   -1
100
AcDbLine
 10
471.9795652007184
 20
-101.0418452910889
 11
476.9443369674272
 21
-101.0418452910889
  0
LINE
  5
142
100
AcDbEntity
  8
0
  6
ByLayer
 62
  256
370
   -1
100
AcDbLine
 10
471.9750626469522
 20
11.05348277842845
 11
477.0377776541675
 21
11.05348277842845
  0
LINE
  5
143
100
AcDbEntity
  8
0
  6
ByLayer
 62
  256
370
   -1
100
AcDbLine
 10
472.0282803650403
 20
129
 11
471.9750626469522
 21
11.05348277842845
  0
LINE
  5
144
100
AcDbEntity
  8
0
  6
ByLayer
 62
  256
370
   -1
100
AcDbLine
 10
477.030533935043
 20
133.9934629446933
 11
476.9750631559105
 21
11.05348277842845
  0
LINE
  5
145
100
AcDbEntity
  8
0
  6
ByLayer
 62
  256
370
   -1
100
AcDbLine
 10
476.9443369674272
 20
-101.0418452910889
 11
476.9999999999999
 21
-106
  0
LINE
  5
146
100
AcDbEntity
  8
0
  6
ByLayer
 62
  256
370
   -1
100
AcDbLine
 10
292.861879507423
 20
-101
 11
471.9245038784716
 21
-101
  0
LINE
  5
147
100
AcDbEntity
  8
0
  6
ByLayer
 62
  256
370
   -1
100
AcDbLine
 10
398.9251671771062
 20
129
 11
472.0282803650403
 21
129
  0
LINE
  5
148
100
AcDbEntity
  8
0
  6
ByLayer
 62
  256
370
   -1
100
AcDbLine
 10
49.92515357829031
 20
129
 11
127.9251566175672
 21
129
  0
LINE
  5
149
100
AcDbEntity
  8
Stair
  6
ByLayer
 62
  256
370
   -1
100
AcDbLine
 10
433.4767237710732
 20
93
 11
433.4767237710732
 21
10.68242283018162
  0
LINE
  5
14A
100
AcDbEntity
  8
Stair
  6
ByLayer
 62
  256
370
   -1
100
AcDbLine
 10
437.4767237710732
 20
93
 11
437.4767237710732
 21
10.68242283018162
  0
LINE
  5
14B
100
AcDbEntity
  8
Stair
  6
ByLayer
 62
  256
370
   -1
100
AcDbLine
 10
398.9251671771062
 20
93
 11
433.4767237710732
 21
93
  0
LINE
  5
14C
100
AcDbEntity
  8
Stair
  6
ByLayer
 62
  256
370
   -1
100
AcDbLine
 10
433.4767237710732
 20
93
 11
437.4767237710732
 21
93
  0
LINE
  5
14D
100
AcDbEntity
  8
Stair
  6
ByLayer
 62
  256
370
   -1
100
AcDbLine
 10
437.4767237710732
 20
93
 11
472.0282803650403
 21
93
  0
LINE
  5
14E
100
AcDbEntity
  8
Stair
  6
DASHEDTINY
 62
  256
370
   -1
100
AcDbLine
 10
398.9251671771062
 20
82
 11
433.4767237710732
 21
82
  0
LINE
  5
14F
100
AcDbEntity
  8
Stair
  6
DASHEDTINY
 62
  256
370
   -1
100
AcDbLine
 10
398.9251671771062
 20
71
 11
433.4767237710732
 21
71
  0
LINE
  5
150
100
AcDbEntity
  8
Stair
  6
DASHEDTINY
 62
  256
370
   -1
100
AcDbLine
 10
398.9251671771062
 20
60
 11
433.4767237710732
 21
60
  0
LINE
  5
151
100
AcDbEntity
  8
Stair
  6
DASHEDTINY
 62
  256
370
   -1
100
AcDbLine
 10
398.9251671771062
 20
49
 11
433.4767237710732
 21
49
  0
LINE
  5
152
100
AcDbEntity
  8
Stair
  6
DASHEDTINY
 62
  256
370
   -1
100
AcDbLine
 10
398.9251671771062
 20
38
 11
433.4767237710732
 21
38
  0
LINE
  5
153
100
AcDbEntity
  8
Stair
  6
DASHEDTINY
 62
  256
370
   -1
100
AcDbLine
 10
398.9251671771062
 20
27
 11
433.4767237710732
 21
27
  0
LINE
  5
154
100
AcDbEntity
  8
Stair
  6
DASHEDTINY
 62
  256
370
   -1
100
AcDbLine
 10
398.9251671771062
 20
16
 11
433.4767237710732
 21
16
  0
LINE
  5
155
100
AcDbEntity
  8
Stair
  6
DASHEDTINY
 62
  256
370
   -1
100
AcDbLine
 10
437.4767237710732
 20
82
 11
472.0282803650403
 21
82
  0
LINE
  5
156
100
AcDbEntity
  8
Stair
  6
DASHEDTINY
 62
  256
370
   -1
100
AcDbLine
 10
437.4767237710732
 20
71
 11
472.0282803650403
 21
71
  0
LINE
  5
157
100
AcDbEntity
  8
Stair
  6
DASHEDTINY
 62
  256
370
   -1
100
AcDbLine
 10
437.4767237710732
 20
60
 11
472.0282803650403
 21
60
  0
LWPOLYLINE
  5
158
100
AcDbEntity
  8
Stair
  6
CONTINUOUS
 62
    3
370
    0
100
AcDbPolyline
 90
    8
 70
    0
 43
0
 10
437.4767237710732
 20
38
 10
450.8047150470748
 20
46.49398057978497
 10
450.8173276521295
 20
46.50201864194882
 10
450.8241564789744
 20
46.50637067980677
 10
450.8129192278613
 20
50.73230725915288
 10
458.2254730107359
 20
46.50461498755777
 10
458.2666761890143
 20
51.24951738305938
 10
471.9971474190697
 20
60.00000000000001
  0
LINE
  5
159
100
AcDbEntity
  8
Stair
  6
DASHEDTINY
 62
  256
370
   -1
100
AcDbLine
 10
437.4767237710732
 20
49
 11
450.8175256319827
 21
49
  0
LINE
  5
15A
100
AcDbEntity
  8
Stair
  6
ByLayer
 62
  256
370
   -1
100
AcDbLine
 10
458.2471421168567
 20
49
 11
471.9921841957991
 21
49
  0
LINE
  5
15B
100
AcDbEntity
  8
Stair
  6
DASHEDTINY
 62
  256
370
   -1
100
AcDbLine
 10
453.8502312889138
 20
49
 11
458.2471421168567
 21
49
  0
LINE
  5
15C
100
AcDbEntity
  8
Stair
  6
ByLayer
 62
  256
370
   -1
100
AcDbLine
 10
450.8175256319827
 20
49.00000000000001
 11
453.8502312889138
 21
49
  0
LINE
  5
15D
100
AcDbEntity
  8
Stair
  6
ByLayer
 62
  256
370
   -1
100
AcDbLine
 10
453.8502312889138
 20
49
 11
458.2254730107359
 21
46.50461498755773
  0
LINE
  5
15E
100
AcDbEntity
  8
Stair
  6
ByLayer
 62
  256
370
   -1
100
AcDbLine
 10
437.4767237710732
 20
38.00000000000001
 11
471.9872209725284
 21
38.00000000000001
  0
LINE
  5
15F
100
AcDbEntity
  8
Stair
  6
ByLayer
 62
  256
370
   -1
100
AcDbLine
 10
437.4767237710732
 20
27.00000000000001
 11
471.9872209725284
 21
27.00000000000001
  0
LINE
  5
160
100
AcDbEntity
  8
Stair
  6
ByLayer
 62
  256
370
   -1
100
AcDbLine
 10
437.4767237710732
 20
16.00000000000001
 11
471.9872209725284
 21
16.00000000000001
  0
INSERT
  5
161
100
AcDbEntity
  8
Door
  6
ByLayer
 62
  256
370
   -1
100
AcDbBlockReference
  2
Door 1
 10
181.0672500001868
 20
11
 30
0
 41
1
 42
1
 43
0
 50
180
 70
    1
 71
    1
 44
0
 45
0
  0
INSERT
  5
162
100
AcDbEntity
  8
Door
  6
ByLayer
 62
  256
370
   -1
100
AcDbBlockReference
  2
Door 1
 10
266.9554507555783
 20
20.50040630332258
 30
0
 41
-1
 42
1
 43
0
 50
270
 70
    1
 71
    1
 44
0
 45
0
  0
INSERT
  5
163
100
AcDbEntity
  8
Door
  6
ByLayer
 62
  256
370
   -1
100
AcDbBlockReference
  2
Door 1
 10
287.9591911841799
 20
7.291232900321539
 30
0
 41
-1
 42
1
 43
0
 50
90
 70
    1
 71
    1
 44
0
 45
0
  0
INSERT
  5
164
100
AcDbEntity
  8
Door
  6
ByLayer
 62
  256
370
   -1
100
AcDbBlockReference
  2
Door 2
 10
127.9557555212667
 20
19.38927974952347
 30
0
 41
1
 42
1
 43
0
 50
90
 70
    1
 71
    1
 44
0
 45
0
  0
INSERT
  5
165
100
AcDbEntity
  8
Door
  6
ByLayer
 62
  256
370
   -1
100
AcDbBlockReference
  2
Door 2
 10
127.941587933867
 20
70.16580008333906
 30
0
 41
1
 42
1
 43
0
 50
90
 70
    1
 71
    1
 44
0
 45
0
  0
INSERT
  5
166
100
AcDbEntity
  8
Windows
  6
ByLayer
 62
  256
370
   -1
100
AcDbBlockReference
  2
Window 3 feet
 10
44.93434409908085
 20
96.07722053774737
 30
0
 41
1
 42
1
 43
0
 50
90
 70
    1
 71
    1
 44
0
 45
0
  0
INSERT
  5
167
100
AcDbEntity
  8
Windows
  6
ByLayer
 62
  256
370
   -1
100
AcDbBlockReference
  2
window 4 feet
 10
44.97463435765729
 20
-48.24965813140521
 30
0
 41
1
 42
1
 43
0
 50
90
 70
    1
 71
    1
 44
0
 45
0
  0
INSERT
  5
168
100
AcDbEntity
  8
Windows
  6
ByLayer
 62
  256
370
   -1
100
AcDbBlockReference
  2
window 4 feet
 10
117.4929678211068
 20
-101
 30
0
 41
1
 42
1
 43
0
 50
0
 70
    1
 71
    1
 44
0
 45
0
  0
INSERT
  5
169
100
AcDbEntity
  8
Windows
  6
ByLayer
 62
  256
370
   -1
100
AcDbBlockReference
  2
window 4 feet
 10
199.0473294036823
 20
134
 30
0
 41
1
 42
1
 43
0
 50
0
 70
    1
 71
    1
 44
0
 45
0
  0
INSERT
  5
16A
100
AcDbEntity
  8
Windows
  6
ByLayer
 62
  256
370
   -1
100
AcDbBlockReference
  2
window 4 feet
 10
331.0183173159513
 20
134
 30
0
 41
1
 42
1
 43
0
 50
0
 70
    1
 71
    1
 44
0
 45
0
  0
INSERT
  5
16B
100
AcDbEntity
  8
Windows
  6
ByLayer
 62
  256
370
   -1
100
AcDbBlockReference
  2
window 4 feet
 10
239.0801743541475
 20
-101
 30
0
 41
1
 42
1
 43
0
 50
0
 70
    1
 71
    1
 44
0
 45
0
  0
INSERT
  5
16C
100
AcDbEntity
  8
Windows
  6
ByLayer
 62
  256
370
   -1
100
AcDbBlockReference
  2
v2
 10
49.95265101437064
 20
30.49928888267256
 30
0
 41
1
 42
1
 43
0
 50
0
 70
    1
 71
    1
 44
0
 45
0
  0
LINE
  5
16D
100
AcDbEntity
  8
0
  6
ByLayer
 62
  256
370
   -1
100
AcDbLine
 10
261.9580964837688
 20
11.02223903436667
 11
287.9580974968611
 21
11.02223903436666
  0
ARC
  5
16E
100
AcDbEntity
  8
Windows
  6
ByLayer
 62
  256
370
   -1
100
AcDbCircle
 10
261.9580964837688
 20
11.02223903436667
 40
0
100
AcDbArc
 50
270
 51
0
  0
LINE
  5
16F
100
AcDbEntity
  8
0
  6
ByLayer
 62
  256
370
   -1
100
AcDbLine
 10
261.9554505607528
 20
20.50040630332258
 11
261.9580964837688
 21
11.02223903436666
  0
LINE
  5
170
100
AcDbEntity
  8
0
  6
ByLayer
 62
  256
370
   -1
100
AcDbLine
 10
266.9554507555783
 20
20.50040630332258
 11
266.9566962556825
 21
16.03880320682844
  0
LINE
  5
171
100
AcDbEntity
  8
0
  6
ByLayer
 62
  256
370
   -1
100
AcDbLine
 10
266.9251451228665
 20
129.0605776682141
 11
266.9428885662567
 21
65.50040476731787
  0
LINE
  5
172
100
AcDbEntity
  8
0
  6
ByLayer
 62
  256
370
   -1
100
AcDbLine
 10
261.925161838889
 20
129
 11
261.9554507555783
 21
65.50040630332258
  0
LINE
  5
173
100
AcDbEntity
  8
0
  6
ByLayer
 62
  256
370
   -1
100
AcDbLine
 10
292.9580967882193
 20
11.02547541482215
 11
292.9591911841799
 21
7.105154260290494
  0
LINE
  5
174
100
AcDbEntity
  8
0
  6
ByLayer
 62
  256
370
   -1
100
AcDbLine
 10
287.9580974968611
 20
11.02223903436666
 11
287.9591390436837
 21
7.291232900321539
  0
LINE
  5
175
100
AcDbEntity
  8
0
  6
ByLayer
 62
  256
370
   -1
100
AcDbLine
 10
292.861879507423
 20
-101
 11
292.9591911841799
 21
-37.70815573940801
  0
LINE
  5
176
100
AcDbEntity
  8
0
  6
ByLayer
 62
  256
370
   -1
100
AcDbLine
 10
288.1255687876264
 20
-101
 11
287.9591911841799
 21
-37.70876709967846
  0
LINE
  5
177
100
AcDbEntity
  8
0
  6
ByLayer
 62
  256
370
   -1
100
AcDbLine
 10
181.0672500001868
 20
11
 11
184.9580996917008
 21
11
  0
LINE
  5
178
100
AcDbEntity
  8
0
  6
ByLayer
 62
  256
370
   -1
100
AcDbLine
 10
136.0678603007516
 20
15.99133321432304
 11
132.945506751918
 21
15.98957143319453
  0
LINE
  5
179
100
AcDbEntity
  8
0
  6
ByLayer
 62
  256
370
   -1
100
AcDbLine
 10
49.98936032590402
 20
11
 11
136.0672500001868
 21
11
  0
LINE
  5
17A
100
AcDbEntity
  8
0
  6
ByLayer
 62
  256
370
   -1
100
AcDbLine
 10
181.0672500001868
 20
16
 11
189.9567040876651
 21
16
  0
LINE
  5
17B
100
AcDbEntity
  8
0
  6
ByLayer
 62
  256
370
   -1
100
AcDbLine
 10
132.9557628905541
 20
19.36357954927873
 11
132.9567014770041
 21
16.00139579880679
  0
LINE
  5
17C
100
AcDbEntity
  8
0
  6
ByLayer
 62
  256
370
   -1
100
AcDbLine
 10
127.9557555212667
 20
19.38927974952347
 11
127.9567016718296
 21
16.00000000000001
  0
LINE
  5
17D
100
AcDbEntity
  8
0
  6
ByLayer
 62
  256
370
   -1
100
AcDbLine
 10
127.941587933867
 20
70.1400999209727
 11
127.9430228429902
 21
65
  0
LINE
  5
17E
100
AcDbEntity
  8
0
  6
ByLayer
 62
  256
370
   -1
100
AcDbLine
 10
132.9251503441881
 20
129.0231702601925
 11
132.9309800573475
 21
108.1400999209727
  0
LINE
  5
17F
100
AcDbEntity
  8
0
  6
ByLayer
 62
  256
370
   -1
100
AcDbLine
 10
127.9430228429902
 20
65
 11
127.955737913686
 21
57.36357958715712
  0
LINE
  5
180
100
AcDbEntity
  8
0
  6
ByLayer
 62
  256
370
   -1
100
AcDbLine
 10
127.9251566175672
 20
129
 11
127.941587933867
 21
108.1400999209727
  0
LINE
  5
181
100
AcDbEntity
  8
0
  6
ByLayer
 62
  256
370
   -1
100
AcDbLine
 10
132.9415879338677
 20
70.1400999209727
 11
132.9557555212667
 21
57.36357958715712
  0
LINE
  5
182
100
AcDbEntity
  8
0
  6
ByLayer
 62
  256
370
   -1
100
AcDbLine
 10
190.0347799206687
 20
-101
 11
215.0801743541475
 21
-101
  0
LINE
  5
183
100
AcDbEntity
  8
0
  6
ByLayer
 62
  256
370
   -1
100
AcDbLine
 10
263.0801743541475
 20
-101
 11
288.1255687876264
 21
-101
  0
LINE
  5
184
100
AcDbEntity
  8
0
  6
ByLayer
 62
  256
370
   -1
100
AcDbLine
 10
263.0801743541475
 20
-106
 11
476.9999999999999
 21
-106
  0
LINE
  5
185
100
AcDbEntity
  8
0
  6
ByLayer
 62
  256
370
   -1
100
AcDbLine
 10
141.4929678211068
 20
-106
 11
215.0801743541475
 21
-106
  0
LINE
  5
186
100
AcDbEntity
  8
0
  6
ByLayer
 62
  256
370
   -1
100
AcDbLine
 10
141.4929678211068
 20
-101
 11
184.9965753163096
 21
-101
  0
LINE
  5
187
100
AcDbEntity
  8
0
  6
ByLayer
 62
  256
370
   -1
100
AcDbLine
 10
44.99999999999996
 20
-106
 11
93.49296782110682
 21
-106
  0
LINE
  5
188
100
AcDbEntity
  8
0
  6
ByLayer
 62
  256
370
   -1
100
AcDbLine
 10
49.98936032590402
 20
-101
 11
93.49296782110682
 21
-101
  0
LINE
  5
189
100
AcDbEntity
  8
0
  6
ByLayer
 62
  256
370
   -1
100
AcDbLine
 10
44.98133419219088
 20
-72.24965813140521
 11
44.99075987686945
 21
-106.0141386048885
  0
LINE
  5
18A
100
AcDbEntity
  8
0
  6
ByLayer
 62
  256
370
   -1
100
AcDbLine
 10
44.9636339799684
 20
-8.84434696902494
 11
44.97463435765729
 21
-24.24965813140521
  0
LINE
  5
18B
100
AcDbEntity
  8
0
  6
ByLayer
 62
  256
370
   -1
100
AcDbLine
 10
49.95265101437066
 20
30.49928888267256
 11
49.9566810714011
 21
16.06290717120734
  0
LINE
  5
18C
100
AcDbEntity
  8
0
  6
ByLayer
 62
  256
370
   -1
100
AcDbLine
 10
49.92515357829031
 20
129
 11
49.92931941800608
 21
114.0772205377474
  0
LINE
  5
18D
100
AcDbEntity
  8
0
  6
ByLayer
 62
  256
370
   -1
100
AcDbLine
 10
45
 20
134
 11
175.0473294036823
 21
134
  0
LINE
  5
18E
100
AcDbEntity
  8
0
  6
ByLayer
 62
  256
370
   -1
100
AcDbLine
 10
132.9251568123927
 20
129
 11
175.0473294036823
 21
129
  0
LINE
  5
18F
100
AcDbEntity
  8
0
  6
ByLayer
 62
  256
370
   -1
100
AcDbLine
 10
223.0473294036823
 20
129
 11
261.925161838889
 21
129
  0
LINE
  5
190
100
AcDbEntity
  8
0
  6
ByLayer
 62
  256
370
   -1
100
AcDbLine
 10
223.0473294036823
 20
134
 11
307.0183173159513
 21
134
  0
LINE
  5
191
100
AcDbEntity
  8
0
  6
ByLayer
 62
  256
370
   -1
100
AcDbLine
 10
355.0183173159513
 20
134
 11
477.0305341101611
 21
134
  0
LINE
  5
192
100
AcDbEntity
  8
0
  6
ByLayer
 62
  256
370
   -1
100
AcDbLine
 10
49.98936032590402
 20
65
 11
49.98936032590402
 21
78.07733626462573
  0
LINE
  5
193
100
AcDbEntity
  8
0
  6
ByLayer
 62
  256
370
   -1
100
AcDbLine
 10
44.95265101437064
 20
30.49928888267256
 11
44.95265101437064
 21
-24.24966254489066
  0
LINE
  5
194
100
AcDbEntity
  8
0
  6
ByLayer
 62
  256
370
   -1
100
AcDbLine
 10
44.93434409908085
 20
78.07722053774737
 11
44.93434409908084
 21
48.49928321724741
  0
LINE
  5
195
100
AcDbEntity
  8
0
  6
ByLayer
 62
  256
370
   -1
100
AcDbLine
 10
49.98936032590402
 20
60
 11
49.98936032590402
 21
48.49923029629007
  0
LINE
  5
196
100
AcDbEntity
  8
0
  6
ByLayer
 62
  256
370
   -1
100
AcDbLine
 10
45
 20
134
 11
44.99999999999999
 21
114.0553230059486
  0
LINE
  5
197
100
AcDbEntity
  8
0
  6
ByLayer
 62
  256
370
   -1
100
AcDbLine
 10
49.98936032590402
 20
-101
 11
49.97463435765729
 21
-72.24965813140521
  0
LINE
  5
198
100
AcDbEntity
  8
0
  6
ByLayer
 62
  256
370
   -1
100
AcDbLine
 10
49.97463435765729
 20
-24.24965813140521
 11
49.97463435765729
 21
11.00000307597496
  0
LINE
  5
199
100
AcDbEntity
  8
0
  6
ByLayer
 62
  256
370
   -1
100
AcDbLine
 10
266.9251451228665
 20
129.0605776682141
 11
307.0183630800003
 21
129.0605776682141
  0
LINE
  5
19A
100
AcDbEntity
  8
0
  6
ByLayer
 62
  256
370
   -1
100
AcDbLine
 10
393.9251401743004
 20
129.0960309579063
 11
355.0181988029226
 21
129.0960309579063
  0
LINE
  5
19B
100
AcDbEntity
  8
0
  6
ByLayer
 62
  256
370
   -1
100
AcDbLine
 10
215.0801743541475
 20
-101
 11
215.0801743541475
 21
-106
  0
LINE
  5
19C
100
AcDbEntity
  8
0
  6
ByLayer
 62
  256
370
   -1
100
AcDbLine
 10
263.0801743541475
 20
-101
 11
263.0801743541475
 21
-106
  0
LINE
  5
19D
100
AcDbEntity
  8
0
  6
ByLayer
 62
  256
370
   -1
100
AcDbLine
 10
141.4929678211068
 20
-101
 11
141.4929678211068
 21
-106
  0
LINE
  5
19E
100
AcDbEntity
  8
0
  6
ByLayer
 62
  256
370
   -1
100
AcDbLine
 10
93.49296782110682
 20
-101
 11
93.49296782110682
 21
-106
  0
LINE
  5
19F
100
AcDbEntity
  8
0
  6
ByLayer
 62
  256
370
   -1
100
AcDbLine
 10
44.98133419219088
 20
-72.24965813140521
 11
49.97463435765729
 21
-72.24965813140521
  0
LINE
  5
1A0
100
AcDbEntity
  8
0
  6
ByLayer
 62
  256
370
   -1
100
AcDbLine
 10
44.97463435765729
 20
-24.24965813140521
 11
49.97463435765729
 21
-24.24965813140521
  0
LINE
  5
1A1
100
AcDbEntity
  8
0
  6
ByLayer
 62
  256
370
   -1
100
AcDbLine
 10
44.95265101437064
 20
30.49928888267256
 11
49.95265101437066
 21
30.49928888267256
  0
LINE
  5
1A2
100
AcDbEntity
  8
0
  6
ByLayer
 62
  256
370
   -1
100
AcDbLine
 10
44.93434409908084
 20
48.49928321724741
 11
49.98936032590402
 21
48.49923029629007
  0
LINE
  5
1A3
100
AcDbEntity
  8
0
  6
ByLayer
 62
  256
370
   -1
100
AcDbLine
 10
44.93434409908085
 20
78.07722053774737
 11
49.98936032590402
 21
78.07733626462573
  0
LINE
  5
1A4
100
AcDbEntity
  8
0
  6
ByLayer
 62
  256
370
   -1
100
AcDbLine
 10
44.99999999999999
 20
114.0553230059486
 11
49.92931941800608
 21
114.0772205377474
  0
LINE
  5
1A5
100
AcDbEntity
  8
0
  6
ByLayer
 62
  256
370
   -1
100
AcDbLine
 10
127.941587933867
 20
108.1400999209727
 11
132.9309800573475
 21
108.1400999209727
  0
LINE
  5
1A6
100
AcDbEntity
  8
0
  6
ByLayer
 62
  256
370
   -1
100
AcDbLine
 10
127.941587933867
 20
70.1400999209727
 11
132.9415879338677
 21
70.1400999209727
  0
LINE
  5
1A7
100
AcDbEntity
  8
0
  6
ByLayer
 62
  256
370
   -1
100
AcDbLine
 10
127.955737913686
 20
57.36357958715712
 11
132.9557555212667
 21
57.36357958715712
  0
LINE
  5
1A8
100
AcDbEntity
  8
0
  6
ByLayer
 62
  256
370
   -1
100
AcDbLine
 10
127.9557555212667
 20
19.38927974952347
 11
132.9557628905541
 21
19.36357954927873
  0
LINE
  5
1A9
100
AcDbEntity
  8
0
  6
ByLayer
 62
  256
370
   -1
100
AcDbLine
 10
136.0678603007516
 20
15.99133321432304
 11
136.0672500001868
 21
11
  0
LINE
  5
1AA
100
AcDbEntity
  8
0
  6
ByLayer
 62
  256
370
   -1
100
AcDbLine
 10
181.0672500001868
 20
16
 11
181.0672500001868
 21
11
  0
LINE
  5
1AB
100
AcDbEntity
  8
0
  6
ByLayer
 62
  256
370
   -1
100
AcDbLine
 10
287.9591911841799
 20
-37.70876709967846
 11
292.9591911841799
 21
-37.70815573940801
  0
LINE
  5
1AC
100
AcDbEntity
  8
0
  6
ByLayer
 62
  256
370
   -1
100
AcDbLine
 10
287.9591390436837
 20
7.291232900321539
 11
292.9591911841799
 21
7.105154260290494
  0
LINE
  5
1AD
100
AcDbEntity
  8
0
  6
ByLayer
 62
  256
370
   -1
100
AcDbLine
 10
261.9554505607528
 20
20.50040630332258
 11
266.9554507555783
 21
20.50040630332258
  0
LINE
  5
1AE
100
AcDbEntity
  8
0
  6
ByLayer
 62
  256
370
   -1
100
AcDbLine
 10
261.9554507555783
 20
65.50040630332258
 11
266.9428885662567
 21
65.50040476731787
  0
LINE
  5
1AF
100
AcDbEntity
  8
0
  6
ByLayer
 62
  256
370
   -1
100
AcDbLine
 10
223.0473294036823
 20
134
 11
223.0473294036823
 21
129
  0
LINE
  5
1B0
100
AcDbEntity
  8
0
  6
ByLayer
 62
  256
370
   -1
100
AcDbLine
 10
175.0473294036823
 20
134
 11
175.0473294036823
 21
129
  0
LINE
  5
1B1
100
AcDbEntity
  8
0
  6
ByLayer
 62
  256
370
   -1
100
AcDbLine
 10
307.0183173159513
 20
134
 11
307.0183630800003
 21
129.0605776682141
  0
LINE
  5
1B2
100
AcDbEntity
  8
0
  6
ByLayer
 62
  256
370
   -1
100
AcDbLine
 10
355.0183173159513
 20
134
 11
355.0181988029226
 21
129.0960309579063
  0
MTEXT
  5
1B3
100
AcDbEntity
  8
Text
  6
ByLayer
 62
  256
370
   -1
100
AcDbMText
 10
90.10725000012019
 20
-43.490250000058
 30
0
 40
7
 41
46.47222222222265
 71
    1
 72
    1
  1
BED ROOM
  7
STANDARD
210
0
220
0
230
1
 50
0
 73
    2
 44
1
  0
MTEXT
  5
1B4
100
AcDbEntity
  8
Text
  6
ByLayer
 62
  256
370
   -1
100
AcDbMText
 10
316.7587850719229
 20
80.10837023860695
 30
0
 40
7
 41
46.47222222222265
 71
    1
 72
    1
  1
BED ROOM
  7
STANDARD
210
0
220
0
230
1
 50
0
 73
    2
 44
1
  0
MTEXT
  5
1B5
100
AcDbEntity
  8
Text
  6
ByLayer
 62
  256
370
   -1
100
AcDbMText
 10
189.5462635610665
 20
98.33603147153076
 30
0
 40
7
 41
27.22222222222266
 71
    1
 72
    1
  1
DINING
  7
STANDARD
210
0
220
0
230
1
 50
0
 73
    2
 44
1
  0
MTEXT
  5
1B6
100
AcDbEntity
  8
Text
  6
ByLayer
 62
  256
370
   -1
100
AcDbMText
 10
219.8351864141744
 20
-59.9550508402294
 30
0
 40
7
 41
40.44444444444488
 71
    1
 72
    1
  1
DRAWING
  7
STANDARD
210
0
220
0
230
1
 50
0
 73
    2
 44
1
  0
MTEXT
  5
1B7
100
AcDbEntity
  8
Text
  6
ByLayer
 62
  256
370
   -1
100
AcDbMText
 10
359.8826232786465
 20
-42.98939185922399
 30
0
 40
7
 41
69.02777777777779
 71
    1
 72
    1
  1
PARKING AREA
  7
STANDARD
210
0
220
0
230
1
 50
0
 73
    2
 44
1
  0
MTEXT
  5
1B8
100
AcDbEntity
  8
Text
  6
ByLayer
 62
  256
370
   -1
100
AcDbMText
 10
71.28910012059551
 20
77.90355270910436
 30
0
 40
7
 41
35.77777777777778
 71
    1
 72
    1
  1
KITCHEN
  7
STANDARD
210
0
220
0
230
1
 50
90
 73
    2
 44
1
  0
MTEXT
  5
1B9
100
AcDbEntity
  8
Text
  6
ByLayer
 62
  256
370
   -1
100
AcDbMText
 10
70.18669135584402
 20
28.6626278835384
 30
0
 40
7
 41
17.11111111111111
 71
    1
 72
    1
  1
W/C
  7
STANDARD
210
0
220
0
230
1
 50
90
 73
    2
 44
1
  0
DIMENSION
  5
1BA
100
AcDbEntity
  8
Dimention
  6
ByLayer
 62
  256
370
   -1
100
AcDbDimension
  2
*D1
 10
25.49140307125603
 20
64.97542290377343
 30
0
 11
33.70929554575821
 21
96.98369955066792
 31
0
 70
   33
 71
    5
  3
Standard
 53
0
210
0
220
0
230
1
100
AcDbAlignedDimension
 13
49.92515357829031
 23
129
 33
0
 14
49.98936032590402
 24
65
 34
0
  0
DIMENSION
  5
1BB
100
AcDbEntity
  8
Dimention
  6
ByLayer
 62
  256
370
   -1
100
AcDbDimension
  2
*D2
 10
26.31894716533226
 20
16.08048829623076
 30
0
 11
18.08528907453002
 21
38.0551708420304
 31
0
 70
   33
 71
    5
  3
Standard
 53
0
210
0
220
0
230
1
100
AcDbAlignedDimension
 13
49.98936032590402
 23
60
 33
0
 14
49.9566810714011
 24
16.06290717120734
 34
0
  0
DIMENSION
  5
1BC
100
AcDbEntity
  8
Dimention
  6
ByLayer
 62
  256
370
   -1
100
AcDbDimension
  2
*D3
 10
1.671251687363238
 20
-106
 30
0
 11
-6.578748312636741
 21
14
 31
0
 70
   33
 71
    5
  3
Standard
 53
0
210
0
220
0
230
1
100
AcDbAlignedDimension
 13
45
 23
134
 33
0
 14
44.99999999999996
 24
-106
 34
0
  0
DIMENSION
  5
1BD
100
AcDbEntity
  8
Dimention
  6
ByLayer
 62
  256
370
   -1
100
AcDbDimension
  2
*D4
 10
25.90440115412099
 20
-100.9999989743136
 30
0
 11
17.65440115438363
 21
-44.99999948706164
 31
0
 70
   33
 71
    5
  3
Standard
 53
0
210
0
220
0
230
1
100
AcDbAlignedDimension
 13
49.98936032590402
 23
11
 33
0
 14
49.98936032537873
 24
-100.9999989744266
 34
0
  0
DIMENSION
  5
1BE
100
AcDbEntity
  8
Dimention
  6
ByLayer
 62
  256
370
   -1
100
AcDbDimension
  2
*D5
 10
184.9973252615206
 20
-129.5137509844695
 30
0
 11
117.495024886044
 21
-121.2825940770188
 31
0
 70
   33
 71
    5
  3
Standard
 53
0
210
0
220
0
230
1
100
AcDbAlignedDimension
 13
49.98936032537873
 23
-100.9999989744266
 33
0
 14
184.9893550656173
 24
-100.962313432217
 34
0
  0
DIMENSION
  5
1BF
100
AcDbEntity
  8
Dimention
  6
ByLayer
 62
  256
370
   -1
100
AcDbDimension
  2
*D6
 10
288.1255687876264
 20
-129.9232845001746
 30
0
 11
239.0801743541475
 21
-121.6732845001746
 31
0
 70
   33
 71
    5
  3
Standard
 53
0
210
0
220
0
230
1
100
AcDbAlignedDimension
 13
190.0347799206687
 23
-101
 33
0
 14
288.1255687876264
 24
-101
 34
0
  0
DIMENSION
  5
1C0
100
AcDbEntity
  8
Dimention
  6
ByLayer
 62
  256
370
   -1
100
AcDbDimension
  2
*D7
 10
476.9374672849659
 20
-131.262402886352
 30
0
 11
384.898113929985
 21
-122.991480453961
 31
0
 70
   33
 71
    5
  3
Standard
 53
0
210
0
220
0
230
1
100
AcDbAlignedDimension
 13
292.861879507423
 23
-101
 33
0
 14
476.9443369674272
 24
-101.0418452910889
 34
0
  0
DIMENSION
  5
1C1
100
AcDbEntity
  8
Dimention
  6
ByLayer
 62
  256
370
   -1
100
AcDbDimension
  2
*D8
 10
503.5478797200059
 20
-101.0640215347142
 30
0
 11
495.3446029296701
 21
-45.00948044797613
 31
0
 70
   33
 71
    5
  3
Standard
 53
0
210
0
220
0
230
1
100
AcDbAlignedDimension
 13
477.0377776541675
 23
11.05348277842845
 33
0
 14
476.9443369674273
 24
-101.0418452910889
 34
0
  0
DIMENSION
  5
1C2
100
AcDbEntity
  8
Dimention
  6
ByLayer
 62
  256
370
   -1
100
AcDbDimension
  2
*D9
 10
503.4649150256654
 20
15.98856234517258
 30
0
 11
495.2354452665394
 21
72.4915600439855
 31
0
 70
   33
 71
    5
  3
Standard
 53
0
210
0
220
0
230
1
100
AcDbAlignedDimension
 13
472.0282803650403
 23
129
 33
0
 14
471.9872209725284
 24
16.00000000000001
 34
0
  0
DIMENSION
  5
1C3
100
AcDbEntity
  8
Dimention
  6
ByLayer
 62
  256
370
   -1
100
AcDbDimension
  2
*D10
 10
127.9251566175672
 20
151.3974703592044
 30
0
 11
88.92515637534729
 21
159.6474703592044
 31
0
 70
   33
 71
    5
  3
Standard
 53
0
210
0
220
0
230
1
100
AcDbAlignedDimension
 13
49.92515613312736
 23
129
 33
0
 14
127.9251566175672
 24
129
 34
0
  0
DIMENSION
  5
1C4
100
AcDbEntity
  8
Dimention
  6
ByLayer
 62
  256
370
   -1
100
AcDbDimension
  2
*D11
 10
261.9290419300024
 20
150.6023382594643
 30
0
 11
197.4305180014618
 21
158.8639232564825
 31
0
 70
   33
 71
    5
  3
Standard
 53
0
210
0
220
0
230
1
100
AcDbAlignedDimension
 13
132.9251503441881
 23
129.0231702601925
 33
0
 14
261.9251618388889
 24
129
 34
0
  0
DIMENSION
  5
1C5
100
AcDbEntity
  8
Dimention
  6
ByLayer
 62
  256
370
   -1
100
AcDbDimension
  2
*D12
 10
393.9192559201839
 20
150.1744767150934
 30
0
 11
330.4169553264357
 21
158.4067497487854
 31
0
 70
   33
 71
    5
  3
Standard
 53
0
210
0
220
0
230
1
100
AcDbAlignedDimension
 13
266.9251451228665
 23
129.0605776682141
 33
0
 14
393.9251401743005
 24
129.0960309579063
 34
0
  0
DIMENSION
  5
1C6
100
AcDbEntity
  8
Dimention
  6
ByLayer
 62
  256
370
   -1
100
AcDbDimension
  2
*D13
 10
472.0574774031164
 20
150.9076898926792
 30
0
 11
435.5169022240203
 21
159.2063959443461
 31
0
 70
   33
 71
    5
  3
Standard
 53
0
210
0
220
0
230
1
100
AcDbAlignedDimension
 13
398.925139979475
 23
129.0974267567131
 33
0
 14
472.0282803650403
 24
129
 34
0
  0
DIMENSION
  5
1C7
100
AcDbEntity
  8
Dimention
  6
ByLayer
 62
  256
370
   -1
100
AcDbDimension
  2
*D14
 10
477.0018312660991
 20
-161.9548754773912
 30
0
 11
260.9969412022296
 21
-153.7119447842537
 31
0
 70
   33
 71
    5
  3
Standard
 53
0
210
0
220
0
230
1
100
AcDbAlignedDimension
 13
44.99075987686945
 23
-106.0141386048885
 33
0
 14
476.9999999999999
 24
-106
 34
0
  0
ENDSEC
  0
SECTION
  2
OBJECTS
  0
DICTIONARY
  5
C
330
0
100
AcDbDictionary
281
    1
  3
ACAD_GROUP
350
D
  0
DICTIONARY
  5
D
330
C
100
AcDbDictionary
281
    1
  0
PLOTSETTINGS
  5
1C8
100
AcDbPlotSettings
  6
1x1
 40
0
 41
0
 42
0
 43
0
  0
ENDSEC
  0
EOF
