999
dxfrw 0.6.3
  0
SECTION
  2
HEADER
  9
$ACADVER
  1
AC1021
  9
$DWGCODEPAGE
  3
ANSI_1252
  9
$INSBASE
 10
0
 20
0
 30
0
  9
$EXTMIN
 10
10000000000
 20
10000000000
 30
0
  9
$EXTMAX
 10
-10000000000
 20
-10000000000
 30
0
  9
$LIMMIN
 10
0
 20
0
  9
$LIMMAX
 10
420
 20
297
  9
$ORTHOMODE
 70
    0
  9
$REGENMODE
 70
    1
  9
$FILLMODE
 70
    1
  9
$QTEXTMODE
 70
    0
  9
$MIRRTEXT
 70
    0
  9
$LTSCALE
 40
1
  9
$ATTMODE
 70
    0
  9
$TEXTSIZE
 40
2.5
  9
$TRACEWID
 40
15.68
  9
$TEXTSTYLE
  7
STANDARD
  9
$CLAYER
  8
0
  9
$CELTYPE
  6
BYLAYER
  9
$CECOLOR
 62
  256
  9
$CELTSCALE
 40
1
  9
$DISPSILH
 70
    0
  9
$DIMSCALE
 40
2.5
  9
$DIMASZ
 40
2
  9
$DIMEXO
 40
0.625
  9
$DIMDLI
 40
3.75
  9
$DIMRND
 40
0
  9
$DIMDLE
 40
0
  9
$DIMEXE
 40
0.125
  9
$DIMTP
 40
0
  9
$DIMTM
 40
0
  9
$DIMTXT
 40
2.5
  9
$DIMCEN
 40
2.5
  9
$DIMTSZ
 40
1
  9
$DIMTOL
 70
    0
  9
$DIMLIM
 70
    0
  9
$DIMTIH
 70
    0
  9
$DIMTOH
 70
    0
  9
$DIMSE1
 70
    0
  9
$DIMSE2
 70
    0
  9
$DIMTAD
 70
    1
  9
$DIMZIN
 70
    8
  9
$DIMBLK
  1

  9
$DIMASO
 70
    1
  9
$DIMSHO
 70
    1
  9
$DIMPOST
  1

  9
$DIMAPOST
  1

  9
$DIMALT
 70
    0
  9
$DIMALTD
 70
    3
  9
$DIMALTF
 40
0.03937
  9
$DIMLFAC
 40
1
  9
$DIMTOFL
 70
    1
  9
$DIMTVP
 40
0
  9
$DIMTIX
 70
    0
  9
$DIMSOXD
 70
    0
  9
$DIMSAH
 70
    0
  9
$DIMBLK1
  1

  9
$DIMBLK2
  1

  9
$DIMSTYLE
  2
STANDARD
  9
$DIMCLRD
 70
    0
  9
$DIMCLRE
 70
    0
  9
$DIMCLRT
 70
    0
  9
$DIMTFAC
 40
1
  9
$DIMGAP
 40
0.0625
  9
$DIMJUST
 70
    0
  9
$DIMSD1
 70
    0
  9
$DIMSD2
 70
    0
  9
$DIMTOLJ
 70
    0
  9
$DIMTZIN
 70
    8
  9
$DIMALTZ
 70
    0
  9
$DIMALTTZ
 70
    0
  9
$DIMUPT
 70
    0
  9
$DIMDEC
 70
    0
  9
$DIMTDEC
 70
    2
  9
$DIMALTU
 70
    2
  9
$DIMALTTD
 70
    3
  9
$DIMTXSTY
  7
standard
  9
$DIMAUNIT
 70
    0
  9
$DIMADEC
 70
    2
  9
$DIMALTRND
 40
0
  9
$DIMAZIN
 70
    0
  9
$DIMDSEP
 70
   44
  9
$DIMATFIT
 70
    3
  9
$DIMFRAC
 70
    0
  9
$DIMLDRBLK
  1
STANDARD
  9
$DIMLUNIT
 70
    4
  9
$DIMLWD
 70
   -2
  9
$DIMLWE
 70
   -2
  9
$DIMTMOVE
 70
    0
  9
$DIMFXL
 40
1
  9
$DIMFXLON
 70
    0
  9
$DIMJOGANG
 40
0.7854
  9
$DIMTFILL
 70
    0
  9
$DIMTFILLCLR
 70
    0
  9
$DIMARCSYM
 70
    0
  9
$DIMLTYPE
  6

  9
$DIMLTEX1
  6

  9
$DIMLTEX2
  6

  9
$LUNITS
 70
    2
  9
$LUPREC
 70
    4
  9
$SKETCHINC
 40
1
  9
$FILLETRAD
 40
0
  9
$AUNITS
 70
    0
  9
$AUPREC
 70
    2
  9
$MENU
  1
.
  9
$ELEVATION
 40
0
  9
$PELEVATION
 40
0
  9
$THICKNESS
 40
0
  9
$LIMCHECK
 70
    0
  9
$CHAMFERA
 40
0
  9
$CHAMFERB
 40
0
  9
$CHAMFERC
 40
0
  9
$CHAMFERD
 40
0
  9
$SKPOLY
 70
    0
  9
$USRTIMER
 70
    1
  9
$ANGBASE
 50
0
  9
$ANGDIR
 70
    0
  9
$PDMODE
 70
   34
  9
$PDSIZE
 40
0
  9
$PLINEWID
 40
0
  9
$SPLFRAME
 70
    0
  9
$SPLINETYPE
 70
    2
  9
$SPLINESEGS
 70
    8
  9
$HANDSEED
  5
20000
  9
$SURFTAB1
 70
    6
  9
$SURFTAB2
 70
    6
  9
$SURFTYPE
 70
    6
  9
$SURFU
 70
    6
  9
$SURFV
 70
    6
  9
$UCSBASE
  2

  9
$UCSNAME
  2

  9
$UCSORG
 10
0
 20
0
 30
0
  9
$UCSXDIR
 10
1
 20
0
 30
0
  9
$UCSYDIR
 10
0
 20
1
 30
0
  9
$UCSORTHOREF
  2

  9
$UCSORTHOVIEW
 70
    0
  9
$UCSORGTOP
 10
0
 20
0
 30
0
  9
$UCSORGBOTTOM
 10
0
 20
0
 30
0
  9
$UCSORGLEFT
 10
0
 20
0
 30
0
  9
$UCSORGRIGHT
 10
0
 20
0
 30
0
  9
$UCSORGFRONT
 10
0
 20
0
 30
0
  9
$UCSORGBACK
 10
0
 20
0
 30
0
  9
$PUCSBASE
  2

  9
$PUCSNAME
  2

  9
$PUCSORG
 10
0
 20
0
 30
0
  9
$PUCSXDIR
 10
1
 20
0
 30
0
  9
$PUCSYDIR
 10
0
 20
1
 30
0
  9
$PUCSORTHOREF
  2

  9
$PUCSORTHOVIEW
 70
    0
  9
$PUCSORGTOP
 10
0
 20
0
 30
0
  9
$PUCSORGBOTTOM
 10
0
 20
0
 30
0
  9
$PUCSORGLEFT
 10
0
 20
0
 30
0
  9
$PUCSORGRIGHT
 10
0
 20
0
 30
0
  9
$PUCSORGFRONT
 10
0
 20
0
 30
0
  9
$PUCSORGBACK
 10
0
 20
0
 30
0
  9
$USERI1
 70
    0
  9
$USERI2
 70
    0
  9
$USERI3
 70
    0
  9
$USERI4
 70
    0
  9
$USERI5
 70
    0
  9
$USERR1
 40
0
  9
$USERR2
 40
0
  9
$USERR3
 40
0
  9
$USERR4
 40
0
  9
$USERR5
 40
0
  9
$WORLDVIEW
 70
    1
  9
$SHADEDGE
 70
    3
  9
$SHADEDIF
 70
   70
  9
$TILEMODE
 70
    1
  9
$MAXACTVP
 70
   64
  9
$PINSBASE
 10
0
 20
0
 30
0
  9
$PLIMCHECK
 70
    0
  9
$PEXTMIN
 10
0
 20
0
 30
0
  9
$PEXTMAX
 10
0
 20
0
 30
0
  9
$GRIDMODE
 70
    0
  9
$SNAPSTYLE
 70
    0
  9
$GRIDUNIT
 10
0
 20
0
  9
$PLIMMIN
 10
0
 20
0
  9
$PLIMMAX
 10
0.0070866
 20
0.0091535
  9
$UNITMODE
 70
    0
  9
$VISRETAIN
 70
    1
  9
$PLINEGEN
 70
    0
  9
$PSLTSCALE
 70
    1
  9
$TREEDEPTH
 70
 3020
  9
$CMLSTYLE
  2
Standard
  9
$CMLJUST
 70
    0
  9
$CMLSCALE
 40
20
  9
$PROXYGRAPHICS
 70
    1
  9
$MEASUREMENT
 70
    1
  9
$CELWEIGHT
370
   -1
  9
$ENDCAPS
280
    0
  9
$JOINSTYLE
280
    0
  9
$LWDISPLAY
290
    0
  9
$INSUNITS
 70
    5
  9
$HYPERLINKBASE
  1

  9
$STYLESHEET
  1

  9
$XEDIT
290
    1
  9
$CEPSNTYPE
380
    0
  9
$PSTYLEMODE
290
    1
  9
$EXTNAMES
290
    1
  9
$PSVPSCALE
 40
1
  9
$OLESTARTUP
290
    0
  9
$SORTENTS
280
  127
  9
$INDEXCTL
280
    0
  9
$HIDETEXT
280
    1
  9
$XCLIPFRAME
290
    0
  9
$HALOGAP
280
    0
  9
$OBSCOLOR
 70
  257
  9
$OBSLTYPE
280
    0
  9
$INTERSECTIONDISPLAY
280
    0
  9
$INTERSECTIONCOLOR
 70
  257
  9
$DIMASSOC
280
    1
  9
$PROJECTNAME
  1

  9
$CAMERADISPLAY
290
    0
  9
$LENSLENGTH
 40
50
  9
$CAMERAHEIGHT
 40
0
  9
$STEPSPERSEC
 40
2
  9
$STEPSIZE
 40
50
  9
$3DDWFPREC
 40
2
  9
$PSOLWIDTH
 40
5
  9
$PSOLHEIGHT
 40
80
  9
$LOFTANG1
 40
1.570796326794897
  9
$LOFTANG2
 40
1.570796326794897
  9
$LOFTMAG1
 40
0
  9
$LOFTMAG2
 40
0
  9
$LOFTPARAM
 70
    7
  9
$LOFTNORMALS
280
    1
  9
$LATITUDE
 40
1
  9
$LONGITUDE
 40
1
  9
$NORTHDIRECTION
 40
0
  9
$TIMEZONE
 70
-8000
  9
$LIGHTGLYPHDISPLAY
280
    1
  9
$TILEMODELIGHTSYNCH
280
    1
  9
$SOLIDHIST
280
    1
  9
$SHOWHIST
280
    1
  9
$DWFFRAME
280
    2
  9
$DGNFRAME
280
    0
  9
$REALWORLDSCALE
290
    1
  9
$INTERFERECOLOR
 62
    1
  9
$CSHADOW
280
    0
  9
$SHADOWPLANELOCATION
 40
0
  0
ENDSEC
  0
SECTION
  2
CLASSES
  0
ENDSEC
  0
SECTION
  2
TABLES
  0
TABLE
  2
VPORT
  5
8
330
0
100
AcDbSymbolTable
 70
    1
  0
VPORT
  5
31
330
2
100
AcDbSymbolTableRecord
100
AcDbViewportTableRecord
  2
*ACTIVE
 70
    0
 10
0
 20
0
 11
1
 21
1
 12
267.2385808940076
 22
122.4592142697145
 13
0
 23
0
 14
10
 24
10
 15
10
 25
10
 16
0
 26
0
 36
1
 17
0
 27
0
 37
0
 40
463.2939731977377
 41
1.994791666666667
 42
50
 43
0
 44
0
 50
0
 51
0
 71
    0
 72
  100
 73
    1
 74
    3
 75
    0
 76
    0
 77
    0
 78
    0
281
    0
 65
    1
110
0
120
0
130
0
111
1
121
0
131
0
112
0
122
1
132
0
 79
    0
146
0
348
10020
 60
    7
 61
    5
292
1
282
    1
141
0
142
0
 63
  250
421
3358443
  0
ENDTAB
  0
TABLE
  2
LTYPE
  5
5
330
0
100
AcDbSymbolTable
 70
    4
  0
LTYPE
  5
14
330
5
100
AcDbSymbolTableRecord
100
AcDbLinetypeTableRecord
  2
ByBlock
 70
    0
  3

 72
   65
 73
    0
 40
0
  0
LTYPE
  5
15
330
5
100
AcDbSymbolTableRecord
100
AcDbLinetypeTableRecord
  2
ByLayer
 70
    0
  3

 72
   65
 73
    0
 40
0
  0
LTYPE
  5
16
330
5
100
AcDbSymbolTableRecord
100
AcDbLinetypeTableRecord
  2
Continuous
 70
    0
  3
Solid line
 72
   65
 73
    0
 40
0
  0
LTYPE
  5
32
330
5
100
AcDbSymbolTableRecord
100
AcDbLinetypeTableRecord
  2
DOT
 70
    0
  3
Dot . . . . . . . . . . . . . . . . . . . . . .
 72
   65
 73
    2
 40
6.35
 49
0
 74
    0
 49
-6.35
 74
    0
  0
LTYPE
  5
33
330
5
100
AcDbSymbolTableRecord
100
AcDbLinetypeTableRecord
  2
DOTTINY
 70
    0
  3
Dot (.15x) .....................................
 72
   65
 73
    2
 40
0.9525
 49
0
 74
    0
 49
-0.9525
 74
    0
  0
LTYPE
  5
34
330
5
100
AcDbSymbolTableRecord
100
AcDbLinetypeTableRecord
  2
DOT2
 70
    0
  3
Dot (.5x) .....................................
 72
   65
 73
    2
 40
3.175
 49
0
 74
    0
 49
-3.175
 74
    0
  0
LTYPE
  5
35
330
5
100
AcDbSymbolTableRecord
100
AcDbLinetypeTableRecord
  2
DOTX2
 70
    0
  3
Dot (2x) .  .  .  .  .  .  .  .  .  .  .  .  .
 72
   65
 73
    2
 40
12.7
 49
0
 74
    0
 49
-12.7
 74
    0
  0
LTYPE
  5
36
330
5
100
AcDbSymbolTableRecord
100
AcDbLinetypeTableRecord
  2
DASHED
 70
    0
  3
Dashed _ _ _ _ _ _ _ _ _ _ _ _ _ _ _ _ _
 72
   65
 73
    2
 40
19.05
 49
12.7
 74
    0
 49
-6.35
 74
    0
  0
LTYPE
  5
37
330
5
100
AcDbSymbolTableRecord
100
AcDbLinetypeTableRecord
  2
DASHEDTINY
 70
    0
  3
Dashed (.15x) _ _ _ _ _ _ _ _ _ _ _ _ _ _ _ _ _
 72
   65
 73
    2
 40
2.8575
 49
1.905
 74
    0
 49
-0.9525
 74
    0
  0
LTYPE
  5
38
330
5
100
AcDbSymbolTableRecord
100
AcDbLinetypeTableRecord
  2
DASHED2
 70
    0
  3
Dashed (.5x) _ _ _ _ _ _ _ _ _ _ _ _ _ _ _ _ _
 72
   65
 73
    2
 40
9.524999999999999
 49
6.35
 74
    0
 49
-3.175
 74
    0
  0
LTYPE
  5
39
330
5
100
AcDbSymbolTableRecord
100
AcDbLinetypeTableRecord
  2
DASHEDX2
 70
    0
  3
Dashed (2x) ____  ____  ____  ____  ____  ___
 72
   65
 73
    2
 40
38.09999999999999
 49
25.4
 74
    0
 49
-12.7
 74
    0
  0
LTYPE
  5
3A
330
5
100
AcDbSymbolTableRecord
100
AcDbLinetypeTableRecord
  2
DASHDOT
 70
    0
  3
Dash dot __ . __ . __ . __ . __ . __ . __ . __
 72
   65
 73
    4
 40
25.4
 49
12.7
 74
    0
 49
-6.35
 74
    0
 49
0
 74
    0
 49
-6.35
 74
    0
  0
LTYPE
  5
3B
330
5
100
AcDbSymbolTableRecord
100
AcDbLinetypeTableRecord
  2
DASHDOTTINY
 70
    0
  3
Dash dot (.15x) _._._._._._._._._._._._._._._.
 72
   65
 73
    4
 40
3.81
 49
1.905
 74
    0
 49
-0.9525
 74
    0
 49
0
 74
    0
 49
-0.9525
 74
    0
  0
LTYPE
  5
3C
330
5
100
AcDbSymbolTableRecord
100
AcDbLinetypeTableRecord
  2
DASHDOT2
 70
    0
  3
Dash dot (.5x) _._._._._._._._._._._._._._._.
 72
   65
 73
    4
 40
12.7
 49
6.35
 74
    0
 49
-3.175
 74
    0
 49
0
 74
    0
 49
-3.175
 74
    0
  0
LTYPE
  5
3D
330
5
100
AcDbSymbolTableRecord
100
AcDbLinetypeTableRecord
  2
DASHDOTX2
 70
    0
  3
Dash dot (2x) ____  .  ____  .  ____  .  ___
 72
   65
 73
    4
 40
50.8
 49
25.4
 74
    0
 49
-12.7
 74
    0
 49
0
 74
    0
 49
-12.7
 74
    0
  0
LTYPE
  5
3E
330
5
100
AcDbSymbolTableRecord
100
AcDbLinetypeTableRecord
  2
DIVIDE
 70
    0
  3
Divide ____ . . ____ . . ____ . . ____ . . ____
 72
   65
 73
    6
 40
31.75
 49
12.7
 74
    0
 49
-6.35
 74
    0
 49
0
 74
    0
 49
-6.35
 74
    0
 49
0
 74
    0
 49
-6.35
 74
    0
  0
LTYPE
  5
3F
330
5
100
AcDbSymbolTableRecord
100
AcDbLinetypeTableRecord
  2
DIVIDETINY
 70
    0
  3
Divide (.15x) __..__..__..__..__..__..__..__.._
 72
   65
 73
    6
 40
4.7625
 49
1.905
 74
    0
 49
-0.9525
 74
    0
 49
0
 74
    0
 49
-0.9525
 74
    0
 49
0
 74
    0
 49
-0.9525
 74
    0
  0
LTYPE
  5
40
330
5
100
AcDbSymbolTableRecord
100
AcDbLinetypeTableRecord
  2
DIVIDE2
 70
    0
  3
Divide (.5x) __..__..__..__..__..__..__..__.._
 72
   65
 73
    6
 40
15.875
 49
6.35
 74
    0
 49
-3.175
 74
    0
 49
0
 74
    0
 49
-3.175
 74
    0
 49
0
 74
    0
 49
-3.175
 74
    0
  0
LTYPE
  5
41
330
5
100
AcDbSymbolTableRecord
100
AcDbLinetypeTableRecord
  2
DIVIDEX2
 70
    0
  3
Divide (2x) ________  .  .  ________  .  .  _
 72
   65
 73
    6
 40
63.5
 49
25.4
 74
    0
 49
-12.7
 74
    0
 49
0
 74
    0
 49
-12.7
 74
    0
 49
0
 74
    0
 49
-12.7
 74
    0
  0
LTYPE
  5
42
330
5
100
AcDbSymbolTableRecord
100
AcDbLinetypeTableRecord
  2
BORDER
 70
    0
  3
Border __ __ . __ __ . __ __ . __ __ . __ __ .
 72
   65
 73
    6
 40
44.45
 49
12.7
 74
    0
 49
-6.35
 74
    0
 49
12.7
 74
    0
 49
-6.35
 74
    0
 49
0
 74
    0
 49
-6.35
 74
    0
  0
LTYPE
  5
43
330
5
100
AcDbSymbolTableRecord
100
AcDbLinetypeTableRecord
  2
BORDERTINY
 70
    0
  3
Border (.15x) __.__.__.__.__.__.__.__.__.__.__.
 72
   65
 73
    6
 40
6.6675
 49
1.905
 74
    0
 49
-0.9525
 74
    0
 49
1.905
 74
    0
 49
-0.9525
 74
    0
 49
0
 74
    0
 49
-0.9525
 74
    0
  0
LTYPE
  5
44
330
5
100
AcDbSymbolTableRecord
100
AcDbLinetypeTableRecord
  2
BORDER2
 70
    0
  3
Border (.5x) __.__.__.__.__.__.__.__.__.__.__.
 72
   65
 73
    6
 40
22.225
 49
6.35
 74
    0
 49
-3.175
 74
    0
 49
6.35
 74
    0
 49
-3.175
 74
    0
 49
0
 74
    0
 49
-3.175
 74
    0
  0
LTYPE
  5
45
330
5
100
AcDbSymbolTableRecord
100
AcDbLinetypeTableRecord
  2
BORDERX2
 70
    0
  3
Border (2x) ____  ____  .  ____  ____  .  ___
 72
   65
 73
    6
 40
88.89999999999999
 49
25.4
 74
    0
 49
-12.7
 74
    0
 49
25.4
 74
    0
 49
-12.7
 74
    0
 49
0
 74
    0
 49
-12.7
 74
    0
  0
LTYPE
  5
46
330
5
100
AcDbSymbolTableRecord
100
AcDbLinetypeTableRecord
  2
CENTER
 70
    0
  3
Center ____ _ ____ _ ____ _ ____ _ ____ _ ____
 72
   65
 73
    4
 40
50.8
 49
31.75
 74
    0
 49
-6.35
 74
    0
 49
6.35
 74
    0
 49
-6.35
 74
    0
  0
LTYPE
  5
47
330
5
100
AcDbSymbolTableRecord
100
AcDbLinetypeTableRecord
  2
CENTERTINY
 70
    0
  3
Center (.15x) ___ _ ___ _ ___ _ ___ _ ___ _ ___
 72
   65
 73
    4
 40
7.62
 49
4.7625
 74
    0
 49
-0.9525
 74
    0
 49
0.9525
 74
    0
 49
-0.9525
 74
    0
  0
LTYPE
  5
48
330
5
100
AcDbSymbolTableRecord
100
AcDbLinetypeTableRecord
  2
CENTER2
 70
    0
  3
Center (.5x) ___ _ ___ _ ___ _ ___ _ ___ _ ___
 72
   65
 73
    4
 40
28.575
 49
19.05
 74
    0
 49
-3.175
 74
    0
 49
3.175
 74
    0
 49
-3.175
 74
    0
  0
LTYPE
  5
49
330
5
100
AcDbSymbolTableRecord
100
AcDbLinetypeTableRecord
  2
CENTERX2
 70
    0
  3
Center (2x) ________  __  ________  __  _____
 72
   65
 73
    4
 40
101.6
 49
63.5
 74
    0
 49
-12.7
 74
    0
 49
12.7
 74
    0
 49
-12.7
 74
    0
  0
ENDTAB
  0
TABLE
  2
LAYER
  5
2
330
0
100
AcDbSymbolTable
 70
    1
  0
LAYER
  5
10
330
2
100
AcDbSymbolTableRecord
100
AcDbLayerTableRecord
  2
0
 70
    0
 62
    7
  6
CONTINUOUS
370
    0
390
F
  0
ENDTAB
  0
TABLE
  2
STYLE
  5
3
330
0
100
AcDbSymbolTable
 70
    3
  0
STYLE
  5
4A
330
2
100
AcDbSymbolTableRecord
100
AcDbTextStyleTableRecord
  2
STANDARD
 70
    0
 40
0
 41
1
 50
0
 71
    0
 42
1
  3
STANDARD
  4

  0
ENDTAB
  0
TABLE
  2
VIEW
  5
6
330
0
100
AcDbSymbolTable
 70
    0
  0
ENDTAB
  0
TABLE
  2
UCS
  5
7
330
0
100
AcDbSymbolTable
 70
    0
  0
ENDTAB
  0
TABLE
  2
APPID
  5
9
330
0
100
AcDbSymbolTable
 70
    1
  0
APPID
  5
12
330
9
100
AcDbSymbolTableRecord
100
AcDbRegAppTableRecord
  2
ACAD
 70
    0
  0
APPID
  5
4B
330
9
100
AcDbSymbolTableRecord
100
AcDbRegAppTableRecord
  2
LibreCad
 70
    0
  0
ENDTAB
  0
TABLE
  2
DIMSTYLE
  5
A
330
0
100
AcDbSymbolTable
 70
    1
100
AcDbDimStyleTable
 71
    1
  0
DIMSTYLE
105
4C
330
A
100
AcDbSymbolTableRecord
100
AcDbDimStyleTableRecord
  2
Standard
 70
    0
 40
2.5
 41
2
 42
0.625
 43
0.38
 44
0.125
 45
0
 46
0
 47
0
 48
0
 49
1
140
2.5
141
0.09
142
1
143
25.4
144
1
145
0
146
1
147
0.0625
148
0
 71
    0
 72
    0
 73
    0
 74
    1
 75
    0
 76
    0
 77
    0
 78
    8
 79
    0
170
    0
171
    2
172
    0
173
    0
174
    0
175
    0
176
    0
177
    0
178
    0
179
    2
271
    0
272
    4
273
    2
274
    2
275
    0
276
    0
277
    4
278
   44
279
    0
280
    0
281
    0
282
    0
283
    1
284
    0
285
    0
286
    0
288
    0
289
    3
340
standard
341

371
   -2
372
   -2
  0
ENDTAB
  0
TABLE
  2
BLOCK_RECORD
  5
1
330
0
100
AcDbSymbolTable
 70
    2
  0
BLOCK_RECORD
  5
1F
330
1
100
AcDbSymbolTableRecord
100
AcDbBlockTableRecord
  2
*Model_Space
 70
    0
280
    1
281
    0
  0
BLOCK_RECORD
  5
1E
330
1
100
AcDbSymbolTableRecord
100
AcDbBlockTableRecord
  2
*Paper_Space
 70
    0
280
    1
281
    0
  0
BLOCK_RECORD
  5
4D
330
1
100
AcDbSymbolTableRecord
100
AcDbBlockTableRecord
  2
*D4
 70
    0
280
    1
281
    0
  0
BLOCK_RECORD
  5
50
330
1
100
AcDbSymbolTableRecord
100
AcDbBlockTableRecord
  2
*D19
 70
    0
280
    1
281
    0
  0
BLOCK_RECORD
  5
53
330
1
100
AcDbSymbolTableRecord
100
AcDbBlockTableRecord
  2
*D22
 70
    0
280
    1
281
    0
  0
BLOCK_RECORD
  5
56
330
1
100
AcDbSymbolTableRecord
100
AcDbBlockTableRecord
  2
*D14
 70
    0
280
    1
281
    0
  0
BLOCK_RECORD
  5
59
330
1
100
AcDbSymbolTableRecord
100
AcDbBlockTableRecord
  2
*D9
 70
    0
280
    1
281
    0
  0
BLOCK_RECORD
  5
5C
330
1
100
AcDbSymbolTableRecord
100
AcDbBlockTableRecord
  2
*D15
 70
    0
280
    1
281
    0
  0
BLOCK_RECORD
  5
5F
330
1
100
AcDbSymbolTableRecord
100
AcDbBlockTableRecord
  2
*D2
 70
    0
280
    1
281
    0
  0
BLOCK_RECORD
  5
62
330
1
100
AcDbSymbolTableRecord
100
AcDbBlockTableRecord
  2
*D16
 70
    0
280
    1
281
    0
  0
BLOCK_RECORD
  5
65
330
1
100
AcDbSymbolTableRecord
100
AcDbBlockTableRecord
  2
*D21
 70
    0
280
    1
281
    0
  0
BLOCK_RECORD
  5
68
330
1
100
AcDbSymbolTableRecord
100
AcDbBlockTableRecord
  2
*D23
 70
    0
280
    1
281
    0
  0
BLOCK_RECORD
  5
6B
330
1
100
AcDbSymbolTableRecord
100
AcDbBlockTableRecord
  2
*D13
 70
    0
280
    1
281
    0
  0
BLOCK_RECORD
  5
6E
330
1
100
AcDbSymbolTableRecord
100
AcDbBlockTableRecord
  2
*D6
 70
    0
280
    1
281
    0
  0
BLOCK_RECORD
  5
71
330
1
100
AcDbSymbolTableRecord
100
AcDbBlockTableRecord
  2
*D5
 70
    0
280
    1
281
    0
  0
BLOCK_RECORD
  5
74
330
1
100
AcDbSymbolTableRecord
100
AcDbBlockTableRecord
  2
*D11
 70
    0
280
    1
281
    0
  0
BLOCK_RECORD
  5
77
330
1
100
AcDbSymbolTableRecord
100
AcDbBlockTableRecord
  2
*D1
 70
    0
280
    1
281
    0
  0
BLOCK_RECORD
  5
7A
330
1
100
AcDbSymbolTableRecord
100
AcDbBlockTableRecord
  2
*D7
 70
    0
280
    1
281
    0
  0
BLOCK_RECORD
  5
7D
330
1
100
AcDbSymbolTableRecord
100
AcDbBlockTableRecord
  2
*D17
 70
    0
280
    1
281
    0
  0
BLOCK_RECORD
  5
80
330
1
100
AcDbSymbolTableRecord
100
AcDbBlockTableRecord
  2
*D8
 70
    0
280
    1
281
    0
  0
BLOCK_RECORD
  5
83
330
1
100
AcDbSymbolTableRecord
100
AcDbBlockTableRecord
  2
*D3
 70
    0
280
    1
281
    0
  0
BLOCK_RECORD
  5
86
330
1
100
AcDbSymbolTableRecord
100
AcDbBlockTableRecord
  2
*D20
 70
    0
280
    1
281
    0
  0
BLOCK_RECORD
  5
89
330
1
100
AcDbSymbolTableRecord
100
AcDbBlockTableRecord
  2
*D24
 70
    0
280
    1
281
    0
  0
BLOCK_RECORD
  5
8C
330
1
100
AcDbSymbolTableRecord
100
AcDbBlockTableRecord
  2
*D12
 70
    0
280
    1
281
    0
  0
BLOCK_RECORD
  5
8F
330
1
100
AcDbSymbolTableRecord
100
AcDbBlockTableRecord
  2
*D10
 70
    0
280
    1
281
    0
  0
BLOCK_RECORD
  5
92
330
1
100
AcDbSymbolTableRecord
100
AcDbBlockTableRecord
  2
*D18
 70
    0
280
    1
281
    0
  0
BLOCK_RECORD
  5
95
330
1
100
AcDbSymbolTableRecord
100
AcDbBlockTableRecord
  2
16mm dia bar
 70
    0
280
    1
281
    0
  0
ENDTAB
  0
ENDSEC
  0
SECTION
  2
BLOCKS
  0
BLOCK
  5
20
330
1F
100
AcDbEntity
  8
0
100
AcDbBlockBegin
  2
*Model_Space
 70
    0
 10
0
 20
0
 30
0
  3
*Model_Space
  1

  0
ENDBLK
  5
21
330
1F
100
AcDbEntity
  8
0
100
AcDbBlockEnd
  0
BLOCK
  5
1C
330
1B
100
AcDbEntity
  8
0
100
AcDbBlockBegin
  2
*Paper_Space
 70
    0
 10
0
 20
0
 30
0
  3
*Paper_Space
  1

  0
ENDBLK
  5
1D
330
1F
100
AcDbEntity
  8
0
100
AcDbBlockEnd
  0
BLOCK
  5
4E
330
4D
100
AcDbEntity
  8
0
100
AcDbBlockBegin
  2
*D4
 70
    1
 10
0
 20
0
  3
*D4
  1

  0
LINE
  5
98
100
AcDbEntity
  8
0
  6
CONTINUOUS
 62
    7
370
    0
100
AcDbLine
 10
80.1433179442823
 20
23.50870659698947
 11
80.1433179442823
 21
14.6446899543372
  0
SOLID
  5
99
100
AcDbEntity
  8
0
  6
CONTINUOUS
 62
    7
370
    0
100
AcDbTrace
 10
80.1433179442823
 20
23.50870659698947
 30
0
 11
80.97588725982799
 21
18.50870659698947
 31
0
 12
79.31074862873662
 22
18.50870659698947
 32
0
 13
79.31074862873662
 23
18.50870659698947
 33
0
  0
ENDBLK
  5
4F
330
4D
100
AcDbEntity
  8
0
100
AcDbBlockEnd
  0
BLOCK
  5
51
330
50
100
AcDbEntity
  8
0
100
AcDbBlockBegin
  2
*D19
 70
    1
 10
0
 20
0
  3
*D19
  1

  0
LINE
  5
9A
100
AcDbEntity
  8
0
  6
CONTINUOUS
 62
    7
370
    0
100
AcDbLine
 10
442.786613360835
 20
214.3329742276921
 11
450.843938004291
 21
218.2395558730041
  0
LINE
  5
9B
100
AcDbEntity
  8
0
  6
CONTINUOUS
 62
    7
370
    0
100
AcDbLine
 10
450.843938004291
 20
218.2395558730041
 11
461.8311988817311
 21
218.1988623141988
  0
SOLID
  5
9C
100
AcDbEntity
  8
0
  6
CONTINUOUS
 62
    7
370
    0
100
AcDbTrace
 10
442.786613360835
 20
214.3329742276921
 30
0
 11
446.9224559621024
 21
217.2634993756356
 31
0
 12
447.6489118315296
 22
215.7651841449423
 32
0
 13
447.6489118315296
 23
215.7651841449423
 33
0
  0
ENDBLK
  5
52
330
50
100
AcDbEntity
  8
0
100
AcDbBlockEnd
  0
BLOCK
  5
54
330
53
100
AcDbEntity
  8
0
100
AcDbBlockBegin
  2
*D22
 70
    1
 10
0
 20
0
  3
*D22
  1

  0
LINE
  5
9D
100
AcDbEntity
  8
0
  6
CONTINUOUS
 62
    7
370
    0
100
AcDbLine
 10
416.2218275752344
 20
192.6480326253896
 11
416.2218275752344
 21
217.6480326253896
  0
SOLID
  5
9E
100
AcDbEntity
  8
0
  6
CONTINUOUS
 62
    7
370
    0
100
AcDbTrace
 10
416.2218275752344
 20
192.6480326253896
 30
0
 11
415.3892582596887
 21
197.6480326253896
 31
0
 12
417.0543968907801
 22
197.6480326253896
 32
0
 13
417.0543968907801
 23
197.6480326253896
 33
0
  0
ENDBLK
  5
55
330
53
100
AcDbEntity
  8
0
100
AcDbBlockEnd
  0
BLOCK
  5
57
330
56
100
AcDbEntity
  8
0
100
AcDbBlockBegin
  2
*D14
 70
    1
 10
0
 20
0
  3
*D14
  1

  0
LINE
  5
9F
100
AcDbEntity
  8
0
  6
CONTINUOUS
 62
    7
370
    0
100
AcDbLine
 10
80.1433179442823
 20
196.5087065969895
 11
80.1433179442823
 21
187.0207491767657
  0
SOLID
  5
A0
100
AcDbEntity
  8
0
  6
CONTINUOUS
 62
    7
370
    0
100
AcDbTrace
 10
80.1433179442823
 20
196.5087065969895
 30
0
 11
80.97588725982799
 21
191.5087065969895
 31
0
 12
79.31074862873662
 22
191.5087065969895
 32
0
 13
79.31074862873662
 23
191.5087065969895
 33
0
  0
ENDBLK
  5
58
330
56
100
AcDbEntity
  8
0
100
AcDbBlockEnd
  0
BLOCK
  5
5A
330
59
100
AcDbEntity
  8
0
100
AcDbBlockBegin
  2
*D9
 70
    1
 10
0
 20
0
  3
*D9
  1

  0
ENDBLK
  5
5B
330
59
100
AcDbEntity
  8
0
100
AcDbBlockEnd
  0
BLOCK
  5
5D
330
5C
100
AcDbEntity
  8
0
100
AcDbBlockBegin
  2
*D15
 70
    1
 10
0
 20
0
  3
*D15
  1

  0
LINE
  5
A1
100
AcDbEntity
  8
0
  6
CONTINUOUS
 62
    7
370
    0
100
AcDbLine
 10
446.2762314046157
 20
205.1156833155015
 11
460.830195671697
 21
205.1156833155015
  0
SOLID
  5
A2
100
AcDbEntity
  8
0
  6
CONTINUOUS
 62
    7
370
    0
100
AcDbTrace
 10
446.2762314046157
 20
205.1156833155015
 30
0
 11
451.2762314046157
 21
205.9482526310472
 31
0
 12
451.2762314046157
 22
204.2831139999558
 32
0
 13
451.2762314046157
 23
204.2831139999558
 33
0
  0
ENDBLK
  5
5E
330
5C
100
AcDbEntity
  8
0
100
AcDbBlockEnd
  0
BLOCK
  5
60
330
5F
100
AcDbEntity
  8
0
100
AcDbBlockBegin
  2
*D2
 70
    1
 10
0
 20
0
  3
*D2
  1

  0
LINE
  5
A3
100
AcDbEntity
  8
0
  6
CONTINUOUS
 62
    7
370
    0
100
AcDbLine
 10
188.25
 20
145.2468620737079
 11
200.3722562846532
 21
154.3247909533146
  0
LINE
  5
A4
100
AcDbEntity
  8
0
  6
CONTINUOUS
 62
    7
370
    0
100
AcDbLine
 10
200.3722562846532
 20
154.3247909533146
 11
216.2915228706302
 21
154.3247909533146
  0
SOLID
  5
A5
100
AcDbEntity
  8
0
  6
CONTINUOUS
 62
    7
370
    0
100
AcDbTrace
 10
188.25
 20
145.2468620737079
 30
0
 11
191.7531228451864
 21
148.9103715928331
 31
0
 12
192.7512372652587
 22
147.5775346691262
 32
0
 13
192.7512372652587
 23
147.5775346691262
 33
0
  0
ENDBLK
  5
61
330
5F
100
AcDbEntity
  8
0
100
AcDbBlockEnd
  0
BLOCK
  5
63
330
62
100
AcDbEntity
  8
0
100
AcDbBlockBegin
  2
*D16
 70
    1
 10
0
 20
0
  3
*D16
  1

  0
ENDBLK
  5
64
330
62
100
AcDbEntity
  8
0
100
AcDbBlockEnd
  0
BLOCK
  5
66
330
65
100
AcDbEntity
  8
0
100
AcDbBlockBegin
  2
*D21
 70
    1
 10
0
 20
0
  3
*D21
  1

  0
LINE
  5
A6
100
AcDbEntity
  8
0
  6
CONTINUOUS
 62
    7
370
    0
100
AcDbLine
 10
416.2218275752344
 20
217.6480326253896
 11
416.2218275752344
 21
192.6480326253896
  0
SOLID
  5
A7
100
AcDbEntity
  8
0
  6
CONTINUOUS
 62
    7
370
    0
100
AcDbTrace
 10
416.2218275752344
 20
217.6480326253896
 30
0
 11
417.0543968907801
 21
212.6480326253896
 31
0
 12
415.3892582596887
 22
212.6480326253896
 32
0
 13
415.3892582596887
 23
212.6480326253896
 33
0
  0
ENDBLK
  5
67
330
65
100
AcDbEntity
  8
0
100
AcDbBlockEnd
  0
BLOCK
  5
69
330
68
100
AcDbEntity
  8
0
100
AcDbBlockBegin
  2
*D23
 70
    1
 10
0
 20
0
  3
*D23
  1

  0
LINE
  5
A8
100
AcDbEntity
  8
0
  6
CONTINUOUS
 62
    7
370
    0
100
AcDbLine
 10
421.2218275752344
 20
187.6480326253896
 11
446.2218275752344
 21
187.6480326253896
  0
SOLID
  5
A9
100
AcDbEntity
  8
0
  6
CONTINUOUS
 62
    7
370
    0
100
AcDbTrace
 10
421.2218275752344
 20
187.6480326253896
 30
0
 11
426.2218275752344
 21
188.4806019409353
 31
0
 12
426.2218275752344
 22
186.8154633098439
 32
0
 13
426.2218275752344
 23
186.8154633098439
 33
0
  0
ENDBLK
  5
6A
330
68
100
AcDbEntity
  8
0
100
AcDbBlockEnd
  0
BLOCK
  5
6C
330
6B
100
AcDbEntity
  8
0
100
AcDbBlockBegin
  2
*D13
 70
    1
 10
0
 20
0
  3
*D13
  1

  0
LINE
  5
AA
100
AcDbEntity
  8
0
  6
CONTINUOUS
 62
    7
370
    0
100
AcDbLine
 10
80.1433179442823
 20
131.5087065969895
 11
80.1433179442823
 21
144.6648464638658
  0
SOLID
  5
AB
100
AcDbEntity
  8
0
  6
CONTINUOUS
 62
    7
370
    0
100
AcDbTrace
 10
80.1433179442823
 20
131.5087065969895
 30
0
 11
79.31074862873662
 21
136.5087065969895
 31
0
 12
80.97588725982799
 22
136.5087065969895
 32
0
 13
80.97588725982799
 23
136.5087065969895
 33
0
  0
ENDBLK
  5
6D
330
6B
100
AcDbEntity
  8
0
100
AcDbBlockEnd
  0
BLOCK
  5
6F
330
6E
100
AcDbEntity
  8
0
100
AcDbBlockBegin
  2
*D6
 70
    1
 10
0
 20
0
  3
*D6
  1

  0
LINE
  5
AC
100
AcDbEntity
  8
0
  6
CONTINUOUS
 62
    7
370
    0
100
AcDbLine
 10
80.1433179442823
 20
51.50870659698947
 11
80.1433179442823
 21
44.65668641881985
  0
SOLID
  5
AD
100
AcDbEntity
  8
0
  6
CONTINUOUS
 62
    7
370
    0
100
AcDbTrace
 10
80.1433179442823
 20
51.50870659698947
 30
0
 11
80.97588725982799
 21
46.50870659698947
 31
0
 12
79.31074862873662
 22
46.50870659698947
 32
0
 13
79.31074862873662
 23
46.50870659698947
 33
0
  0
ENDBLK
  5
70
330
6E
100
AcDbEntity
  8
0
100
AcDbBlockEnd
  0
BLOCK
  5
72
330
71
100
AcDbEntity
  8
0
100
AcDbBlockBegin
  2
*D5
 70
    1
 10
0
 20
0
  3
*D5
  1

  0
LINE
  5
AE
100
AcDbEntity
  8
0
  6
CONTINUOUS
 62
    7
370
    0
100
AcDbLine
 10
80.1433179442823
 20
31.50870659698947
 11
80.1433179442823
 21
36.82114645351239
  0
SOLID
  5
AF
100
AcDbEntity
  8
0
  6
CONTINUOUS
 62
    7
370
    0
100
AcDbTrace
 10
80.1433179442823
 20
31.50870659698947
 30
0
 11
79.31074862873662
 21
36.50870659698947
 31
0
 12
80.97588725982799
 22
36.50870659698947
 32
0
 13
80.97588725982799
 23
36.50870659698947
 33
0
  0
ENDBLK
  5
73
330
71
100
AcDbEntity
  8
0
100
AcDbBlockEnd
  0
BLOCK
  5
75
330
74
100
AcDbEntity
  8
0
100
AcDbBlockBegin
  2
*D11
 70
    1
 10
0
 20
0
  3
*D11
  1

  0
LINE
  5
B0
100
AcDbEntity
  8
0
  6
CONTINUOUS
 62
    7
370
    0
100
AcDbLine
 10
80.1433179442823
 20
81.50870659698947
 11
80.1433179442823
 21
91.32002925773214
  0
SOLID
  5
B1
100
AcDbEntity
  8
0
  6
CONTINUOUS
 62
    7
370
    0
100
AcDbTrace
 10
80.1433179442823
 20
81.50870659698947
 30
0
 11
79.31074862873662
 21
86.50870659698947
 31
0
 12
80.97588725982799
 22
86.50870659698947
 32
0
 13
80.97588725982799
 23
86.50870659698947
 33
0
  0
ENDBLK
  5
76
330
74
100
AcDbEntity
  8
0
100
AcDbBlockEnd
  0
BLOCK
  5
78
330
77
100
AcDbEntity
  8
0
100
AcDbBlockBegin
  2
*D1
 70
    1
 10
0
 20
0
  3
*D1
  1

  0
LINE
  5
B2
100
AcDbEntity
  8
0
  6
CONTINUOUS
 62
    7
370
    0
100
AcDbLine
 10
238.75
 20
27.65761778535338
 11
251.6037656784089
 21
36.51879629910738
  0
LINE
  5
B3
100
AcDbEntity
  8
0
  6
CONTINUOUS
 62
    7
370
    0
100
AcDbLine
 10
251.6037656784089
 20
36.51879629910738
 11
267.9835199008027
 21
36.51879629910738
  0
SOLID
  5
B4
100
AcDbEntity
  8
0
  6
CONTINUOUS
 62
    7
370
    0
100
AcDbTrace
 10
238.75
 20
27.65761778535338
 30
0
 11
242.3940348686038
 21
31.18099422587008
 31
0
 12
243.3391368589532
 22
29.81005699587364
 32
0
 13
243.3391368589532
 23
29.81005699587364
 33
0
  0
ENDBLK
  5
79
330
77
100
AcDbEntity
  8
0
100
AcDbBlockEnd
  0
BLOCK
  5
7B
330
7A
100
AcDbEntity
  8
0
100
AcDbBlockBegin
  2
*D7
 70
    1
 10
0
 20
0
  3
*D7
  1

  0
ENDBLK
  5
7C
330
7A
100
AcDbEntity
  8
0
100
AcDbBlockEnd
  0
BLOCK
  5
7E
330
7D
100
AcDbEntity
  8
0
100
AcDbBlockBegin
  2
*D17
 70
    1
 10
0
 20
0
  3
*D17
  1

  0
LINE
  5
B5
100
AcDbEntity
  8
0
  6
CONTINUOUS
 62
    7
370
    0
100
AcDbLine
 10
443.1621134829506
 20
205.1571210148053
 11
429.1379183424467
 21
205.1571210148053
  0
SOLID
  5
B6
100
AcDbEntity
  8
0
  6
CONTINUOUS
 62
    7
370
    0
100
AcDbTrace
 10
443.1621134829506
 20
205.1571210148053
 30
0
 11
438.1621134829506
 21
204.3245516992596
 31
0
 12
438.1621134829506
 22
205.989690330351
 32
0
 13
438.1621134829506
 23
205.989690330351
 33
0
  0
ENDBLK
  5
7F
330
7D
100
AcDbEntity
  8
0
100
AcDbBlockEnd
  0
BLOCK
  5
81
330
80
100
AcDbEntity
  8
0
100
AcDbBlockBegin
  2
*D8
 70
    1
 10
0
 20
0
  3
*D8
  1

  0
LINE
  5
B7
100
AcDbEntity
  8
0
  6
CONTINUOUS
 62
    7
370
    0
100
AcDbLine
 10
80.1433179442823
 20
51.50870659698947
 11
80.1433179442823
 21
59.99837288122336
  0
SOLID
  5
B8
100
AcDbEntity
  8
0
  6
CONTINUOUS
 62
    7
370
    0
100
AcDbTrace
 10
80.1433179442823
 20
51.50870659698947
 30
0
 11
79.31074862873662
 21
56.50870659698947
 31
0
 12
80.97588725982799
 22
56.50870659698947
 32
0
 13
80.97588725982799
 23
56.50870659698947
 33
0
  0
ENDBLK
  5
82
330
80
100
AcDbEntity
  8
0
100
AcDbBlockEnd
  0
BLOCK
  5
84
330
83
100
AcDbEntity
  8
0
100
AcDbBlockBegin
  2
*D3
 70
    1
 10
0
 20
0
  3
*D3
  1

  0
LINE
  5
B9
100
AcDbEntity
  8
0
  6
CONTINUOUS
 62
    7
370
    0
100
AcDbLine
 10
178.3201407212231
 20
208.5377118181065
 11
199.2084432717979
 21
221.1961301671398
  0
LINE
  5
BA
100
AcDbEntity
  8
0
  6
CONTINUOUS
 62
    7
370
    0
100
AcDbLine
 10
199.2084432717979
 20
221.1961301671398
 11
228.0123131046958
 21
221.1961301671398
  0
SOLID
  5
BB
100
AcDbEntity
  8
0
  6
CONTINUOUS
 62
    7
370
    0
100
AcDbTrace
 10
178.3201407212231
 20
208.5377118181065
 30
0
 11
182.1647418261138
 21
211.8410758624499
 31
0
 12
183.0277282492455
 22
210.4170178951455
 32
0
 13
183.0277282492455
 23
210.4170178951455
 33
0
  0
ENDBLK
  5
85
330
83
100
AcDbEntity
  8
0
100
AcDbBlockEnd
  0
BLOCK
  5
87
330
86
100
AcDbEntity
  8
0
100
AcDbBlockBegin
  2
*D20
 70
    1
 10
0
 20
0
  3
*D20
  1

  0
LINE
  5
BC
100
AcDbEntity
  8
0
  6
CONTINUOUS
 62
    7
370
    0
100
AcDbLine
 10
428.3218081966327
 20
214.7729867076796
 11
444.7120202918039
 21
230.3470886570332
  0
LINE
  5
BD
100
AcDbEntity
  8
0
  6
CONTINUOUS
 62
    7
370
    0
100
AcDbLine
 10
444.7120202918039
 20
230.3470886570332
 11
461.7823241751565
 21
230.279079478215
  0
SOLID
  5
BE
100
AcDbEntity
  8
0
  6
CONTINUOUS
 62
    7
370
    0
100
AcDbTrace
 10
428.3218081966327
 20
214.7729867076796
 30
0
 11
431.3729323568651
 21
218.820679016148
 31
0
 12
432.5199273212218
 22
217.6135795121744
 32
0
 13
432.5199273212218
 23
217.6135795121744
 33
0
  0
ENDBLK
  5
88
330
86
100
AcDbEntity
  8
0
100
AcDbBlockEnd
  0
BLOCK
  5
8A
330
89
100
AcDbEntity
  8
0
100
AcDbBlockBegin
  2
*D24
 70
    1
 10
0
 20
0
  3
*D24
  1

  0
LINE
  5
BF
100
AcDbEntity
  8
0
  6
CONTINUOUS
 62
    7
370
    0
100
AcDbLine
 10
446.2218275752344
 20
187.6480326253896
 11
421.2218275752344
 21
187.6480326253896
  0
SOLID
  5
C0
100
AcDbEntity
  8
0
  6
CONTINUOUS
 62
    7
370
    0
100
AcDbTrace
 10
446.2218275752344
 20
187.6480326253896
 30
0
 11
441.2218275752344
 21
186.8154633098439
 31
0
 12
441.2218275752344
 22
188.4806019409353
 32
0
 13
441.2218275752344
 23
188.4806019409353
 33
0
  0
ENDBLK
  5
8B
330
89
100
AcDbEntity
  8
0
100
AcDbBlockEnd
  0
BLOCK
  5
8D
330
8C
100
AcDbEntity
  8
0
100
AcDbBlockBegin
  2
*D12
 70
    1
 10
0
 20
0
  3
*D12
  1

  0
LINE
  5
C1
100
AcDbEntity
  8
0
  6
CONTINUOUS
 62
    7
370
    0
100
AcDbLine
 10
80.1433179442823
 20
131.5087065969895
 11
80.1433179442823
 21
124.172966612648
  0
SOLID
  5
C2
100
AcDbEntity
  8
0
  6
CONTINUOUS
 62
    7
370
    0
100
AcDbTrace
 10
80.1433179442823
 20
131.5087065969895
 30
0
 11
80.97588725982799
 21
126.5087065969895
 31
0
 12
79.31074862873662
 22
126.5087065969895
 32
0
 13
79.31074862873662
 23
126.5087065969895
 33
0
  0
ENDBLK
  5
8E
330
8C
100
AcDbEntity
  8
0
100
AcDbBlockEnd
  0
BLOCK
  5
90
330
8F
100
AcDbEntity
  8
0
100
AcDbBlockBegin
  2
*D10
 70
    1
 10
0
 20
0
  3
*D10
  1

  0
LINE
  5
C3
100
AcDbEntity
  8
0
  6
CONTINUOUS
 62
    7
370
    0
100
AcDbLine
 10
80.1433179442823
 20
81.50870659698947
 11
80.1433179442823
 21
74.7543532186008
  0
SOLID
  5
C4
100
AcDbEntity
  8
0
  6
CONTINUOUS
 62
    7
370
    0
100
AcDbTrace
 10
80.1433179442823
 20
81.50870659698947
 30
0
 11
80.97588725982799
 21
76.50870659698947
 31
0
 12
79.31074862873662
 22
76.50870659698947
 32
0
 13
79.31074862873662
 23
76.50870659698947
 33
0
  0
ENDBLK
  5
91
330
8F
100
AcDbEntity
  8
0
100
AcDbBlockEnd
  0
BLOCK
  5
93
330
92
100
AcDbEntity
  8
0
100
AcDbBlockBegin
  2
*D18
 70
    1
 10
0
 20
0
  3
*D18
  1

  0
LINE
  5
C5
100
AcDbEntity
  8
0
  6
CONTINUOUS
 62
    7
370
    0
100
AcDbLine
 10
442.8675740341043
 20
205.1571210148053
 11
442.8033282545055
 21
205.1571210148053
  0
SOLID
  5
C6
100
AcDbEntity
  8
0
  6
CONTINUOUS
 62
    7
370
    0
100
AcDbTrace
 10
442.8675740341043
 20
205.1571210148053
 30
0
 11
437.8675740341043
 21
204.3245516992596
 31
0
 12
437.8675740341043
 22
205.989690330351
 32
0
 13
437.8675740341043
 23
205.989690330351
 33
0
  0
ENDBLK
  5
94
330
92
100
AcDbEntity
  8
0
100
AcDbBlockEnd
  0
BLOCK
  5
96
330
95
100
AcDbEntity
  8
0
100
AcDbBlockBegin
  2
16mm dia bar
 70
    0
 10
0
 20
0
  3
16mm dia bar
  1

  0
HATCH
  5
C7
100
AcDbEntity
  8
0
  6
ByLayer
 62
    2
370
   -1
100
AcDbHatch
 10
0
 20
0
 30
0
210
0
220
0
230
1
  2
SOLID
 70
    1
 71
    0
 91
    1
 92
    0
 93
    1
 72
    2
 10
0
 20
0.7999999999999972
 40
0.8
 50
0
 51
360
 73
    1
 97
    0
 75
    0
 76
    1
 98
    0
  0
CIRCLE
  5
C8
100
AcDbEntity
  8
0
  6
ByLayer
 62
    2
370
   -1
100
AcDbCircle
 10
0
 20
0.7999999999999972
 40
0.8
  0
ENDBLK
  5
97
330
95
100
AcDbEntity
  8
0
100
AcDbBlockEnd
  0
ENDSEC
  0
SECTION
  2
ENTITIES
  0
HATCH
  5
C9
100
AcDbEntity
  8
0
  6
ByLayer
 62
  256
370
   -1
100
AcDbHatch
 10
0
 20
0
 30
0
210
0
220
0
230
1
  2
SOLID
 70
    1
 71
    0
 91
    1
 92
    0
 93
    1
 72
    2
 10
170.0845700580849
 20
-85.3977607431388
 40
0.8
 50
0
 51
360
 73
    1
 97
    0
 75
    0
 76
    1
 98
    0
  0
HATCH
  5
CA
100
AcDbEntity
  8
0
  6
ByLayer
 62
  256
370
   -1
100
AcDbHatch
 10
0
 20
0
 30
0
210
0
220
0
230
1
  2
SOLID
 70
    1
 71
    0
 91
    1
 92
    0
 93
    1
 72
    2
 10
187.4410684623295
 20
-85.42481514067913
 40
0.8
 50
0
 51
360
 73
    1
 97
    0
 75
    0
 76
    1
 98
    0
  0
HATCH
  5
CB
100
AcDbEntity
  8
0
  6
ByLayer
 62
  256
370
   -1
100
AcDbHatch
 10
0
 20
0
 30
0
210
0
220
0
230
1
  2
gost_sand
 70
    0
 71
    0
 91
    1
 92
    0
 93
    4
 72
    1
 10
166.25
 20
-64.22827277404615
 11
191.25
 21
-64.22827277404615
 72
    1
 10
191.25
 20
-64.22827277404615
 11
191.25
 21
-89.22827277404615
 72
    1
 10
191.25
 20
-89.22827277404615
 11
166.25
 21
-89.22827277404615
 72
    1
 10
166.25
 20
-89.22827277404615
 11
166.25
 21
-64.22827277404615
 97
    0
 75
    0
 76
    1
 52
0
 41
1.1
 77
    0
 78
    0
 98
    0
  0
HATCH
  5
CC
100
AcDbEntity
  8
0
  6
ByLayer
 62
  256
370
   -1
100
AcDbHatch
 10
0
 20
0
 30
0
210
0
220
0
230
1
  2
SOLID
 70
    1
 71
    0
 91
    1
 92
    0
 93
    1
 72
    2
 10
187.4447954226983
 20
-68.08302719835335
 40
0.8
 50
0
 51
360
 73
    1
 97
    0
 75
    0
 76
    1
 98
    0
  0
HATCH
  5
CD
100
AcDbEntity
  8
0
  6
ByLayer
 62
  256
370
   -1
100
AcDbHatch
 10
0
 20
0
 30
0
210
0
220
0
230
1
  2
SOLID
 70
    1
 71
    0
 91
    1
 92
    0
 93
    1
 72
    2
 10
170.0940828968521
 20
-68.08431963096193
 40
0.8
 50
0
 51
360
 73
    1
 97
    0
 75
    0
 76
    1
 98
    0
  0
HATCH
  5
CE
100
AcDbEntity
  8
0
  6
ByLayer
 62
  256
370
   -1
100
AcDbHatch
 10
0
 20
0
 30
0
210
0
220
0
230
1
  2
gost_sand
 70
    0
 71
    0
 91
    1
 92
    0
 93
    4
 72
    1
 10
421.2218275752344
 20
217.6480326253896
 11
446.2218275752344
 21
217.6480326253896
 72
    1
 10
446.2218275752344
 20
217.6480326253896
 11
446.2218275752344
 21
192.6480326253896
 72
    1
 10
446.2218275752344
 20
192.6480326253896
 11
421.2218275752344
 21
192.6480326253896
 72
    1
 10
421.2218275752344
 20
192.6480326253896
 11
421.2218275752344
 21
217.6480326253896
 97
    0
 75
    0
 76
    1
 52
0
 41
1.1
 77
    0
 78
    0
 98
    0
  0
HATCH
  5
CF
100
AcDbEntity
  8
0
  6
ByLayer
 62
    4
370
   -1
100
AcDbHatch
 10
0
 20
0
 30
0
210
0
220
0
230
1
  2
SOLID
 70
    1
 71
    0
 91
    1
 92
    0
 93
    1
 72
    2
 10
442.3926744490938
 20
196.4718969965655
 40
0.8
 50
0
 51
360
 73
    1
 97
    0
 75
    0
 76
    1
 98
    0
  0
HATCH
  5
D0
100
AcDbEntity
  8
0
  6
ByLayer
 62
    4
370
   -1
100
AcDbHatch
 10
0
 20
0
 30
0
210
0
220
0
230
1
  2
SOLID
 70
    1
 71
    0
 91
    1
 92
    0
 93
    1
 72
    2
 10
425.0409839647765
 20
196.4635630177368
 40
0.8
 50
0
 51
360
 73
    1
 97
    0
 75
    0
 76
    1
 98
    0
  0
HATCH
  5
D1
100
AcDbEntity
  8
0
  6
ByLayer
 62
    4
370
   -1
100
AcDbHatch
 10
0
 20
0
 30
0
210
0
220
0
230
1
  2
SOLID
 70
    1
 71
    0
 91
    1
 92
    0
 93
    1
 72
    2
 10
442.4166229979327
 20
213.7932782010824
 40
0.8
 50
0
 51
360
 73
    1
 97
    0
 75
    0
 76
    1
 98
    0
  0
HATCH
  5
D2
100
AcDbEntity
  8
0
  6
ByLayer
 62
    4
370
   -1
100
AcDbHatch
 10
0
 20
0
 30
0
210
0
220
0
230
1
  2
SOLID
 70
    1
 71
    0
 91
    1
 92
    0
 93
    1
 72
    2
 10
425.0659104720865
 20
213.7919857684738
 40
0.8
 50
0
 51
360
 73
    1
 97
    0
 75
    0
 76
    1
 98
    0
  0
HATCH
  5
D3
100
AcDbEntity
  8
0
  6
ByLayer
 62
  256
370
   -1
100
AcDbHatch
 10
0
 20
0
 30
0
210
0
220
0
230
1
  2
gost_sand
 70
    0
 71
    0
 91
    1
 92
    0
 93
    4
 72
    1
 10
118.75
 20
23.5
 11
238.75
 21
23.5
 72
    1
 10
238.75
 20
23.5
 11
238.75
 21
31.5
 72
    1
 10
238.75
 20
31.5
 11
118.75
 21
31.5
 72
    1
 10
118.75
 20
31.5
 11
118.75
 21
23.5
 97
    0
 75
    0
 76
    1
 52
0
 41
0.3
 77
    0
 78
    0
 98
    0
  0
LINE
  5
D4
100
AcDbEntity
  8
0
  6
ByLayer
 62
  256
370
   -1
100
AcDbLine
 10
118.75
 20
23.5
 11
238.75
 21
23.5
  0
LINE
  5
D5
100
AcDbEntity
  8
0
  6
ByLayer
 62
  256
370
   -1
100
AcDbLine
 10
118.75
 20
31.5
 11
238.75
 21
31.5
  0
LINE
  5
D6
100
AcDbEntity
  8
0
  6
ByLayer
 62
  256
370
   -1
100
AcDbLine
 10
118.75
 20
23.5
 11
118.75
 21
31.5
  0
LINE
  5
D7
100
AcDbEntity
  8
0
  6
ByLayer
 62
  256
370
   -1
100
AcDbLine
 10
238.75
 20
23.5
 11
238.75
 21
31.5
  0
LINE
  5
D8
100
AcDbEntity
  8
0
  6
ByLayer
 62
  256
370
   -1
100
AcDbLine
 10
118.75
 20
31.5
 11
118.75
 21
51.5
  0
LINE
  5
D9
100
AcDbEntity
  8
0
  6
ByLayer
 62
  256
370
   -1
100
AcDbLine
 10
238.75
 20
31.5
 11
238.75
 21
51.5
  0
LINE
  5
DA
100
AcDbEntity
  8
0
  6
ByLayer
 62
  256
370
   -1
100
AcDbLine
 10
118.75
 20
51.5
 11
166.25
 21
81.5
  0
LINE
  5
DB
100
AcDbEntity
  8
0
  6
ByLayer
 62
  256
370
   -1
100
AcDbLine
 10
238.75
 20
51.5
 11
191.25
 21
81.5
  0
LINE
  5
DC
100
AcDbEntity
  8
0
  6
ByLayer
 62
  256
370
   -1
100
AcDbLine
 10
166.25
 20
81.5
 11
166.25
 21
241.5
  0
LINE
  5
DD
100
AcDbEntity
  8
0
  6
ByLayer
 62
  256
370
   -1
100
AcDbLine
 10
191.25
 20
81.5
 11
191.25
 21
241.5
  0
LINE
  5
DE
100
AcDbEntity
  8
0
  6
ByLayer
 62
  256
370
   -1
100
AcDbLine
 10
191.25
 20
131.5
 11
236.25
 21
131.5
  0
LINE
  5
DF
100
AcDbEntity
  8
0
  6
ByLayer
 62
  256
370
   -1
100
AcDbLine
 10
166.25
 20
131.5
 11
121.25
 21
131.5
  0
LINE
  5
E0
100
AcDbEntity
  8
0
  6
ByLayer
 62
  256
370
   -1
100
AcDbLine
 10
191.25
 20
196.5
 11
236.25
 21
196.5
  0
LINE
  5
E1
100
AcDbEntity
  8
0
  6
ByLayer
 62
  256
370
   -1
100
AcDbLine
 10
166.2500000000001
 20
196.5
 11
121.25
 21
196.5
  0
ARC
  5
E2
100
AcDbEntity
  8
0
  6
ByLayer
 62
    1
370
   -1
100
AcDbCircle
 10
122.75
 20
38.5
 40
1
100
AcDbArc
 50
180
 51
270
  0
LINE
  5
E3
100
AcDbEntity
  8
0
  6
ByLayer
 62
    1
370
   -1
100
AcDbLine
 10
122.75
 20
37.5
 11
234.75
 21
37.5
  0
ARC
  5
E4
100
AcDbEntity
  8
0
  6
ByLayer
 62
    1
370
   -1
100
AcDbCircle
 10
234.75
 20
38.5
 40
1
100
AcDbArc
 50
270
 51
0
  0
LINE
  5
E5
100
AcDbEntity
  8
0
  6
ByLayer
 62
    1
370
   -1
100
AcDbLine
 10
121.75
 20
38.5
 11
121.75
 21
45
  0
LINE
  5
E6
100
AcDbEntity
  8
0
  6
ByLayer
 62
    1
370
   -1
100
AcDbLine
 10
235.75
 20
38.5
 11
235.75
 21
45
  0
INSERT
  5
E7
100
AcDbEntity
  8
0
  6
ByLayer
 62
    2
370
   -1
100
AcDbBlockReference
  2
16mm dia bar
 10
125.7571294123611
 20
37.49517270949585
 30
0
 41
1
 42
1
 43
0
 50
0
 70
    1
 71
    1
 44
0
 45
0
  0
INSERT
  5
E8
100
AcDbEntity
  8
0
  6
ByLayer
 62
    2
370
   -1
100
AcDbBlockReference
  2
16mm dia bar
 10
140.7571294123611
 20
37.49517270949585
 30
0
 41
1
 42
1
 43
0
 50
0
 70
    1
 71
    1
 44
0
 45
0
  0
INSERT
  5
E9
100
AcDbEntity
  8
0
  6
ByLayer
 62
    2
370
   -1
100
AcDbBlockReference
  2
16mm dia bar
 10
155.7571294123611
 20
37.49517270949585
 30
0
 41
1
 42
1
 43
0
 50
0
 70
    1
 71
    1
 44
0
 45
0
  0
INSERT
  5
EA
100
AcDbEntity
  8
0
  6
ByLayer
 62
    2
370
   -1
100
AcDbBlockReference
  2
16mm dia bar
 10
170.7571294123611
 20
37.49517270949585
 30
0
 41
1
 42
1
 43
0
 50
0
 70
    1
 71
    1
 44
0
 45
0
  0
INSERT
  5
EB
100
AcDbEntity
  8
0
  6
ByLayer
 62
    2
370
   -1
100
AcDbBlockReference
  2
16mm dia bar
 10
185.7571294123611
 20
37.49517270949585
 30
0
 41
1
 42
1
 43
0
 50
0
 70
    1
 71
    1
 44
0
 45
0
  0
INSERT
  5
EC
100
AcDbEntity
  8
0
  6
ByLayer
 62
    2
370
   -1
100
AcDbBlockReference
  2
16mm dia bar
 10
200.7571294123611
 20
37.49517270949585
 30
0
 41
1
 42
1
 43
0
 50
0
 70
    1
 71
    1
 44
0
 45
0
  0
INSERT
  5
ED
100
AcDbEntity
  8
0
  6
ByLayer
 62
    2
370
   -1
100
AcDbBlockReference
  2
16mm dia bar
 10
215.7571294123611
 20
37.49517270949585
 30
0
 41
1
 42
1
 43
0
 50
0
 70
    1
 71
    1
 44
0
 45
0
  0
INSERT
  5
EE
100
AcDbEntity
  8
0
  6
ByLayer
 62
    2
370
   -1
100
AcDbBlockReference
  2
16mm dia bar
 10
230.7571294123611
 20
37.49517270949585
 30
0
 41
1
 42
1
 43
0
 50
0
 70
    1
 71
    1
 44
0
 45
0
  0
LINE
  5
EF
100
AcDbEntity
  8
0
  6
ByLayer
 62
    3
370
   -1
100
AcDbLine
 10
169.25
 20
40.29350876300836
 11
169.25
 21
241.5
  0
ARC
  5
F0
100
AcDbEntity
  8
0
  6
ByLayer
 62
    3
370
   -1
100
AcDbCircle
 10
168.25
 20
40.29350876300836
 40
1
100
AcDbArc
 50
270
 51
0
  0
LINE
  5
F1
100
AcDbEntity
  8
0
  6
ByLayer
 62
    3
370
   -1
100
AcDbLine
 10
188.25
 20
40.256236587873
 11
188.25
 21
241.5
  0
ARC
  5
F2
100
AcDbEntity
  8
0
  6
ByLayer
 62
    3
370
   -1
100
AcDbCircle
 10
189.25
 20
40.256236587873
 40
1
100
AcDbArc
 50
180
 51
270
  0
LINE
  5
F3
100
AcDbEntity
  8
0
  6
ByLayer
 62
    3
370
   -1
100
AcDbLine
 10
168.25
 20
39.29350876300836
 11
138.25
 21
39.29350876300836
  0
LINE
  5
F4
100
AcDbEntity
  8
0
  6
ByLayer
 62
    3
370
   -1
100
AcDbLine
 10
137.25
 20
40.29350876300836
 11
137.25
 21
42.29350876300836
  0
ARC
  5
F5
100
AcDbEntity
  8
0
  6
ByLayer
 62
    3
370
   -1
100
AcDbCircle
 10
138.25
 20
40.29350876300836
 40
1
100
AcDbArc
 50
180
 51
270
  0
LINE
  5
F6
100
AcDbEntity
  8
0
  6
ByLayer
 62
    3
370
   -1
100
AcDbLine
 10
220.25
 20
40.256236587873
 11
220.25
 21
42.256236587873
  0
LINE
  5
F7
100
AcDbEntity
  8
0
  6
ByLayer
 62
    3
370
   -1
100
AcDbLine
 10
189.25
 20
39.256236587873
 11
219.25
 21
39.256236587873
  0
ARC
  5
F8
100
AcDbEntity
  8
0
  6
ByLayer
 62
    3
370
   -1
100
AcDbCircle
 10
219.25
 20
40.256236587873
 40
1
100
AcDbArc
 50
270
 51
0
  0
CIRCLE
  5
F9
100
AcDbEntity
  8
0
  6
ByLayer
 62
  200
420
11141375
370
   -1
100
AcDbCircle
 10
169.25
 20
56.56833152214502
 40
0.8
  0
LINE
  5
FA
100
AcDbEntity
  8
0
  6
ByLayer
 62
  200
420
11141375
370
   -1
100
AcDbLine
 10
169.25
 20
56.53771181810649
 11
188.2526328656186
 21
56.53771181810649
  0
LINE
  5
FB
100
AcDbEntity
  8
0
  6
ByLayer
 62
  200
420
11141375
370
   -1
100
AcDbLine
 10
169.25
 20
75.53771181810649
 11
188.2526328656186
 21
75.53771181810649
  0
LINE
  5
FC
100
AcDbEntity
  8
0
  6
ByLayer
 62
  200
420
11141375
370
   -1
100
AcDbLine
 10
169.25
 20
94.53771181810649
 11
188.2526328656186
 21
94.53771181810649
  0
LINE
  5
FD
100
AcDbEntity
  8
0
  6
ByLayer
 62
  200
420
11141375
370
   -1
100
AcDbLine
 10
169.25
 20
113.5377118181065
 11
188.2526328656186
 21
113.5377118181065
  0
LINE
  5
FE
100
AcDbEntity
  8
0
  6
ByLayer
 62
  200
420
11141375
370
   -1
100
AcDbLine
 10
169.25
 20
132.5377118181065
 11
188.2526328656186
 21
132.5377118181065
  0
LINE
  5
FF
100
AcDbEntity
  8
0
  6
ByLayer
 62
  200
420
11141375
370
   -1
100
AcDbLine
 10
169.25
 20
132.5377118181065
 11
188.2526328656186
 21
132.5377118181065
  0
LINE
  5
100
100
AcDbEntity
  8
0
  6
ByLayer
 62
  200
420
11141375
370
   -1
100
AcDbLine
 10
169.25
 20
151.5377118181065
 11
188.2526328656186
 21
151.5377118181065
  0
LINE
  5
101
100
AcDbEntity
  8
0
  6
ByLayer
 62
  200
420
11141375
370
   -1
100
AcDbLine
 10
169.25
 20
170.5377118181065
 11
188.2526328656186
 21
170.5377118181065
  0
LINE
  5
102
100
AcDbEntity
  8
0
  6
ByLayer
 62
  200
420
11141375
370
   -1
100
AcDbLine
 10
169.25
 20
189.5377118181065
 11
188.2526328656186
 21
189.5377118181065
  0
LINE
  5
103
100
AcDbEntity
  8
0
  6
ByLayer
 62
  200
420
11141375
370
   -1
100
AcDbLine
 10
169.25
 20
208.5377118181065
 11
188.2526328656186
 21
208.5377118181065
  0
LINE
  5
104
100
AcDbEntity
  8
0
  6
ByLayer
 62
  200
420
11141375
370
   -1
100
AcDbLine
 10
169.25
 20
227.5377118181065
 11
188.2526328656186
 21
227.5377118181065
  0
LINE
  5
105
100
AcDbEntity
  8
0
  6
ByLayer
 62
  256
370
   -1
100
AcDbLine
 10
173.5537892744318
 20
241.5
 11
176.776036006706
 21
248.4710257998054
  0
LINE
  5
106
100
AcDbEntity
  8
0
  6
ByLayer
 62
  256
370
   -1
100
AcDbLine
 10
176.776036006706
 20
248.4710257998054
 11
179.4612416169344
 21
235.4030251633604
  0
LINE
  5
107
100
AcDbEntity
  8
0
  6
ByLayer
 62
  256
370
   -1
100
AcDbLine
 10
179.4612416169344
 20
235.4030251633604
 11
183.5785568859513
 21
241.5
  0
LINE
  5
108
100
AcDbEntity
  8
0
  6
ByLayer
 62
  256
370
   -1
100
AcDbLine
 10
166.25
 20
241.5
 11
173.5537892744318
 21
241.5
  0
LINE
  5
109
100
AcDbEntity
  8
0
  6
ByLayer
 62
  256
370
   -1
100
AcDbLine
 10
183.5785568859513
 20
241.5
 11
191.25
 21
241.5
  0
MTEXT
  5
10A
100
AcDbEntity
  8
0
  6
ByLayer
 62
    4
370
   -1
100
AcDbMText
 10
215.5000000000315
 20
125.2500000000183
 30
0
 40
5
 41
8.333333333333645
 71
    4
 72
    1
  1
G.L
  7
STANDARD
210
0
220
0
230
1
 50
0
 73
    2
 44
1
  0
MTEXT
  5
10B
100
AcDbEntity
  8
0
  6
ByLayer
 62
    4
370
   -1
100
AcDbMText
 10
215.7500000000316
 20
189.7500000000278
 30
0
 40
5
 41
8.333333333333334
 71
    4
 72
    1
  1
P.L
  7
STANDARD
210
0
220
0
230
1
 50
0
 73
    2
 44
1
  0
LEADER
  5
10C
100
AcDbEntity
  8
0
  6
ByLayer
 62
    4
370
   -1
100
AcDbLeader
  3
Standard
 71
    1
 72
    0
 73
    3
 74
    0
 75
    0
 40
1
 41
10
 76
3
 76
3
 10
238.75
 20
27.65761778535338
 30
0
 10
251.6037656784089
 20
36.51879629910738
 30
0
 10
267.9835199008027
 20
36.51879629910738
 30
0
  0
MTEXT
  5
10D
100
AcDbEntity
  8
0
  6
ByLayer
 62
    4
370
   -1
100
AcDbMText
 10
270.22119124266
 20
36.78731686013026
 30
0
 40
5
 41
48.74999944444553
 71
    4
 72
    1
  1
Mat conc.(1:3:6)
  7
STANDARD
210
0
220
0
230
1
 50
0
 73
    2
 44
1
  0
LEADER
  5
10E
100
AcDbEntity
  8
0
  6
ByLayer
 62
    4
370
   -1
100
AcDbLeader
  3
Standard
 71
    1
 72
    0
 73
    3
 74
    0
 75
    0
 40
1
 41
10
 76
3
 76
3
 10
188.25
 20
145.2468620737079
 30
0
 10
200.3722562846532
 20
154.3247909533146
 30
0
 10
216.2915228706302
 20
154.3247909533146
 30
0
  0
MTEXT
  5
10F
100
AcDbEntity
  8
0
  6
ByLayer
 62
    4
370
   -1
100
AcDbMText
 10
221.144672879905
 20
154.7910940866707
 30
0
 40
5
 41
82.0833359047716
 71
    4
 72
    1
  1
6 Nos. 16mm %%C main bar
  7
STANDARD
210
0
220
0
230
1
 50
0
 73
    2
 44
1
  0
MTEXT
  5
110
100
AcDbEntity
  8
0
  6
ByLayer
 62
    4
370
   -1
100
AcDbMText
 10
236.5875109938792
 20
222.0756376429535
 30
0
 40
5
 41
78.75000000000149
 71
    4
 72
    1
  1
6mm %%C bar @ 18cm c/c
  7
STANDARD
210
0
220
0
230
1
 50
0
 73
    2
 44
1
  0
LEADER
  5
111
100
AcDbEntity
  8
0
  6
ByLayer
 62
    4
370
   -1
100
AcDbLeader
  3
Standard
 71
    1
 72
    0
 73
    3
 74
    0
 75
    0
 40
1
 41
10
 76
3
 76
3
 10
178.3201407212231
 20
208.5377118181065
 30
0
 10
199.2084432717979
 20
221.1961301671398
 30
0
 10
228.0123131046958
 20
221.1961301671398
 30
0
  0
LINE
  5
112
100
AcDbEntity
  8
0
  6
ByLayer
 62
    4
370
   -1
100
AcDbLine
 10
90.77820902387278
 20
23.50870659698947
 11
69.50842686469181
 21
23.50870659698947
  0
LINE
  5
113
100
AcDbEntity
  8
0
  6
ByLayer
 62
    4
370
   -1
100
AcDbLine
 10
90.77820902387278
 20
31.50870659698947
 11
69.50842686469181
 21
31.50870659698947
  0
LINE
  5
114
100
AcDbEntity
  8
0
  6
ByLayer
 62
    4
370
   -1
100
AcDbLine
 10
90.77820902387278
 20
51.50870659698947
 11
69.50842686469181
 21
51.50870659698947
  0
LINE
  5
115
100
AcDbEntity
  8
0
  6
ByLayer
 62
    4
370
   -1
100
AcDbLine
 10
90.77820902387279
 20
81.50870659698947
 11
69.50842686469183
 21
81.50870659698947
  0
LINE
  5
116
100
AcDbEntity
  8
0
  6
ByLayer
 62
    4
370
   -1
100
AcDbLine
 10
90.77820902387279
 20
81.50870659698947
 11
69.50842686469183
 21
81.50870659698947
  0
LINE
  5
117
100
AcDbEntity
  8
0
  6
ByLayer
 62
    4
370
   -1
100
AcDbLine
 10
90.7782090238728
 20
131.5087065969895
 11
69.50842686469184
 21
131.5087065969895
  0
LINE
  5
118
100
AcDbEntity
  8
0
  6
ByLayer
 62
    4
370
   -1
100
AcDbLine
 10
90.77820902387282
 20
196.5087065969895
 11
69.50842686469186
 21
196.5087065969895
  0
LEADER
  5
119
100
AcDbEntity
  8
0
  6
ByLayer
 62
    4
370
   -1
100
AcDbLeader
  3
Standard
 71
    1
 72
    0
 73
    3
 74
    0
 75
    0
 40
1
 41
10
 76
2
 76
2
 10
80.1433179442823
 20
23.50870659698947
 30
0
 10
80.1433179442823
 20
14.6446899543372
 30
0
  0
LEADER
  5
11A
100
AcDbEntity
  8
0
  6
ByLayer
 62
    4
370
   -1
100
AcDbLeader
  3
Standard
 71
    1
 72
    0
 73
    3
 74
    0
 75
    0
 40
1
 41
10
 76
2
 76
2
 10
80.1433179442823
 20
31.50870659698947
 30
0
 10
80.1433179442823
 20
36.82114645351239
 30
0
  0
LEADER
  5
11B
100
AcDbEntity
  8
0
  6
ByLayer
 62
    4
370
   -1
100
AcDbLeader
  3
Standard
 71
    1
 72
    0
 73
    3
 74
    0
 75
    0
 40
1
 41
10
 76
2
 76
2
 10
80.1433179442823
 20
51.50870659698947
 30
0
 10
80.1433179442823
 20
44.65668641881985
 30
0
  0
LEADER
  5
11C
100
AcDbEntity
  8
0
  6
ByLayer
 62
    4
370
   -1
100
AcDbLeader
  3
Standard
 71
    1
 72
    0
 73
    3
 74
    0
 75
    0
 40
1
 41
10
 76
0
 76
0
  0
LEADER
  5
11D
100
AcDbEntity
  8
0
  6
ByLayer
 62
    4
370
   -1
100
AcDbLeader
  3
Standard
 71
    1
 72
    0
 73
    3
 74
    0
 75
    0
 40
1
 41
10
 76
2
 76
2
 10
80.1433179442823
 20
51.50870659698947
 30
0
 10
80.1433179442823
 20
59.99837288122336
 30
0
  0
LEADER
  5
11E
100
AcDbEntity
  8
0
  6
ByLayer
 62
    4
370
   -1
100
AcDbLeader
  3
Standard
 71
    1
 72
    0
 73
    3
 74
    0
 75
    0
 40
1
 41
10
 76
0
 76
0
  0
LEADER
  5
11F
100
AcDbEntity
  8
0
  6
ByLayer
 62
    4
370
   -1
100
AcDbLeader
  3
Standard
 71
    1
 72
    0
 73
    3
 74
    0
 75
    0
 40
1
 41
10
 76
2
 76
2
 10
80.1433179442823
 20
81.50870659698947
 30
0
 10
80.1433179442823
 20
74.7543532186008
 30
0
  0
LEADER
  5
120
100
AcDbEntity
  8
0
  6
ByLayer
 62
    4
370
   -1
100
AcDbLeader
  3
Standard
 71
    1
 72
    0
 73
    3
 74
    0
 75
    0
 40
1
 41
10
 76
2
 76
2
 10
80.1433179442823
 20
81.50870659698947
 30
0
 10
80.1433179442823
 20
91.32002925773214
 30
0
  0
LEADER
  5
121
100
AcDbEntity
  8
0
  6
ByLayer
 62
    4
370
   -1
100
AcDbLeader
  3
Standard
 71
    1
 72
    0
 73
    3
 74
    0
 75
    0
 40
1
 41
10
 76
2
 76
2
 10
80.1433179442823
 20
131.5087065969895
 30
0
 10
80.1433179442823
 20
124.172966612648
 30
0
  0
LEADER
  5
122
100
AcDbEntity
  8
0
  6
ByLayer
 62
    4
370
   -1
100
AcDbLeader
  3
Standard
 71
    1
 72
    0
 73
    3
 74
    0
 75
    0
 40
1
 41
10
 76
2
 76
2
 10
80.1433179442823
 20
131.5087065969895
 30
0
 10
80.1433179442823
 20
144.6648464638658
 30
0
  0
LEADER
  5
123
100
AcDbEntity
  8
0
  6
ByLayer
 62
    4
370
   -1
100
AcDbLeader
  3
Standard
 71
    1
 72
    0
 73
    3
 74
    0
 75
    0
 40
1
 41
10
 76
2
 76
2
 10
80.1433179442823
 20
196.5087065969895
 30
0
 10
80.1433179442823
 20
187.0207491767657
 30
0
  0
MTEXT
  5
124
100
AcDbEntity
  8
0
  6
ByLayer
 62
    4
370
   -1
100
AcDbMText
 10
77.38407354954376
 20
27.17440722321188
 30
0
 40
3
 41
8.583333333333472
 71
    4
 72
    1
  1
8 cm
  7
STANDARD
210
0
220
0
230
1
 50
0
 73
    2
 44
1
  0
MTEXT
  5
125
100
AcDbEntity
  8
0
  6
ByLayer
 62
    4
370
   -1
100
AcDbMText
 10
65.14659215101126
 20
41.75140712440501
 30
0
 40
3
 41
10.91666666666681
 71
    4
 72
    1
  1
20 cm
  7
STANDARD
210
0
220
0
230
1
 50
0
 73
    2
 44
1
  0
MTEXT
  5
126
100
AcDbEntity
  8
0
  6
ByLayer
 62
    4
370
   -1
100
AcDbMText
 10
65.14659215101126
 20
41.75140712440501
 30
0
 40
3
 41
10.91666666666681
 71
    4
 72
    1
  1
20 cm
  7
STANDARD
210
0
220
0
230
1
 50
0
 73
    2
 44
1
  0
MTEXT
  5
127
100
AcDbEntity
  8
0
  6
ByLayer
 62
    4
370
   -1
100
AcDbMText
 10
76.30429577908501
 20
66.58629584495625
 30
0
 40
3
 41
10.91666666666699
 71
    4
 72
    1
  1
30 cm
  7
STANDARD
210
0
220
0
230
1
 50
0
 73
    2
 44
1
  0
MTEXT
  5
128
100
AcDbEntity
  8
0
  6
ByLayer
 62
    4
370
   -1
100
AcDbMText
 10
76.30429577908502
 20
105.4582955814713
 30
0
 40
3
 41
10.91666666666699
 71
    4
 72
    1
  1
50 cm
  7
STANDARD
210
0
220
0
230
1
 50
0
 73
    2
 44
1
  0
MTEXT
  5
129
100
AcDbEntity
  8
0
  6
ByLayer
 62
    4
370
   -1
100
AcDbMText
 10
75.86801211198848
 20
163.707857327887
 30
0
 40
3
 41
10.91666666666718
 71
    4
 72
    1
  1
65 cm
  7
STANDARD
210
0
220
0
230
1
 50
0
 73
    2
 44
1
  0
LINE
  5
12A
100
AcDbEntity
  8
0
  6
ByLayer
 62
    0
370
   -1
100
AcDbLine
 10
421.2218275752344
 20
217.6480326253896
 11
446.2218275752344
 21
217.6480326253896
  0
LINE
  5
12B
100
AcDbEntity
  8
0
  6
ByLayer
 62
    0
370
   -1
100
AcDbLine
 10
421.2218275752344
 20
192.6480326253896
 11
446.2218275752344
 21
192.6480326253896
  0
LINE
  5
12C
100
AcDbEntity
  8
0
  6
ByLayer
 62
    0
370
   -1
100
AcDbLine
 10
421.2218275752344
 20
192.6480326253896
 11
421.2218275752344
 21
217.6480326253896
  0
LINE
  5
12D
100
AcDbEntity
  8
0
  6
ByLayer
 62
    0
370
   -1
100
AcDbLine
 10
446.2218275752344
 20
217.6480326253896
 11
446.2218275752344
 21
192.6480326253896
  0
ARC
  5
12E
100
AcDbEntity
  8
0
  6
ByLayer
 62
    6
370
   -1
100
AcDbCircle
 10
425.0218275752344
 20
213.8480326253896
 40
0.8
100
AcDbArc
 50
90
 51
180
  0
LINE
  5
12F
100
AcDbEntity
  8
0
  6
ByLayer
 62
    6
370
   -1
100
AcDbLine
 10
425.0218275752344
 20
214.6480326253896
 11
442.4218275752344
 21
214.6480326253896
  0
ARC
  5
130
100
AcDbEntity
  8
0
  6
ByLayer
 62
    6
370
   -1
100
AcDbCircle
 10
442.4218275752344
 20
213.8480326253896
 40
0.8
100
AcDbArc
 50
0
 51
90
  0
LINE
  5
131
100
AcDbEntity
  8
0
  6
ByLayer
 62
    6
370
   -1
100
AcDbLine
 10
443.2218275752344
 20
213.8480326253896
 11
443.2218275752344
 21
196.4480326253896
  0
ARC
  5
132
100
AcDbEntity
  8
0
  6
ByLayer
 62
    6
370
   -1
100
AcDbCircle
 10
442.4218275752345
 20
196.4480326253896
 40
0.8
100
AcDbArc
 50
270
 51
0
  0
LINE
  5
133
100
AcDbEntity
  8
0
  6
ByLayer
 62
    6
370
   -1
100
AcDbLine
 10
424.2218275752344
 20
196.4480326253896
 11
424.2218275752344
 21
213.8480326253896
  0
LINE
  5
134
100
AcDbEntity
  8
0
  6
ByLayer
 62
    6
370
   -1
100
AcDbLine
 10
425.0218275752345
 20
195.6480326253896
 11
442.4218275752345
 21
195.6480326253896
  0
ARC
  5
135
100
AcDbEntity
  8
0
  6
ByLayer
 62
    6
370
   -1
100
AcDbCircle
 10
425.0218275752345
 20
196.4480326253896
 40
0.8
100
AcDbArc
 50
180
 51
270
  0
CIRCLE
  5
136
100
AcDbEntity
  8
0
  6
ByLayer
 62
    4
370
   -1
100
AcDbCircle
 10
425.0659104720865
 20
213.7919857684738
 40
0.8
  0
CIRCLE
  5
137
100
AcDbEntity
  8
0
  6
ByLayer
 62
    4
370
   -1
100
AcDbCircle
 10
442.4166229979327
 20
213.7932782010824
 40
0.8
  0
CIRCLE
  5
138
100
AcDbEntity
  8
0
  6
ByLayer
 62
    4
370
   -1
100
AcDbCircle
 10
425.0409839647765
 20
196.4635630177368
 40
0.8
  0
CIRCLE
  5
139
100
AcDbEntity
  8
0
  6
ByLayer
 62
    4
370
   -1
100
AcDbCircle
 10
442.3926744490938
 20
196.4718969965655
 40
0.8
  0
LEADER
  5
13A
100
AcDbEntity
  8
0
  6
ByLayer
 62
    3
370
   -1
100
AcDbLeader
  3
Standard
 71
    1
 72
    0
 73
    3
 74
    0
 75
    0
 40
1
 41
10
 76
2
 76
2
 10
446.2762314046157
 20
205.1156833155015
 30
0
 10
460.830195671697
 20
205.1156833155015
 30
0
  0
MTEXT
  5
13B
100
AcDbEntity
  8
0
  6
ByLayer
 62
    3
370
   -1
100
AcDbMText
 10
454.6413603992465
 20
206.6118852495005
 30
0
 40
2
 41
7.944444444444754
 71
    4
 72
    1
  1
30 mm
  7
STANDARD
210
0
220
0
230
1
 50
0
 73
    2
 44
1
  0
LEADER
  5
13C
100
AcDbEntity
  8
0
  6
ByLayer
 62
    3
370
   -1
100
AcDbLeader
  3
Standard
 71
    1
 72
    0
 73
    3
 74
    0
 75
    0
 40
1
 41
10
 76
0
 76
0
  0
LEADER
  5
13D
100
AcDbEntity
  8
0
  6
ByLayer
 62
    3
370
   -1
100
AcDbLeader
  3
Standard
 71
    1
 72
    0
 73
    3
 74
    0
 75
    0
 40
1
 41
10
 76
2
 76
2
 10
443.1621134829506
 20
205.1571210148053
 30
0
 10
429.1379183424467
 20
205.1571210148053
 30
0
  0
LEADER
  5
13E
100
AcDbEntity
  8
0
  6
ByLayer
 62
    3
370
   -1
100
AcDbLeader
  3
Standard
 71
    1
 72
    0
 73
    3
 74
    0
 75
    0
 40
1
 41
10
 76
2
 76
2
 10
442.8675740341043
 20
205.1571210148053
 30
0
 10
442.8033282545055
 20
205.1571210148053
 30
0
  0
LEADER
  5
13F
100
AcDbEntity
  8
0
  6
ByLayer
 62
    3
370
   -1
100
AcDbLeader
  3
Standard
 71
    1
 72
    0
 73
    3
 74
    0
 75
    0
 40
1
 41
10
 76
3
 76
3
 10
442.786613360835
 20
214.3329742276921
 30
0
 10
450.843938004291
 20
218.2395558730041
 30
0
 10
461.8311988817311
 20
218.1988623141988
 30
0
  0
MTEXT
  5
140
100
AcDbEntity
  8
0
  6
ByLayer
 62
    3
370
   -1
100
AcDbMText
 10
451.7169657100721
 20
220.0777026554943
 30
0
 40
2
 41
29.94444444444526
 71
    4
 72
    1
  1
16 mm %%C Main Bar Dia
  7
STANDARD
210
0
220
0
230
1
 50
0
 73
    2
 44
1
  0
LEADER
  5
141
100
AcDbEntity
  8
0
  6
ByLayer
 62
    3
370
   -1
100
AcDbLeader
  3
Standard
 71
    1
 72
    0
 73
    3
 74
    0
 75
    0
 40
1
 41
10
 76
3
 76
3
 10
428.3218081966327
 20
214.7729867076796
 30
0
 10
444.7120202918039
 20
230.3470886570332
 30
0
 10
461.7823241751565
 20
230.279079478215
 30
0
  0
MTEXT
  5
142
100
AcDbEntity
  8
0
  6
ByLayer
 62
    3
370
   -1
100
AcDbMText
 10
451.6637145230609
 20
232.6752468755163
 30
0
 40
2
 41
35.16666666666716
 71
    4
 72
    1
  1
6 mm %%C Bar @ 20 cm c/c
  7
STANDARD
210
0
220
0
230
1
 50
0
 73
    2
 44
1
  0
LEADER
  5
143
100
AcDbEntity
  8
0
  6
ByLayer
 62
    3
370
   -1
100
AcDbLeader
  3
Standard
 71
    1
 72
    0
 73
    3
 74
    0
 75
    0
 40
1
 41
10
 76
2
 76
2
 10
416.2218275752344
 20
217.6480326253896
 30
0
 10
416.2218275752344
 20
192.6480326253896
 30
0
  0
LEADER
  5
144
100
AcDbEntity
  8
0
  6
ByLayer
 62
    3
370
   -1
100
AcDbLeader
  3
Standard
 71
    1
 72
    0
 73
    3
 74
    0
 75
    0
 40
1
 41
10
 76
2
 76
2
 10
416.2218275752344
 20
192.6480326253896
 30
0
 10
416.2218275752344
 20
217.6480326253896
 30
0
  0
LEADER
  5
145
100
AcDbEntity
  8
0
  6
ByLayer
 62
    3
370
   -1
100
AcDbLeader
  3
Standard
 71
    1
 72
    0
 73
    3
 74
    0
 75
    0
 40
1
 41
10
 76
2
 76
2
 10
421.2218275752344
 20
187.6480326253896
 30
0
 10
446.2218275752344
 20
187.6480326253896
 30
0
  0
LEADER
  5
146
100
AcDbEntity
  8
0
  6
ByLayer
 62
    3
370
   -1
100
AcDbLeader
  3
Standard
 71
    1
 72
    0
 73
    3
 74
    0
 75
    0
 40
1
 41
10
 76
2
 76
2
 10
446.2218275752344
 20
187.6480326253896
 30
0
 10
421.2218275752344
 20
187.6480326253896
 30
0
  0
MTEXT
  5
147
100
AcDbEntity
  8
0
  6
ByLayer
 62
    3
370
   -1
100
AcDbMText
 10
407.6581661408592
 20
205.2285961469309
 30
0
 40
2
 41
7.277777777777995
 71
    4
 72
    1
  1
25 cm
  7
STANDARD
210
0
220
0
230
1
 50
0
 73
    2
 44
1
  0
MTEXT
  5
148
100
AcDbEntity
  8
0
  6
ByLayer
 62
    3
370
   -1
100
AcDbMText
 10
429.8504449253788
 20
185.4354826364134
 30
0
 40
2
 41
7.277777777777995
 71
    4
 72
    1
  1
25 cm
  7
STANDARD
210
0
220
0
230
1
 50
0
 73
    2
 44
1
  0
LINE
  5
149
100
AcDbEntity
  8
0
  6
ByLayer
 62
    6
370
   -1
100
AcDbLine
 10
426.6924604002758
 20
213.2972153924746
 11
425.6315958970358
 21
214.3576711934231
  0
LINE
  5
14A
100
AcDbEntity
  8
0
  6
ByLayer
 62
    6
370
   -1
100
AcDbLine
 10
442.958359874043
 20
197.0375824215148
 11
441.897495370803
 21
198.0980382224633
  0
LINE
  5
14B
100
AcDbEntity
  8
0
  6
ByLayer
 62
    6
370
   -1
100
AcDbLine
 10
440.7661245209045
 20
196.9666673725648
 11
441.8269890241445
 21
195.9062115716163
  0
LINE
  5
14C
100
AcDbEntity
  8
0
  6
ByLayer
 62
    6
370
   -1
100
AcDbLine
 10
424.5002250471372
 20
213.2263003435246
 11
425.5610895503772
 21
212.1658445425761
  0
LINE
  5
14D
100
AcDbEntity
  8
0
  6
ByLayer
 62
  256
370
   -1
100
AcDbLine
 10
118.75
 20
-126.7669369399765
 11
118.75
 21
-26.76693693997652
  0
LINE
  5
14E
100
AcDbEntity
  8
0
  6
ByLayer
 62
  256
370
   -1
100
AcDbLine
 10
118.75
 20
-26.76693693997652
 11
238.75
 21
-26.76693693997652
  0
LINE
  5
14F
100
AcDbEntity
  8
0
  6
ByLayer
 62
  256
370
   -1
100
AcDbLine
 10
238.75
 20
-26.76693693997652
 11
238.75
 21
-126.7669369399765
  0
LINE
  5
150
100
AcDbEntity
  8
0
  6
ByLayer
 62
  256
370
   -1
100
AcDbLine
 10
238.75
 20
-126.7669369399765
 11
118.75
 21
-126.7669369399765
  0
LINE
  5
151
100
AcDbEntity
  8
0
  6
ByLayer
 62
  256
370
   -1
100
AcDbLine
 10
166.25
 20
-64.22827277404615
 11
191.25
 21
-64.22827277404615
  0
LINE
  5
152
100
AcDbEntity
  8
0
  6
ByLayer
 62
  256
370
   -1
100
AcDbLine
 10
166.25
 20
-89.22827277404615
 11
191.25
 21
-89.22827277404615
  0
LINE
  5
153
100
AcDbEntity
  8
0
  6
ByLayer
 62
  256
370
   -1
100
AcDbLine
 10
166.25
 20
-89.22827277404615
 11
166.25
 21
-64.22827277404615
  0
LINE
  5
154
100
AcDbEntity
  8
0
  6
ByLayer
 62
  256
370
   -1
100
AcDbLine
 10
191.25
 20
-64.22827277404615
 11
191.25
 21
-89.22827277404615
  0
ARC
  5
155
100
AcDbEntity
  8
0
  6
ByLayer
 62
  256
370
   -1
100
AcDbCircle
 10
170.05
 20
-68.02827277404613
 40
0.8
100
AcDbArc
 50
90
 51
180
  0
LINE
  5
156
100
AcDbEntity
  8
0
  6
ByLayer
 62
  256
370
   -1
100
AcDbLine
 10
170.05
 20
-67.22827277404615
 11
187.45
 21
-67.22827277404615
  0
ARC
  5
157
100
AcDbEntity
  8
0
  6
ByLayer
 62
  256
370
   -1
100
AcDbCircle
 10
187.45
 20
-68.02827277404613
 40
0.8
100
AcDbArc
 50
0
 51
90
  0
CIRCLE
  5
158
100
AcDbEntity
  8
0
  6
ByLayer
 62
  256
370
   -1
100
AcDbCircle
 10
170.0940828968521
 20
-68.08431963096193
 40
0.8
  0
CIRCLE
  5
159
100
AcDbEntity
  8
0
  6
ByLayer
 62
  256
370
   -1
100
AcDbCircle
 10
187.4447954226983
 20
-68.08302719835335
 40
0.8
  0
LINE
  5
15A
100
AcDbEntity
  8
0
  6
ByLayer
 62
  256
370
   -1
100
AcDbLine
 10
171.7206328250414
 20
-68.57909000696112
 11
170.6597683218014
 21
-67.51863420601263
  0
LINE
  5
15B
100
AcDbEntity
  8
0
  6
ByLayer
 62
  256
370
   -1
100
AcDbLine
 10
169.5283974719028
 20
-68.65000505591114
 11
170.5892619751428
 21
-69.71046085685963
  0
LINE
  5
15C
100
AcDbEntity
  8
0
  6
ByLayer
 62
    2
370
   -1
100
AcDbLine
 10
128.721859548617
 20
-114.9653479357387
 11
228.7218595486169
 21
-114.9653479357387
  0
LINE
  5
15D
100
AcDbEntity
  8
0
  6
ByLayer
 62
    2
370
   -1
100
AcDbLine
 10
128.721859548617
 20
-99.90614473173954
 11
228.7218595486169
 21
-99.90614473173954
  0
LINE
  5
15E
100
AcDbEntity
  8
0
  6
ByLayer
 62
    2
370
   -1
100
AcDbLine
 10
128.721859548617
 20
-84.67208676613913
 11
166.1831953826866
 21
-84.67208676613913
  0
LINE
  5
15F
100
AcDbEntity
  8
0
  6
ByLayer
 62
    2
370
   -1
100
AcDbLine
 10
191.1831953826866
 20
-84.67208676613913
 11
228.7218595486169
 21
-84.67208676613913
  0
LINE
  5
160
100
AcDbEntity
  8
0
  6
ByLayer
 62
    2
370
   -1
100
AcDbLine
 10
128.721859548617
 20
-69.61531018541527
 11
166.1831953826866
 21
-69.61531018541527
  0
LINE
  5
161
100
AcDbEntity
  8
0
  6
ByLayer
 62
    2
370
   -1
100
AcDbLine
 10
191.1831953826866
 20
-69.61531018541527
 11
228.7218595486169
 21
-69.61531018541527
  0
LINE
  5
162
100
AcDbEntity
  8
0
  6
ByLayer
 62
    2
370
   -1
100
AcDbLine
 10
128.721859548617
 20
-54.91974683316423
 11
228.7218595486169
 21
-54.91974683316423
  0
LINE
  5
163
100
AcDbEntity
  8
0
  6
ByLayer
 62
    2
370
   -1
100
AcDbLine
 10
128.721859548617
 20
-39.88951167637194
 11
228.7218595486169
 21
-39.88951167637194
  0
LINE
  5
164
100
AcDbEntity
  8
0
  6
ByLayer
 62
    2
370
   -1
100
AcDbLine
 10
128.721859548617
 20
-39.88951167637194
 11
125.7228316686575
 21
-39.88951167637194
  0
LINE
  5
165
100
AcDbEntity
  8
0
  6
ByLayer
 62
    2
370
   -1
100
AcDbLine
 10
128.721859548617
 20
-99.90614473173954
 11
125.7228316686575
 21
-99.90614473173954
  0
LINE
  5
166
100
AcDbEntity
  8
0
  6
ByLayer
 62
    2
370
   -1
100
AcDbLine
 10
128.721859548617
 20
-84.67208676613913
 11
125.7228316686575
 21
-84.67208676613913
  0
LINE
  5
167
100
AcDbEntity
  8
0
  6
ByLayer
 62
    2
370
   -1
100
AcDbLine
 10
128.721859548617
 20
-114.9653479357387
 11
125.7228316686575
 21
-114.9653479357387
  0
LINE
  5
168
100
AcDbEntity
  8
0
  6
ByLayer
 62
    2
370
   -1
100
AcDbLine
 10
128.721859548617
 20
-69.61531018541527
 11
125.7228316686575
 21
-69.61531018541527
  0
LINE
  5
169
100
AcDbEntity
  8
0
  6
ByLayer
 62
    2
370
   -1
100
AcDbLine
 10
128.721859548617
 20
-54.91974683316423
 11
125.7228316686575
 21
-54.91974683316423
  0
LINE
  5
16A
100
AcDbEntity
  8
0
  6
ByLayer
 62
    2
370
   -1
100
AcDbLine
 10
228.7218595486169
 20
-39.88951167637194
 11
230.7579894244492
 21
-39.88951167637194
  0
LINE
  5
16B
100
AcDbEntity
  8
0
  6
ByLayer
 62
    2
370
   -1
100
AcDbLine
 10
228.7218595486169
 20
-54.91974683316423
 11
230.756923364194
 21
-54.91974683316423
  0
LINE
  5
16C
100
AcDbEntity
  8
0
  6
ByLayer
 62
    2
370
   -1
100
AcDbLine
 10
228.7218595486169
 20
-69.61531018541527
 11
230.7569599928787
 21
-69.61531018541527
  0
LINE
  5
16D
100
AcDbEntity
  8
0
  6
ByLayer
 62
    2
370
   -1
100
AcDbLine
 10
228.7218595486169
 20
-84.67208676613913
 11
230.7677131044543
 21
-84.67208676613913
  0
LINE
  5
16E
100
AcDbEntity
  8
0
  6
ByLayer
 62
    2
370
   -1
100
AcDbLine
 10
228.7218595486169
 20
-99.90614473173954
 11
230.7577412793769
 21
-99.90614473173954
  0
LINE
  5
16F
100
AcDbEntity
  8
0
  6
ByLayer
 62
    2
370
   -1
100
AcDbLine
 10
228.7218595486169
 20
-114.9653479357387
 11
230.7577279509951
 21
-114.9653479357387
  0
LINE
  5
170
100
AcDbEntity
  8
0
  6
ByLayer
 62
   16
420
8388608
370
   -1
100
AcDbLine
 10
171.0086582327496
 20
-89.22827277404615
 11
171.0086582327496
 21
-114.9653479357387
  0
LINE
  5
171
100
AcDbEntity
  8
0
  6
ByLayer
 62
   16
420
8388608
370
   -1
100
AcDbLine
 10
186.0654348134734
 20
-89.22827277404615
 11
186.0654348134734
 21
-114.9653479357387
  0
LINE
  5
172
100
AcDbEntity
  8
0
  6
ByLayer
 62
   16
420
8388608
370
   -1
100
AcDbLine
 10
125.7228316686575
 20
-39.88951167637194
 11
125.7228316686575
 21
-114.9653479357387
  0
LINE
  5
173
100
AcDbEntity
  8
0
  6
ByLayer
 62
   16
420
8388608
370
   -1
100
AcDbLine
 10
140.71539706315
 20
-39.88951167637194
 11
140.71539706315
 21
-114.9653479357387
  0
LINE
  5
174
100
AcDbEntity
  8
0
  6
ByLayer
 62
   16
420
8388608
370
   -1
100
AcDbLine
 10
155.7746002671491
 20
-39.88951167637194
 11
155.7746002671491
 21
-114.9653479357387
  0
LINE
  5
175
100
AcDbEntity
  8
0
  6
ByLayer
 62
   16
420
8388608
370
   -1
100
AcDbLine
 10
171.0086582327496
 20
-39.88951167637194
 11
171.0086582327496
 21
-64.22827277404615
  0
LINE
  5
176
100
AcDbEntity
  8
0
  6
ByLayer
 62
   16
420
8388608
370
   -1
100
AcDbLine
 10
186.0654348134734
 20
-39.88951167637194
 11
186.0654348134734
 21
-64.22827277404615
  0
LINE
  5
177
100
AcDbEntity
  8
0
  6
ByLayer
 62
   16
420
8388608
370
   -1
100
AcDbLine
 10
200.7609981657245
 20
-39.88951167637194
 11
200.7609981657245
 21
-114.9653479357387
  0
LINE
  5
178
100
AcDbEntity
  8
0
  6
ByLayer
 62
   16
420
8388608
370
   -1
100
AcDbLine
 10
215.7912333225168
 20
-39.88951167637194
 11
215.7912333225168
 21
-114.9653479357387
  0
LINE
  5
179
100
AcDbEntity
  8
0
  6
ByLayer
 62
   16
420
8388608
370
   -1
100
AcDbLine
 10
230.7568989846085
 20
-39.88951167637194
 11
230.7568989846085
 21
-126.7669369399765
  0
MTEXT
  5
17A
100
AcDbEntity
  8
0
  6
ByLayer
 62
    2
370
   -1
100
AcDbMText
 10
163.3417140689872
 20
-153.081556150081
 30
0
 40
10
 41
32.22222222222222
 71
    4
 72
    1
  1
PLAN\P
  7
STANDARD
210
0
220
0
230
1
 50
0
 73
    2
 44
1
  0
LINE
  5
17B
100
AcDbEntity
  8
0
  6
ByLayer
 62
    4
370
   -1
100
AcDbLine
 10
220.5146540124284
 20
-84.67208676613913
 11
252.4795597850429
 21
-69.54526796474235
  0
LINE
  5
17C
100
AcDbEntity
  8
0
  6
ByLayer
 62
    4
370
   -1
100
AcDbLine
 10
252.4795597850429
 20
-69.54526796474235
 11
289.4119846979961
 21
-69.54526796474235
  0
MTEXT
  5
17D
100
AcDbEntity
  8
0
  6
ByLayer
 62
    4
370
   -1
100
AcDbMText
 10
277.0242638104702
 20
-63.20257278046284
 30
0
 40
5
 41
75.13888888889038
 71
    4
 72
    1
  1
16mm %%Cbar @20cm c/c
  7
STANDARD
210
0
220
0
230
1
 50
0
 73
    2
 44
1
  0
LINE
  5
17E
100
AcDbEntity
  8
0
  6
ByLayer
 62
  256
370
   -1
100
AcDbLine
 10
188.25
 20
-68.02827277404613
 11
188.25
 21
-85.42827277404615
  0
ARC
  5
17F
100
AcDbEntity
  8
0
  6
ByLayer
 62
  256
370
   -1
100
AcDbCircle
 10
187.45
 20
-85.42827277404615
 40
0.8
100
AcDbArc
 50
270
 51
0
  0
LINE
  5
180
100
AcDbEntity
  8
0
  6
ByLayer
 62
  256
370
   -1
100
AcDbLine
 10
170.05
 20
-86.22827277404615
 11
187.45
 21
-86.22827277404615
  0
LINE
  5
181
100
AcDbEntity
  8
0
  6
ByLayer
 62
  256
370
   -1
100
AcDbLine
 10
169.25
 20
-85.42827277404615
 11
169.25
 21
-68.02827277404613
  0
ARC
  5
182
100
AcDbEntity
  8
0
  6
ByLayer
 62
  256
370
   -1
100
AcDbCircle
 10
170.05
 20
-85.42827277404615
 40
0.8
100
AcDbArc
 50
180
 51
270
  0
ENDSEC
  0
SECTION
  2
OBJECTS
  0
DICTIONARY
  5
C
330
0
100
AcDbDictionary
281
    1
  3
ACAD_GROUP
350
D
  0
DICTIONARY
  5
D
330
C
100
AcDbDictionary
281
    1
  0
PLOTSETTINGS
  5
183
100
AcDbPlotSettings
  6
1x1
 40
0
 41
0
 42
0
 43
0
  0
ENDSEC
  0
EOF
