999
dxfrw 0.6.3
  0
SECTION
  2
HEADER
  9
$ACADVER
  1
AC1021
  9
$DWGCODEPAGE
  3
ANSI_1252
  9
$INSBASE
 10
0
 20
0
 30
0
  9
$EXTMIN
 10
42.42134753572748
 20
1.614804306320965
 30
0
  9
$EXTMAX
 10
69.82484323791917
 20
11.09879116987546
 30
0
  9
$LIMMIN
 10
0
 20
0
  9
$LIMMAX
 10
420
 20
297
  9
$ORTHOMODE
 70
    1
  9
$REGENMODE
 70
    1
  9
$FILLMODE
 70
    1
  9
$QTEXTMODE
 70
    0
  9
$MIRRTEXT
 70
    0
  9
$LTSCALE
 40
1
  9
$ATTMODE
 70
    1
  9
$TEXTSIZE
 40
2.5
  9
$TRACEWID
 40
1
  9
$TEXTSTYLE
  7
Standard
  9
$CLAYER
  8
hidden line
  9
$CELTYPE
  6
ByLayer
  9
$CECOLOR
 62
  256
  9
$CELTSCALE
 40
1
  9
$DISPSILH
 70
    0
  9
$DIMSCALE
 40
1
  9
$DIMASZ
 40
0.5
  9
$DIMEXO
 40
0.625
  9
$DIMDLI
 40
3.75
  9
$DIMRND
 40
0
  9
$DIMDLE
 40
0
  9
$DIMEXE
 40
1.25
  9
$DIMTP
 40
0
  9
$DIMTM
 40
0
  9
$DIMTXT
 40
0.3
  9
$DIMCEN
 40
2.5
  9
$DIMTSZ
 40
0
  9
$DIMTOL
 70
    0
  9
$DIMLIM
 70
    0
  9
$DIMTIH
 70
    0
  9
$DIMTOH
 70
    0
  9
$DIMSE1
 70
    0
  9
$DIMSE2
 70
    0
  9
$DIMTAD
 70
    1
  9
$DIMZIN
 70
    8
  9
$DIMBLK
  1

  9
$DIMASO
 70
    1
  9
$DIMSHO
 70
    1
  9
$DIMPOST
  1

  9
$DIMAPOST
  1

  9
$DIMALT
 70
    0
  9
$DIMALTD
 70
    3
  9
$DIMALTF
 40
0.03937007874016
  9
$DIMLFAC
 40
1
  9
$DIMTOFL
 70
    1
  9
$DIMTVP
 40
0
  9
$DIMTIX
 70
    0
  9
$DIMSOXD
 70
    0
  9
$DIMSAH
 70
    0
  9
$DIMBLK1
  1

  9
$DIMBLK2
  1

  9
$DIMSTYLE
  2
ISO-25
  9
$DIMCLRD
 70
    0
  9
$DIMCLRE
 70
    0
  9
$DIMCLRT
 70
    0
  9
$DIMTFAC
 40
1
  9
$DIMGAP
 40
0.625
  9
$DIMJUST
 70
    0
  9
$DIMSD1
 70
    0
  9
$DIMSD2
 70
    0
  9
$DIMTOLJ
 70
    0
  9
$DIMTZIN
 70
    8
  9
$DIMALTZ
 70
    0
  9
$DIMALTTZ
 70
    0
  9
$DIMUPT
 70
    0
  9
$DIMDEC
 70
    2
  9
$DIMTDEC
 70
    2
  9
$DIMALTU
 70
    2
  9
$DIMALTTD
 70
    3
  9
$DIMTXSTY
  7
standard
  9
$DIMAUNIT
 70
    0
  9
$DIMADEC
 70
    0
  9
$DIMALTRND
 40
0
  9
$DIMAZIN
 70
    0
  9
$DIMDSEP
 70
    0
  9
$DIMATFIT
 70
    3
  9
$DIMFRAC
 70
    0
  9
$DIMLDRBLK
  1

  9
$DIMLUNIT
 70
    2
  9
$DIMLWD
 70
   -2
  9
$DIMLWE
 70
   -2
  9
$DIMTMOVE
 70
    0
  9
$DIMFXL
 40
0.001
  9
$DIMFXLON
 70
    0
  9
$DIMJOGANG
 40
0.7854
  9
$DIMTFILL
 70
    0
  9
$DIMTFILLCLR
 70
    0
  9
$DIMARCSYM
 70
    0
  9
$DIMLTYPE
  6

  9
$DIMLTEX1
  6

  9
$DIMLTEX2
  6

  9
$LUNITS
 70
    2
  9
$LUPREC
 70
    4
  9
$SKETCHINC
 40
1
  9
$FILLETRAD
 40
0
  9
$AUNITS
 70
    0
  9
$AUPREC
 70
    0
  9
$MENU
  1
.
  9
$ELEVATION
 40
0
  9
$PELEVATION
 40
0
  9
$THICKNESS
 40
0
  9
$LIMCHECK
 70
    0
  9
$CHAMFERA
 40
0
  9
$CHAMFERB
 40
0
  9
$CHAMFERC
 40
0
  9
$CHAMFERD
 40
0
  9
$SKPOLY
 70
    0
  9
$USRTIMER
 70
    1
  9
$ANGBASE
 50
0
  9
$ANGDIR
 70
    0
  9
$PDMODE
 70
    0
  9
$PDSIZE
 40
0
  9
$PLINEWID
 40
0
  9
$SPLFRAME
 70
    0
  9
$SPLINETYPE
 70
    6
  9
$SPLINESEGS
 70
    8
  9
$HANDSEED
  5
20000
  9
$SURFTAB1
 70
    6
  9
$SURFTAB2
 70
    6
  9
$SURFTYPE
 70
    6
  9
$SURFU
 70
    6
  9
$SURFV
 70
    6
  9
$UCSBASE
  2

  9
$UCSNAME
  2

  9
$UCSORG
 10
0
 20
0
 30
0
  9
$UCSXDIR
 10
1
 20
0
 30
0
  9
$UCSYDIR
 10
0
 20
1
 30
0
  9
$UCSORTHOREF
  2

  9
$UCSORTHOVIEW
 70
    0
  9
$UCSORGTOP
 10
0
 20
0
 30
0
  9
$UCSORGBOTTOM
 10
0
 20
0
 30
0
  9
$UCSORGLEFT
 10
0
 20
0
 30
0
  9
$UCSORGRIGHT
 10
0
 20
0
 30
0
  9
$UCSORGFRONT
 10
0
 20
0
 30
0
  9
$UCSORGBACK
 10
0
 20
0
 30
0
  9
$PUCSBASE
  2

  9
$PUCSNAME
  2

  9
$PUCSORG
 10
0
 20
0
 30
0
  9
$PUCSXDIR
 10
1
 20
0
 30
0
  9
$PUCSYDIR
 10
0
 20
1
 30
0
  9
$PUCSORTHOREF
  2

  9
$PUCSORTHOVIEW
 70
    0
  9
$PUCSORGTOP
 10
0
 20
0
 30
0
  9
$PUCSORGBOTTOM
 10
0
 20
0
 30
0
  9
$PUCSORGLEFT
 10
0
 20
0
 30
0
  9
$PUCSORGRIGHT
 10
0
 20
0
 30
0
  9
$PUCSORGFRONT
 10
0
 20
0
 30
0
  9
$PUCSORGBACK
 10
0
 20
0
 30
0
  9
$USERI1
 70
    0
  9
$USERI2
 70
    0
  9
$USERI3
 70
    0
  9
$USERI4
 70
    0
  9
$USERI5
 70
    0
  9
$USERR1
 40
0
  9
$USERR2
 40
0
  9
$USERR3
 40
0
  9
$USERR4
 40
0
  9
$USERR5
 40
0
  9
$WORLDVIEW
 70
    1
  9
$SHADEDGE
 70
    3
  9
$SHADEDIF
 70
   70
  9
$TILEMODE
 70
    1
  9
$MAXACTVP
 70
   64
  9
$PINSBASE
 10
0
 20
0
 30
0
  9
$PLIMCHECK
 70
    0
  9
$PEXTMIN
 10
0
 20
0
 30
0
  9
$PEXTMAX
 10
0
 20
0
 30
0
  9
$GRIDMODE
 70
    1
  9
$SNAPSTYLE
 70
    0
  9
$GRIDUNIT
 10
0
 20
0
  9
$PLIMMIN
 10
0
 20
0
  9
$PLIMMAX
 10
12
 20
9
  9
$UNITMODE
 70
    0
  9
$VISRETAIN
 70
    1
  9
$PLINEGEN
 70
    0
  9
$PSLTSCALE
 70
    1
  9
$TREEDEPTH
 70
 3020
  9
$CMLSTYLE
  2
Standard
  9
$CMLJUST
 70
    0
  9
$CMLSCALE
 40
20
  9
$PROXYGRAPHICS
 70
    1
  9
$MEASUREMENT
 70
    1
  9
$CELWEIGHT
370
   -1
  9
$ENDCAPS
280
    0
  9
$JOINSTYLE
280
    0
  9
$LWDISPLAY
290
    0
  9
$INSUNITS
 70
    6
  9
$HYPERLINKBASE
  1

  9
$STYLESHEET
  1

  9
$XEDIT
290
    1
  9
$CEPSNTYPE
380
    0
  9
$PSTYLEMODE
290
    1
  9
$EXTNAMES
290
    1
  9
$PSVPSCALE
 40
0
  9
$OLESTARTUP
290
    0
  9
$SORTENTS
280
  127
  9
$INDEXCTL
280
    0
  9
$HIDETEXT
280
    1
  9
$XCLIPFRAME
290
    0
  9
$HALOGAP
280
    0
  9
$OBSCOLOR
 70
  257
  9
$OBSLTYPE
280
    0
  9
$INTERSECTIONDISPLAY
280
    0
  9
$INTERSECTIONCOLOR
 70
  257
  9
$DIMASSOC
280
    2
  9
$PROJECTNAME
  1

  9
$CAMERADISPLAY
290
    0
  9
$LENSLENGTH
 40
50
  9
$CAMERAHEIGHT
 40
0
  9
$STEPSPERSEC
 40
2
  9
$STEPSIZE
 40
50
  9
$3DDWFPREC
 40
2
  9
$PSOLWIDTH
 40
5
  9
$PSOLHEIGHT
 40
80
  9
$LOFTANG1
 40
1.570796326794897
  9
$LOFTANG2
 40
1.570796326794897
  9
$LOFTMAG1
 40
0
  9
$LOFTMAG2
 40
0
  9
$LOFTPARAM
 70
    7
  9
$LOFTNORMALS
280
    1
  9
$LATITUDE
 40
1
  9
$LONGITUDE
 40
1
  9
$NORTHDIRECTION
 40
0
  9
$TIMEZONE
 70
-8000
  9
$LIGHTGLYPHDISPLAY
280
    1
  9
$TILEMODELIGHTSYNCH
280
    1
  9
$SOLIDHIST
280
    1
  9
$SHOWHIST
280
    1
  9
$DWFFRAME
280
    2
  9
$DGNFRAME
280
    0
  9
$REALWORLDSCALE
290
    1
  9
$INTERFERECOLOR
 62
    1
  9
$CSHADOW
280
    0
  9
$SHADOWPLANELOCATION
 40
0
  0
ENDSEC
  0
SECTION
  2
CLASSES
  0
ENDSEC
  0
SECTION
  2
TABLES
  0
TABLE
  2
VPORT
  5
8
330
0
100
AcDbSymbolTable
 70
    1
  0
VPORT
  5
31
330
2
100
AcDbSymbolTableRecord
100
AcDbViewportTableRecord
  2
*ACTIVE
 70
    0
 10
0
 20
0
 11
1
 21
1
 12
36.22326647591549
 22
7.191383785659694
 13
0
 23
0
 14
10
 24
10
 15
10
 25
10
 16
0
 26
0
 36
1
 17
0
 27
0
 37
0
 40
17.32417092326393
 41
2.037433155080214
 42
50
 43
0
 44
0
 50
0
 51
0
 71
    0
 72
  100
 73
    1
 74
    3
 75
    0
 76
    1
 77
    0
 78
    0
281
    0
 65
    1
110
0
120
0
130
0
111
1
121
0
131
0
112
0
122
1
132
0
 79
    0
146
0
348
10020
 60
    7
 61
    5
292
1
282
    1
141
0
142
0
 63
  250
421
3358443
  0
ENDTAB
  0
TABLE
  2
LTYPE
  5
5
330
0
100
AcDbSymbolTable
 70
    4
  0
LTYPE
  5
14
330
5
100
AcDbSymbolTableRecord
100
AcDbLinetypeTableRecord
  2
ByBlock
 70
    0
  3

 72
   65
 73
    0
 40
0
  0
LTYPE
  5
15
330
5
100
AcDbSymbolTableRecord
100
AcDbLinetypeTableRecord
  2
ByLayer
 70
    0
  3

 72
   65
 73
    0
 40
0
  0
LTYPE
  5
16
330
5
100
AcDbSymbolTableRecord
100
AcDbLinetypeTableRecord
  2
Continuous
 70
    0
  3
Solid line
 72
   65
 73
    0
 40
0
  0
LTYPE
  5
32
330
5
100
AcDbSymbolTableRecord
100
AcDbLinetypeTableRecord
  2
DOT
 70
    0
  3
Dot . . . . . . . . . . . . . . . . . . . . . .
 72
   65
 73
    2
 40
6.35
 49
0
 74
    0
 49
-6.35
 74
    0
  0
LTYPE
  5
33
330
5
100
AcDbSymbolTableRecord
100
AcDbLinetypeTableRecord
  2
DOTTINY
 70
    0
  3
Dot (.15x) .....................................
 72
   65
 73
    2
 40
0.9525
 49
0
 74
    0
 49
-0.9525
 74
    0
  0
LTYPE
  5
34
330
5
100
AcDbSymbolTableRecord
100
AcDbLinetypeTableRecord
  2
DOT2
 70
    0
  3
Dot (.5x) .....................................
 72
   65
 73
    2
 40
3.175
 49
0
 74
    0
 49
-3.175
 74
    0
  0
LTYPE
  5
35
330
5
100
AcDbSymbolTableRecord
100
AcDbLinetypeTableRecord
  2
DOTX2
 70
    0
  3
Dot (2x) .  .  .  .  .  .  .  .  .  .  .  .  .
 72
   65
 73
    2
 40
12.7
 49
0
 74
    0
 49
-12.7
 74
    0
  0
LTYPE
  5
36
330
5
100
AcDbSymbolTableRecord
100
AcDbLinetypeTableRecord
  2
DASHED
 70
    0
  3
Dashed _ _ _ _ _ _ _ _ _ _ _ _ _ _ _ _ _
 72
   65
 73
    2
 40
19.05
 49
12.7
 74
    0
 49
-6.35
 74
    0
  0
LTYPE
  5
37
330
5
100
AcDbSymbolTableRecord
100
AcDbLinetypeTableRecord
  2
DASHEDTINY
 70
    0
  3
Dashed (.15x) _ _ _ _ _ _ _ _ _ _ _ _ _ _ _ _ _
 72
   65
 73
    2
 40
2.8575
 49
1.905
 74
    0
 49
-0.9525
 74
    0
  0
LTYPE
  5
38
330
5
100
AcDbSymbolTableRecord
100
AcDbLinetypeTableRecord
  2
DASHED2
 70
    0
  3
Dashed (.5x) _ _ _ _ _ _ _ _ _ _ _ _ _ _ _ _ _
 72
   65
 73
    2
 40
9.524999999999999
 49
6.35
 74
    0
 49
-3.175
 74
    0
  0
LTYPE
  5
39
330
5
100
AcDbSymbolTableRecord
100
AcDbLinetypeTableRecord
  2
DASHEDX2
 70
    0
  3
Dashed (2x) ____  ____  ____  ____  ____  ___
 72
   65
 73
    2
 40
38.09999999999999
 49
25.4
 74
    0
 49
-12.7
 74
    0
  0
LTYPE
  5
3A
330
5
100
AcDbSymbolTableRecord
100
AcDbLinetypeTableRecord
  2
DASHDOT
 70
    0
  3
Dash dot __ . __ . __ . __ . __ . __ . __ . __
 72
   65
 73
    4
 40
25.4
 49
12.7
 74
    0
 49
-6.35
 74
    0
 49
0
 74
    0
 49
-6.35
 74
    0
  0
LTYPE
  5
3B
330
5
100
AcDbSymbolTableRecord
100
AcDbLinetypeTableRecord
  2
DASHDOTTINY
 70
    0
  3
Dash dot (.15x) _._._._._._._._._._._._._._._.
 72
   65
 73
    4
 40
3.81
 49
1.905
 74
    0
 49
-0.9525
 74
    0
 49
0
 74
    0
 49
-0.9525
 74
    0
  0
LTYPE
  5
3C
330
5
100
AcDbSymbolTableRecord
100
AcDbLinetypeTableRecord
  2
DASHDOT2
 70
    0
  3
Dash dot (.5x) _._._._._._._._._._._._._._._.
 72
   65
 73
    4
 40
12.7
 49
6.35
 74
    0
 49
-3.175
 74
    0
 49
0
 74
    0
 49
-3.175
 74
    0
  0
LTYPE
  5
3D
330
5
100
AcDbSymbolTableRecord
100
AcDbLinetypeTableRecord
  2
DASHDOTX2
 70
    0
  3
Dash dot (2x) ____  .  ____  .  ____  .  ___
 72
   65
 73
    4
 40
50.8
 49
25.4
 74
    0
 49
-12.7
 74
    0
 49
0
 74
    0
 49
-12.7
 74
    0
  0
LTYPE
  5
3E
330
5
100
AcDbSymbolTableRecord
100
AcDbLinetypeTableRecord
  2
DIVIDE
 70
    0
  3
Divide ____ . . ____ . . ____ . . ____ . . ____
 72
   65
 73
    6
 40
31.75
 49
12.7
 74
    0
 49
-6.35
 74
    0
 49
0
 74
    0
 49
-6.35
 74
    0
 49
0
 74
    0
 49
-6.35
 74
    0
  0
LTYPE
  5
3F
330
5
100
AcDbSymbolTableRecord
100
AcDbLinetypeTableRecord
  2
DIVIDETINY
 70
    0
  3
Divide (.15x) __..__..__..__..__..__..__..__.._
 72
   65
 73
    6
 40
4.7625
 49
1.905
 74
    0
 49
-0.9525
 74
    0
 49
0
 74
    0
 49
-0.9525
 74
    0
 49
0
 74
    0
 49
-0.9525
 74
    0
  0
LTYPE
  5
40
330
5
100
AcDbSymbolTableRecord
100
AcDbLinetypeTableRecord
  2
DIVIDE2
 70
    0
  3
Divide (.5x) __..__..__..__..__..__..__..__.._
 72
   65
 73
    6
 40
15.875
 49
6.35
 74
    0
 49
-3.175
 74
    0
 49
0
 74
    0
 49
-3.175
 74
    0
 49
0
 74
    0
 49
-3.175
 74
    0
  0
LTYPE
  5
41
330
5
100
AcDbSymbolTableRecord
100
AcDbLinetypeTableRecord
  2
DIVIDEX2
 70
    0
  3
Divide (2x) ________  .  .  ________  .  .  _
 72
   65
 73
    6
 40
63.5
 49
25.4
 74
    0
 49
-12.7
 74
    0
 49
0
 74
    0
 49
-12.7
 74
    0
 49
0
 74
    0
 49
-12.7
 74
    0
  0
LTYPE
  5
42
330
5
100
AcDbSymbolTableRecord
100
AcDbLinetypeTableRecord
  2
BORDER
 70
    0
  3
Border __ __ . __ __ . __ __ . __ __ . __ __ .
 72
   65
 73
    6
 40
44.45
 49
12.7
 74
    0
 49
-6.35
 74
    0
 49
12.7
 74
    0
 49
-6.35
 74
    0
 49
0
 74
    0
 49
-6.35
 74
    0
  0
LTYPE
  5
43
330
5
100
AcDbSymbolTableRecord
100
AcDbLinetypeTableRecord
  2
BORDERTINY
 70
    0
  3
Border (.15x) __.__.__.__.__.__.__.__.__.__.__.
 72
   65
 73
    6
 40
6.6675
 49
1.905
 74
    0
 49
-0.9525
 74
    0
 49
1.905
 74
    0
 49
-0.9525
 74
    0
 49
0
 74
    0
 49
-0.9525
 74
    0
  0
LTYPE
  5
44
330
5
100
AcDbSymbolTableRecord
100
AcDbLinetypeTableRecord
  2
BORDER2
 70
    0
  3
Border (.5x) __.__.__.__.__.__.__.__.__.__.__.
 72
   65
 73
    6
 40
22.225
 49
6.35
 74
    0
 49
-3.175
 74
    0
 49
6.35
 74
    0
 49
-3.175
 74
    0
 49
0
 74
    0
 49
-3.175
 74
    0
  0
LTYPE
  5
45
330
5
100
AcDbSymbolTableRecord
100
AcDbLinetypeTableRecord
  2
BORDERX2
 70
    0
  3
Border (2x) ____  ____  .  ____  ____  .  ___
 72
   65
 73
    6
 40
88.89999999999999
 49
25.4
 74
    0
 49
-12.7
 74
    0
 49
25.4
 74
    0
 49
-12.7
 74
    0
 49
0
 74
    0
 49
-12.7
 74
    0
  0
LTYPE
  5
46
330
5
100
AcDbSymbolTableRecord
100
AcDbLinetypeTableRecord
  2
CENTER
 70
    0
  3
Center ____ _ ____ _ ____ _ ____ _ ____ _ ____
 72
   65
 73
    4
 40
50.8
 49
31.75
 74
    0
 49
-6.35
 74
    0
 49
6.35
 74
    0
 49
-6.35
 74
    0
  0
LTYPE
  5
47
330
5
100
AcDbSymbolTableRecord
100
AcDbLinetypeTableRecord
  2
CENTERTINY
 70
    0
  3
Center (.15x) ___ _ ___ _ ___ _ ___ _ ___ _ ___
 72
   65
 73
    4
 40
7.62
 49
4.7625
 74
    0
 49
-0.9525
 74
    0
 49
0.9525
 74
    0
 49
-0.9525
 74
    0
  0
LTYPE
  5
48
330
5
100
AcDbSymbolTableRecord
100
AcDbLinetypeTableRecord
  2
CENTER2
 70
    0
  3
Center (.5x) ___ _ ___ _ ___ _ ___ _ ___ _ ___
 72
   65
 73
    4
 40
28.575
 49
19.05
 74
    0
 49
-3.175
 74
    0
 49
3.175
 74
    0
 49
-3.175
 74
    0
  0
LTYPE
  5
49
330
5
100
AcDbSymbolTableRecord
100
AcDbLinetypeTableRecord
  2
CENTERX2
 70
    0
  3
Center (2x) ________  __  ________  __  _____
 72
   65
 73
    4
 40
101.6
 49
63.5
 74
    0
 49
-12.7
 74
    0
 49
12.7
 74
    0
 49
-12.7
 74
    0
  0
ENDTAB
  0
TABLE
  2
LAYER
  5
2
330
0
100
AcDbSymbolTable
 70
    1
  0
LAYER
  5
10
330
2
100
AcDbSymbolTableRecord
100
AcDbLayerTableRecord
  2
0
 70
    0
 62
    7
  6
CONTINUOUS
370
   -3
390
F
  0
LAYER
  5
4A
330
2
100
AcDbSymbolTableRecord
100
AcDbLayerTableRecord
  2
hidden line
 70
    0
 62
    7
  6
CONTINUOUS
370
   -3
390
F
  0
ENDTAB
  0
TABLE
  2
STYLE
  5
3
330
0
100
AcDbSymbolTable
 70
    3
  0
STYLE
  5
4B
330
2
100
AcDbSymbolTableRecord
100
AcDbTextStyleTableRecord
  2
Standard
 70
    0
 40
0
 41
1
 50
0
 71
    0
 42
1
  3
txt
  4

  0
ENDTAB
  0
TABLE
  2
VIEW
  5
6
330
0
100
AcDbSymbolTable
 70
    0
  0
ENDTAB
  0
TABLE
  2
UCS
  5
7
330
0
100
AcDbSymbolTable
 70
    0
  0
ENDTAB
  0
TABLE
  2
APPID
  5
9
330
0
100
AcDbSymbolTable
 70
    1
  0
APPID
  5
12
330
9
100
AcDbSymbolTableRecord
100
AcDbRegAppTableRecord
  2
ACAD
 70
    0
  0
APPID
  5
4C
330
9
100
AcDbSymbolTableRecord
100
AcDbRegAppTableRecord
  2
LibreCad
 70
    0
  0
ENDTAB
  0
TABLE
  2
DIMSTYLE
  5
A
330
0
100
AcDbSymbolTable
 70
    1
100
AcDbDimStyleTable
 71
    1
  0
DIMSTYLE
105
4D
330
A
100
AcDbSymbolTableRecord
100
AcDbDimStyleTableRecord
  2
Standard
 70
    0
 40
1
 41
0.5
 42
0.625
 43
0.38
 44
1.25
 45
0
 46
0
 47
0
 48
0
 49
0.001
140
0.3
141
0.09
142
0
143
25.4
144
1
145
0
146
1
147
0.625
148
0
 71
    0
 72
    0
 73
    0
 74
    1
 75
    0
 76
    0
 77
    0
 78
    8
 79
    0
170
    0
171
    2
172
    0
173
    0
174
    0
175
    0
176
    0
177
    0
178
    0
179
    0
271
    2
272
    4
273
    2
274
    2
275
    0
276
    0
277
    2
278
    0
279
    0
280
    0
281
    0
282
    0
283
    1
284
    0
285
    0
286
    0
288
    0
289
    3
340
standard
341

371
   -2
372
   -2
  0
ENDTAB
  0
TABLE
  2
BLOCK_RECORD
  5
1
330
0
100
AcDbSymbolTable
 70
    2
  0
BLOCK_RECORD
  5
1F
330
1
100
AcDbSymbolTableRecord
100
AcDbBlockTableRecord
  2
*Model_Space
 70
    0
280
    1
281
    0
  0
BLOCK_RECORD
  5
1E
330
1
100
AcDbSymbolTableRecord
100
AcDbBlockTableRecord
  2
*Paper_Space
 70
    0
280
    1
281
    0
  0
BLOCK_RECORD
  5
4E
330
1
100
AcDbSymbolTableRecord
100
AcDbBlockTableRecord
  2
*D5
 70
    0
280
    1
281
    0
  0
BLOCK_RECORD
  5
51
330
1
100
AcDbSymbolTableRecord
100
AcDbBlockTableRecord
  2
*D6
 70
    0
280
    1
281
    0
  0
BLOCK_RECORD
  5
54
330
1
100
AcDbSymbolTableRecord
100
AcDbBlockTableRecord
  2
*D4
 70
    0
280
    1
281
    0
  0
BLOCK_RECORD
  5
57
330
1
100
AcDbSymbolTableRecord
100
AcDbBlockTableRecord
  2
*D3
 70
    0
280
    1
281
    0
  0
BLOCK_RECORD
  5
5A
330
1
100
AcDbSymbolTableRecord
100
AcDbBlockTableRecord
  2
*D1
 70
    0
280
    1
281
    0
  0
BLOCK_RECORD
  5
5D
330
1
100
AcDbSymbolTableRecord
100
AcDbBlockTableRecord
  2
*D2
 70
    0
280
    1
281
    0
  0
ENDTAB
  0
ENDSEC
  0
SECTION
  2
BLOCKS
  0
BLOCK
  5
20
330
1F
100
AcDbEntity
  8
0
100
AcDbBlockBegin
  2
*Model_Space
 70
    0
 10
0
 20
0
 30
0
  3
*Model_Space
  1

  0
ENDBLK
  5
21
330
1F
100
AcDbEntity
  8
0
100
AcDbBlockEnd
  0
BLOCK
  5
1C
330
1B
100
AcDbEntity
  8
0
100
AcDbBlockBegin
  2
*Paper_Space
 70
    0
 10
0
 20
0
 30
0
  3
*Paper_Space
  1

  0
ENDBLK
  5
1D
330
1F
100
AcDbEntity
  8
0
100
AcDbBlockEnd
  0
BLOCK
  5
4F
330
4E
100
AcDbEntity
  8
0
100
AcDbBlockBegin
  2
*D5
 70
    1
 10
0
 20
0
  3
*D5
  1

  0
LINE
  5
60
100
AcDbEntity
  8
hidden line
  6
ByBlock
 62
    0
370
   -2
100
AcDbLine
 10
68.57484323791917
 20
8.498737087291371
 11
68.57484323791917
 21
4.838737087291367
  0
MTEXT
  5
61
100
AcDbEntity
  8
hidden line
  6
CONTINUOUS
 62
    0
370
   -2
100
AcDbMText
 10
67.79984323791916
 20
6.668737087291369
 30
0
 40
0.3
 41
0.7000000000000558
 71
    5
 72
    1
  1
3.66
  7
standard
210
0
220
0
230
1
 50
90
 73
    2
 44
1
  0
SOLID
  5
62
100
AcDbEntity
  8
hidden line
  6
ByBlock
 62
    0
370
   -2
100
AcDbTrace
 10
68.57484323791917
 20
8.498737087291371
 30
0
 11
68.65810016947374
 21
7.998737087291371
 31
0
 12
68.4915863063646
 22
7.998737087291371
 32
0
 13
68.4915863063646
 23
7.998737087291371
 33
0
  0
SOLID
  5
63
100
AcDbEntity
  8
hidden line
  6
ByBlock
 62
    0
370
   -2
100
AcDbTrace
 10
68.57484323791917
 20
4.838737087291367
 30
0
 11
68.4915863063646
 21
5.338737087291367
 31
0
 12
68.65810016947374
 22
5.338737087291367
 32
0
 13
68.65810016947374
 23
5.338737087291367
 33
0
  0
LINE
  5
64
100
AcDbEntity
  8
hidden line
  6
ByBlock
 62
    0
370
   -2
100
AcDbLine
 10
67.61682440303643
 20
8.498737087291371
 11
69.82484323791917
 21
8.498737087291371
  0
LINE
  5
65
100
AcDbEntity
  8
hidden line
  6
ByBlock
 62
    0
370
   -2
100
AcDbLine
 10
67.61682440303643
 20
4.838737087291367
 11
69.82484323791917
 21
4.838737087291367
  0
ENDBLK
  5
50
330
4E
100
AcDbEntity
  8
0
100
AcDbBlockEnd
  0
BLOCK
  5
52
330
51
100
AcDbEntity
  8
0
100
AcDbBlockBegin
  2
*D6
 70
    1
 10
0
 20
0
  3
*D6
  1

  0
LINE
  5
66
100
AcDbEntity
  8
hidden line
  6
ByBlock
 62
    0
370
   -2
100
AcDbLine
 10
43.86603351848981
 20
7.241693790971586
 11
46.08459684999863
 21
7.241693790971586
  0
MTEXT
  5
67
100
AcDbEntity
  8
hidden line
  6
CONTINUOUS
 62
    0
370
   -2
100
AcDbMText
 10
46.05959684999863
 20
8.016693790971585
 30
0
 40
0.3
 41
0.7
 71
    5
 72
    1
  1
0.22
  7
standard
210
0
220
0
230
1
 50
0
 73
    2
 44
1
  0
SOLID
  5
68
100
AcDbEntity
  8
hidden line
  6
ByBlock
 62
    0
370
   -2
100
AcDbTrace
 10
44.86603351848981
 20
7.241693790971586
 30
0
 11
44.36603351848981
 21
7.158436859417018
 31
0
 12
44.36603351848981
 22
7.324950722526154
 32
0
 13
44.36603351848981
 23
7.324950722526154
 33
0
  0
SOLID
  5
69
100
AcDbEntity
  8
hidden line
  6
ByBlock
 62
    0
370
   -2
100
AcDbTrace
 10
45.08459684999863
 20
7.241693790971586
 30
0
 11
45.58459684999863
 21
7.324950722526154
 31
0
 12
45.58459684999863
 22
7.158436859417018
 32
0
 13
45.58459684999863
 23
7.158436859417018
 33
0
  0
LINE
  5
6A
100
AcDbEntity
  8
hidden line
  6
ByBlock
 62
    0
370
   -2
100
AcDbLine
 10
44.86603351848981
 20
7.679891889804674
 11
44.86603351848981
 21
8.491693790971585
  0
LINE
  5
6B
100
AcDbEntity
  8
hidden line
  6
ByBlock
 62
    0
370
   -2
100
AcDbLine
 10
45.08459684999863
 20
7.679891889804674
 11
45.08459684999863
 21
8.491693790971585
  0
ENDBLK
  5
53
330
51
100
AcDbEntity
  8
0
100
AcDbBlockEnd
  0
BLOCK
  5
55
330
54
100
AcDbEntity
  8
0
100
AcDbBlockBegin
  2
*D4
 70
    1
 10
0
 20
0
  3
*D4
  1

  0
LINE
  5
6C
100
AcDbEntity
  8
hidden line
  6
ByBlock
 62
    0
370
   -2
100
AcDbLine
 10
43.67134753572748
 20
8.498737087291374
 11
43.67134753572748
 21
4.838737087291371
  0
MTEXT
  5
6D
100
AcDbEntity
  8
hidden line
  6
CONTINUOUS
 62
    0
370
   -2
100
AcDbMText
 10
42.89634753572748
 20
6.668737087291372
 30
0
 40
0.3
 41
0.7000000000000558
 71
    5
 72
    1
  1
3.66
  7
standard
210
0
220
0
230
1
 50
90
 73
    2
 44
1
  0
SOLID
  5
6E
100
AcDbEntity
  8
hidden line
  6
ByBlock
 62
    0
370
   -2
100
AcDbTrace
 10
43.67134753572748
 20
8.498737087291374
 30
0
 11
43.75460446728204
 21
7.998737087291374
 31
0
 12
43.58809060417291
 22
7.998737087291374
 32
0
 13
43.58809060417291
 23
7.998737087291374
 33
0
  0
SOLID
  5
6F
100
AcDbEntity
  8
hidden line
  6
ByBlock
 62
    0
370
   -2
100
AcDbTrace
 10
43.67134753572748
 20
4.838737087291371
 30
0
 11
43.58809060417291
 21
5.338737087291371
 31
0
 12
43.75460446728204
 22
5.338737087291371
 32
0
 13
43.75460446728204
 23
5.338737087291371
 33
0
  0
LINE
  5
70
100
AcDbEntity
  8
hidden line
  6
ByBlock
 62
    0
370
   -2
100
AcDbLine
 10
43.80682440303644
 20
8.498737087291374
 11
42.42134753572748
 21
8.498737087291374
  0
LINE
  5
71
100
AcDbEntity
  8
hidden line
  6
ByBlock
 62
    0
370
   -2
100
AcDbLine
 10
43.80682440303643
 20
4.838737087291371
 11
42.42134753572748
 21
4.838737087291371
  0
ENDBLK
  5
56
330
54
100
AcDbEntity
  8
0
100
AcDbBlockEnd
  0
BLOCK
  5
58
330
57
100
AcDbEntity
  8
0
100
AcDbBlockBegin
  2
*D3
 70
    1
 10
0
 20
0
  3
*D3
  1

  0
LINE
  5
72
100
AcDbEntity
  8
hidden line
  6
ByBlock
 62
    0
370
   -2
100
AcDbLine
 10
44.43182440303643
 20
2.864804306320965
 11
46.87182440303643
 21
2.864804306320965
  0
MTEXT
  5
73
100
AcDbEntity
  8
hidden line
  6
CONTINUOUS
 62
    0
370
   -2
100
AcDbMText
 10
45.65182440303643
 20
3.639804306320965
 30
0
 40
0.3
 41
0.7666666666666666
 71
    5
 72
    1
  1
2.44
  7
standard
210
0
220
0
230
1
 50
0
 73
    2
 44
1
  0
SOLID
  5
74
100
AcDbEntity
  8
hidden line
  6
ByBlock
 62
    0
370
   -2
100
AcDbTrace
 10
44.43182440303643
 20
2.864804306320965
 30
0
 11
44.93182440303643
 21
2.948061237875533
 31
0
 12
44.93182440303643
 22
2.781547374766397
 32
0
 13
44.93182440303643
 23
2.781547374766397
 33
0
  0
SOLID
  5
75
100
AcDbEntity
  8
hidden line
  6
ByBlock
 62
    0
370
   -2
100
AcDbTrace
 10
46.87182440303643
 20
2.864804306320965
 30
0
 11
46.37182440303643
 21
2.781547374766397
 31
0
 12
46.37182440303643
 22
2.948061237875533
 32
0
 13
46.37182440303643
 23
2.948061237875533
 33
0
  0
LINE
  5
76
100
AcDbEntity
  8
hidden line
  6
ByBlock
 62
    0
370
   -2
100
AcDbLine
 10
44.43182440303643
 20
4.213737087291371
 11
44.43182440303643
 21
1.614804306320965
  0
LINE
  5
77
100
AcDbEntity
  8
hidden line
  6
ByBlock
 62
    0
370
   -2
100
AcDbLine
 10
46.87182440303643
 20
4.213737087291371
 11
46.87182440303643
 21
1.614804306320965
  0
ENDBLK
  5
59
330
57
100
AcDbEntity
  8
0
100
AcDbBlockEnd
  0
BLOCK
  5
5B
330
5A
100
AcDbEntity
  8
0
100
AcDbBlockBegin
  2
*D1
 70
    1
 10
0
 20
0
  3
*D1
  1

  0
LINE
  5
78
100
AcDbEntity
  8
hidden line
  6
ByBlock
 62
    0
370
   -2
100
AcDbLine
 10
44.43182440303644
 20
9.848791169875462
 11
66.99182440303643
 21
9.848791169875462
  0
MTEXT
  5
79
100
AcDbEntity
  8
hidden line
  6
CONTINUOUS
 62
    0
370
   -2
100
AcDbMText
 10
55.71182440303643
 20
10.62379116987546
 30
0
 40
0.3
 41
0.9333333333333705
 71
    5
 72
    1
  1
22.56
  7
standard
210
0
220
0
230
1
 50
0
 73
    2
 44
1
  0
SOLID
  5
7A
100
AcDbEntity
  8
hidden line
  6
ByBlock
 62
    0
370
   -2
100
AcDbTrace
 10
44.43182440303644
 20
9.848791169875462
 30
0
 11
44.93182440303644
 21
9.932048101430029
 31
0
 12
44.93182440303644
 22
9.765534238320893
 32
0
 13
44.93182440303644
 23
9.765534238320893
 33
0
  0
SOLID
  5
7B
100
AcDbEntity
  8
hidden line
  6
ByBlock
 62
    0
370
   -2
100
AcDbTrace
 10
66.99182440303643
 20
9.848791169875462
 30
0
 11
66.49182440303643
 21
9.765534238320894
 31
0
 12
66.49182440303643
 22
9.932048101430029
 32
0
 13
66.49182440303643
 23
9.932048101430029
 33
0
  0
LINE
  5
7C
100
AcDbEntity
  8
hidden line
  6
ByBlock
 62
    0
370
   -2
100
AcDbLine
 10
44.43182440303644
 20
9.123737087291374
 11
44.43182440303644
 21
11.09879116987546
  0
LINE
  5
7D
100
AcDbEntity
  8
hidden line
  6
ByBlock
 62
    0
370
   -2
100
AcDbLine
 10
66.99182440303643
 20
9.123737087291371
 11
66.99182440303643
 21
11.09879116987546
  0
ENDBLK
  5
5C
330
5A
100
AcDbEntity
  8
0
100
AcDbBlockEnd
  0
BLOCK
  5
5E
330
5D
100
AcDbEntity
  8
0
100
AcDbBlockBegin
  2
*D2
 70
    1
 10
0
 20
0
  3
*D2
  1

  0
LINE
  5
7E
100
AcDbEntity
  8
hidden line
  6
ByBlock
 62
    0
370
   -2
100
AcDbLine
 10
64.55182440303643
 20
3.090379448550963
 11
66.99182440303643
 21
3.090379448550963
  0
MTEXT
  5
7F
100
AcDbEntity
  8
hidden line
  6
CONTINUOUS
 62
    0
370
   -2
100
AcDbMText
 10
65.77182440303643
 20
3.865379448550963
 30
0
 40
0.3
 41
0.7666666666666666
 71
    5
 72
    1
  1
2.44
  7
standard
210
0
220
0
230
1
 50
0
 73
    2
 44
1
  0
SOLID
  5
80
100
AcDbEntity
  8
hidden line
  6
ByBlock
 62
    0
370
   -2
100
AcDbTrace
 10
64.55182440303643
 20
3.090379448550963
 30
0
 11
65.05182440303643
 21
3.173636380105531
 31
0
 12
65.05182440303643
 22
3.007122516996395
 32
0
 13
65.05182440303643
 23
3.007122516996395
 33
0
  0
SOLID
  5
81
100
AcDbEntity
  8
hidden line
  6
ByBlock
 62
    0
370
   -2
100
AcDbTrace
 10
66.99182440303643
 20
3.090379448550963
 30
0
 11
66.49182440303643
 21
3.007122516996395
 31
0
 12
66.49182440303643
 22
3.173636380105531
 32
0
 13
66.49182440303643
 23
3.173636380105531
 33
0
  0
LINE
  5
82
100
AcDbEntity
  8
hidden line
  6
ByBlock
 62
    0
370
   -2
100
AcDbLine
 10
64.55182440303643
 20
4.213737087291368
 11
64.55182440303643
 21
1.840379448550963
  0
LINE
  5
83
100
AcDbEntity
  8
hidden line
  6
ByBlock
 62
    0
370
   -2
100
AcDbLine
 10
66.99182440303643
 20
4.213737087291367
 11
66.99182440303643
 21
1.840379448550963
  0
ENDBLK
  5
5F
330
5D
100
AcDbEntity
  8
0
100
AcDbBlockEnd
  0
ENDSEC
  0
SECTION
  2
ENTITIES
  0
LINE
  5
84
100
AcDbEntity
  8
0
  6
ByLayer
 62
  256
370
   -1
100
AcDbLine
 10
44.43182440303644
 20
8.498737087291374
 11
66.99182440303643
 21
8.498737087291371
  0
LINE
  5
85
100
AcDbEntity
  8
0
  6
ByLayer
 62
  256
370
   -1
100
AcDbLine
 10
66.99182440303643
 20
8.498737087291371
 11
66.99182440303643
 21
4.838737087291367
  0
LINE
  5
86
100
AcDbEntity
  8
0
  6
ByLayer
 62
  256
370
   -1
100
AcDbLine
 10
66.99182440303643
 20
4.838737087291367
 11
44.43182440303643
 21
4.838737087291371
  0
LINE
  5
87
100
AcDbEntity
  8
0
  6
ByLayer
 62
  256
370
   -1
100
AcDbLine
 10
44.43182440303643
 20
4.838737087291371
 11
44.43182440303644
 21
8.498737087291374
  0
LINE
  5
88
100
AcDbEntity
  8
0
  6
ByLayer
 62
  256
370
   -1
100
AcDbLine
 10
66.99182440303643
 20
8.498737087291371
 11
64.55182440303643
 21
8.498737087291371
  0
LINE
  5
89
100
AcDbEntity
  8
0
  6
ByLayer
 62
  256
370
   -1
100
AcDbLine
 10
64.55182440303643
 20
8.498737087291371
 11
64.55182440303643
 21
4.838737087291367
  0
LINE
  5
8A
100
AcDbEntity
  8
0
  6
ByLayer
 62
  256
370
   -1
100
AcDbLine
 10
44.43182440303644
 20
8.498737087291374
 11
46.87182440303643
 21
8.498737087291374
  0
LINE
  5
8B
100
AcDbEntity
  8
0
  6
ByLayer
 62
  256
370
   -1
100
AcDbLine
 10
46.87182440303643
 20
8.498737087291374
 11
46.87182440303643
 21
4.838737087291371
  0
LINE
  5
8C
100
AcDbEntity
  8
hidden line
  6
ByLayer
 62
  256
370
   -1
100
AcDbLine
 10
66.99182440303643
 20
8.498737087291371
 11
65.77182440303643
 21
8.498737087291371
  0
CIRCLE
  5
8D
100
AcDbEntity
  8
hidden line
  6
ByLayer
 62
  256
370
   -1
100
AcDbCircle
 10
44.97531518424422
 20
7.054891889804674
 40
0.1092816657544058
  0
CIRCLE
  5
8E
100
AcDbEntity
  8
hidden line
  6
ByLayer
 62
  256
370
   -1
100
AcDbCircle
 10
44.97490420404882
 20
6.744063585813263
 40
0.1092816657544058
  0
CIRCLE
  5
8F
100
AcDbEntity
  8
hidden line
  6
ByLayer
 62
  256
370
   -1
100
AcDbCircle
 10
44.96832892384016
 20
6.40872429517167
 40
0.1092816657544058
  0
CIRCLE
  5
90
100
AcDbEntity
  8
hidden line
  6
ByLayer
 62
  256
370
   -1
100
AcDbCircle
 10
66.48433706736941
 20
7.051692888080535
 40
0.1092816657544058
  0
CIRCLE
  5
91
100
AcDbEntity
  8
hidden line
  6
ByLayer
 62
  256
370
   -1
100
AcDbCircle
 10
66.48392608717401
 20
6.740864584089125
 40
0.1092816657544058
  0
CIRCLE
  5
92
100
AcDbEntity
  8
hidden line
  6
ByLayer
 62
  256
370
   -1
100
AcDbCircle
 10
66.47735080696536
 20
6.405525293447531
 40
0.1092816657544058
  0
DIMENSION
  5
93
100
AcDbEntity
  8
hidden line
  6
ByLayer
 62
  256
370
   -1
100
AcDbDimension
  2
*D1
 10
66.99182440303643
 20
9.848791169875462
 30
0
 11
55.71182440303643
 21
10.62379116987546
 31
0
 70
   32
 71
    5
 72
    0
  3
Standard
 53
0
210
0
220
0
230
1
100
AcDbAlignedDimension
 13
44.43182440303644
 23
8.498737087291374
 33
0
 14
66.99182440303643
 24
8.498737087291371
 34
0
100
AcDbRotatedDimension
  0
DIMENSION
  5
94
100
AcDbEntity
  8
hidden line
  6
ByLayer
 62
  256
370
   -1
100
AcDbDimension
  2
*D2
 10
66.99182440303643
 20
3.090379448550963
 30
0
 11
65.77182440303643
 21
3.865379448550963
 31
0
 70
   32
 71
    5
 72
    0
  3
Standard
 53
0
210
0
220
0
230
1
100
AcDbAlignedDimension
 13
64.55182440303643
 23
4.838737087291368
 33
0
 14
66.99182440303643
 24
4.838737087291367
 34
0
100
AcDbRotatedDimension
  0
DIMENSION
  5
95
100
AcDbEntity
  8
hidden line
  6
ByLayer
 62
  256
370
   -1
100
AcDbDimension
  2
*D3
 10
46.87182440303643
 20
2.864804306320965
 30
0
 11
45.65182440303643
 21
3.639804306320965
 31
0
 70
   32
 71
    5
 72
    0
  3
Standard
 53
0
210
0
220
0
230
1
100
AcDbAlignedDimension
 13
44.43182440303643
 23
4.838737087291371
 33
0
 14
46.87182440303643
 24
4.838737087291371
 34
0
100
AcDbRotatedDimension
  0
DIMENSION
  5
96
100
AcDbEntity
  8
hidden line
  6
ByLayer
 62
  256
370
   -1
100
AcDbDimension
  2
*D4
 10
43.67134753572748
 20
4.838737087291371
 30
0
 11
42.89634753572748
 21
6.668737087291372
 31
0
 70
   32
 71
    5
 72
    0
  3
Standard
 53
0
210
0
220
0
230
1
100
AcDbAlignedDimension
 13
44.43182440303644
 23
8.498737087291374
 33
0
 14
44.43182440303643
 24
4.838737087291371
 34
0
 50
90
100
AcDbRotatedDimension
  0
DIMENSION
  5
97
100
AcDbEntity
  8
hidden line
  6
ByLayer
 62
  256
370
   -1
100
AcDbDimension
  2
*D5
 10
68.57484323791917
 20
4.838737087291367
 30
0
 11
67.79984323791916
 21
6.668737087291369
 31
0
 70
   32
 71
    5
 72
    0
  3
Standard
 53
0
210
0
220
0
230
1
100
AcDbAlignedDimension
 13
66.99182440303643
 23
8.498737087291371
 33
0
 14
66.99182440303643
 24
4.838737087291367
 34
0
 50
90
100
AcDbRotatedDimension
  0
DIMENSION
  5
98
100
AcDbEntity
  8
hidden line
  6
ByLayer
 62
  256
370
   -1
100
AcDbDimension
  2
*D6
 10
45.08459684999863
 20
7.241693790971586
 30
0
 11
44.97531518424422
 21
8.016693790971585
 31
0
 70
   32
 71
    5
  3
Standard
 53
0
210
0
220
0
230
1
100
AcDbAlignedDimension
 13
44.86603351848981
 23
7.054891889804674
 33
0
 14
45.08459684999863
 24
7.054891889804674
 34
0
100
AcDbRotatedDimension
  0
ENDSEC
  0
SECTION
  2
OBJECTS
  0
DICTIONARY
  5
C
330
0
100
AcDbDictionary
281
    1
  3
ACAD_GROUP
350
D
  0
DICTIONARY
  5
D
330
C
100
AcDbDictionary
281
    1
  0
PLOTSETTINGS
  5
99
100
AcDbPlotSettings
  6
1x1
 40
0
 41
0
 42
0
 43
0
  0
ENDSEC
  0
EOF
