999
dxfrw 0.6.3
  0
SECTION
  2
HEADER
  9
$ACADVER
  1
AC1021
  9
$DWGCODEPAGE
  3
ANSI_1252
  9
$INSBASE
 10
0
 20
0
 30
0
  9
$EXTMIN
 10
-12
 20
-12
 30
0
  9
$EXTMAX
 10
612
 20
384
 30
0
  9
$LIMMIN
 10
0
 20
0
  9
$LIMMAX
 10
420
 20
297
  9
$ORTHOMODE
 70
    0
  9
$REGENMODE
 70
    1
  9
$FILLMODE
 70
    1
  9
$QTEXTMODE
 70
    0
  9
$MIRRTEXT
 70
    0
  9
$LTSCALE
 40
1
  9
$ATTMODE
 70
    1
  9
$TEXTSIZE
 40
2.5
  9
$TRACEWID
 40
1
  9
$TEXTSTYLE
  7
Standard
  9
$CLAYER
  8
Door
  9
$CELTYPE
  6
ByLayer
  9
$CECOLOR
 62
  256
  9
$CELTSCALE
 40
1
  9
$DISPSILH
 70
    0
  9
$DIMSCALE
 40
1
  9
$DIMASZ
 40
2.5
  9
$DIMEXO
 40
0.625
  9
$DIMDLI
 40
3.75
  9
$DIMRND
 40
0
  9
$DIMDLE
 40
0
  9
$DIMEXE
 40
1.25
  9
$DIMTP
 40
0
  9
$DIMTM
 40
0
  9
$DIMTXT
 40
11
  9
$DIMCEN
 40
2.5
  9
$DIMTSZ
 40
0
  9
$DIMTOL
 70
    0
  9
$DIMLIM
 70
    0
  9
$DIMTIH
 70
    0
  9
$DIMTOH
 70
    0
  9
$DIMSE1
 70
    0
  9
$DIMSE2
 70
    0
  9
$DIMTAD
 70
    0
  9
$DIMZIN
 70
    8
  9
$DIMBLK
  1

  9
$DIMASO
 70
    1
  9
$DIMSHO
 70
    1
  9
$DIMPOST
  1

  9
$DIMAPOST
  1

  9
$DIMALT
 70
    0
  9
$DIMALTD
 70
    3
  9
$DIMALTF
 40
0.03937007874016
  9
$DIMLFAC
 40
1
  9
$DIMTOFL
 70
    1
  9
$DIMTVP
 40
0
  9
$DIMTIX
 70
    0
  9
$DIMSOXD
 70
    0
  9
$DIMSAH
 70
    0
  9
$DIMBLK1
  1

  9
$DIMBLK2
  1

  9
$DIMSTYLE
  2
ISO-25
  9
$DIMCLRD
 70
    0
  9
$DIMCLRE
 70
    0
  9
$DIMCLRT
 70
    0
  9
$DIMTFAC
 40
1
  9
$DIMGAP
 40
0.625
  9
$DIMJUST
 70
    0
  9
$DIMSD1
 70
    0
  9
$DIMSD2
 70
    0
  9
$DIMTOLJ
 70
    0
  9
$DIMTZIN
 70
    8
  9
$DIMALTZ
 70
    0
  9
$DIMALTTZ
 70
    0
  9
$DIMUPT
 70
    0
  9
$DIMDEC
 70
    2
  9
$DIMTDEC
 70
    2
  9
$DIMALTU
 70
    2
  9
$DIMALTTD
 70
    3
  9
$DIMTXSTY
  7
Standard
  9
$DIMAUNIT
 70
    0
  9
$DIMADEC
 70
    0
  9
$DIMALTRND
 40
0
  9
$DIMAZIN
 70
    0
  9
$DIMDSEP
 70
   44
  9
$DIMATFIT
 70
    3
  9
$DIMFRAC
 70
    0
  9
$DIMLDRBLK
  1

  9
$DIMLUNIT
 70
    4
  9
$DIMLWD
 70
   -2
  9
$DIMLWE
 70
   -2
  9
$DIMTMOVE
 70
    0
  9
$DIMFXL
 40
1
  9
$DIMFXLON
 70
    0
  9
$DIMJOGANG
 40
0.7853981633974483
  9
$DIMTFILL
 70
    0
  9
$DIMTFILLCLR
 70
    0
  9
$DIMARCSYM
 70
    0
  9
$DIMLTYPE
  6

  9
$DIMLTEX1
  6

  9
$DIMLTEX2
  6

  9
$LUNITS
 70
    4
  9
$LUPREC
 70
    2
  9
$SKETCHINC
 40
1
  9
$FILLETRAD
 40
8.145358337224025
  9
$AUNITS
 70
    0
  9
$AUPREC
 70
    0
  9
$MENU
  1
.
  9
$ELEVATION
 40
0
  9
$PELEVATION
 40
0
  9
$THICKNESS
 40
0
  9
$LIMCHECK
 70
    0
  9
$CHAMFERA
 40
0
  9
$CHAMFERB
 40
0
  9
$CHAMFERC
 40
0
  9
$CHAMFERD
 40
0
  9
$SKPOLY
 70
    0
  9
$USRTIMER
 70
    1
  9
$ANGBASE
 50
0
  9
$ANGDIR
 70
    0
  9
$PDMODE
 70
    0
  9
$PDSIZE
 40
0
  9
$PLINEWID
 40
0
  9
$SPLFRAME
 70
    0
  9
$SPLINETYPE
 70
    6
  9
$SPLINESEGS
 70
    8
  9
$HANDSEED
  5
20000
  9
$SURFTAB1
 70
    6
  9
$SURFTAB2
 70
    6
  9
$SURFTYPE
 70
    6
  9
$SURFU
 70
    6
  9
$SURFV
 70
    6
  9
$UCSBASE
  2

  9
$UCSNAME
  2

  9
$UCSORG
 10
0
 20
0
 30
0
  9
$UCSXDIR
 10
1
 20
0
 30
0
  9
$UCSYDIR
 10
0
 20
1
 30
0
  9
$UCSORTHOREF
  2

  9
$UCSORTHOVIEW
 70
    0
  9
$UCSORGTOP
 10
0
 20
0
 30
0
  9
$UCSORGBOTTOM
 10
0
 20
0
 30
0
  9
$UCSORGLEFT
 10
0
 20
0
 30
0
  9
$UCSORGRIGHT
 10
0
 20
0
 30
0
  9
$UCSORGFRONT
 10
0
 20
0
 30
0
  9
$UCSORGBACK
 10
0
 20
0
 30
0
  9
$PUCSBASE
  2

  9
$PUCSNAME
  2

  9
$PUCSORG
 10
0
 20
0
 30
0
  9
$PUCSXDIR
 10
1
 20
0
 30
0
  9
$PUCSYDIR
 10
0
 20
1
 30
0
  9
$PUCSORTHOREF
  2

  9
$PUCSORTHOVIEW
 70
    0
  9
$PUCSORGTOP
 10
0
 20
0
 30
0
  9
$PUCSORGBOTTOM
 10
0
 20
0
 30
0
  9
$PUCSORGLEFT
 10
0
 20
0
 30
0
  9
$PUCSORGRIGHT
 10
0
 20
0
 30
0
  9
$PUCSORGFRONT
 10
0
 20
0
 30
0
  9
$PUCSORGBACK
 10
0
 20
0
 30
0
  9
$USERI1
 70
    0
  9
$USERI2
 70
    0
  9
$USERI3
 70
    0
  9
$USERI4
 70
    0
  9
$USERI5
 70
    0
  9
$USERR1
 40
0
  9
$USERR2
 40
0
  9
$USERR3
 40
0
  9
$USERR4
 40
0
  9
$USERR5
 40
0
  9
$WORLDVIEW
 70
    1
  9
$SHADEDGE
 70
    3
  9
$SHADEDIF
 70
   70
  9
$TILEMODE
 70
    1
  9
$MAXACTVP
 70
   64
  9
$PINSBASE
 10
0
 20
0
 30
0
  9
$PLIMCHECK
 70
    0
  9
$PEXTMIN
 10
0
 20
0
 30
0
  9
$PEXTMAX
 10
0
 20
0
 30
0
  9
$GRIDMODE
 70
    1
  9
$SNAPSTYLE
 70
    0
  9
$PLIMMIN
 10
0
 20
0
  9
$PLIMMAX
 10
12
 20
9
  9
$UNITMODE
 70
    0
  9
$VISRETAIN
 70
    1
  9
$PLINEGEN
 70
    0
  9
$PSLTSCALE
 70
    1
  9
$TREEDEPTH
 70
 3020
  9
$CMLSTYLE
  2
Standard
  9
$CMLJUST
 70
    0
  9
$CMLSCALE
 40
20
  9
$PROXYGRAPHICS
 70
    1
  9
$MEASUREMENT
 70
    0
  9
$CELWEIGHT
370
   -1
  9
$ENDCAPS
280
    0
  9
$JOINSTYLE
280
    0
  9
$LWDISPLAY
290
    0
  9
$INSUNITS
 70
    1
  9
$HYPERLINKBASE
  1

  9
$STYLESHEET
  1

  9
$XEDIT
290
    1
  9
$CEPSNTYPE
380
    0
  9
$PSTYLEMODE
290
    1
  9
$EXTNAMES
290
    1
  9
$PSVPSCALE
 40
0
  9
$OLESTARTUP
290
    0
  9
$SORTENTS
280
  127
  9
$INDEXCTL
280
    0
  9
$HIDETEXT
280
    1
  9
$XCLIPFRAME
290
    2
  9
$HALOGAP
280
    0
  9
$OBSCOLOR
 70
  257
  9
$OBSLTYPE
280
    0
  9
$INTERSECTIONDISPLAY
280
    0
  9
$INTERSECTIONCOLOR
 70
  257
  9
$DIMASSOC
280
    2
  9
$PROJECTNAME
  1

  9
$CAMERADISPLAY
290
    0
  9
$LENSLENGTH
 40
50
  9
$CAMERAHEIGHT
 40
0
  9
$STEPSPERSEC
 40
2
  9
$STEPSIZE
 40
6
  9
$3DDWFPREC
 40
2
  9
$PSOLWIDTH
 40
5
  9
$PSOLHEIGHT
 40
80
  9
$LOFTANG1
 40
1.570796326794896
  9
$LOFTANG2
 40
1.570796326794896
  9
$LOFTMAG1
 40
0
  9
$LOFTMAG2
 40
0
  9
$LOFTPARAM
 70
    7
  9
$LOFTNORMALS
280
    1
  9
$LATITUDE
 40
37.795
  9
$LONGITUDE
 40
-122.394
  9
$NORTHDIRECTION
 40
0
  9
$TIMEZONE
 70
-8000
  9
$LIGHTGLYPHDISPLAY
280
    1
  9
$TILEMODELIGHTSYNCH
280
    1
  9
$SOLIDHIST
280
    0
  9
$SHOWHIST
280
    1
  9
$DWFFRAME
280
    2
  9
$DGNFRAME
280
    0
  9
$REALWORLDSCALE
290
    1
  9
$INTERFERECOLOR
 62
    1
  9
$CSHADOW
280
    0
  9
$SHADOWPLANELOCATION
 40
0
  0
ENDSEC
  0
SECTION
  2
CLASSES
  0
ENDSEC
  0
SECTION
  2
TABLES
  0
TABLE
  2
VPORT
  5
8
330
0
100
AcDbSymbolTable
 70
    1
  0
VPORT
  5
31
330
2
100
AcDbSymbolTableRecord
100
AcDbViewportTableRecord
  2
*ACTIVE
 70
    0
 10
0
 20
0
 11
1
 21
1
 12
507.6421896101639
 22
264.4480649579518
 13
0
 23
0
 14
10
 24
10
 15
10
 25
10
 16
0
 26
0
 36
1
 17
0
 27
0
 37
0
 40
676.8562528135519
 41
1.642512077294686
 42
50
 43
0
 44
0
 50
0
 51
0
 71
    0
 72
  100
 73
    1
 74
    3
 75
    0
 76
    1
 77
    0
 78
    0
281
    0
 65
    1
110
0
120
0
130
0
111
1
121
0
131
0
112
0
122
1
132
0
 79
    0
146
0
348
10020
 60
    7
 61
    5
292
1
282
    1
141
0
142
0
 63
  250
421
3358443
  0
ENDTAB
  0
TABLE
  2
LTYPE
  5
5
330
0
100
AcDbSymbolTable
 70
    4
  0
LTYPE
  5
14
330
5
100
AcDbSymbolTableRecord
100
AcDbLinetypeTableRecord
  2
ByBlock
 70
    0
  3

 72
   65
 73
    0
 40
0
  0
LTYPE
  5
15
330
5
100
AcDbSymbolTableRecord
100
AcDbLinetypeTableRecord
  2
ByLayer
 70
    0
  3

 72
   65
 73
    0
 40
0
  0
LTYPE
  5
16
330
5
100
AcDbSymbolTableRecord
100
AcDbLinetypeTableRecord
  2
Continuous
 70
    0
  3
Solid line
 72
   65
 73
    0
 40
0
  0
LTYPE
  5
32
330
5
100
AcDbSymbolTableRecord
100
AcDbLinetypeTableRecord
  2
DOT
 70
    0
  3
Dot . . . . . . . . . . . . . . . . . . . . . .
 72
   65
 73
    2
 40
6.35
 49
0
 74
    0
 49
-6.35
 74
    0
  0
LTYPE
  5
33
330
5
100
AcDbSymbolTableRecord
100
AcDbLinetypeTableRecord
  2
DOTTINY
 70
    0
  3
Dot (.15x) .....................................
 72
   65
 73
    2
 40
0.9525
 49
0
 74
    0
 49
-0.9525
 74
    0
  0
LTYPE
  5
34
330
5
100
AcDbSymbolTableRecord
100
AcDbLinetypeTableRecord
  2
DOT2
 70
    0
  3
Dot (.5x) .....................................
 72
   65
 73
    2
 40
3.175
 49
0
 74
    0
 49
-3.175
 74
    0
  0
LTYPE
  5
35
330
5
100
AcDbSymbolTableRecord
100
AcDbLinetypeTableRecord
  2
DOTX2
 70
    0
  3
Dot (2x) .  .  .  .  .  .  .  .  .  .  .  .  .
 72
   65
 73
    2
 40
12.7
 49
0
 74
    0
 49
-12.7
 74
    0
  0
LTYPE
  5
36
330
5
100
AcDbSymbolTableRecord
100
AcDbLinetypeTableRecord
  2
DASHED
 70
    0
  3
Dashed _ _ _ _ _ _ _ _ _ _ _ _ _ _ _ _ _
 72
   65
 73
    2
 40
19.05
 49
12.7
 74
    0
 49
-6.35
 74
    0
  0
LTYPE
  5
37
330
5
100
AcDbSymbolTableRecord
100
AcDbLinetypeTableRecord
  2
DASHEDTINY
 70
    0
  3
Dashed (.15x) _ _ _ _ _ _ _ _ _ _ _ _ _ _ _ _ _
 72
   65
 73
    2
 40
2.8575
 49
1.905
 74
    0
 49
-0.9525
 74
    0
  0
LTYPE
  5
38
330
5
100
AcDbSymbolTableRecord
100
AcDbLinetypeTableRecord
  2
DASHED2
 70
    0
  3
Dashed (.5x) _ _ _ _ _ _ _ _ _ _ _ _ _ _ _ _ _
 72
   65
 73
    2
 40
9.524999999999999
 49
6.35
 74
    0
 49
-3.175
 74
    0
  0
LTYPE
  5
39
330
5
100
AcDbSymbolTableRecord
100
AcDbLinetypeTableRecord
  2
DASHEDX2
 70
    0
  3
Dashed (2x) ____  ____  ____  ____  ____  ___
 72
   65
 73
    2
 40
38.09999999999999
 49
25.4
 74
    0
 49
-12.7
 74
    0
  0
LTYPE
  5
3A
330
5
100
AcDbSymbolTableRecord
100
AcDbLinetypeTableRecord
  2
DASHDOT
 70
    0
  3
Dash dot __ . __ . __ . __ . __ . __ . __ . __
 72
   65
 73
    4
 40
25.4
 49
12.7
 74
    0
 49
-6.35
 74
    0
 49
0
 74
    0
 49
-6.35
 74
    0
  0
LTYPE
  5
3B
330
5
100
AcDbSymbolTableRecord
100
AcDbLinetypeTableRecord
  2
DASHDOTTINY
 70
    0
  3
Dash dot (.15x) _._._._._._._._._._._._._._._.
 72
   65
 73
    4
 40
3.81
 49
1.905
 74
    0
 49
-0.9525
 74
    0
 49
0
 74
    0
 49
-0.9525
 74
    0
  0
LTYPE
  5
3C
330
5
100
AcDbSymbolTableRecord
100
AcDbLinetypeTableRecord
  2
DASHDOT2
 70
    0
  3
Dash dot (.5x) _._._._._._._._._._._._._._._.
 72
   65
 73
    4
 40
12.7
 49
6.35
 74
    0
 49
-3.175
 74
    0
 49
0
 74
    0
 49
-3.175
 74
    0
  0
LTYPE
  5
3D
330
5
100
AcDbSymbolTableRecord
100
AcDbLinetypeTableRecord
  2
DASHDOTX2
 70
    0
  3
Dash dot (2x) ____  .  ____  .  ____  .  ___
 72
   65
 73
    4
 40
50.8
 49
25.4
 74
    0
 49
-12.7
 74
    0
 49
0
 74
    0
 49
-12.7
 74
    0
  0
LTYPE
  5
3E
330
5
100
AcDbSymbolTableRecord
100
AcDbLinetypeTableRecord
  2
DIVIDE
 70
    0
  3
Divide ____ . . ____ . . ____ . . ____ . . ____
 72
   65
 73
    6
 40
31.75
 49
12.7
 74
    0
 49
-6.35
 74
    0
 49
0
 74
    0
 49
-6.35
 74
    0
 49
0
 74
    0
 49
-6.35
 74
    0
  0
LTYPE
  5
3F
330
5
100
AcDbSymbolTableRecord
100
AcDbLinetypeTableRecord
  2
DIVIDETINY
 70
    0
  3
Divide (.15x) __..__..__..__..__..__..__..__.._
 72
   65
 73
    6
 40
4.7625
 49
1.905
 74
    0
 49
-0.9525
 74
    0
 49
0
 74
    0
 49
-0.9525
 74
    0
 49
0
 74
    0
 49
-0.9525
 74
    0
  0
LTYPE
  5
40
330
5
100
AcDbSymbolTableRecord
100
AcDbLinetypeTableRecord
  2
DIVIDE2
 70
    0
  3
Divide (.5x) __..__..__..__..__..__..__..__.._
 72
   65
 73
    6
 40
15.875
 49
6.35
 74
    0
 49
-3.175
 74
    0
 49
0
 74
    0
 49
-3.175
 74
    0
 49
0
 74
    0
 49
-3.175
 74
    0
  0
LTYPE
  5
41
330
5
100
AcDbSymbolTableRecord
100
AcDbLinetypeTableRecord
  2
DIVIDEX2
 70
    0
  3
Divide (2x) ________  .  .  ________  .  .  _
 72
   65
 73
    6
 40
63.5
 49
25.4
 74
    0
 49
-12.7
 74
    0
 49
0
 74
    0
 49
-12.7
 74
    0
 49
0
 74
    0
 49
-12.7
 74
    0
  0
LTYPE
  5
42
330
5
100
AcDbSymbolTableRecord
100
AcDbLinetypeTableRecord
  2
BORDER
 70
    0
  3
Border __ __ . __ __ . __ __ . __ __ . __ __ .
 72
   65
 73
    6
 40
44.45
 49
12.7
 74
    0
 49
-6.35
 74
    0
 49
12.7
 74
    0
 49
-6.35
 74
    0
 49
0
 74
    0
 49
-6.35
 74
    0
  0
LTYPE
  5
43
330
5
100
AcDbSymbolTableRecord
100
AcDbLinetypeTableRecord
  2
BORDERTINY
 70
    0
  3
Border (.15x) __.__.__.__.__.__.__.__.__.__.__.
 72
   65
 73
    6
 40
6.6675
 49
1.905
 74
    0
 49
-0.9525
 74
    0
 49
1.905
 74
    0
 49
-0.9525
 74
    0
 49
0
 74
    0
 49
-0.9525
 74
    0
  0
LTYPE
  5
44
330
5
100
AcDbSymbolTableRecord
100
AcDbLinetypeTableRecord
  2
BORDER2
 70
    0
  3
Border (.5x) __.__.__.__.__.__.__.__.__.__.__.
 72
   65
 73
    6
 40
22.225
 49
6.35
 74
    0
 49
-3.175
 74
    0
 49
6.35
 74
    0
 49
-3.175
 74
    0
 49
0
 74
    0
 49
-3.175
 74
    0
  0
LTYPE
  5
45
330
5
100
AcDbSymbolTableRecord
100
AcDbLinetypeTableRecord
  2
BORDERX2
 70
    0
  3
Border (2x) ____  ____  .  ____  ____  .  ___
 72
   65
 73
    6
 40
88.89999999999999
 49
25.4
 74
    0
 49
-12.7
 74
    0
 49
25.4
 74
    0
 49
-12.7
 74
    0
 49
0
 74
    0
 49
-12.7
 74
    0
  0
LTYPE
  5
46
330
5
100
AcDbSymbolTableRecord
100
AcDbLinetypeTableRecord
  2
CENTER
 70
    0
  3
Center ____ _ ____ _ ____ _ ____ _ ____ _ ____
 72
   65
 73
    4
 40
50.8
 49
31.75
 74
    0
 49
-6.35
 74
    0
 49
6.35
 74
    0
 49
-6.35
 74
    0
  0
LTYPE
  5
47
330
5
100
AcDbSymbolTableRecord
100
AcDbLinetypeTableRecord
  2
CENTERTINY
 70
    0
  3
Center (.15x) ___ _ ___ _ ___ _ ___ _ ___ _ ___
 72
   65
 73
    4
 40
7.62
 49
4.7625
 74
    0
 49
-0.9525
 74
    0
 49
0.9525
 74
    0
 49
-0.9525
 74
    0
  0
LTYPE
  5
48
330
5
100
AcDbSymbolTableRecord
100
AcDbLinetypeTableRecord
  2
CENTER2
 70
    0
  3
Center (.5x) ___ _ ___ _ ___ _ ___ _ ___ _ ___
 72
   65
 73
    4
 40
28.575
 49
19.05
 74
    0
 49
-3.175
 74
    0
 49
3.175
 74
    0
 49
-3.175
 74
    0
  0
LTYPE
  5
49
330
5
100
AcDbSymbolTableRecord
100
AcDbLinetypeTableRecord
  2
CENTERX2
 70
    0
  3
Center (2x) ________  __  ________  __  _____
 72
   65
 73
    4
 40
101.6
 49
63.5
 74
    0
 49
-12.7
 74
    0
 49
12.7
 74
    0
 49
-12.7
 74
    0
  0
ENDTAB
  0
TABLE
  2
LAYER
  5
2
330
0
100
AcDbSymbolTable
 70
    1
  0
LAYER
  5
10
330
2
100
AcDbSymbolTableRecord
100
AcDbLayerTableRecord
  2
0
 70
    0
 62
    7
  6
CONTINUOUS
370
   -3
390
F
  0
LAYER
  5
4A
330
2
100
AcDbSymbolTableRecord
100
AcDbLayerTableRecord
  2
Blocks
 70
    0
 62
   40
  6
CONTINUOUS
370
   -3
390
F
  0
LAYER
  5
4B
330
2
100
AcDbSymbolTableRecord
100
AcDbLayerTableRecord
  2
Defpoints
 70
    0
 62
    7
  6
CONTINUOUS
290
0
370
   -3
390
F
  0
LAYER
  5
4C
330
2
100
AcDbSymbolTableRecord
100
AcDbLayerTableRecord
  2
Dim
 70
    0
 62
    5
  6
CONTINUOUS
370
   -3
390
F
  0
LAYER
  5
4D
330
2
100
AcDbSymbolTableRecord
100
AcDbLayerTableRecord
  2
Door
 70
    0
 62
    1
  6
CONTINUOUS
370
   -3
390
F
  0
LAYER
  5
4E
330
2
100
AcDbSymbolTableRecord
100
AcDbLayerTableRecord
  2
Hatch
 70
    0
 62
    6
  6
CONTINUOUS
370
   -3
390
F
  0
LAYER
  5
4F
330
2
100
AcDbSymbolTableRecord
100
AcDbLayerTableRecord
  2
Text
 70
    0
 62
   34
  6
CONTINUOUS
370
   -3
390
F
  0
LAYER
  5
50
330
2
100
AcDbSymbolTableRecord
100
AcDbLayerTableRecord
  2
Window
 70
    0
 62
    3
  6
CONTINUOUS
370
   -3
390
F
  0
ENDTAB
  0
TABLE
  2
STYLE
  5
3
330
0
100
AcDbSymbolTable
 70
    3
  0
STYLE
  5
51
330
2
100
AcDbSymbolTableRecord
100
AcDbTextStyleTableRecord
  2
Standard
 70
    0
 40
0
 41
1
 50
0
 71
    0
 42
1
  3
txt
  4

  0
ENDTAB
  0
TABLE
  2
VIEW
  5
6
330
0
100
AcDbSymbolTable
 70
    0
  0
ENDTAB
  0
TABLE
  2
UCS
  5
7
330
0
100
AcDbSymbolTable
 70
    0
  0
ENDTAB
  0
TABLE
  2
APPID
  5
9
330
0
100
AcDbSymbolTable
 70
    1
  0
APPID
  5
12
330
9
100
AcDbSymbolTableRecord
100
AcDbRegAppTableRecord
  2
ACAD
 70
    0
  0
APPID
  5
52
330
9
100
AcDbSymbolTableRecord
100
AcDbRegAppTableRecord
  2
LibreCad
 70
    0
  0
ENDTAB
  0
TABLE
  2
DIMSTYLE
  5
A
330
0
100
AcDbSymbolTable
 70
    1
100
AcDbDimStyleTable
 71
    1
  0
DIMSTYLE
105
53
330
A
100
AcDbSymbolTableRecord
100
AcDbDimStyleTableRecord
  2
Standard
 70
    0
 40
1
 41
2.5
 42
0.625
 43
0.38
 44
1.25
 45
0
 46
0
 47
0
 48
0
 49
1
140
11
141
0.09
142
0
143
25.4
144
1
145
0
146
1
147
0.625
148
0
 71
    0
 72
    0
 73
    0
 74
    1
 75
    0
 76
    0
 77
    0
 78
    8
 79
    0
170
    0
171
    2
172
    0
173
    0
174
    0
175
    0
176
    0
177
    0
178
    0
179
    0
271
    2
272
    4
273
    2
274
    2
275
    0
276
    0
277
    4
278
   44
279
    0
280
    0
281
    0
282
    0
283
    1
284
    0
285
    0
286
    0
288
    0
289
    3
340
Standard
341

371
   -2
372
   -2
  0
ENDTAB
  0
TABLE
  2
BLOCK_RECORD
  5
1
330
0
100
AcDbSymbolTable
 70
    2
  0
BLOCK_RECORD
  5
1F
330
1
100
AcDbSymbolTableRecord
100
AcDbBlockTableRecord
  2
*Model_Space
 70
    0
280
    1
281
    0
  0
BLOCK_RECORD
  5
1E
330
1
100
AcDbSymbolTableRecord
100
AcDbBlockTableRecord
  2
*Paper_Space
 70
    0
280
    1
281
    0
  0
BLOCK_RECORD
  5
54
330
1
100
AcDbSymbolTableRecord
100
AcDbBlockTableRecord
  2
*D1
 70
    0
280
    1
281
    0
  0
BLOCK_RECORD
  5
57
330
1
100
AcDbSymbolTableRecord
100
AcDbBlockTableRecord
  2
*D3
 70
    0
280
    1
281
    0
  0
BLOCK_RECORD
  5
5A
330
1
100
AcDbSymbolTableRecord
100
AcDbBlockTableRecord
  2
*D4
 70
    0
280
    1
281
    0
  0
BLOCK_RECORD
  5
5D
330
1
100
AcDbSymbolTableRecord
100
AcDbBlockTableRecord
  2
*D5
 70
    0
280
    1
281
    0
  0
BLOCK_RECORD
  5
60
330
1
100
AcDbSymbolTableRecord
100
AcDbBlockTableRecord
  2
*D6
 70
    0
280
    1
281
    0
  0
BLOCK_RECORD
  5
63
330
1
100
AcDbSymbolTableRecord
100
AcDbBlockTableRecord
  2
*D7
 70
    0
280
    1
281
    0
  0
BLOCK_RECORD
  5
66
330
1
100
AcDbSymbolTableRecord
100
AcDbBlockTableRecord
  2
*D2
 70
    0
280
    1
281
    0
  0
BLOCK_RECORD
  5
69
330
1
100
AcDbSymbolTableRecord
100
AcDbBlockTableRecord
  2
A$Cb089fc72
 70
    0
280
    1
281
    0
  0
BLOCK_RECORD
  5
6C
330
1
100
AcDbSymbolTableRecord
100
AcDbBlockTableRecord
  2
Door 1
 70
    0
280
    1
281
    0
  0
BLOCK_RECORD
  5
6F
330
1
100
AcDbSymbolTableRecord
100
AcDbBlockTableRecord
  2
Door 2
 70
    0
280
    1
281
    0
  0
BLOCK_RECORD
  5
72
330
1
100
AcDbSymbolTableRecord
100
AcDbBlockTableRecord
  2
Window 1
 70
    0
280
    1
281
    0
  0
BLOCK_RECORD
  5
75
330
1
100
AcDbSymbolTableRecord
100
AcDbBlockTableRecord
  2
Window 2
 70
    0
280
    1
281
    0
  0
BLOCK_RECORD
  5
78
330
1
100
AcDbSymbolTableRecord
100
AcDbBlockTableRecord
  2
A$Cc9a0c13e
 70
    0
280
    1
281
    0
  0
BLOCK_RECORD
  5
7B
330
1
100
AcDbSymbolTableRecord
100
AcDbBlockTableRecord
  2
Window 2 real
 70
    0
280
    1
281
    0
  0
BLOCK_RECORD
  5
7E
330
1
100
AcDbSymbolTableRecord
100
AcDbBlockTableRecord
  2
Bath Tub - 26 x 60 in.
 70
    0
280
    1
281
    0
  0
BLOCK_RECORD
  5
81
330
1
100
AcDbSymbolTableRecord
100
AcDbBlockTableRecord
  2
Sink - Oval top
 70
    0
280
    1
281
    0
  0
BLOCK_RECORD
  5
84
330
1
100
AcDbSymbolTableRecord
100
AcDbBlockTableRecord
  2
Toilet - top
 70
    0
280
    1
281
    0
  0
BLOCK_RECORD
  5
87
330
1
100
AcDbSymbolTableRecord
100
AcDbBlockTableRecord
  2
Bed - Queen
 70
    0
280
    1
281
    0
  0
BLOCK_RECORD
  5
8A
330
1
100
AcDbSymbolTableRecord
100
AcDbBlockTableRecord
  2
Dining Set - 36 x 72 in.
 70
    0
280
    1
281
    0
  0
BLOCK_RECORD
  5
8D
330
1
100
AcDbSymbolTableRecord
100
AcDbBlockTableRecord
  2
Plant - Rubber or Philodendron
 70
    0
280
    1
281
    0
  0
BLOCK_RECORD
  5
90
330
1
100
AcDbSymbolTableRecord
100
AcDbBlockTableRecord
  2
Lamp - Table
 70
    0
280
    1
281
    0
  0
BLOCK_RECORD
  5
93
330
1
100
AcDbSymbolTableRecord
100
AcDbBlockTableRecord
  2
Sofa - Roundback Loveseat 5 ft.
 70
    0
280
    1
281
    0
  0
BLOCK_RECORD
  5
96
330
1
100
AcDbSymbolTableRecord
100
AcDbBlockTableRecord
  2
Sink-double - 36 in top
 70
    0
280
    1
281
    0
  0
BLOCK_RECORD
  5
99
330
1
100
AcDbSymbolTableRecord
100
AcDbBlockTableRecord
  2
Refrigerator-2 door - 36 in top
 70
    0
280
    1
281
    0
  0
BLOCK_RECORD
  5
9C
330
1
100
AcDbSymbolTableRecord
100
AcDbBlockTableRecord
  2
Range-Oven - 30 in top
 70
    0
280
    1
281
    0
  0
BLOCK_RECORD
  5
9F
330
1
100
AcDbSymbolTableRecord
100
AcDbBlockTableRecord
  2
Sofa - Roundback 7 ft.
 70
    0
280
    1
281
    0
  0
ENDTAB
  0
ENDSEC
  0
SECTION
  2
BLOCKS
  0
BLOCK
  5
20
330
1F
100
AcDbEntity
  8
0
100
AcDbBlockBegin
  2
*Model_Space
 70
    0
 10
0
 20
0
 30
0
  3
*Model_Space
  1

  0
ENDBLK
  5
21
330
1F
100
AcDbEntity
  8
0
100
AcDbBlockEnd
  0
BLOCK
  5
1C
330
1B
100
AcDbEntity
  8
0
100
AcDbBlockBegin
  2
*Paper_Space
 70
    0
 10
0
 20
0
 30
0
  3
*Paper_Space
  1

  0
ENDBLK
  5
1D
330
1F
100
AcDbEntity
  8
0
100
AcDbBlockEnd
  0
BLOCK
  5
55
330
54
100
AcDbEntity
  8
0
100
AcDbBlockBegin
  2
*D1
 70
    1
 10
0
 20
0
  3
*D1
  1

  0
LINE
  5
A2
100
AcDbEntity
  8
Dim
  6
ByBlock
 62
    0
370
   -2
100
AcDbLine
 10
0
 20
430
 11
600
 21
430
  0
MTEXT
  5
A3
100
AcDbEntity
  8
Dim
  6
CONTINUOUS
 62
    0
370
   -2
100
AcDbMText
 10
300
 20
430
 30
0
 40
11
 41
43.38888888888957
 71
    5
 72
    1
  1
50'-0"
  7
Standard
210
0
220
0
230
1
 50
0
 73
    2
 44
1
  0
SOLID
  5
A4
100
AcDbEntity
  8
Dim
  6
ByBlock
 62
    0
370
   -2
100
AcDbTrace
 10
0
 20
430
 30
0
 11
2.5
 21
430.4162846577728
 31
0
 12
2.5
 22
429.5837153422272
 32
0
 13
2.5
 23
429.5837153422272
 33
0
  0
SOLID
  5
A5
100
AcDbEntity
  8
Dim
  6
ByBlock
 62
    0
370
   -2
100
AcDbTrace
 10
600
 20
430
 30
0
 11
597.5
 21
429.5837153422272
 31
0
 12
597.5
 22
430.4162846577728
 32
0
 13
597.5
 23
430.4162846577728
 33
0
  0
LINE
  5
A6
100
AcDbEntity
  8
Dim
  6
ByBlock
 62
    0
370
   -2
100
AcDbLine
 10
3.826894855694929e-17
 20
372.625
 11
7.653789711389858e-17
 21
431.25
  0
LINE
  5
A7
100
AcDbEntity
  8
Dim
  6
ByBlock
 62
    0
370
   -2
100
AcDbLine
 10
600
 20
372.625
 11
600
 21
431.25
  0
ENDBLK
  5
56
330
54
100
AcDbEntity
  8
0
100
AcDbBlockEnd
  0
BLOCK
  5
58
330
57
100
AcDbEntity
  8
0
100
AcDbBlockBegin
  2
*D3
 70
    1
 10
0
 20
0
  3
*D3
  1

  0
LINE
  5
A8
100
AcDbEntity
  8
Dim
  6
ByBlock
 62
    0
370
   -2
100
AcDbLine
 10
390
 20
410
 11
600
 21
410
  0
MTEXT
  5
A9
100
AcDbEntity
  8
Dim
  6
CONTINUOUS
 62
    0
370
   -2
100
AcDbMText
 10
495
 20
410
 30
0
 40
11
 41
40.94444444444512
 71
    5
 72
    1
  1
17'-6"
  7
Standard
210
0
220
0
230
1
 50
0
 73
    2
 44
1
  0
SOLID
  5
AA
100
AcDbEntity
  8
Dim
  6
ByBlock
 62
    0
370
   -2
100
AcDbTrace
 10
390
 20
410
 30
0
 11
392.5
 21
410.4162846577728
 31
0
 12
392.5
 22
409.5837153422272
 32
0
 13
392.5
 23
409.5837153422272
 33
0
  0
SOLID
  5
AB
100
AcDbEntity
  8
Dim
  6
ByBlock
 62
    0
370
   -2
100
AcDbTrace
 10
600
 20
410
 30
0
 11
597.5
 21
409.5837153422272
 31
0
 12
597.5
 22
410.4162846577728
 32
0
 13
597.5
 23
410.4162846577728
 33
0
  0
LINE
  5
AC
100
AcDbEntity
  8
Dim
  6
ByBlock
 62
    0
370
   -2
100
AcDbLine
 10
390
 20
372.625
 11
390
 21
411.25
  0
LINE
  5
AD
100
AcDbEntity
  8
Dim
  6
ByBlock
 62
    0
370
   -2
100
AcDbLine
 10
600
 20
372.625
 11
600
 21
411.25
  0
ENDBLK
  5
59
330
57
100
AcDbEntity
  8
0
100
AcDbBlockEnd
  0
BLOCK
  5
5B
330
5A
100
AcDbEntity
  8
0
100
AcDbBlockBegin
  2
*D4
 70
    1
 10
0
 20
0
  3
*D4
  1

  0
LINE
  5
AE
100
AcDbEntity
  8
Dim
  6
ByBlock
 62
    0
370
   -2
100
AcDbLine
 10
462
 20
-40.00000000000002
 11
600
 21
-40.00000000000002
  0
MTEXT
  5
AF
100
AcDbEntity
  8
Dim
  6
CONTINUOUS
 62
    0
370
   -2
100
AcDbMText
 10
531
 20
-40.00000000000002
 30
0
 40
11
 41
38.50000000000068
 71
    5
 72
    1
  1
11'-6"
  7
Standard
210
0
220
0
230
1
 50
0
 73
    2
 44
1
  0
SOLID
  5
B0
100
AcDbEntity
  8
Dim
  6
ByBlock
 62
    0
370
   -2
100
AcDbTrace
 10
462
 20
-40.00000000000002
 30
0
 11
464.5
 21
-39.58371534222718
 31
0
 12
464.5
 22
-40.41628465777286
 32
0
 13
464.5
 23
-40.41628465777286
 33
0
  0
SOLID
  5
B1
100
AcDbEntity
  8
Dim
  6
ByBlock
 62
    0
370
   -2
100
AcDbTrace
 10
600
 20
-40.00000000000002
 30
0
 11
597.5
 21
-40.41628465777286
 31
0
 12
597.5
 22
-39.58371534222718
 32
0
 13
597.5
 23
-39.58371534222718
 33
0
  0
LINE
  5
B2
100
AcDbEntity
  8
Dim
  6
ByBlock
 62
    0
370
   -2
100
AcDbLine
 10
462
 20
-0.625
 11
462
 21
-41.25000000000002
  0
LINE
  5
B3
100
AcDbEntity
  8
Dim
  6
ByBlock
 62
    0
370
   -2
100
AcDbLine
 10
600
 20
-0.625
 11
600
 21
-41.25000000000002
  0
ENDBLK
  5
5C
330
5A
100
AcDbEntity
  8
0
100
AcDbBlockEnd
  0
BLOCK
  5
5E
330
5D
100
AcDbEntity
  8
0
100
AcDbBlockBegin
  2
*D5
 70
    1
 10
0
 20
0
  3
*D5
  1

  0
LINE
  5
B4
100
AcDbEntity
  8
Dim
  6
ByBlock
 62
    0
370
   -2
100
AcDbLine
 10
264
 20
409.744038815259
 11
384.0000000000001
 21
409.744038815259
  0
MTEXT
  5
B5
100
AcDbEntity
  8
Dim
  6
CONTINUOUS
 62
    0
370
   -2
100
AcDbMText
 10
324
 20
409.744038815259
 30
0
 40
11
 41
40.94444444444445
 71
    5
 72
    1
  1
10'-0"
  7
Standard
210
0
220
0
230
1
 50
0
 73
    2
 44
1
  0
SOLID
  5
B6
100
AcDbEntity
  8
Dim
  6
ByBlock
 62
    0
370
   -2
100
AcDbTrace
 10
264
 20
409.744038815259
 30
0
 11
266.5
 21
410.1603234730318
 31
0
 12
266.5
 22
409.3277541574861
 32
0
 13
266.5
 23
409.3277541574861
 33
0
  0
SOLID
  5
B7
100
AcDbEntity
  8
Dim
  6
ByBlock
 62
    0
370
   -2
100
AcDbTrace
 10
384.0000000000001
 20
409.744038815259
 30
0
 11
381.5000000000001
 21
409.3277541574861
 31
0
 12
381.5000000000001
 22
410.1603234730318
 32
0
 13
381.5000000000001
 23
410.1603234730318
 33
0
  0
LINE
  5
B8
100
AcDbEntity
  8
Dim
  6
ByBlock
 62
    0
370
   -2
100
AcDbLine
 10
264
 20
372.625
 11
264
 21
410.994038815259
  0
LINE
  5
B9
100
AcDbEntity
  8
Dim
  6
ByBlock
 62
    0
370
   -2
100
AcDbLine
 10
384.0000000000001
 20
372.625
 11
384.0000000000001
 21
410.994038815259
  0
ENDBLK
  5
5F
330
5D
100
AcDbEntity
  8
0
100
AcDbBlockEnd
  0
BLOCK
  5
61
330
60
100
AcDbEntity
  8
0
100
AcDbBlockBegin
  2
*D6
 70
    1
 10
0
 20
0
  3
*D6
  1

  0
LINE
  5
BA
100
AcDbEntity
  8
Dim
  6
ByBlock
 62
    0
370
   -2
100
AcDbLine
 10
-48.2404548411487
 20
372
 11
-48.24045484114872
 21
186
  0
MTEXT
  5
BB
100
AcDbEntity
  8
Dim
  6
CONTINUOUS
 62
    0
370
   -2
100
AcDbMText
 10
-48.24045484114865
 20
279
 30
0
 40
11
 41
40.94444444444581
 71
    5
 72
    1
  1
15'-6"
  7
Standard
210
0
220
0
230
1
 50
90
 73
    2
 44
1
  0
SOLID
  5
BC
100
AcDbEntity
  8
Dim
  6
ByBlock
 62
    0
370
   -2
100
AcDbTrace
 10
-48.2404548411487
 20
372
 30
0
 11
-47.82417018337586
 21
369.5
 31
0
 12
-48.65673949892155
 22
369.5
 32
0
 13
-48.65673949892155
 23
369.5
 33
0
  0
SOLID
  5
BD
100
AcDbEntity
  8
Dim
  6
ByBlock
 62
    0
370
   -2
100
AcDbTrace
 10
-48.24045484114872
 20
186
 30
0
 11
-48.65673949892156
 21
188.5
 31
0
 12
-47.82417018337588
 22
188.5
 32
0
 13
-47.82417018337588
 23
188.5
 33
0
  0
LINE
  5
BE
100
AcDbEntity
  8
Dim
  6
ByBlock
 62
    0
370
   -2
100
AcDbLine
 10
-0.625
 20
372
 11
-49.4904548411487
 21
372
  0
LINE
  5
BF
100
AcDbEntity
  8
Dim
  6
ByBlock
 62
    0
370
   -2
100
AcDbLine
 10
-0.625
 20
186
 11
-49.49045484114872
 21
186
  0
ENDBLK
  5
62
330
60
100
AcDbEntity
  8
0
100
AcDbBlockEnd
  0
BLOCK
  5
64
330
63
100
AcDbEntity
  8
0
100
AcDbBlockBegin
  2
*D7
 70
    1
 10
0
 20
0
  3
*D7
  1

  0
LINE
  5
C0
100
AcDbEntity
  8
Dim
  6
ByBlock
 62
    0
370
   -2
100
AcDbLine
 10
366.9128795829658
 20
372
 11
366.9128795829658
 21
312
  0
MTEXT
  5
C1
100
AcDbEntity
  8
Dim
  6
CONTINUOUS
 62
    0
370
   -2
100
AcDbMText
 10
366.9128795829658
 20
342
 30
0
 40
11
 41
34.83333333333402
 71
    5
 72
    1
  1
5'-0"
  7
Standard
210
0
220
0
230
1
 50
90
 73
    2
 44
1
  0
SOLID
  5
C2
100
AcDbEntity
  8
Dim
  6
ByBlock
 62
    0
370
   -2
100
AcDbTrace
 10
366.9128795829658
 20
372
 30
0
 11
367.3291642407386
 21
369.5
 31
0
 12
366.4965949251929
 22
369.5
 32
0
 13
366.4965949251929
 23
369.5
 33
0
  0
SOLID
  5
C3
100
AcDbEntity
  8
Dim
  6
ByBlock
 62
    0
370
   -2
100
AcDbTrace
 10
366.9128795829658
 20
312
 30
0
 11
366.4965949251929
 21
314.5
 31
0
 12
367.3291642407386
 22
314.5
 32
0
 13
367.3291642407386
 23
314.5
 33
0
  0
LINE
  5
C4
100
AcDbEntity
  8
Dim
  6
ByBlock
 62
    0
370
   -2
100
AcDbLine
 10
383.375
 20
372
 11
365.6628795829658
 21
372
  0
LINE
  5
C5
100
AcDbEntity
  8
Dim
  6
ByBlock
 62
    0
370
   -2
100
AcDbLine
 10
383.375
 20
312
 11
365.6628795829658
 21
312
  0
ENDBLK
  5
65
330
63
100
AcDbEntity
  8
0
100
AcDbBlockEnd
  0
BLOCK
  5
67
330
66
100
AcDbEntity
  8
0
100
AcDbBlockBegin
  2
*D2
 70
    1
 10
0
 20
0
  3
*D2
  1

  0
LINE
  5
C6
100
AcDbEntity
  8
Dim
  6
ByBlock
 62
    0
370
   -2
100
AcDbLine
 10
670.0000000000005
 20
372
 11
670.0000000000005
 21
0
  0
MTEXT
  5
C7
100
AcDbEntity
  8
Dim
  6
CONTINUOUS
 62
    0
370
   -2
100
AcDbMText
 10
670.0000000000003
 20
185.9999999999999
 30
0
 40
11
 41
40.94444444444512
 71
    5
 72
    1
  1
31'-0"
  7
Standard
210
0
220
0
230
1
 50
90
 73
    2
 44
1
  0
SOLID
  5
C8
100
AcDbEntity
  8
Dim
  6
ByBlock
 62
    0
370
   -2
100
AcDbTrace
 10
670.0000000000005
 20
372
 30
0
 11
670.4162846577733
 21
369.5
 31
0
 12
669.5837153422276
 22
369.5
 32
0
 13
669.5837153422276
 23
369.5
 33
0
  0
SOLID
  5
C9
100
AcDbEntity
  8
Dim
  6
ByBlock
 62
    0
370
   -2
100
AcDbTrace
 10
670.0000000000005
 20
0
 30
0
 11
669.5837153422276
 21
2.5
 31
0
 12
670.4162846577733
 22
2.5
 32
0
 13
670.4162846577733
 23
2.5
 33
0
  0
LINE
  5
CA
100
AcDbEntity
  8
Dim
  6
ByBlock
 62
    0
370
   -2
100
AcDbLine
 10
600.625
 20
372
 11
671.2500000000005
 21
372
  0
LINE
  5
CB
100
AcDbEntity
  8
Dim
  6
ByBlock
 62
    0
370
   -2
100
AcDbLine
 10
600.625
 20
0
 11
671.2500000000005
 21
0
  0
ENDBLK
  5
68
330
66
100
AcDbEntity
  8
0
100
AcDbBlockEnd
  0
BLOCK
  5
6A
330
69
100
AcDbEntity
  8
0
100
AcDbBlockBegin
  2
A$Cb089fc72
 70
    0
 10
0
 20
0
  3
A$Cb089fc72
  1

  0
LWPOLYLINE
  5
CC
100
AcDbEntity
  8
Door
  6
ByLayer
 62
  256
370
   -1
100
AcDbPolyline
 90
    4
 70
    1
 43
0
 10
0
 20
0
 10
3
 20
0
 10
3
 20
6
 10
0
 20
6
  0
ENDBLK
  5
6B
330
69
100
AcDbEntity
  8
0
100
AcDbBlockEnd
  0
BLOCK
  5
6D
330
6C
100
AcDbEntity
  8
0
100
AcDbBlockBegin
  2
Door 1
 70
    0
 10
0
 20
0
  3
Door 1
  1

  0
LWPOLYLINE
  5
CD
100
AcDbEntity
  8
Door
  6
ByLayer
 62
  256
370
   -1
100
AcDbPolyline
 90
    4
 70
    1
 43
0
 10
-6
 20
6
 10
-3
 20
6
 10
-3
 20
42
 10
-6
 20
42
  0
LWPOLYLINE
  5
CE
100
AcDbEntity
  8
Door
  6
ByLayer
 62
  256
370
   -1
100
AcDbPolyline
 90
    4
 70
    1
 43
0
 10
-3
 20
0
 10
0
 20
0
 10
0
 20
6
 10
-3
 20
6
  0
ARC
  5
CF
100
AcDbEntity
  8
Door
  6
ByLayer
 62
  256
370
   -1
100
AcDbCircle
 10
-6
 20
6
 40
36
100
AcDbArc
 50
90
 51
180
  0
LWPOLYLINE
  5
D0
100
AcDbEntity
  8
Door
  6
ByLayer
 62
  256
370
   -1
100
AcDbPolyline
 90
    4
 70
    1
 43
0
 10
-45
 20
0
 10
-42
 20
0
 10
-42
 20
6
 10
-45
 20
6
  0
ENDBLK
  5
6E
330
6C
100
AcDbEntity
  8
0
100
AcDbBlockEnd
  0
BLOCK
  5
70
330
6F
100
AcDbEntity
  8
0
100
AcDbBlockBegin
  2
Door 2
 70
    0
 10
0
 20
0
  3
Door 2
  1

  0
LWPOLYLINE
  5
D1
100
AcDbEntity
  8
Door
  6
ByLayer
 62
  256
370
   -1
100
AcDbPolyline
 90
    4
 70
    1
 43
0
 10
-6
 20
6
 10
-3
 20
6
 10
-3
 20
42
 10
-6
 20
42
  0
LWPOLYLINE
  5
D2
100
AcDbEntity
  8
Door
  6
ByLayer
 62
  256
370
   -1
100
AcDbPolyline
 90
    4
 70
    1
 43
0
 10
-3
 20
0
 10
0
 20
0
 10
0
 20
6
 10
-3
 20
6
  0
ARC
  5
D3
100
AcDbEntity
  8
Door
  6
ByLayer
 62
  256
370
   -1
100
AcDbCircle
 10
-6
 20
6
 40
36
100
AcDbArc
 50
90
 51
180
  0
LWPOLYLINE
  5
D4
100
AcDbEntity
  8
Door
  6
ByLayer
 62
  256
370
   -1
100
AcDbPolyline
 90
    4
 70
    1
 43
0
 10
-78
 20
6
 10
-81
 20
6
 10
-81
 20
42
 10
-78
 20
42
  0
LWPOLYLINE
  5
D5
100
AcDbEntity
  8
Door
  6
ByLayer
 62
  256
370
   -1
100
AcDbPolyline
 90
    4
 70
    1
 43
0
 10
-81
 20
0
 10
-84
 20
0
 10
-84
 20
6
 10
-81
 20
6
  0
ARC
  5
D6
100
AcDbEntity
  8
Door
  6
ByLayer
 62
  256
370
   -1
100
AcDbCircle
 10
-78
 20
6
 40
36
100
AcDbArc
 50
0
 51
90
  0
ENDBLK
  5
71
330
6F
100
AcDbEntity
  8
0
100
AcDbBlockEnd
  0
BLOCK
  5
73
330
72
100
AcDbEntity
  8
0
100
AcDbBlockBegin
  2
Window 1
 70
    0
 10
0
 20
0
  3
Window 1
  1

  0
LINE
  5
D7
100
AcDbEntity
  8
Window
  6
ByLayer
 62
  256
370
   -1
100
AcDbLine
 10
-60
 20
0
 11
0
 21
0
  0
LINE
  5
D8
100
AcDbEntity
  8
Window
  6
ByLayer
 62
  256
370
   -1
100
AcDbLine
 10
-60
 20
1
 11
0
 21
1
  0
LINE
  5
D9
100
AcDbEntity
  8
Window
  6
ByLayer
 62
  256
370
   -1
100
AcDbLine
 10
0
 20
0
 11
0
 21
6
  0
LINE
  5
DA
100
AcDbEntity
  8
Window
  6
ByLayer
 62
  256
370
   -1
100
AcDbLine
 10
0
 20
6
 11
-60
 21
6
  0
LINE
  5
DB
100
AcDbEntity
  8
Window
  6
ByLayer
 62
  256
370
   -1
100
AcDbLine
 10
0
 20
5
 11
-60
 21
5
  0
LINE
  5
DC
100
AcDbEntity
  8
Window
  6
ByLayer
 62
  256
370
   -1
100
AcDbLine
 10
-60
 20
6
 11
-60
 21
0
  0
LINE
  5
DD
100
AcDbEntity
  8
Window
  6
ByLayer
 62
  256
370
   -1
100
AcDbLine
 10
-29.99999999999997
 20
1
 11
-30
 21
5
  0
ENDBLK
  5
74
330
72
100
AcDbEntity
  8
0
100
AcDbBlockEnd
  0
BLOCK
  5
76
330
75
100
AcDbEntity
  8
0
100
AcDbBlockBegin
  2
Window 2
 70
    0
 10
0
 20
0
  3
Window 2
  1

  0
LINE
  5
DE
100
AcDbEntity
  8
Window
  6
ByLayer
 62
  256
370
   -1
100
AcDbLine
 10
-72
 20
0
 11
0
 21
0
  0
LINE
  5
DF
100
AcDbEntity
  8
Window
  6
ByLayer
 62
  256
370
   -1
100
AcDbLine
 10
-72
 20
2
 11
0
 21
2
  0
LINE
  5
E0
100
AcDbEntity
  8
Window
  6
ByLayer
 62
  256
370
   -1
100
AcDbLine
 10
0
 20
0
 11
0
 21
10
  0
LINE
  5
E1
100
AcDbEntity
  8
Window
  6
ByLayer
 62
  256
370
   -1
100
AcDbLine
 10
0
 20
10
 11
-72
 21
10
  0
LINE
  5
E2
100
AcDbEntity
  8
Window
  6
ByLayer
 62
  256
370
   -1
100
AcDbLine
 10
0
 20
8
 11
-72
 21
8
  0
LINE
  5
E3
100
AcDbEntity
  8
Window
  6
ByLayer
 62
  256
370
   -1
100
AcDbLine
 10
-72
 20
10
 11
-72
 21
0
  0
LINE
  5
E4
100
AcDbEntity
  8
Window
  6
ByLayer
 62
  256
370
   -1
100
AcDbLine
 10
-36
 20
2
 11
-36
 21
8
  0
ENDBLK
  5
77
330
75
100
AcDbEntity
  8
0
100
AcDbBlockEnd
  0
BLOCK
  5
79
330
78
100
AcDbEntity
  8
0
100
AcDbBlockBegin
  2
A$Cc9a0c13e
 70
    0
 10
0
 20
0
  3
A$Cc9a0c13e
  1

  0
INSERT
  5
E5
100
AcDbEntity
  8
Window
  6
ByLayer
 62
  256
370
   -1
100
AcDbBlockReference
  2
Window 2
 10
0
 20
0
 30
0
 41
1
 42
1
 43
0
 50
270
 70
    1
 71
    1
 44
0
 45
0
  0
ENDBLK
  5
7A
330
78
100
AcDbEntity
  8
0
100
AcDbBlockEnd
  0
BLOCK
  5
7C
330
7B
100
AcDbEntity
  8
0
100
AcDbBlockBegin
  2
Window 2 real
 70
    0
 10
0
 20
0
  3
Window 2 real
  1

  0
LINE
  5
E6
100
AcDbEntity
  8
Window
  6
ByLayer
 62
  256
370
   -1
100
AcDbLine
 10
-72
 20
0
 11
0
 21
0
  0
LINE
  5
E7
100
AcDbEntity
  8
Window
  6
ByLayer
 62
  256
370
   -1
100
AcDbLine
 10
-72
 20
2
 11
0
 21
2
  0
LINE
  5
E8
100
AcDbEntity
  8
Window
  6
ByLayer
 62
  256
370
   -1
100
AcDbLine
 10
0
 20
0
 11
0
 21
12
  0
LINE
  5
E9
100
AcDbEntity
  8
Window
  6
ByLayer
 62
  256
370
   -1
100
AcDbLine
 10
0
 20
12
 11
-72
 21
12
  0
LINE
  5
EA
100
AcDbEntity
  8
Window
  6
ByLayer
 62
  256
370
   -1
100
AcDbLine
 10
0
 20
10
 11
-72
 21
10
  0
LINE
  5
EB
100
AcDbEntity
  8
Window
  6
ByLayer
 62
  256
370
   -1
100
AcDbLine
 10
-72
 20
12
 11
-72
 21
0
  0
LINE
  5
EC
100
AcDbEntity
  8
Window
  6
ByLayer
 62
  256
370
   -1
100
AcDbLine
 10
-36
 20
2
 11
-36
 21
10
  0
ENDBLK
  5
7D
330
7B
100
AcDbEntity
  8
0
100
AcDbBlockEnd
  0
BLOCK
  5
7F
330
7E
100
AcDbEntity
  8
0
100
AcDbBlockBegin
  2
Bath Tub - 26 x 60 in.
 70
    0
 10
0
 20
0
  3
Bath Tub - 26 x 60 in.
  1

  0
ARC
  5
ED
100
AcDbEntity
  8
0
  6
ByLayer
 62
  256
370
   -1
100
AcDbCircle
 10
42
 20
-18
 40
14
100
AcDbArc
 50
270
 51
90
  0
LINE
  5
EE
100
AcDbEntity
  8
0
  6
ByLayer
 62
  256
370
   -1
100
AcDbLine
 10
9
 20
-17
 11
9
 21
-19
  0
LINE
  5
EF
100
AcDbEntity
  8
0
  6
ByLayer
 62
  256
370
   -1
100
AcDbLine
 10
8
 20
-18
 11
10
 21
-18
  0
CIRCLE
  5
F0
100
AcDbEntity
  8
0
  6
ByLayer
 62
  256
370
   -1
100
AcDbCircle
 10
9
 20
-18
 40
1
  0
ARC
  5
F1
100
AcDbEntity
  8
0
  6
ByLayer
 62
  256
370
   -1
100
AcDbCircle
 10
5.75
 20
-5.75
 40
1.767766999999999
100
AcDbArc
 50
81.86989999999999
 51
188.1301
  0
CIRCLE
  5
F2
100
AcDbEntity
  8
0
  6
ByLayer
 62
  256
370
   -1
100
AcDbCircle
 10
9
 20
-18
 40
1.5
  0
ARC
  5
F3
100
AcDbEntity
  8
0
  6
ByLayer
 62
  256
370
   -1
100
AcDbCircle
 10
5.75
 20
-30.25
 40
1.767766999999999
100
AcDbArc
 50
171.8699
 51
278.1301
  0
LWPOLYLINE
  5
F4
100
AcDbEntity
  8
0
  6
ByLayer
 62
  256
370
   -1
100
AcDbPolyline
 90
    2
 70
    0
 43
0
 10
4
 20
-30
 10
4
 20
-6
  0
LWPOLYLINE
  5
F5
100
AcDbEntity
  8
0
  6
ByLayer
 62
  256
370
   -1
100
AcDbPolyline
 90
    2
 70
    0
 43
0
 10
6
 20
-4
 10
42
 20
-4
  0
LWPOLYLINE
  5
F6
100
AcDbEntity
  8
0
  6
ByLayer
 62
  256
370
   -1
100
AcDbPolyline
 90
    2
 70
    0
 43
0
 10
42
 20
-32
 10
6
 20
-32
  0
LWPOLYLINE
  5
F7
100
AcDbEntity
  8
0
  6
ByLayer
 62
  256
370
   -1
100
AcDbPolyline
 90
    4
 70
    1
 43
0
 10
0
 20
-36
 10
0
 20
0
 10
60
 20
0
 10
60
 20
-36
  0
ENDBLK
  5
80
330
7E
100
AcDbEntity
  8
0
100
AcDbBlockEnd
  0
BLOCK
  5
82
330
81
100
AcDbEntity
  8
0
100
AcDbBlockBegin
  2
Sink - Oval top
 70
    0
 10
0
 20
0
  3
Sink - Oval top
  1

  0
CIRCLE
  5
F8
100
AcDbEntity
  8
0
  6
ByLayer
 62
  256
370
   -1
100
AcDbCircle
 10
0
 20
0
 40
1
  0
CIRCLE
  5
F9
100
AcDbEntity
  8
0
  6
ByLayer
 62
  256
370
   -1
100
AcDbCircle
 10
0
 20
0
 40
1.5
  0
LINE
  5
FA
100
AcDbEntity
  8
0
  6
ByLayer
 62
  256
370
   -1
100
AcDbLine
 10
-1
 20
0
 11
1
 21
0
  0
LINE
  5
FB
100
AcDbEntity
  8
0
  6
ByLayer
 62
  256
370
   -1
100
AcDbLine
 10
0
 20
1
 11
0
 21
-1
  0
LWPOLYLINE
  5
FC
100
AcDbEntity
  8
0
  6
CONTINUOUS
 62
  256
370
   -1
100
AcDbPolyline
 90
   16
 70
    1
 43
0
 10
-11.28627986850119
 20
0.1590597164737362
 42
0.1186217001864141
 10
-10.51590095791209
 20
-3.253161772358108
 42
0.1046781721811095
 10
-8.071803350560117
 20
-6.358618019863343
 42
0.08956206646917379
 10
-4.537699193222358
 20
-8.3669719296098
 42
0.08118469889121784
 10
-0.1289739026696047
 20
-9.151503558114371
 42
0.08118469889122745
 10
4.300109150126209
 20
-8.491524865184603
 42
0.08956206646917961
 10
7.889406708212611
 20
-6.58356242812761
 42
0.1046781721811045
 10
10.42004782883111
 20
-3.548216131892446
 42
0.1186217001864013
 10
11.28627986850119
 20
-0.1590597164736232
 42
0.1186217001863945
 10
10.51590095791221
 20
3.253161772357998
 42
0.1046781721811069
 10
8.071803350560117
 20
6.358618019863341
 42
0.08956206646917561
 10
4.537699193222123
 20
8.366971929609916
 42
0.08118469889121599
 10
0.1289739026695993
 20
9.151503558114428
 42
0.08118469889121421
 10
-4.300109150125876
 20
8.491524865184827
 42
0.08956206646917475
 10
-7.889406708212619
 20
6.58356242812761
 42
0.1046781721811046
 10
-10.42004782883111
 20
3.548216131892448
 42
0.1186217001863946
  0
LWPOLYLINE
  5
FD
100
AcDbEntity
  8
0
  6
CONTINUOUS
 62
  256
370
   -1
100
AcDbPolyline
 90
   16
 70
    1
 43
0
 10
-12.23371880354079
 20
0.3941914712607962
 42
0.1176342565883262
 10
-11.46456229543957
 20
-3.361933235489114
 42
0.104469279667093
 10
-8.878748691070431
 20
-6.803541973650563
 42
0.09001578960148494
 10
-5.082757700676662
 20
-9.072309807490516
 42
0.08191994915921845
 10
-0.3227280122732744
 20
-10.01585280257211
 42
0.08191994915920905
 10
4.488169920880967
 20
-9.380701564817915
 42
0.09001578960148013
 10
8.422342359155774
 20
-7.361012898479436
 42
0.1044692796670922
 10
11.22435122606941
 20
-4.093009071543411
 42
0.1176342565883338
 10
12.23371880354091
 20
-0.3941914712608021
 42
0.1176342565883056
 10
11.46456229543992
 20
3.361933235488777
 42
0.1044692796670849
 10
8.878748691070429
 20
6.803541973650569
 42
0.09001578960148841
 10
5.082757700676325
 20
9.072309807490683
 42
0.08191994915920582
 10
0.3227280122732741
 20
10.01585280257211
 42
0.08191994915920699
 10
-4.488169920880864
 20
9.380701564817969
 42
0.09001578960148018
 10
-8.422342359155778
 20
7.361012898479428
 42
0.1044692796670951
 10
-11.22435122606919
 20
4.093009071543632
 42
0.1176342565883402
  0
LWPOLYLINE
  5
FE
100
AcDbEntity
  8
0
  6
CONTINUOUS
 62
  256
370
   -1
100
AcDbPolyline
 90
   16
 70
    1
 43
0
 10
-7.420452389032902
 20
0.08298767816018002
 42
0.1182825673856775
 10
-6.907065465214486
 20
-2.167464938077499
 42
0.1046074595377273
 10
-5.294791470712083
 20
-4.209988192029413
 42
0.08971796362609945
 10
-2.966599981142513
 20
-5.528122152688065
 42
0.08143608252771137
 10
-0.06751351878551949
 20
-6.036810076758798
 42
0.08143608252772187
 10
2.842224378240529
 20
-5.593085960977873
 42
0.08971796362613169
 10
5.199312936802019
 20
-4.32735049199334
 42
0.1046074595376876
 10
6.856863656826589
 20
-2.321395784920358
 42
0.1182825673856713
 10
7.420452389033015
 20
-0.08298767816018168
 42
0.118282567385696
 10
6.907065465214485
 20
2.167464938077614
 42
0.1046074595377135
 10
5.294791470712083
 20
4.209988192029413
 42
0.08971796362612651
 10
2.966599981142621
 20
5.528122152687843
 42
0.08143608252774261
 10
0.06751351878551698
 20
6.036810076758795
 42
0.0814360825277225
 10
-2.842224378240644
 20
5.593085960977871
 42
0.08971796362612122
 10
-5.199312936802018
 20
4.327350491993341
 42
0.1046074595377049
 10
-6.856863656826476
 20
2.321395784920355
 42
0.1182825673856712
  0
ENDBLK
  5
83
330
81
100
AcDbEntity
  8
0
100
AcDbBlockEnd
  0
BLOCK
  5
85
330
84
100
AcDbEntity
  8
0
100
AcDbBlockBegin
  2
Toilet - top
 70
    0
 10
0
 20
0
  3
Toilet - top
  1

  0
ARC
  5
FF
100
AcDbEntity
  8
0
  6
ByLayer
 62
  256
370
   -1
100
AcDbCircle
 10
2.09415214183e-05
 20
-28.99996806116075
 40
4
100
AcDbArc
 50
254.8605283244437
 51
285.1394707718433
  0
ARC
  5
100
100
AcDbEntity
  8
0
  6
ByLayer
 62
  256
370
   -1
100
AcDbCircle
 10
2.09660981727e-05
 20
-27.87646475467881
 40
4
100
AcDbArc
 50
245.7318247449371
 51
294.2681740488959
  0
LINE
  5
101
100
AcDbEntity
  8
0
  6
ByLayer
 62
  256
370
   -1
100
AcDbLine
 10
4
 20
-14
 11
-4
 21
-14
  0
LWPOLYLINE
  5
102
100
AcDbEntity
  8
0
  6
ByLayer
 62
  256
370
   -1
100
AcDbPolyline
 90
    4
 70
    1
 43
0
 10
10.5
 20
-8
 10
10.5
 20
0
 10
-10.5
 20
0
 10
-10.5
 20
-8
  0
LWPOLYLINE
  5
103
100
AcDbEntity
  8
0
  6
ByLayer
 62
  256
370
   -1
100
AcDbPolyline
 90
    2
 70
    0
 43
0
 10
-8.5
 20
-7
 10
8.5
 20
-7
  0
LWPOLYLINE
  5
104
100
AcDbEntity
  8
0
  6
ByLayer
 62
  256
370
   -1
100
AcDbPolyline
 90
    2
 70
    0
 43
0
 10
8.5
 20
-1
 10
-8.5
 20
-1
  0
LINE
  5
105
100
AcDbEntity
  8
0
  6
ByLayer
 62
  256
370
   -1
100
AcDbLine
 10
-4
 20
-8
 11
-6
 21
-14
  0
ARC
  5
106
100
AcDbEntity
  8
0
  6
ByLayer
 62
  256
370
   -1
100
AcDbCircle
 10
3.519562435188956
 20
-21.58049502388982
 40
12.16902005083646
100
AcDbArc
 50
141.4691096810948
 51
247.9714346835576
  0
ARC
  5
107
100
AcDbEntity
  8
0
  6
ByLayer
 62
  256
370
   -1
100
AcDbCircle
 10
4.199957580658807
 20
-21.81740929088453
 40
11.3291791325804
100
AcDbArc
 50
136.3677254423718
 51
238.946823937405
  0
LWPOLYLINE
  5
108
100
AcDbEntity
  8
0
  6
ByLayer
 62
  256
370
   -1
100
AcDbPolyline
 90
    2
 70
    0
 43
0
 10
-9.5
 20
-2
 10
-9.5
 20
-6
  0
LINE
  5
109
100
AcDbEntity
  8
0
  6
ByLayer
 62
  256
370
   -1
100
AcDbLine
 10
-7
 20
-9.5
 11
-10
 21
-9.5
  0
LINE
  5
10A
100
AcDbEntity
  8
0
  6
ByLayer
 62
  256
370
   -1
100
AcDbLine
 10
-10
 20
-8.5
 11
-8
 21
-8.5
  0
LINE
  5
10B
100
AcDbEntity
  8
0
  6
ByLayer
 62
  256
370
   -1
100
AcDbLine
 10
-10
 20
-9.5
 11
-10
 21
-8.5
  0
LINE
  5
10C
100
AcDbEntity
  8
0
  6
ByLayer
 62
  256
370
   -1
100
AcDbLine
 10
-8
 20
-8.5
 11
-8
 21
-8
  0
LINE
  5
10D
100
AcDbEntity
  8
0
  6
ByLayer
 62
  256
370
   -1
100
AcDbLine
 10
-7
 20
-8
 11
-7
 21
-9.5
  0
ARC
  5
10E
100
AcDbEntity
  8
0
  6
ByLayer
 62
  256
370
   -1
100
AcDbCircle
 10
-8.625
 20
-6.125
 40
0.8838834999999999
100
AcDbArc
 50
171.869898
 51
278.1301
  0
ARC
  5
10F
100
AcDbEntity
  8
0
  6
ByLayer
 62
  256
370
   -1
100
AcDbCircle
 10
-8.625
 20
-1.875
 40
0.8838834999999999
100
AcDbArc
 50
81.86989999999999
 51
188.1301
  0
LINE
  5
110
100
AcDbEntity
  8
0
  6
ByLayer
 62
  256
370
   -1
100
AcDbLine
 10
4
 20
-8
 11
6
 21
-14
  0
ARC
  5
111
100
AcDbEntity
  8
0
  6
ByLayer
 62
  256
370
   -1
100
AcDbCircle
 10
-3.519499936778316
 20
-21.58047137067522
 40
12.16903423757823
100
AcDbArc
 50
292.0284332733152
 51
38.53070636800453
  0
ARC
  5
112
100
AcDbEntity
  8
0
  6
ByLayer
 62
  256
370
   -1
100
AcDbCircle
 10
-4.199890672038477
 20
-21.81738596564128
 40
11.32918622148567
100
AcDbArc
 50
301.0530065773863
 51
43.63209216694732
  0
LINE
  5
113
100
AcDbEntity
  8
0
  6
ByLayer
 62
  256
370
   -1
100
AcDbLine
 10
9.5
 20
-6
 11
9.5
 21
-2
  0
ARC
  5
114
100
AcDbEntity
  8
0
  6
ByLayer
 62
  256
370
   -1
100
AcDbCircle
 10
8.625
 20
-6.125
 40
0.8838834999999999
100
AcDbArc
 50
261.8699
 51
8.130099999999993
  0
ARC
  5
115
100
AcDbEntity
  8
0
  6
ByLayer
 62
  256
370
   -1
100
AcDbCircle
 10
8.625
 20
-1.875
 40
0.8838834999999999
100
AcDbArc
 50
351.8699
 51
98.13009999999998
  0
ENDBLK
  5
86
330
84
100
AcDbEntity
  8
0
100
AcDbBlockEnd
  0
BLOCK
  5
88
330
87
100
AcDbEntity
  8
0
100
AcDbBlockBegin
  2
Bed - Queen
 70
    0
 10
0
 20
0
  3
Bed - Queen
  1

  0
LINE
  5
116
100
AcDbEntity
  8
0
  6
CONTINUOUS
 62
  256
370
   -1
100
AcDbLine
 10
51.99999000000001
 20
-16.4
 11
46.79936
 21
-16.4
  0
LINE
  5
117
100
AcDbEntity
  8
0
  6
CONTINUOUS
 62
  256
370
   -1
100
AcDbLine
 10
51.99999000000001
 20
-1.200000000000017
 11
51.99999000000001
 21
-16.4
  0
LINE
  5
118
100
AcDbEntity
  8
0
  6
CONTINUOUS
 62
  256
370
   -1
100
AcDbLine
 10
31.19999
 20
-1.200000000000017
 11
51.99999000000001
 21
-1.200000000000017
  0
LINE
  5
119
100
AcDbEntity
  8
0
  6
CONTINUOUS
 62
  256
370
   -1
100
AcDbLine
 10
31.19999
 20
-14.4
 11
31.19999
 21
-1.200000000000017
  0
LINE
  5
11A
100
AcDbEntity
  8
0
  6
CONTINUOUS
 62
  256
370
   -1
100
AcDbLine
 10
28.79998
 20
-1.200000000000017
 11
28.79998
 21
-14.4
  0
LINE
  5
11B
100
AcDbEntity
  8
0
  6
CONTINUOUS
 62
  256
370
   -1
100
AcDbLine
 10
7.99999
 20
-1.200000000000017
 11
28.79998
 21
-1.200000000000017
  0
LINE
  5
11C
100
AcDbEntity
  8
0
  6
CONTINUOUS
 62
  256
370
   -1
100
AcDbLine
 10
7.99999
 20
-14.4
 11
7.99999
 21
-1.200000000000017
  0
LINE
  5
11D
100
AcDbEntity
  8
0
  6
CONTINUOUS
 62
  256
370
   -1
100
AcDbLine
 10
59.99998999999999
 20
-80.00003000000002
 11
0
 21
-80.00003000000002
  0
LINE
  5
11E
100
AcDbEntity
  8
0
  6
CONTINUOUS
 62
  256
370
   -1
100
AcDbLine
 10
0
 20
-80.00003000000002
 11
0
 21
0
  0
LINE
  5
11F
100
AcDbEntity
  8
0
  6
CONTINUOUS
 62
  256
370
   -1
100
AcDbLine
 10
44.79999999999999
 20
-16.80000000000001
 11
0
 21
-16.80000000000001
  0
LINE
  5
120
100
AcDbEntity
  8
0
  6
CONTINUOUS
 62
  256
370
   -1
100
AcDbLine
 10
0
 20
-14.4
 11
44.79999999999999
 21
-14.4
  0
LINE
  5
121
100
AcDbEntity
  8
0
  6
CONTINUOUS
 62
  256
370
   -1
100
AcDbLine
 10
0
 20
0
 11
59.99998999999999
 21
0
  0
LINE
  5
122
100
AcDbEntity
  8
0
  6
CONTINUOUS
 62
  256
370
   -1
100
AcDbLine
 10
59.99998999999999
 20
0
 11
59.99998999999999
 21
-80.00003000000002
  0
LINE
  5
123
100
AcDbEntity
  8
0
  6
CONTINUOUS
 62
  256
370
   -1
100
AcDbLine
 10
59.99998999999999
 20
-29.60000000000001
 11
44.79999999999999
 21
-14.4
  0
LINE
  5
124
100
AcDbEntity
  8
0
  6
CONTINUOUS
 62
  256
370
   -1
100
AcDbLine
 10
44.79999999999999
 20
-29.60000000000001
 11
59.99998999999999
 21
-29.60000000000001
  0
LINE
  5
125
100
AcDbEntity
  8
0
  6
CONTINUOUS
 62
  256
370
   -1
100
AcDbLine
 10
44.79999999999999
 20
-14.4
 11
44.79999999999999
 21
-29.60000000000001
  0
ENDBLK
  5
89
330
87
100
AcDbEntity
  8
0
100
AcDbBlockEnd
  0
BLOCK
  5
8B
330
8A
100
AcDbEntity
  8
0
100
AcDbBlockBegin
  2
Dining Set - 36 x 72 in.
 70
    0
 10
0
 20
0
  3
Dining Set - 36 x 72 in.
  1

  0
LINE
  5
126
100
AcDbEntity
  8
0
  6
CONTINUOUS
 62
  256
370
   -1
100
AcDbLine
 10
36
 20
18
 11
-36
 21
18
  0
LWPOLYLINE
  5
127
100
AcDbEntity
  8
0
  6
CONTINUOUS
 62
  256
370
   -1
100
AcDbPolyline
 90
   73
 70
    0
 43
0
 10
-36
 20
15
 10
-31.17720000000003
 20
14.97754
 10
-26.80790000000002
 20
14.91406
 10
-22.85380000000003
 20
14.81543
 10
-19.27600000000001
 20
14.6875
 10
-16.03620000000001
 20
14.53613
 10
-13.09570000000002
 20
14.36718
 10
-10.41590000000002
 20
14.18652
 10
-7.958300000000008
 20
14
 10
-5.690400000000011
 20
13.81315
 10
-3.603499999999996
 20
13.63021
 10
-1.695400000000006
 20
13.45508
 10
0.0364999999999896
 20
13.29166
 10
1.594499999999982
 20
13.14388
 10
2.981099999999969
 20
13.01562
 10
4.198800000000005
 20
12.9108
 10
5.25
 20
12.83333
 10
6.139299999999991
 20
12.78613
 10
6.880200000000002
 20
12.76823
 10
7.488299999999981
 20
12.77767
 10
7.979199999999991
 20
12.8125
 10
8.368499999999983
 20
12.87077
 10
8.671899999999994
 20
12.95052
 10
8.904899999999998
 20
13.0498
 10
9.083300000000008
 20
13.16666
 10
9.220499999999959
 20
13.29899000000001
 10
9.321599999999989
 20
13.44401
 10
9.389499999999998
 20
13.59879
 10
9.427099999999996
 20
13.76041
 10
9.437299999999993
 20
13.92594
 10
9.423200000000008
 20
14.09245
 10
9.387499999999989
 20
14.257
 10
9.333300000000008
 20
14.41666
 10
9.263800000000003
 20
14.56917
 10
9.183600000000013
 20
14.71484
 10
9.097499999999968
 20
14.85465
 10
9.010400000000004
 20
14.98958
 10
8.927199999999971
 20
15.12060000000001
 10
8.852899999999975
 20
15.2487
 10
8.79219999999998
 20
15.37483
 10
8.75
 20
15.5
 10
8.730500000000006
 20
15.62467
 10
8.734399999999994
 20
15.74739
 10
8.761699999999962
 20
15.86621
 10
8.8125
 20
15.97916
 10
8.886699999999962
 20
16.08431
 10
8.984399999999994
 20
16.17968
 10
9.105500000000006
 20
16.26334
 10
9.25
 20
16.33333
 10
9.418900000000008
 20
16.38802
 10
9.617199999999968
 20
16.42708
 10
9.850599999999986
 20
16.45052
 10
10.125
 20
16.45833
 10
10.44630000000001
 20
16.45052
 10
10.82029999999997
 20
16.42708
 10
11.25290000000001
 20
16.38802
 10
11.75
 20
16.33333
 10
12.3184
 20
16.26318
 10
12.96940000000001
 20
16.17838
 10
13.7151
 20
16.07991
 10
14.5677
 20
15.96875
 10
15.53949999999997
 20
15.84586
 10
16.64259999999996
 20
15.71224
 10
17.88929999999999
 20
15.56884
 10
19.29169999999999
 20
15.41666
 10
20.85899999999998
 20
15.25667
 10
22.58789999999999
 20
15.08984
 10
24.47210000000001
 20
14.91715
 10
26.5052
 20
14.73958
 10
28.68090000000001
 20
14.5581
 10
30.99289999999996
 20
14.3737
 10
33.43469999999996
 20
14.18733
 10
36
 20
14
  0
LWPOLYLINE
  5
128
100
AcDbEntity
  8
0
  6
CONTINUOUS
 62
  256
370
   -1
100
AcDbPolyline
 90
   81
 70
    0
 43
0
 10
-36
 20
10
 10
-28.97660000000002
 20
10.14274000000001
 10
-23.17250000000001
 20
10.20442
 10
-18.42410000000001
 20
10.19775
 10
-14.5677
 20
10.13541
 10
-11.43990000000002
 20
10.03011
 10
-8.87700000000001
 20
9.894530000000007
 10
-6.715399999999988
 20
9.741370000000005
 10
-4.791699999999991
 20
9.58333
 10
-2.96980000000002
 20
9.430820000000001
 10
-1.224600000000009
 20
9.285150000000005
 10
0.4414999999999623
 20
9.145339999999999
 10
2.02600000000001
 20
9.010410000000004
 10
3.526599999999973
 20
8.879390000000004
 10
4.940799999999967
 20
8.751300000000004
 10
6.265999999999962
 20
8.625160000000005
 10
7.5
 20
8.500000000000004
 10
8.641099999999994
 20
8.375490000000003
 10
9.691399999999987
 20
8.253900000000005
 10
10.65379999999999
 20
8.13818
 10
11.53120000000001
 20
8.031250000000004
 10
12.32669999999996
 20
7.936030000000005
 10
13.043
 20
7.85547
 10
13.68309999999997
 20
7.792480000000001
 10
14.25
 20
7.750000000000003
 10
14.74709999999999
 20
7.730300000000003
 10
15.17969999999997
 20
7.733070000000001
 10
15.55369999999999
 20
7.757320000000003
 10
15.875
 20
7.80208
 10
16.14940000000001
 20
7.866370000000006
 10
16.38279999999997
 20
7.94922
 10
16.58109999999999
 20
8.04964
 10
16.75
 20
8.166660000000004
 10
16.89439999999996
 20
8.299149999999999
 10
17.01429999999999
 20
8.445310000000003
 10
17.1089
 20
8.603190000000001
 10
17.17709999999999
 20
8.77083
 10
17.21799999999996
 20
8.946290000000001
 10
17.2305
 20
9.127600000000005
 10
17.21369999999996
 20
9.312820000000006
 10
17.16669999999999
 20
9.500000000000004
 10
17.08949999999999
 20
9.687500000000004
 10
16.98699999999996
 20
9.875000000000004
 10
16.86489999999998
 20
10.0625
 10
16.72919999999999
 20
10.25
 10
16.5856
 20
10.4375
 10
16.44009999999997
 20
10.625
 10
16.29849999999999
 20
10.8125
 10
16.16669999999999
 20
11
 10
16.05000000000001
 20
11.18733
 10
15.95179999999999
 20
11.3737
 10
15.8752
 20
11.5581
 10
15.8229
 20
11.73958
 10
15.798
 20
11.91715
 10
15.80340000000001
 20
12.08984
 10
15.84199999999998
 20
12.25667
 10
15.91669999999999
 20
12.41666
 10
16.02949999999998
 20
12.56836
 10
16.17840000000001
 20
12.70833
 10
16.3605
 20
12.83268
 10
16.5729
 20
12.9375
 10
16.8127
 20
13.01888000000001
 10
17.07679999999999
 20
13.07291
 10
17.36250000000001
 20
13.0957
 10
17.66669999999999
 20
13.08333
 10
17.98939999999999
 20
13.03312
 10
18.34179999999998
 20
12.94726
 10
18.7382
 20
12.82918
 10
19.1927
 20
12.68229
 10
19.71949999999998
 20
12.51001
 10
20.33269999999999
 20
12.31575
 10
21.04649999999998
 20
12.10294
 10
21.875
 20
11.875
 10
22.83569999999997
 20
11.63354
 10
23.95900000000001
 20
11.37304
 10
25.27859999999999
 20
11.08618
 10
26.82819999999998
 20
10.76562
 10
28.64139999999998
 20
10.40405
 10
30.75200000000001
 20
9.994140000000005
 10
33.1936
 20
9.528560000000002
 10
36
 20
9.000000000000004
  0
LWPOLYLINE
  5
129
100
AcDbEntity
  8
0
  6
CONTINUOUS
 62
  256
370
   -1
100
AcDbPolyline
 90
   65
 70
    0
 43
0
 10
-36
 20
5.500000000000003
 10
-30.71570000000003
 20
5.334800000000004
 10
-26.06900000000002
 20
5.20963
 10
-21.99459999999999
 20
5.11767
 10
-18.42709999999999
 20
5.05208
 10
-15.30090000000001
 20
5.006020000000003
 10
-12.55080000000004
 20
4.972650000000005
 10
-10.1112
 20
4.945150000000001
 10
-7.916699999999991
 20
4.916660000000003
 10
-5.908999999999991
 20
4.881670000000003
 10
-4.058600000000012
 20
4.839840000000005
 10
-2.342899999999985
 20
4.792150000000003
 10
-0.7395999999999959
 20
4.73958
 10
0.7738999999999692
 20
4.683100000000006
 10
2.21999999999997
 20
4.623700000000003
 10
3.621299999999962
 20
4.562330000000006
 10
5
 20
4.500000000000003
 10
6.37299999999999
 20
4.437820000000005
 10
7.734399999999993
 20
4.377600000000004
 10
9.072299999999984
 20
4.321290000000001
 10
10.375
 20
4.27083
 10
11.63089999999999
 20
4.228190000000001
 10
12.8281
 20
4.195310000000002
 10
13.95509999999996
 20
4.17415
 10
15
 20
4.166660000000003
 10
15.95400000000001
 20
4.174480000000006
 10
16.81899999999996
 20
4.197910000000003
 10
17.6001
 20
4.236980000000006
 10
18.30209999999999
 20
4.291660000000003
 10
18.92989999999997
 20
4.361980000000006
 10
19.48829999999998
 20
4.447910000000003
 10
19.98230000000001
 20
4.549480000000006
 10
20.41669999999999
 20
4.666660000000003
 10
20.79689999999999
 20
4.798990000000006
 10
21.1302
 20
4.944010000000002
 10
21.42449999999997
 20
5.098790000000004
 10
21.6875
 20
5.260410000000003
 10
21.92709999999999
 20
5.42594
 10
22.15109999999999
 20
5.592450000000003
 10
22.36719999999997
 20
5.757000000000001
 10
22.58339999999998
 20
5.916660000000003
 10
22.80649999999997
 20
6.068680000000004
 10
23.04039999999998
 20
6.210930000000001
 10
23.28789999999998
 20
6.341470000000004
 10
23.5521
 20
6.45833
 10
23.83580000000001
 20
6.559570000000004
 10
24.142
 20
6.643230000000006
 10
24.4735
 20
6.707350000000001
 10
24.83339999999998
 20
6.750000000000003
 10
25.2235
 20
6.76969
 10
25.642
 20
6.766920000000002
 10
26.08580000000001
 20
6.74267
 10
26.5521
 20
6.697910000000003
 10
27.03789999999998
 20
6.633620000000004
 10
27.54039999999998
 20
6.550780000000006
 10
28.05649999999997
 20
6.450360000000006
 10
28.58339999999998
 20
6.33333
 10
29.12419999999997
 20
6.19987
 10
29.70709999999997
 20
6.046870000000001
 10
30.36609999999996
 20
5.870440000000005
 10
31.1354
 20
5.666660000000003
 10
32.04929999999996
 20
5.431640000000005
 10
33.142
 20
5.161460000000001
 10
34.44749999999999
 20
4.852210000000003
 10
36
 20
4.500000000000003
  0
LWPOLYLINE
  5
12A
100
AcDbEntity
  8
0
  6
CONTINUOUS
 62
  256
370
   -1
100
AcDbPolyline
 90
   57
 70
    0
 43
0
 10
-36
 20
-0.9999999999999964
 10
-30.79150000000004
 20
-0.6590999999999987
 10
-26.01949999999999
 20
-0.3821599999999954
 10
-21.65190000000001
 20
-0.1628399999999992
 10
-17.65629999999999
 20
0.0052100000000017
 10
-14.00049999999999
 20
0.1283300000000018
 10
-10.65230000000002
 20
0.2128900000000051
 10
-7.579600000000027
 20
0.2652200000000029
 10
-4.75
 20
0.2916600000000038
 10
-2.134000000000014
 20
0.2979300000000045
 10
0.2878000000000043
 20
0.287110000000002
 10
2.5317
 20
0.2616300000000002
 10
4.614599999999995
 20
0.2239600000000017
 10
6.552899999999965
 20
0.1765100000000039
 10
8.363299999999981
 20
0.1217400000000062
 10
10.06229999999999
 20
0.0620900000000013
 10
11.66669999999999
 20
3.6e-15
 10
13.18989999999996
 20
-0.0620099999999972
 10
14.63409999999999
 20
-0.1210999999999949
 10
15.9982
 20
-0.174319999999998
 10
17.28129999999999
 20
-0.2187499999999964
 10
18.48230000000001
 20
-0.2514699999999941
 10
19.6003
 20
-0.2695299999999996
 10
20.6343
 20
-0.2700199999999988
 10
21.58339999999999
 20
-0.2499999999999964
 10
22.44810000000001
 20
-0.2076799999999999
 10
23.23570000000001
 20
-0.1458399999999962
 10
23.95490000000001
 20
-0.0683599999999949
 10
24.6146
 20
0.0208300000000001
 10
25.2235
 20
0.1178400000000046
 10
25.79039999999998
 20
0.2187500000000035
 10
26.32409999999999
 20
0.3196600000000025
 10
26.83339999999998
 20
0.4166600000000038
 10
27.32650000000001
 20
0.5061800000000041
 10
27.80989999999997
 20
0.5859300000000012
 10
28.2894
 20
0.6539700000000046
 10
28.77089999999999
 20
0.7083300000000002
 10
29.26009999999997
 20
0.7470700000000045
 10
29.76299999999998
 20
0.7682300000000062
 10
30.28550000000001
 20
0.7698500000000017
 10
30.83339999999998
 20
0.7500000000000036
 10
31.40879999999999
 20
0.707840000000001
 10
31.99939999999998
 20
0.6471300000000006
 10
32.589
 20
0.5727500000000028
 10
33.16149999999999
 20
0.4895800000000002
 10
33.70079999999996
 20
0.402500000000007
 10
34.19079999999997
 20
0.3164000000000051
 10
34.61529999999999
 20
0.2361600000000017
 10
34.95839999999998
 20
0.1666600000000038
 10
35.20990000000001
 20
0.1116500000000009
 10
35.38479999999998
 20
0.0703100000000028
 10
35.50399999999996
 20
0.0406900000000015
 10
35.58859999999999
 20
0.0208300000000001
 10
35.65940000000001
 20
0.0087900000000012
 10
35.73769999999996
 20
0.0026000000000046
 10
35.8442
 20
0.0003200000000056
 10
36
 20
3.6e-15
  0
LWPOLYLINE
  5
12B
100
AcDbEntity
  8
0
  6
CONTINUOUS
 62
  256
370
   -1
100
AcDbPolyline
 90
   49
 70
    0
 43
0
 10
-36
 20
-6.499999999999996
 10
-27.18430000000001
 20
-6.312669999999993
 10
-20.084
 20
-6.126299999999996
 10
-14.46899999999999
 20
-5.941899999999993
 10
-10.10939999999999
 20
-5.760419999999999
 10
-6.77520000000004
 20
-5.582849999999996
 10
-4.236300000000028
 20
-5.410159999999994
 10
-2.262900000000001
 20
-5.243329999999996
 10
-0.625
 20
-5.083339999999996
 10
0.8707999999999742
 20
-4.930989999999997
 10
2.271500000000003
 20
-4.786459999999994
 10
3.587199999999995
 20
-4.649739999999997
 10
4.828100000000006
 20
-4.520839999999996
 10
6.004599999999982
 20
-4.399739999999997
 10
7.127000000000009
 20
-4.286459999999994
 10
8.205299999999966
 20
-4.180989999999997
 10
9.25
 20
-4.083339999999996
 10
10.27049999999997
 20
-3.993819999999995
 10
11.27339999999998
 20
-3.914069999999998
 10
12.2647
 20
-3.846029999999995
 10
13.25
 20
-3.791669999999999
 10
14.23539999999997
 20
-3.752929999999995
 10
15.22659999999996
 20
-3.731769999999993
 10
16.22949999999997
 20
-3.730149999999998
 10
17.25
 20
-3.749999999999996
 10
18.2912
 20
-3.792479999999994
 10
19.3451
 20
-3.855469999999993
 10
20.40089999999998
 20
-3.936039999999994
 10
21.4479
 20
-4.031249999999996
 10
22.47539999999998
 20
-4.138189999999998
 10
23.47269999999998
 20
-4.253909999999994
 10
24.4289
 20
-4.375489999999995
 10
25.33339999999999
 20
-4.499999999999996
 10
26.17849999999999
 20
-4.624919999999999
 10
26.96940000000001
 20
-4.749349999999996
 10
27.71449999999999
 20
-4.872809999999997
 10
28.4219
 20
-4.994789999999998
 10
29.09999999999996
 20
-5.114829999999994
 10
29.75720000000001
 20
-5.232419999999994
 10
30.40159999999997
 20
-5.347089999999997
 10
31.04169999999999
 20
-5.458339999999996
 10
31.68369999999999
 20
-5.564369999999993
 10
32.32619999999997
 20
-5.658209999999993
 10
32.9658
 20
-5.731529999999995
 10
33.59899999999999
 20
-5.776039999999998
 10
34.22239999999999
 20
-5.783449999999998
 10
34.83269999999999
 20
-5.745449999999994
 10
35.4264
 20
-5.653729999999999
 10
36
 20
-5.499999999999996
  0
LWPOLYLINE
  5
12C
100
AcDbEntity
  8
0
  6
CONTINUOUS
 62
  256
370
   -1
100
AcDbPolyline
 90
   33
 70
    0
 43
0
 10
-36
 20
-9.999999999999996
 10
-26.40219999999999
 20
-9.812989999999996
 10
-18.46750000000003
 20
-9.628909999999994
 10
-11.9839
 20
-9.450689999999998
 10
-6.739599999999995
 20
-9.281249999999996
 10
-2.522600000000011
 20
-9.123539999999995
 10
0.8788999999999872
 20
-8.980469999999993
 10
3.676899999999989
 20
-8.854979999999994
 10
6.083300000000008
 20
-8.749999999999996
 10
8.276700000000005
 20
-8.667649999999998
 10
10.30209999999999
 20
-8.606769999999994
 10
12.1712
 20
-8.565429999999996
 10
13.89580000000001
 20
-8.54167
 10
15.48759999999998
 20
-8.533529999999995
 10
16.95830000000001
 20
-8.539069999999999
 10
18.31970000000001
 20
-8.556319999999994
 10
19.58339999999998
 20
-8.583339999999996
 10
20.76159999999999
 20
-8.618409999999994
 10
21.86849999999998
 20
-8.660809999999994
 10
22.91879999999998
 20
-8.710039999999996
 10
23.9271
 20
-8.765629999999998
 10
24.90809999999999
 20
-8.827069999999996
 10
25.87629999999996
 20
-8.893879999999999
 10
26.84649999999999
 20
-8.965579999999999
 10
27.83339999999999
 20
-9.04167
 10
28.84739999999999
 20
-9.121179999999997
 10
29.88279999999998
 20
-9.201169999999994
 10
30.93000000000001
 20
-9.278239999999993
 10
31.97919999999999
 20
-9.348959999999995
 10
33.02049999999997
 20
-9.409909999999998
 10
34.04429999999996
 20
-9.45768
 10
35.04069999999996
 20
-9.488849999999996
 10
36
 20
-9.499999999999996
  0
LWPOLYLINE
  5
12D
100
AcDbEntity
  8
0
  6
CONTINUOUS
 62
  256
370
   -1
100
AcDbPolyline
 90
   33
 70
    0
 43
0
 10
-36
 20
-14.5
 10
-30.0881
 20
-14.33512999999999
 10
-25.03320000000002
 20
-14.21224
 10
-20.7312
 20
-14.12646999999999
 10
-17.0781
 20
-14.07292
 10
-13.97000000000003
 20
-14.04670999999999
 10
-11.30270000000001
 20
-14.04296999999999
 10
-8.972399999999993
 20
-14.05680999999999
 10
-6.875
 20
-14.08333999999999
 10
-4.922400000000038
 20
-14.11832999999999
 10
-3.09050000000002
 20
-14.16015999999999
 10
-1.370900000000006
 20
-14.20784999999999
 10
0.2447999999999979
 20
-14.26042
 10
1.764700000000004
 20
-14.31689999999999
 10
3.197299999999984
 20
-14.37629999999999
 10
4.550700000000006
 20
-14.43766999999999
 10
5.833300000000008
 20
-14.5
 10
7.055399999999963
 20
-14.5621
 10
8.235000000000014
 20
-14.62174999999999
 10
9.392200000000003
 20
-14.67652
 10
10.54689999999999
 20
-14.72395999999999
 10
11.7192
 20
-14.76164
 10
12.92899999999997
 20
-14.78711
 10
14.19649999999996
 20
-14.79794
 10
15.54169999999999
 20
-14.79167
 10
16.99329999999998
 20
-14.76423999999999
 10
18.61519999999996
 20
-14.70508
 10
20.48039999999998
 20
-14.60197
 10
22.66149999999999
 20
-14.44270999999999
 10
25.2312
 20
-14.21509
 10
28.26240000000002
 20
-13.90689999999999
 10
31.8277
 20
-13.50594
 10
36
 20
-13
  0
LINE
  5
12E
100
AcDbEntity
  8
0
  6
CONTINUOUS
 62
  256
370
   -1
100
AcDbLine
 10
6
 20
27.5
 11
22
 21
27.5
  0
LINE
  5
12F
100
AcDbEntity
  8
0
  6
CONTINUOUS
 62
  256
370
   -1
100
AcDbLine
 10
6
 20
27.5
 11
5.843799999999987
 21
26.50042
  0
LINE
  5
130
100
AcDbEntity
  8
0
  6
CONTINUOUS
 62
  256
370
   -1
100
AcDbLine
 10
22.15839999999997
 20
26.5
 11
5.846599999999966
 21
26.5
  0
LINE
  5
131
100
AcDbEntity
  8
0
  6
CONTINUOUS
 62
  256
370
   -1
100
AcDbLine
 10
5.769599999999968
 20
26
 11
22.23919999999998
 21
26
  0
LINE
  5
132
100
AcDbEntity
  8
0
  6
CONTINUOUS
 62
  256
370
   -1
100
AcDbLine
 10
22.15629999999999
 20
26.49966
 11
22
 21
27.5
  0
LINE
  5
133
100
AcDbEntity
  8
0
  6
CONTINUOUS
 62
  256
370
   -1
100
AcDbLine
 10
5.765699999999981
 20
26.00059
 11
4.515299999999967
 21
17.99762
  0
LINE
  5
134
100
AcDbEntity
  8
0
  6
CONTINUOUS
 62
  256
370
   -1
100
AcDbLine
 10
23.48480000000001
 20
17.99762
 11
22.23449999999997
 21
25.99926
  0
LINE
  5
135
100
AcDbEntity
  8
0
  6
CONTINUOUS
 62
  256
370
   -1
100
AcDbLine
 10
-22
 20
27.5
 11
-6
 21
27.5
  0
LINE
  5
136
100
AcDbEntity
  8
0
  6
CONTINUOUS
 62
  256
370
   -1
100
AcDbLine
 10
-5.841600000000028
 20
26.5
 11
-22.15340000000003
 21
26.5
  0
LINE
  5
137
100
AcDbEntity
  8
0
  6
CONTINUOUS
 62
  256
370
   -1
100
AcDbLine
 10
-22.23040000000003
 20
26
 11
-5.760800000000017
 21
26
  0
LINE
  5
138
100
AcDbEntity
  8
0
  6
CONTINUOUS
 62
  256
370
   -1
100
AcDbLine
 10
-22.23430000000002
 20
26.00059
 11
-23.48470000000003
 21
17.99762
  0
LINE
  5
139
100
AcDbEntity
  8
0
  6
CONTINUOUS
 62
  256
370
   -1
100
AcDbLine
 10
-22
 20
27.5
 11
-22.15620000000001
 21
26.50042
  0
LINE
  5
13A
100
AcDbEntity
  8
0
  6
CONTINUOUS
 62
  256
370
   -1
100
AcDbLine
 10
-4.515199999999992
 20
17.99762
 11
-5.765500000000031
 21
25.99926
  0
LINE
  5
13B
100
AcDbEntity
  8
0
  6
CONTINUOUS
 62
  256
370
   -1
100
AcDbLine
 10
-5.843700000000012
 20
26.49966
 11
-6
 21
27.5
  0
LINE
  5
13C
100
AcDbEntity
  8
0
  6
CONTINUOUS
 62
  256
370
   -1
100
AcDbLine
 10
-36
 20
-18
 11
36
 21
-18
  0
LINE
  5
13D
100
AcDbEntity
  8
0
  6
CONTINUOUS
 62
  256
370
   -1
100
AcDbLine
 10
36
 20
-18
 11
36
 21
18
  0
LINE
  5
13E
100
AcDbEntity
  8
0
  6
CONTINUOUS
 62
  256
370
   -1
100
AcDbLine
 10
-22
 20
-27.5
 11
-6
 21
-27.5
  0
LINE
  5
13F
100
AcDbEntity
  8
0
  6
CONTINUOUS
 62
  256
370
   -1
100
AcDbLine
 10
-22
 20
-27.5
 11
-22.15620000000001
 21
-26.50044
  0
LINE
  5
140
100
AcDbEntity
  8
0
  6
CONTINUOUS
 62
  256
370
   -1
100
AcDbLine
 10
-5.841600000000028
 20
-26.5
 11
-22.15340000000003
 21
-26.5
  0
LINE
  5
141
100
AcDbEntity
  8
0
  6
CONTINUOUS
 62
  256
370
   -1
100
AcDbLine
 10
-22.23040000000003
 20
-26
 11
-5.760800000000017
 21
-26
  0
LINE
  5
142
100
AcDbEntity
  8
0
  6
CONTINUOUS
 62
  256
370
   -1
100
AcDbLine
 10
-5.843700000000012
 20
-26.49967
 11
-6
 21
-27.5
  0
LINE
  5
143
100
AcDbEntity
  8
0
  6
CONTINUOUS
 62
  256
370
   -1
100
AcDbLine
 10
-4.515199999999992
 20
-17.99762
 11
-5.765500000000031
 21
-25.99928
  0
LINE
  5
144
100
AcDbEntity
  8
0
  6
CONTINUOUS
 62
  256
370
   -1
100
AcDbLine
 10
-22.23430000000002
 20
-26.0006
 11
-23.48470000000003
 21
-17.99762
  0
LINE
  5
145
100
AcDbEntity
  8
0
  6
CONTINUOUS
 62
  256
370
   -1
100
AcDbLine
 10
6
 20
-27.5
 11
22
 21
-27.5
  0
LINE
  5
146
100
AcDbEntity
  8
0
  6
CONTINUOUS
 62
  256
370
   -1
100
AcDbLine
 10
6
 20
-27.5
 11
5.843799999999987
 21
-26.50044
  0
LINE
  5
147
100
AcDbEntity
  8
0
  6
CONTINUOUS
 62
  256
370
   -1
100
AcDbLine
 10
22.15839999999997
 20
-26.5
 11
5.846599999999966
 21
-26.5
  0
LINE
  5
148
100
AcDbEntity
  8
0
  6
CONTINUOUS
 62
  256
370
   -1
100
AcDbLine
 10
5.769599999999968
 20
-26
 11
22.23919999999998
 21
-26
  0
LINE
  5
149
100
AcDbEntity
  8
0
  6
CONTINUOUS
 62
  256
370
   -1
100
AcDbLine
 10
22.15629999999999
 20
-26.49967
 11
22
 21
-27.5
  0
LINE
  5
14A
100
AcDbEntity
  8
0
  6
CONTINUOUS
 62
  256
370
   -1
100
AcDbLine
 10
23.48480000000001
 20
-17.99762
 11
22.23449999999997
 21
-25.99928
  0
LINE
  5
14B
100
AcDbEntity
  8
0
  6
CONTINUOUS
 62
  256
370
   -1
100
AcDbLine
 10
5.765699999999981
 20
-26.0006
 11
4.515299999999967
 21
-17.99762
  0
LINE
  5
14C
100
AcDbEntity
  8
0
  6
CONTINUOUS
 62
  256
370
   -1
100
AcDbLine
 10
-36
 20
18
 11
-36
 21
-18
  0
LINE
  5
14D
100
AcDbEntity
  8
0
  6
CONTINUOUS
 62
  256
370
   -1
100
AcDbLine
 10
-45.49999999999999
 20
8.000000000000004
 11
-45.49999999999999
 21
-7.999999999999996
  0
LINE
  5
14E
100
AcDbEntity
  8
0
  6
CONTINUOUS
 62
  256
370
   -1
100
AcDbLine
 10
-44.5
 20
-8.158429999999999
 11
-44.5
 21
8.153380000000002
  0
LINE
  5
14F
100
AcDbEntity
  8
0
  6
CONTINUOUS
 62
  256
370
   -1
100
AcDbLine
 10
-44.49970000000002
 20
-8.156309999999994
 11
-45.49999999999999
 21
-7.999999999999996
  0
LINE
  5
150
100
AcDbEntity
  8
0
  6
CONTINUOUS
 62
  256
370
   -1
100
AcDbLine
 10
-45.49999999999999
 20
8.000000000000004
 11
-44.50040000000001
 21
8.156170000000007
  0
LINE
  5
151
100
AcDbEntity
  8
0
  6
CONTINUOUS
 62
  256
370
   -1
100
AcDbLine
 10
-44
 20
8.230410000000003
 11
-44
 21
-8.239149999999999
  0
LINE
  5
152
100
AcDbEntity
  8
0
  6
CONTINUOUS
 62
  256
370
   -1
100
AcDbLine
 10
-35.99760000000003
 20
-9.484759999999998
 11
-43.9993
 21
-8.234499999999993
  0
LINE
  5
153
100
AcDbEntity
  8
0
  6
CONTINUOUS
 62
  256
370
   -1
100
AcDbLine
 10
-44.00060000000002
 20
8.234280000000002
 11
-35.99760000000003
 21
9.484740000000006
  0
LINE
  5
154
100
AcDbEntity
  8
0
  6
CONTINUOUS
 62
  256
370
   -1
100
AcDbLine
 10
45.49999999999999
 20
8.000000000000004
 11
45.49999999999999
 21
-7.999999999999996
  0
LINE
  5
155
100
AcDbEntity
  8
0
  6
CONTINUOUS
 62
  256
370
   -1
100
AcDbLine
 10
45.49999999999999
 20
8.000000000000004
 11
44.50049999999999
 21
8.156170000000007
  0
LINE
  5
156
100
AcDbEntity
  8
0
  6
CONTINUOUS
 62
  256
370
   -1
100
AcDbLine
 10
44.5
 20
-8.158429999999999
 11
44.5
 21
8.153380000000002
  0
LINE
  5
157
100
AcDbEntity
  8
0
  6
CONTINUOUS
 62
  256
370
   -1
100
AcDbLine
 10
44
 20
8.230410000000003
 11
44
 21
-8.239149999999999
  0
LINE
  5
158
100
AcDbEntity
  8
0
  6
CONTINUOUS
 62
  256
370
   -1
100
AcDbLine
 10
44.49969999999995
 20
-8.156309999999994
 11
45.49999999999999
 21
-7.999999999999996
  0
LINE
  5
159
100
AcDbEntity
  8
0
  6
CONTINUOUS
 62
  256
370
   -1
100
AcDbLine
 10
44.00059999999996
 20
8.234280000000002
 11
35.99759999999998
 21
9.484740000000006
  0
LINE
  5
15A
100
AcDbEntity
  8
0
  6
CONTINUOUS
 62
  256
370
   -1
100
AcDbLine
 10
35.99759999999998
 20
-9.484759999999998
 11
43.9993
 21
-8.234499999999993
  0
ENDBLK
  5
8C
330
8A
100
AcDbEntity
  8
0
100
AcDbBlockEnd
  0
BLOCK
  5
8E
330
8D
100
AcDbEntity
  8
0
100
AcDbBlockBegin
  2
Plant - Rubber or Philodendron
 70
    0
 10
0
 20
0
  3
Plant - Rubber or Philodendron
  1

  0
LINE
  5
15B
100
AcDbEntity
  8
0
  6
CONTINUOUS
 62
  256
370
   -1
100
AcDbLine
 10
10.39160000000001
 20
8.794200000000018
 11
6.284699999999986
 21
4.402800000000013
  0
ARC
  5
15C
100
AcDbEntity
  8
0
  6
CONTINUOUS
 62
  256
370
   -1
100
AcDbCircle
 10
-0.0980000000000132
 20
0.136400000000009
 40
6.128825000001457
100
AcDbArc
 50
341.2016999999712
 51
26.09184000001519
  0
ARC
  5
15D
100
AcDbEntity
  8
0
  6
CONTINUOUS
 62
  256
370
   -1
100
AcDbCircle
 10
-0.2664000000000044
 20
0.168200000000013
 40
5.277530999995966
100
AcDbArc
 50
338.4094000000211
 51
20.03007000003226
  0
ARC
  5
15E
100
AcDbEntity
  8
0
  6
CONTINUOUS
 62
  256
370
   -1
100
AcDbCircle
 10
-0.0601000000000056
 20
-0.2074999999999818
 40
5.246133000001304
100
AcDbArc
 50
33.82191999999591
 51
124.9413999999845
  0
ARC
  5
15F
100
AcDbEntity
  8
0
  6
CONTINUOUS
 62
  256
370
   -1
100
AcDbCircle
 10
0
 20
0
 40
6.127507999995973
100
AcDbArc
 50
34.37569000000935
 51
120.1027999999893
  0
ARC
  5
160
100
AcDbEntity
  8
0
  6
CONTINUOUS
 62
  256
370
   -1
100
AcDbCircle
 10
-0.0234000000000094
 20
0.3825000000000216
 40
6.149236999999206
100
AcDbArc
 50
242.5811999999688
 51
331.2713999999922
  0
ARC
  5
161
100
AcDbEntity
  8
0
  6
CONTINUOUS
 62
  256
370
   -1
100
AcDbCircle
 10
-0.1101999999999919
 20
0.4886000000000195
 40
5.288259999998191
100
AcDbArc
 50
247.3710999999605
 51
327.4719999999419
  0
LINE
  5
162
100
AcDbEntity
  8
0
  6
CONTINUOUS
 62
  256
370
   -1
100
AcDbLine
 10
12.36769999999998
 20
-6.198099999999982
 11
7.218999999999994
 21
-2.677199999999999
  0
LINE
  5
163
100
AcDbEntity
  8
0
  6
CONTINUOUS
 62
  256
370
   -1
100
AcDbLine
 10
11.66049999999998
 20
-0.5412999999999784
 11
6.89500000000001
 21
-2.117499999999978
  0
LINE
  5
164
100
AcDbEntity
  8
0
  6
CONTINUOUS
 62
  256
370
   -1
100
AcDbLine
 10
2.419299999999992
 20
-1.465499999999991
 11
6.89500000000001
 21
-2.117499999999978
  0
LINE
  5
165
100
AcDbEntity
  8
0
  6
CONTINUOUS
 62
  256
370
   -1
100
AcDbLine
 10
1.300299999999992
 20
-0.5526999999999874
 11
2.419299999999992
 21
-1.465499999999991
  0
LINE
  5
166
100
AcDbEntity
  8
0
  6
CONTINUOUS
 62
  256
370
   -1
100
AcDbLine
 10
2.8262
 20
-0.0309999999999775
 11
1.300299999999992
 21
-0.5526999999999874
  0
LINE
  5
167
100
AcDbEntity
  8
0
  6
CONTINUOUS
 62
  256
370
   -1
100
AcDbLine
 10
0.48660000000001
 20
-0.0309999999999775
 11
2.114100000000007
 21
0.2298000000000115
  0
LINE
  5
168
100
AcDbEntity
  8
0
  6
CONTINUOUS
 62
  256
370
   -1
100
AcDbLine
 10
0.0797000000000026
 20
2.316300000000012
 11
0.48660000000001
 21
-0.0309999999999775
  0
LINE
  5
169
100
AcDbEntity
  8
0
  6
CONTINUOUS
 62
  256
370
   -1
100
AcDbLine
 10
0.5883000000000039
 20
-0.8134999999999764
 11
2.244699999999994
 21
-2.091599999999999
  0
LINE
  5
16A
100
AcDbEntity
  8
0
  6
CONTINUOUS
 62
  256
370
   -1
100
AcDbLine
 10
-0.9375
 20
-3.160799999999994
 11
0.5883000000000039
 21
-0.8134999999999764
  0
LINE
  5
16B
100
AcDbEntity
  8
0
  6
CONTINUOUS
 62
  256
370
   -1
100
AcDbLine
 10
-0.5305999999999927
 20
1.794700000000005
 11
-0.2255000000000109
 21
-0.5526999999999874
  0
LINE
  5
16C
100
AcDbEntity
  8
0
  6
CONTINUOUS
 62
  256
370
   -1
100
AcDbLine
 10
-2.019000000000005
 20
-3.614800000000002
 11
-0.2255000000000109
 21
-0.5526999999999874
  0
LINE
  5
16D
100
AcDbEntity
  8
0
  6
CONTINUOUS
 62
  256
370
   -1
100
AcDbLine
 10
6.103199999999986
 20
3.68440000000001
 11
2.8262
 21
-0.0309999999999775
  0
LINE
  5
16E
100
AcDbEntity
  8
0
  6
CONTINUOUS
 62
  256
370
   -1
100
AcDbLine
 10
2.114100000000007
 20
0.2298000000000115
 11
5.434599999999988
 21
3.914600000000007
  0
LINE
  5
16F
100
AcDbEntity
  8
0
  6
CONTINUOUS
 62
  256
370
   -1
100
AcDbLine
 10
-3.070899999999994
 20
3.104100000000016
 11
0.0797000000000026
 21
2.316300000000012
  0
LINE
  5
170
100
AcDbEntity
  8
0
  6
CONTINUOUS
 62
  256
370
   -1
100
AcDbLine
 10
-0.5305999999999927
 20
1.794700000000005
 11
-0.5305999999999927
 21
1.794700000000005
  0
LINE
  5
171
100
AcDbEntity
  8
0
  6
CONTINUOUS
 62
  256
370
   -1
100
AcDbLine
 10
-3.301099999999991
 20
2.435500000000018
 11
-0.5305999999999927
 21
1.794700000000005
  0
LINE
  5
172
100
AcDbEntity
  8
0
  6
CONTINUOUS
 62
  256
370
   -1
100
AcDbLine
 10
5.434599999999988
 20
3.914600000000007
 11
5.501399999999989
 21
4.483100000000007
  0
LINE
  5
173
100
AcDbEntity
  8
0
  6
CONTINUOUS
 62
  256
370
   -1
100
AcDbLine
 10
4.691399999999987
 20
8.881200000000007
 11
5.501399999999989
 21
4.483100000000007
  0
LINE
  5
174
100
AcDbEntity
  8
0
  6
CONTINUOUS
 62
  256
370
   -1
100
AcDbLine
 10
4.691399999999987
 20
8.881200000000007
 11
5.385899999999992
 21
11.28280000000001
  0
LINE
  5
175
100
AcDbEntity
  8
0
  6
CONTINUOUS
 62
  256
370
   -1
100
AcDbLine
 10
8.354399999999998
 20
-2.745299999999986
 11
13.19729999999998
 21
-2.1704
  0
LINE
  5
176
100
AcDbEntity
  8
0
  6
CONTINUOUS
 62
  256
370
   -1
100
AcDbLine
 10
16.61029999999999
 20
-14.68339999999997
 11
15.5496
 21
-10.79429999999999
  0
LINE
  5
177
100
AcDbEntity
  8
0
  6
CONTINUOUS
 62
  256
370
   -1
100
AcDbLine
 10
16.61029999999999
 20
-14.68339999999997
 11
15.5496
 21
-13.62279999999998
  0
LINE
  5
178
100
AcDbEntity
  8
0
  6
CONTINUOUS
 62
  256
370
   -1
100
AcDbLine
 10
14.8425
 20
-10.79429999999999
 11
13.78190000000001
 21
-13.26919999999998
  0
LINE
  5
179
100
AcDbEntity
  8
0
  6
CONTINUOUS
 62
  256
370
   -1
100
AcDbLine
 10
13.07480000000001
 20
-13.97629999999998
 11
13.42830000000001
 21
-11.50149999999999
  0
LINE
  5
17A
100
AcDbEntity
  8
0
  6
CONTINUOUS
 62
  256
370
   -1
100
AcDbLine
 10
15.5496
 20
-13.62279999999998
 11
13.07480000000001
 21
-13.97629999999998
  0
LINE
  5
17B
100
AcDbEntity
  8
0
  6
CONTINUOUS
 62
  256
370
   -1
100
AcDbLine
 10
13.42830000000001
 20
-11.50149999999999
 11
9.539199999999992
 21
-11.14789999999999
  0
LINE
  5
17C
100
AcDbEntity
  8
0
  6
CONTINUOUS
 62
  256
370
   -1
100
AcDbLine
 10
8.125
 20
-4.076799999999991
 11
7.771500000000003
 21
-7.965899999999976
  0
LINE
  5
17D
100
AcDbEntity
  8
0
  6
CONTINUOUS
 62
  256
370
   -1
100
AcDbLine
 10
9.539199999999992
 20
-11.14789999999999
 11
8.832099999999995
 21
-9.0266
  0
LINE
  5
17E
100
AcDbEntity
  8
0
  6
CONTINUOUS
 62
  256
370
   -1
100
AcDbLine
 10
15.5496
 20
-10.79429999999999
 11
12.36769999999998
 21
-6.198099999999982
  0
LINE
  5
17F
100
AcDbEntity
  8
0
  6
CONTINUOUS
 62
  256
370
   -1
100
AcDbLine
 10
10.24629999999999
 20
-10.44079999999999
 11
11.66049999999998
 21
-6.905299999999982
  0
LINE
  5
180
100
AcDbEntity
  8
0
  6
CONTINUOUS
 62
  256
370
   -1
100
AcDbLine
 10
2.244699999999994
 20
-2.091599999999999
 11
6.710800000000006
 21
-2.662599999999997
  0
LINE
  5
181
100
AcDbEntity
  8
0
  6
CONTINUOUS
 62
  256
370
   -1
100
AcDbLine
 10
8.832099999999995
 20
-9.0266
 11
4.942999999999983
 21
-7.965899999999976
  0
LINE
  5
182
100
AcDbEntity
  8
0
  6
CONTINUOUS
 62
  256
370
   -1
100
AcDbLine
 10
4.942999999999983
 20
-7.965899999999976
 11
6.710800000000006
 21
-2.662599999999997
  0
LINE
  5
183
100
AcDbEntity
  8
0
  6
CONTINUOUS
 62
  256
370
   -1
100
AcDbLine
 10
18.02449999999999
 20
-9.733699999999997
 11
16.61029999999999
 21
-14.68339999999997
  0
LINE
  5
184
100
AcDbEntity
  8
0
  6
CONTINUOUS
 62
  256
370
   -1
100
AcDbLine
 10
16.96379999999999
 20
-5.137499999999988
 11
16.25669999999999
 21
-8.673000000000002
  0
LINE
  5
185
100
AcDbEntity
  8
0
  6
CONTINUOUS
 62
  256
370
   -1
100
AcDbLine
 10
14.1354
 20
-0.8947999999999751
 11
14.1354
 21
-4.430399999999991
  0
LINE
  5
186
100
AcDbEntity
  8
0
  6
CONTINUOUS
 62
  256
370
   -1
100
AcDbLine
 10
16.25669999999999
 20
-5.844599999999985
 11
13.42830000000001
 21
-6.551699999999982
  0
LINE
  5
187
100
AcDbEntity
  8
0
  6
CONTINUOUS
 62
  256
370
   -1
100
AcDbLine
 10
14.1354
 20
-4.430399999999991
 11
16.96379999999999
 21
-5.137499999999988
  0
LINE
  5
188
100
AcDbEntity
  8
0
  6
CONTINUOUS
 62
  256
370
   -1
100
AcDbLine
 10
17.31739999999999
 20
-9.733699999999997
 11
15.9032
 21
-9.733699999999997
  0
LINE
  5
189
100
AcDbEntity
  8
0
  6
CONTINUOUS
 62
  256
370
   -1
100
AcDbLine
 10
16.25669999999999
 20
-8.673000000000002
 11
18.02449999999999
 21
-9.733699999999997
  0
LINE
  5
18A
100
AcDbEntity
  8
0
  6
CONTINUOUS
 62
  256
370
   -1
100
AcDbLine
 10
11.66049999999998
 20
-0.5412999999999784
 11
14.1354
 21
-0.8947999999999751
  0
LINE
  5
18B
100
AcDbEntity
  8
0
  6
CONTINUOUS
 62
  256
370
   -1
100
AcDbLine
 10
5.987799999999992
 20
10.48420000000001
 11
7.197100000000006
 21
6.386900000000025
  0
LINE
  5
18C
100
AcDbEntity
  8
0
  6
CONTINUOUS
 62
  256
370
   -1
100
AcDbLine
 10
15.79089999999999
 20
9.106500000000011
 11
14.89949999999999
 21
5.304400000000015
  0
LINE
  5
18D
100
AcDbEntity
  8
0
  6
CONTINUOUS
 62
  256
370
   -1
100
AcDbLine
 10
14.29769999999999
 20
6.103100000000011
 11
10.99340000000001
 21
7.995600000000024
  0
LINE
  5
18E
100
AcDbEntity
  8
0
  6
CONTINUOUS
 62
  256
370
   -1
100
AcDbLine
 10
14.89949999999999
 20
5.304400000000015
 11
12.7005
 21
4.899400000000014
  0
LINE
  5
18F
100
AcDbEntity
  8
0
  6
CONTINUOUS
 62
  256
370
   -1
100
AcDbLine
 10
10.58279999999999
 20
12.69460000000001
 11
10.88929999999999
 21
9.795299999999997
  0
LINE
  5
190
100
AcDbEntity
  8
0
  6
CONTINUOUS
 62
  256
370
   -1
100
AcDbLine
 10
9.980899999999991
 20
13.4933
 11
13.3837
 21
12.30100000000001
  0
LINE
  5
191
100
AcDbEntity
  8
0
  6
CONTINUOUS
 62
  256
370
   -1
100
AcDbLine
 10
8.887100000000004
 20
10.79080000000002
 11
9.980899999999991
 21
13.4933
  0
LINE
  5
192
100
AcDbEntity
  8
0
  6
CONTINUOUS
 62
  256
370
   -1
100
AcDbLine
 10
18.1868
 20
10.91190000000003
 11
18.19249999999999
 21
8.411900000000031
  0
LINE
  5
193
100
AcDbEntity
  8
0
  6
CONTINUOUS
 62
  256
370
   -1
100
AcDbLine
 10
19.38479999999998
 20
11.81460000000001
 11
18.1868
 21
10.91190000000003
  0
LINE
  5
194
100
AcDbEntity
  8
0
  6
CONTINUOUS
 62
  256
370
   -1
100
AcDbLine
 10
19.38479999999998
 20
11.81460000000001
 11
15.38589999999999
 21
11.30550000000002
  0
LINE
  5
195
100
AcDbEntity
  8
0
  6
CONTINUOUS
 62
  256
370
   -1
100
AcDbLine
 10
14.68000000000001
 20
13.90390000000002
 11
19.38479999999998
 21
11.81460000000001
  0
LINE
  5
196
100
AcDbEntity
  8
0
  6
CONTINUOUS
 62
  256
370
   -1
100
AcDbLine
 10
18.19249999999999
 20
8.411900000000031
 11
15.79089999999999
 21
9.106500000000011
  0
LINE
  5
197
100
AcDbEntity
  8
0
  6
CONTINUOUS
 62
  256
370
   -1
100
AcDbLine
 10
14.58160000000001
 20
13.2037
 11
14.38479999999998
 21
11.8033
  0
LINE
  5
198
100
AcDbEntity
  8
0
  6
CONTINUOUS
 62
  256
370
   -1
100
AcDbLine
 10
13.3837
 20
12.30100000000001
 11
14.68000000000001
 21
13.90390000000002
  0
LINE
  5
199
100
AcDbEntity
  8
0
  6
CONTINUOUS
 62
  256
370
   -1
100
AcDbLine
 10
15.38589999999999
 20
11.30550000000002
 11
10.39160000000001
 21
8.794200000000018
  0
LINE
  5
19A
100
AcDbEntity
  8
0
  6
CONTINUOUS
 62
  256
370
   -1
100
AcDbLine
 10
15.28749999999999
 20
10.6053
 11
17.5907
 21
9.210500000000025
  0
LINE
  5
19B
100
AcDbEntity
  8
0
  6
CONTINUOUS
 62
  256
370
   -1
100
AcDbLine
 10
7.700500000000005
 20
4.888100000000008
 11
11.50249999999999
 21
3.996700000000004
  0
LINE
  5
19C
100
AcDbEntity
  8
0
  6
CONTINUOUS
 62
  256
370
   -1
100
AcDbLine
 10
5.385899999999992
 20
11.28280000000001
 11
8.887100000000004
 21
10.79080000000002
  0
LINE
  5
19D
100
AcDbEntity
  8
0
  6
CONTINUOUS
 62
  256
370
   -1
100
AcDbLine
 10
12.7005
 20
4.899400000000014
 11
11.1089
 21
1.195800000000019
  0
LINE
  5
19E
100
AcDbEntity
  8
0
  6
CONTINUOUS
 62
  256
370
   -1
100
AcDbLine
 10
11.1089
 20
1.195800000000019
 11
6.103199999999986
 21
3.68440000000001
  0
LINE
  5
19F
100
AcDbEntity
  8
0
  6
CONTINUOUS
 62
  256
370
   -1
100
AcDbLine
 10
-9.014800000000008
 20
-11.15769999999997
 11
-4.904699999999991
 21
-6.81219999999999
  0
LINE
  5
1A0
100
AcDbEntity
  8
0
  6
CONTINUOUS
 62
  256
370
   -1
100
AcDbLine
 10
-9.543399999999991
 20
4.718500000000005
 11
-4.191699999999997
 21
2.988799999999997
  0
ARC
  5
1A1
100
AcDbEntity
  8
0
  6
CONTINUOUS
 62
  256
370
   -1
100
AcDbCircle
 10
0.0307999999999993
 20
0.1664000000000101
 40
5.000000000000333
100
AcDbArc
 50
168.1647000000314
 51
238.6724999999761
  0
ARC
  5
1A2
100
AcDbEntity
  8
0
  6
CONTINUOUS
 62
  256
370
   -1
100
AcDbCircle
 10
0.0307999999999993
 20
0.1664000000000101
 40
6.000000000002548
100
AcDbArc
 50
178.6146999999871
 51
235.1168999999775
  0
LINE
  5
1A3
100
AcDbEntity
  8
0
  6
CONTINUOUS
 62
  256
370
   -1
100
AcDbLine
 10
-4.057899999999989
 20
-6.278099999999994
 11
-0.9375
 21
-3.160799999999994
  0
LINE
  5
1A4
100
AcDbEntity
  8
0
  6
CONTINUOUS
 62
  256
370
   -1
100
AcDbLine
 10
-2.019000000000005
 20
-3.614800000000002
 11
-4.726400000000012
 21
-6.047899999999998
  0
LINE
  5
1A5
100
AcDbEntity
  8
0
  6
CONTINUOUS
 62
  256
370
   -1
100
AcDbLine
 10
-3.524799999999999
 20
2.213100000000025
 11
-3.301099999999991
 21
2.435500000000018
  0
LINE
  5
1A6
100
AcDbEntity
  8
0
  6
CONTINUOUS
 62
  256
370
   -1
100
AcDbLine
 10
-8.382900000000006
 20
10.30000000000001
 11
-7.054900000000003
 21
8.501000000000005
  0
LINE
  5
1A7
100
AcDbEntity
  8
0
  6
CONTINUOUS
 62
  256
370
   -1
100
AcDbLine
 10
-7.054900000000003
 20
8.501000000000005
 11
-3.028400000000004
 21
8.69410000000002
  0
LINE
  5
1A8
100
AcDbEntity
  8
0
  6
CONTINUOUS
 62
  256
370
   -1
100
AcDbLine
 10
-4.852900000000005
 20
4.012
 11
-5.718400000000002
 21
7.820000000000021
  0
LINE
  5
1A9
100
AcDbEntity
  8
0
  6
CONTINUOUS
 62
  256
370
   -1
100
AcDbLine
 10
-3.028400000000004
 20
8.69410000000002
 11
-3.070899999999994
 21
3.104100000000016
  0
LINE
  5
1AA
100
AcDbEntity
  8
0
  6
CONTINUOUS
 62
  256
370
   -1
100
AcDbLine
 10
-8.836900000000014
 20
9.40900000000002
 11
-9.08940000000001
 21
5.609500000000025
  0
LINE
  5
1AB
100
AcDbEntity
  8
0
  6
CONTINUOUS
 62
  256
370
   -1
100
AcDbLine
 10
-13.31739999999999
 20
8.325000000000017
 11
-13.07349999999999
 21
11.00650000000001
  0
LINE
  5
1AC
100
AcDbEntity
  8
0
  6
CONTINUOUS
 62
  256
370
   -1
100
AcDbLine
 10
-15.3434
 20
6.551400000000001
 11
-13.9984
 21
6.988400000000012
  0
LINE
  5
1AD
100
AcDbEntity
  8
0
  6
CONTINUOUS
 62
  256
370
   -1
100
AcDbLine
 10
-14.0069
 20
5.870400000000017
 11
-16.01590000000001
 21
6.332899999999995
  0
LINE
  5
1AE
100
AcDbEntity
  8
0
  6
CONTINUOUS
 62
  256
370
   -1
100
AcDbLine
 10
-13.1329
 20
3.18040000000002
 11
-10.66140000000001
 21
4.727000000000003
  0
LINE
  5
1AF
100
AcDbEntity
  8
0
  6
CONTINUOUS
 62
  256
370
   -1
100
AcDbLine
 10
-13.58680000000001
 20
2.2894
 11
-14.0069
 21
5.870400000000017
  0
LINE
  5
1B0
100
AcDbEntity
  8
0
  6
CONTINUOUS
 62
  256
370
   -1
100
AcDbLine
 10
-16.2005
 20
11.47740000000001
 11
-13.9899
 21
8.106400000000008
  0
LINE
  5
1B1
100
AcDbEntity
  8
0
  6
CONTINUOUS
 62
  256
370
   -1
100
AcDbLine
 10
-16.2005
 20
11.47740000000001
 11
-14.8639
 21
10.7964
  0
LINE
  5
1B2
100
AcDbEntity
  8
0
  6
CONTINUOUS
 62
  256
370
   -1
100
AcDbLine
 10
-16.01590000000001
 20
6.332899999999995
 11
-16.2005
 21
11.47740000000001
  0
LINE
  5
1B3
100
AcDbEntity
  8
0
  6
CONTINUOUS
 62
  256
370
   -1
100
AcDbLine
 10
-10.67840000000001
 20
2.491000000000013
 11
-13.58680000000001
 21
2.2894
  0
LINE
  5
1B4
100
AcDbEntity
  8
0
  6
CONTINUOUS
 62
  256
370
   -1
100
AcDbLine
 10
-12.61950000000001
 20
11.8975
 11
-12.1909
 21
9.434500000000014
  0
LINE
  5
1B5
100
AcDbEntity
  8
0
  6
CONTINUOUS
 62
  256
370
   -1
100
AcDbLine
 10
-14.8639
 20
10.7964
 11
-12.61950000000001
 21
11.8975
  0
LINE
  5
1B6
100
AcDbEntity
  8
0
  6
CONTINUOUS
 62
  256
370
   -1
100
AcDbLine
 10
-13.9899
 20
8.106400000000008
 11
-9.543399999999991
 21
4.718500000000005
  0
LINE
  5
1B7
100
AcDbEntity
  8
0
  6
CONTINUOUS
 62
  256
370
   -1
100
AcDbLine
 10
-12.1909
 20
9.434500000000014
 11
-8.382900000000006
 21
10.30000000000001
  0
LINE
  5
1B8
100
AcDbEntity
  8
0
  6
CONTINUOUS
 62
  256
370
   -1
100
AcDbLine
 10
-4.124600000000015
 20
-6.846599999999995
 11
-4.057899999999989
 21
-6.278099999999994
  0
LINE
  5
1B9
100
AcDbEntity
  8
0
  6
CONTINUOUS
 62
  256
370
   -1
100
AcDbLine
 10
-4.610999999999989
 20
-12.84769999999997
 11
-5.820300000000003
 21
-8.750399999999985
  0
LINE
  5
1BA
100
AcDbEntity
  8
0
  6
CONTINUOUS
 62
  256
370
   -1
100
AcDbLine
 10
-9.205999999999989
 20
-15.05809999999996
 11
-9.51259999999999
 21
-12.15879999999998
  0
LINE
  5
1BB
100
AcDbEntity
  8
0
  6
CONTINUOUS
 62
  256
370
   -1
100
AcDbLine
 10
-7.5103
 20
-13.15429999999998
 11
-8.604199999999992
 21
-15.85679999999999
  0
LINE
  5
1BC
100
AcDbEntity
  8
0
  6
CONTINUOUS
 62
  256
370
   -1
100
AcDbLine
 10
-4.009199999999992
 20
-13.6463
 11
-7.5103
 21
-13.15429999999998
  0
LINE
  5
1BD
100
AcDbEntity
  8
0
  6
CONTINUOUS
 62
  256
370
   -1
100
AcDbLine
 10
-3.314600000000012
 20
-11.24469999999999
 11
-4.009199999999992
 21
-13.6463
  0
LINE
  5
1BE
100
AcDbEntity
  8
0
  6
CONTINUOUS
 62
  256
370
   -1
100
AcDbLine
 10
-3.314600000000012
 20
-11.24469999999999
 11
-4.124600000000015
 21
-6.846599999999995
  0
LINE
  5
1BF
100
AcDbEntity
  8
0
  6
CONTINUOUS
 62
  256
370
   -1
100
AcDbLine
 10
-11.3237
 20
-7.262900000000001
 11
-9.732100000000003
 21
-3.559299999999979
  0
LINE
  5
1C0
100
AcDbEntity
  8
0
  6
CONTINUOUS
 62
  256
370
   -1
100
AcDbLine
 10
-13.52279999999999
 20
-7.667899999999974
 11
-11.3237
 21
-7.262900000000001
  0
LINE
  5
1C1
100
AcDbEntity
  8
0
  6
CONTINUOUS
 62
  256
370
   -1
100
AcDbLine
 10
-12.92099999999999
 20
-8.466499999999996
 11
-9.616600000000005
 21
-10.35899999999998
  0
LINE
  5
1C2
100
AcDbEntity
  8
0
  6
CONTINUOUS
 62
  256
370
   -1
100
AcDbLine
 10
-13.91070000000002
 20
-12.96879999999999
 11
-16.21389999999999
 21
-11.57399999999998
  0
LINE
  5
1C3
100
AcDbEntity
  8
0
  6
CONTINUOUS
 62
  256
370
   -1
100
AcDbLine
 10
-13.2048
 20
-15.56719999999998
 11
-13.00800000000001
 21
-14.16679999999999
  0
LINE
  5
1C4
100
AcDbEntity
  8
0
  6
CONTINUOUS
 62
  256
370
   -1
100
AcDbLine
 10
-16.81570000000002
 20
-10.77539999999999
 11
-14.41409999999999
 21
-11.46989999999999
  0
LINE
  5
1C5
100
AcDbEntity
  8
0
  6
CONTINUOUS
 62
  256
370
   -1
100
AcDbLine
 10
-16.8101
 20
-13.27539999999999
 11
-16.81570000000002
 21
-10.77539999999999
  0
LINE
  5
1C6
100
AcDbEntity
  8
0
  6
CONTINUOUS
 62
  256
370
   -1
100
AcDbLine
 10
-12.0069
 20
-14.66449999999997
 11
-13.3032
 21
-16.26739999999998
  0
LINE
  5
1C7
100
AcDbEntity
  8
0
  6
CONTINUOUS
 62
  256
370
   -1
100
AcDbLine
 10
-14.41409999999999
 20
-11.46989999999999
 11
-13.52279999999999
 21
-7.667899999999974
  0
LINE
  5
1C8
100
AcDbEntity
  8
0
  6
CONTINUOUS
 62
  256
370
   -1
100
AcDbLine
 10
-18.00800000000001
 20
-14.17809999999997
 11
-14.00909999999999
 21
-13.66899999999998
  0
LINE
  5
1C9
100
AcDbEntity
  8
0
  6
CONTINUOUS
 62
  256
370
   -1
100
AcDbLine
 10
-18.00800000000001
 20
-14.17809999999997
 11
-16.8101
 21
-13.27539999999999
  0
LINE
  5
1CA
100
AcDbEntity
  8
0
  6
CONTINUOUS
 62
  256
370
   -1
100
AcDbLine
 10
-13.3032
 20
-16.26739999999998
 11
-18.00800000000001
 21
-14.17809999999997
  0
LINE
  5
1CB
100
AcDbEntity
  8
0
  6
CONTINUOUS
 62
  256
370
   -1
100
AcDbLine
 10
-7.122800000000012
 20
-0.4429999999999837
 11
-9.585800000000006
 21
-0.8714999999999974
  0
LINE
  5
1CC
100
AcDbEntity
  8
0
  6
CONTINUOUS
 62
  256
370
   -1
100
AcDbLine
 10
-6.323700000000002
 20
-7.251599999999996
 11
-10.12570000000002
 21
-6.360199999999991
  0
LINE
  5
1CD
100
AcDbEntity
  8
0
  6
CONTINUOUS
 62
  256
370
   -1
100
AcDbLine
 10
-14.00909999999999
 20
-13.66899999999998
 11
-9.014800000000008
 21
-11.15769999999997
  0
LINE
  5
1CE
100
AcDbEntity
  8
0
  6
CONTINUOUS
 62
  256
370
   -1
100
AcDbLine
 10
-9.732100000000003
 20
-3.559299999999979
 11
-4.726400000000012
 21
-6.047899999999998
  0
LINE
  5
1CF
100
AcDbEntity
  8
0
  6
CONTINUOUS
 62
  256
370
   -1
100
AcDbLine
 10
-8.604199999999992
 20
-15.85679999999999
 11
-12.0069
 21
-14.66449999999997
  0
LINE
  5
1D0
100
AcDbEntity
  8
0
  6
CONTINUOUS
 62
  256
370
   -1
100
AcDbLine
 10
-9.585800000000006
 20
-0.8714999999999974
 11
-10.67840000000001
 21
2.491000000000013
  0
LINE
  5
1D1
100
AcDbEntity
  8
0
  6
CONTINUOUS
 62
  256
370
   -1
100
AcDbLine
 10
-9.131799999999998
 20
0.0195000000000221
 11
-5.979299999999994
 21
2.902500000000003
  0
LINE
  5
1D2
100
AcDbEntity
  8
0
  6
CONTINUOUS
 62
  256
370
   -1
100
AcDbLine
 10
-7.122800000000012
 20
-0.4429999999999837
 11
-3.524799999999999
 21
2.213100000000025
  0
ENDBLK
  5
8F
330
8D
100
AcDbEntity
  8
0
100
AcDbBlockEnd
  0
BLOCK
  5
91
330
90
100
AcDbEntity
  8
0
100
AcDbBlockBegin
  2
Lamp - Table
 70
    0
 10
0
 20
0
  3
Lamp - Table
  1

  0
LINE
  5
1D3
100
AcDbEntity
  8
0
  6
CONTINUOUS
 62
  256
370
   -1
100
AcDbLine
 10
-1
 20
0
 11
-6.999999999999998
 21
0
  0
LINE
  5
1D4
100
AcDbEntity
  8
0
  6
CONTINUOUS
 62
  256
370
   -1
100
AcDbLine
 10
0
 20
-0.9999995
 11
0
 21
-6.999998999999999
  0
LINE
  5
1D5
100
AcDbEntity
  8
0
  6
CONTINUOUS
 62
  256
370
   -1
100
AcDbLine
 10
1
 20
0
 11
7.000002999999999
 21
0
  0
LINE
  5
1D6
100
AcDbEntity
  8
0
  6
CONTINUOUS
 62
  256
370
   -1
100
AcDbLine
 10
0
 20
7.000001
 11
0
 21
1
  0
LINE
  5
1D7
100
AcDbEntity
  8
0
  6
CONTINUOUS
 62
  256
370
   -1
100
AcDbLine
 10
3.000002999999999
 20
0
 11
0
 21
3.000001
  0
LINE
  5
1D8
100
AcDbEntity
  8
0
  6
CONTINUOUS
 62
  256
370
   -1
100
AcDbLine
 10
0
 20
-3
 11
3.000002999999999
 21
0
  0
LINE
  5
1D9
100
AcDbEntity
  8
0
  6
CONTINUOUS
 62
  256
370
   -1
100
AcDbLine
 10
-3
 20
0
 11
0
 21
-3
  0
LINE
  5
1DA
100
AcDbEntity
  8
0
  6
CONTINUOUS
 62
  256
370
   -1
100
AcDbLine
 10
0
 20
3.000001
 11
-3
 21
0
  0
CIRCLE
  5
1DB
100
AcDbEntity
  8
0
  6
CONTINUOUS
 62
  256
370
   -1
100
AcDbCircle
 10
0
 20
0
 40
6.999999999999999
  0
CIRCLE
  5
1DC
100
AcDbEntity
  8
0
  6
CONTINUOUS
 62
  256
370
   -1
100
AcDbCircle
 10
0
 20
0
 40
1
  0
ENDBLK
  5
92
330
90
100
AcDbEntity
  8
0
100
AcDbBlockEnd
  0
BLOCK
  5
94
330
93
100
AcDbEntity
  8
0
100
AcDbBlockBegin
  2
Sofa - Roundback Loveseat 5 ft.
 70
    0
 10
0
 20
0
  3
Sofa - Roundback Loveseat 5 ft.
  1

  0
LINE
  5
1DD
100
AcDbEntity
  8
0
  6
CONTINUOUS
 62
  256
370
   -1
100
AcDbLine
 10
0
 20
-32.44198000000246
 11
0
 21
-5.999980000002448
  0
LWPOLYLINE
  5
1DE
100
AcDbEntity
  8
0
  6
CONTINUOUS
 62
  256
370
   -1
100
AcDbPolyline
 90
    3
 70
    0
 43
0
 10
-23.99999999999999
 20
-33.99998000000245
 10
-29.99999999999999
 20
-33.99998000000245
 10
-29.99999999999999
 20
-7.999980000002448
  0
LINE
  5
1DF
100
AcDbEntity
  8
0
  6
CONTINUOUS
 62
  256
370
   -1
100
AcDbLine
 10
-23.99999999999999
 20
-33.99998000000245
 11
-23.99999999999999
 21
-11.46958000000243
  0
LINE
  5
1E0
100
AcDbEntity
  8
0
  6
CONTINUOUS
 62
  256
370
   -1
100
AcDbLine
 10
-23.99999999999999
 20
-32.44198000000246
 11
24.00004000000001
 21
-32.44198000000246
  0
LINE
  5
1E1
100
AcDbEntity
  8
0
  6
CONTINUOUS
 62
  256
370
   -1
100
AcDbLine
 10
-23.99979999999998
 20
-13.38178000000245
 11
23.99986
 21
-13.38178000000245
  0
ARC
  5
1E2
100
AcDbEntity
  8
0
  6
CONTINUOUS
 62
  256
370
   -1
100
AcDbCircle
 10
0
 20
-61.38438000000245
 40
55.38444000000723
100
AcDbArc
 50
64.32083000000306
 51
115.6791999999996
  0
ARC
  5
1E3
100
AcDbEntity
  8
0
  6
CONTINUOUS
 62
  256
370
   -1
100
AcDbCircle
 10
0
 20
-60.24998000000245
 40
60.24998000000245
100
AcDbArc
 50
60.13715000000122
 51
119.862800000004
  0
LWPOLYLINE
  5
1E4
100
AcDbEntity
  8
0
  6
CONTINUOUS
 62
  256
370
   -1
100
AcDbPolyline
 90
    3
 70
    0
 43
0
 10
30.00004000000001
 20
-7.999980000002448
 10
30.00004000000001
 20
-33.99998000000245
 10
24.00004000000001
 20
-33.99998000000245
  0
LINE
  5
1E5
100
AcDbEntity
  8
0
  6
CONTINUOUS
 62
  256
370
   -1
100
AcDbLine
 10
24.00004000000001
 20
-33.99998000000245
 11
24.00004000000001
 21
-11.46958000000243
  0
ENDBLK
  5
95
330
93
100
AcDbEntity
  8
0
100
AcDbBlockEnd
  0
BLOCK
  5
97
330
96
100
AcDbEntity
  8
0
100
AcDbBlockBegin
  2
Sink-double - 36 in top
 70
    0
 10
0
 20
0
  3
Sink-double - 36 in top
  1

  0
ARC
  5
1E6
100
AcDbEntity
  8
0
  6
ByLayer
 62
  256
370
   -1
100
AcDbCircle
 10
15.5
 20
-6.5
 40
1
100
AcDbArc
 50
0
 51
90
  0
ARC
  5
1E7
100
AcDbEntity
  8
0
  6
ByLayer
 62
  256
370
   -1
100
AcDbCircle
 10
16.5
 20
-1.5
 40
1.5
100
AcDbArc
 50
0
 51
90
  0
CIRCLE
  5
1E8
100
AcDbEntity
  8
0
  6
ByLayer
 62
  256
370
   -1
100
AcDbCircle
 10
8.5
 20
-12.5
 40
0.5
  0
CIRCLE
  5
1E9
100
AcDbEntity
  8
0
  6
ByLayer
 62
  256
370
   -1
100
AcDbCircle
 10
8.5
 20
-12.5
 40
1
  0
ARC
  5
1EA
100
AcDbEntity
  8
0
  6
ByLayer
 62
  256
370
   -1
100
AcDbCircle
 10
15.5
 20
-18.5
 40
1
100
AcDbArc
 50
270
 51
0
  0
ARC
  5
1EB
100
AcDbEntity
  8
0
  6
ByLayer
 62
  256
370
   -1
100
AcDbCircle
 10
16.5
 20
-19.5
 40
1.5
100
AcDbArc
 50
270
 51
0
  0
LWPOLYLINE
  5
1EC
100
AcDbEntity
  8
0
  6
ByLayer
 62
  256
370
   -1
100
AcDbPolyline
 90
    2
 70
    0
 43
0
 10
16.5
 20
-6.5
 10
16.5
 20
-18.5
  0
LWPOLYLINE
  5
1ED
100
AcDbEntity
  8
0
  6
ByLayer
 62
  256
370
   -1
100
AcDbPolyline
 90
    2
 70
    0
 43
0
 10
18
 20
-1.5
 10
18
 20
-19.5
  0
ARC
  5
1EE
100
AcDbEntity
  8
0
  6
ByLayer
 62
  256
370
   -1
100
AcDbCircle
 10
1.75
 20
-6.5
 40
1
100
AcDbArc
 50
90
 51
180
  0
ARC
  5
1EF
100
AcDbEntity
  8
0
  6
ByLayer
 62
  256
370
   -1
100
AcDbCircle
 10
-1.75
 20
-6.5
 40
1
100
AcDbArc
 50
0
 51
90
  0
ARC
  5
1F0
100
AcDbEntity
  8
0
  6
ByLayer
 62
  256
370
   -1
100
AcDbCircle
 10
-15.5
 20
-6.5
 40
1
100
AcDbArc
 50
90
 51
180
  0
ARC
  5
1F1
100
AcDbEntity
  8
0
  6
ByLayer
 62
  256
370
   -1
100
AcDbCircle
 10
-16.5
 20
-1.5
 40
1.5
100
AcDbArc
 50
90
 51
180
  0
LWPOLYLINE
  5
1F2
100
AcDbEntity
  8
0
  6
ByLayer
 62
  256
370
   -1
100
AcDbPolyline
 90
    2
 70
    0
 43
0
 10
-15.5
 20
-5.5
 10
-1.75
 20
-5.5
  0
ARC
  5
1F3
100
AcDbEntity
  8
0
  6
ByLayer
 62
  256
370
   -1
100
AcDbCircle
 10
1.75
 20
-18.5
 40
1
100
AcDbArc
 50
180
 51
270
  0
ARC
  5
1F4
100
AcDbEntity
  8
0
  6
ByLayer
 62
  256
370
   -1
100
AcDbCircle
 10
-1.75
 20
-18.5
 40
1
100
AcDbArc
 50
270
 51
0
  0
CIRCLE
  5
1F5
100
AcDbEntity
  8
0
  6
ByLayer
 62
  256
370
   -1
100
AcDbCircle
 10
-8.5
 20
-12.5
 40
0.5
  0
CIRCLE
  5
1F6
100
AcDbEntity
  8
0
  6
ByLayer
 62
  256
370
   -1
100
AcDbCircle
 10
-8.5
 20
-12.5
 40
1
  0
ARC
  5
1F7
100
AcDbEntity
  8
0
  6
ByLayer
 62
  256
370
   -1
100
AcDbCircle
 10
-15.5
 20
-18.5
 40
1
100
AcDbArc
 50
180
 51
270
  0
ARC
  5
1F8
100
AcDbEntity
  8
0
  6
ByLayer
 62
  256
370
   -1
100
AcDbCircle
 10
-16.5
 20
-19.5
 40
1.5
100
AcDbArc
 50
180
 51
270
  0
LWPOLYLINE
  5
1F9
100
AcDbEntity
  8
0
  6
ByLayer
 62
  256
370
   -1
100
AcDbPolyline
 90
    2
 70
    0
 43
0
 10
-1.75
 20
-19.5
 10
-15.5
 20
-19.5
  0
LWPOLYLINE
  5
1FA
100
AcDbEntity
  8
0
  6
ByLayer
 62
  256
370
   -1
100
AcDbPolyline
 90
    2
 70
    0
 43
0
 10
-16.5
 20
-18.5
 10
-16.5
 20
-6.5
  0
LWPOLYLINE
  5
1FB
100
AcDbEntity
  8
0
  6
ByLayer
 62
  256
370
   -1
100
AcDbPolyline
 90
    2
 70
    0
 43
0
 10
-18
 20
-19.5
 10
-18
 20
-1.5
  0
LINE
  5
1FC
100
AcDbEntity
  8
0
  6
ByLayer
 62
  256
370
   -1
100
AcDbLine
 10
0.75
 20
-6.5
 11
0.75
 21
-18.5
  0
LINE
  5
1FD
100
AcDbEntity
  8
0
  6
ByLayer
 62
  256
370
   -1
100
AcDbLine
 10
-0.75
 20
-18.5
 11
-0.75
 21
-6.5
  0
LWPOLYLINE
  5
1FE
100
AcDbEntity
  8
0
  6
ByLayer
 62
  256
370
   -1
100
AcDbPolyline
 90
    2
 70
    0
 43
0
 10
16.5
 20
-21
 10
-16.5
 20
-21
  0
LWPOLYLINE
  5
1FF
100
AcDbEntity
  8
0
  6
ByLayer
 62
  256
370
   -1
100
AcDbPolyline
 90
    2
 70
    0
 43
0
 10
-16.5
 20
0
 10
16.5
 20
0
  0
LINE
  5
200
100
AcDbEntity
  8
0
  6
ByLayer
 62
  256
370
   -1
100
AcDbLine
 10
-18
 20
-4
 11
18
 21
-4
  0
LWPOLYLINE
  5
201
100
AcDbEntity
  8
0
  6
ByLayer
 62
  256
370
   -1
100
AcDbPolyline
 90
    2
 70
    0
 43
0
 10
1.75
 20
-5.5
 10
15.5
 20
-5.5
  0
LWPOLYLINE
  5
202
100
AcDbEntity
  8
0
  6
ByLayer
 62
  256
370
   -1
100
AcDbPolyline
 90
    2
 70
    0
 43
0
 10
15.5
 20
-19.5
 10
1.75
 20
-19.5
  0
ENDBLK
  5
98
330
96
100
AcDbEntity
  8
0
100
AcDbBlockEnd
  0
BLOCK
  5
9A
330
99
100
AcDbEntity
  8
0
100
AcDbBlockBegin
  2
Refrigerator-2 door - 36 in top
 70
    0
 10
0
 20
0
  3
Refrigerator-2 door - 36 in top
  1

  0
LINE
  5
203
100
AcDbEntity
  8
0
  6
ByLayer
 62
  256
370
   -1
100
AcDbLine
 10
12
 20
-26.999999
 11
12
 21
-28.999999
  0
LINE
  5
204
100
AcDbEntity
  8
0
  6
ByLayer
 62
  256
370
   -1
100
AcDbLine
 10
13
 20
-28.999999
 11
13
 21
-27.999999
  0
LINE
  5
205
100
AcDbEntity
  8
0
  6
ByLayer
 62
  256
370
   -1
100
AcDbLine
 10
11
 20
-28.999999
 11
13
 21
-28.999999
  0
LINE
  5
206
100
AcDbEntity
  8
0
  6
ByLayer
 62
  256
370
   -1
100
AcDbLine
 10
11
 20
-27.999999
 11
11
 21
-28.999999
  0
LINE
  5
207
100
AcDbEntity
  8
0
  6
ByLayer
 62
  256
370
   -1
100
AcDbLine
 10
0
 20
-26.999999
 11
36
 21
-26.999999
  0
LWPOLYLINE
  5
208
100
AcDbEntity
  8
0
  6
ByLayer
 62
  256
370
   -1
100
AcDbPolyline
 90
    4
 70
    1
 43
0
 10
0
 20
-27.999999
 10
0
 20
0
 10
36
 20
0
 10
36
 20
-27.999999
  0
ENDBLK
  5
9B
330
99
100
AcDbEntity
  8
0
100
AcDbBlockEnd
  0
BLOCK
  5
9D
330
9C
100
AcDbEntity
  8
0
100
AcDbBlockBegin
  2
Range-Oven - 30 in top
 70
    0
 10
0
 20
0
  3
Range-Oven - 30 in top
  1

  0
CIRCLE
  5
209
100
AcDbEntity
  8
0
  6
ByLayer
 62
  256
370
   -1
100
AcDbCircle
 10
24
 20
-9.000000200000001
 40
1
  0
LINE
  5
20A
100
AcDbEntity
  8
0
  6
ByLayer
 62
  256
370
   -1
100
AcDbLine
 10
12
 20
-6
 11
18
 21
-6
  0
CIRCLE
  5
20B
100
AcDbEntity
  8
0
  6
ByLayer
 62
  256
370
   -1
100
AcDbCircle
 10
6.000000000000003
 20
-9.000000200000001
 40
1
  0
LINE
  5
20C
100
AcDbEntity
  8
0
  6
ByLayer
 62
  256
370
   -1
100
AcDbLine
 10
0
 20
-3
 11
30
 21
-3
  0
CIRCLE
  5
20D
100
AcDbEntity
  8
0
  6
ByLayer
 62
  256
370
   -1
100
AcDbCircle
 10
24
 20
-18
 40
4
  0
CIRCLE
  5
20E
100
AcDbEntity
  8
0
  6
ByLayer
 62
  256
370
   -1
100
AcDbCircle
 10
24
 20
-18
 40
3
  0
CIRCLE
  5
20F
100
AcDbEntity
  8
0
  6
ByLayer
 62
  256
370
   -1
100
AcDbCircle
 10
24
 20
-18
 40
2
  0
CIRCLE
  5
210
100
AcDbEntity
  8
0
  6
ByLayer
 62
  256
370
   -1
100
AcDbCircle
 10
24
 20
-18
 40
1
  0
LINE
  5
211
100
AcDbEntity
  8
0
  6
ByLayer
 62
  256
370
   -1
100
AcDbLine
 10
22.00000000000001
 20
-24.999996
 11
22.00000000000001
 21
-23.99999600000001
  0
LINE
  5
212
100
AcDbEntity
  8
0
  6
ByLayer
 62
  256
370
   -1
100
AcDbLine
 10
24
 20
-23.99999600000001
 11
24
 21
-24.999996
  0
LINE
  5
213
100
AcDbEntity
  8
0
  6
ByLayer
 62
  256
370
   -1
100
AcDbLine
 10
18
 20
-19.999996
 11
12
 21
-19.999996
  0
LINE
  5
214
100
AcDbEntity
  8
0
  6
ByLayer
 62
  256
370
   -1
100
AcDbLine
 10
8.000000000000004
 20
-24.999996
 11
8.000000000000004
 21
-23.99999600000001
  0
CIRCLE
  5
215
100
AcDbEntity
  8
0
  6
ByLayer
 62
  256
370
   -1
100
AcDbCircle
 10
6.000000000000003
 20
-18
 40
1
  0
LINE
  5
216
100
AcDbEntity
  8
0
  6
ByLayer
 62
  256
370
   -1
100
AcDbLine
 10
6.000000000000003
 20
-23.99999600000001
 11
6.000000000000003
 21
-24.999996
  0
LWPOLYLINE
  5
217
100
AcDbEntity
  8
0
  6
ByLayer
 62
  256
370
   -1
100
AcDbPolyline
 90
    4
 70
    1
 43
0
 10
2.000000000000003
 20
-25.999996
 10
2.000000000000003
 20
-24.999996
 10
28.00000000000001
 20
-24.999996
 10
28.00000000000001
 20
-25.999996
  0
CIRCLE
  5
218
100
AcDbEntity
  8
0
  6
ByLayer
 62
  256
370
   -1
100
AcDbCircle
 10
6.000000000000003
 20
-18
 40
3
  0
CIRCLE
  5
219
100
AcDbEntity
  8
0
  6
ByLayer
 62
  256
370
   -1
100
AcDbCircle
 10
6.000000000000003
 20
-18
 40
2
  0
LINE
  5
21A
100
AcDbEntity
  8
0
  6
ByLayer
 62
  256
370
   -1
100
AcDbLine
 10
17
 20
-19.999996
 11
17
 21
-6
  0
LINE
  5
21B
100
AcDbEntity
  8
0
  6
ByLayer
 62
  256
370
   -1
100
AcDbLine
 10
16
 20
-6
 11
16
 21
-19.999996
  0
LINE
  5
21C
100
AcDbEntity
  8
0
  6
ByLayer
 62
  256
370
   -1
100
AcDbLine
 10
15
 20
-19.999996
 11
15
 21
-6
  0
LINE
  5
21D
100
AcDbEntity
  8
0
  6
ByLayer
 62
  256
370
   -1
100
AcDbLine
 10
14
 20
-6
 11
14
 21
-19.999996
  0
LINE
  5
21E
100
AcDbEntity
  8
0
  6
ByLayer
 62
  256
370
   -1
100
AcDbLine
 10
13
 20
-19.999996
 11
13
 21
-6
  0
LWPOLYLINE
  5
21F
100
AcDbEntity
  8
0
  6
ByLayer
 62
  256
370
   -1
100
AcDbPolyline
 90
    4
 70
    1
 43
0
 10
12
 20
-20.999996
 10
12
 20
-5
 10
18
 20
-5
 10
18
 20
-20.999996
  0
CIRCLE
  5
220
100
AcDbEntity
  8
0
  6
ByLayer
 62
  256
370
   -1
100
AcDbCircle
 10
24
 20
-9.000000200000001
 40
3
  0
CIRCLE
  5
221
100
AcDbEntity
  8
0
  6
ByLayer
 62
  256
370
   -1
100
AcDbCircle
 10
24
 20
-9.000000200000001
 40
2
  0
CIRCLE
  5
222
100
AcDbEntity
  8
0
  6
ByLayer
 62
  256
370
   -1
100
AcDbCircle
 10
6.000000000000003
 20
-9.000000200000001
 40
4
  0
CIRCLE
  5
223
100
AcDbEntity
  8
0
  6
ByLayer
 62
  256
370
   -1
100
AcDbCircle
 10
6.000000000000003
 20
-9.000000200000001
 40
3
  0
CIRCLE
  5
224
100
AcDbEntity
  8
0
  6
ByLayer
 62
  256
370
   -1
100
AcDbCircle
 10
6.000000000000003
 20
-9.000000200000001
 40
2
  0
LWPOLYLINE
  5
225
100
AcDbEntity
  8
0
  6
ByLayer
 62
  256
370
   -1
100
AcDbPolyline
 90
    4
 70
    1
 43
0
 10
0
 20
-23.99999600000001
 10
0
 20
0
 10
30
 20
0
 10
30
 20
-23.99999600000001
  0
ENDBLK
  5
9E
330
9C
100
AcDbEntity
  8
0
100
AcDbBlockEnd
  0
BLOCK
  5
A0
330
9F
100
AcDbEntity
  8
0
100
AcDbBlockBegin
  2
Sofa - Roundback 7 ft.
 70
    0
 10
0
 20
0
  3
Sofa - Roundback 7 ft.
  1

  0
LINE
  5
226
100
AcDbEntity
  8
0
  6
CONTINUOUS
 62
  256
370
   -1
100
AcDbLine
 10
11.99996999999999
 20
-32.44210000000393
 11
11.99997999999999
 21
-6.597100000003898
  0
LWPOLYLINE
  5
227
100
AcDbEntity
  8
0
  6
CONTINUOUS
 62
  256
370
   -1
100
AcDbPolyline
 90
    3
 70
    0
 43
0
 10
41.99997999999999
 20
-8.000000000003944
 10
41.99997999999999
 20
-34.00000000000395
 10
35.99997999999999
 20
-34.00000000000395
  0
LINE
  5
228
100
AcDbEntity
  8
0
  6
CONTINUOUS
 62
  256
370
   -1
100
AcDbLine
 10
35.99997999999999
 20
-34.00000000000395
 11
35.99997999999999
 21
-11.46960000000396
  0
LINE
  5
229
100
AcDbEntity
  8
0
  6
CONTINUOUS
 62
  256
370
   -1
100
AcDbLine
 10
-12.00002
 20
-32.44210000000393
 11
-12.00003
 21
-6.597100000003898
  0
LWPOLYLINE
  5
22A
100
AcDbEntity
  8
0
  6
CONTINUOUS
 62
  256
370
   -1
100
AcDbPolyline
 90
    3
 70
    0
 43
0
 10
-36.000027
 20
-34.00000000000395
 10
-42.000027
 20
-34.00000000000395
 10
-42.000027
 20
-8.000000000003944
  0
LINE
  5
22B
100
AcDbEntity
  8
0
  6
CONTINUOUS
 62
  256
370
   -1
100
AcDbLine
 10
-36.000027
 20
-34.00000000000395
 11
-36.000027
 21
-11.46960000000396
  0
LINE
  5
22C
100
AcDbEntity
  8
0
  6
CONTINUOUS
 62
  256
370
   -1
100
AcDbLine
 10
-36.000027
 20
-32.44210000000393
 11
35.99997999999999
 21
-32.44210000000393
  0
LINE
  5
22D
100
AcDbEntity
  8
0
  6
CONTINUOUS
 62
  256
370
   -1
100
AcDbLine
 10
-35.999844
 20
-13.38190000000397
 11
35.99979999999999
 21
-13.38190000000397
  0
ARC
  5
22E
100
AcDbEntity
  8
0
  6
CONTINUOUS
 62
  256
370
   -1
100
AcDbCircle
 10
-1.00000000032e-05
 20
-127.1968000000039
 40
121.1967999999973
100
AcDbArc
 50
72.72032999999948
 51
107.2797000000005
  0
ARC
  5
22F
100
AcDbEntity
  8
0
  6
CONTINUOUS
 62
  256
370
   -1
100
AcDbCircle
 10
0
 20
-114.2500000000039
 40
114.2500000000039
100
AcDbArc
 50
68.43141000000072
 51
111.5686000000006
  0
ENDBLK
  5
A1
330
9F
100
AcDbEntity
  8
0
100
AcDbBlockEnd
  0
ENDSEC
  0
SECTION
  2
ENTITIES
  0
LWPOLYLINE
  5
230
100
AcDbEntity
  8
0
  6
ByLayer
 62
  256
370
   -1
100
AcDbPolyline
 90
    3
 70
    0
 43
0
 10
257.9999999999998
 20
372
 10
0
 20
372
 10
0
 20
186
  0
LINE
  5
231
100
AcDbEntity
  8
0
  6
ByLayer
 62
  256
370
   -1
100
AcDbLine
 10
600
 20
0
 11
600
 21
180
  0
LINE
  5
232
100
AcDbEntity
  8
0
  6
ByLayer
 62
  256
370
   -1
100
AcDbLine
 10
600
 20
180
 11
462
 21
180
  0
LINE
  5
233
100
AcDbEntity
  8
0
  6
ByLayer
 62
  256
370
   -1
100
AcDbLine
 10
456
 20
180
 11
456
 21
50.39808480194915
  0
LINE
  5
234
100
AcDbEntity
  8
0
  6
ByLayer
 62
  256
370
   -1
100
AcDbLine
 10
456
 20
180
 11
440.3102373481196
 21
180
  0
LINE
  5
235
100
AcDbEntity
  8
0
  6
ByLayer
 62
  256
370
   -1
100
AcDbLine
 10
384
 20
180
 11
314.501686537309
 21
180
  0
LINE
  5
236
100
AcDbEntity
  8
0
  6
ByLayer
 62
  256
370
   -1
100
AcDbLine
 10
264
 20
180
 11
49.75485441066303
 21
180
  0
LINE
  5
237
100
AcDbEntity
  8
0
  6
ByLayer
 62
  256
370
   -1
100
AcDbLine
 10
384
 20
186
 11
384
 21
306
  0
LINE
  5
238
100
AcDbEntity
  8
0
  6
ByLayer
 62
  256
370
   -1
100
AcDbLine
 10
264
 20
186
 11
264
 21
306
  0
LWPOLYLINE
  5
239
100
AcDbEntity
  8
0
  6
ByLayer
 62
  256
370
   -1
100
AcDbPolyline
 90
    6
 70
    0
 43
0
 10
194.0886117752143
 20
-12
 10
612
 20
-12
 10
612
 20
384
 10
-12
 20
384
 10
-12
 20
-12
 10
116.0886117752143
 20
-12
  0
LINE
  5
23A
100
AcDbEntity
  8
0
  6
ByLayer
 62
  256
370
   -1
100
AcDbLine
 10
258
 20
186
 11
49.75485441066303
 21
186
  0
LINE
  5
23B
100
AcDbEntity
  8
0
  6
ByLayer
 62
  256
370
   -1
100
AcDbLine
 10
384
 20
186
 11
314.501686537309
 21
186
  0
LINE
  5
23C
100
AcDbEntity
  8
0
  6
ByLayer
 62
  256
370
   -1
100
AcDbLine
 10
456
 20
186
 11
440.3102373481196
 21
186
  0
LINE
  5
23D
100
AcDbEntity
  8
0
  6
ByLayer
 62
  256
370
   -1
100
AcDbLine
 10
600
 20
186
 11
456
 21
186
  0
LINE
  5
23E
100
AcDbEntity
  8
0
  6
ByLayer
 62
  256
370
   -1
100
AcDbLine
 10
258
 20
186
 11
258
 21
372
  0
LINE
  5
23F
100
AcDbEntity
  8
0
  6
ByLayer
 62
  256
370
   -1
100
AcDbLine
 10
390
 20
186
 11
390
 21
372
  0
LINE
  5
240
100
AcDbEntity
  8
0
  6
ByLayer
 62
  256
370
   -1
100
AcDbLine
 10
462
 20
180
 11
462
 21
50.39808480194915
  0
LINE
  5
241
100
AcDbEntity
  8
0
  6
ByLayer
 62
  256
370
   -1
100
AcDbLine
 10
384
 20
306
 11
264
 21
306
  0
LINE
  5
242
100
AcDbEntity
  8
0
  6
ByLayer
 62
  256
370
   -1
100
AcDbLine
 10
384
 20
312
 11
264
 21
312
  0
LWPOLYLINE
  5
243
100
AcDbEntity
  8
0
  6
ByLayer
 62
  256
370
   -1
100
AcDbPolyline
 90
    2
 70
    0
 43
0
 10
384.0000000000001
 20
372
 10
264
 20
372
  0
LINE
  5
244
100
AcDbEntity
  8
0
  6
ByLayer
 62
  256
370
   -1
100
AcDbLine
 10
384
 20
312
 11
384
 21
372
  0
LINE
  5
245
100
AcDbEntity
  8
0
  6
ByLayer
 62
  256
370
   -1
100
AcDbLine
 10
264
 20
312
 11
264
 21
372
  0
LWPOLYLINE
  5
246
100
AcDbEntity
  8
0
  6
ByLayer
 62
  256
370
   -1
100
AcDbPolyline
 90
    3
 70
    0
 43
0
 10
0
 20
180
 10
0
 20
0
 10
119.0886117752143
 20
0
  0
LWPOLYLINE
  5
247
100
AcDbEntity
  8
0
  6
ByLayer
 62
  256
370
   -1
100
AcDbPolyline
 90
    3
 70
    0
 43
0
 10
600
 20
186
 10
600
 20
372
 10
390
 20
372
  0
LWPOLYLINE
  5
248
100
AcDbEntity
  8
0
  6
ByLayer
 62
  256
370
   -1
100
AcDbPolyline
 90
    3
 70
    0
 43
0
 10
462
 20
0
 10
600
 20
0
 10
600
 20
180
  0
INSERT
  5
249
100
AcDbEntity
  8
Window
  6
ByLayer
 62
  256
370
   -1
100
AcDbBlockReference
  2
Door 1
 10
7.754854410663028
 20
180
 30
0
 41
-1
 42
1
 43
0
 50
0
 70
    1
 71
    1
 44
0
 45
0
  0
INSERT
  5
24A
100
AcDbEntity
  8
Window
  6
ByLayer
 62
  256
370
   -1
100
AcDbBlockReference
  2
Door 1
 10
272.5016865373091
 20
180
 30
0
 41
-1
 42
1
 43
0
 50
0
 70
    1
 71
    1
 44
0
 45
0
  0
INSERT
  5
24B
100
AcDbEntity
  8
Window
  6
ByLayer
 62
  256
370
   -1
100
AcDbBlockReference
  2
Door 1
 10
398.3102373481196
 20
180
 30
0
 41
-1
 42
1
 43
0
 50
0
 70
    1
 71
    1
 44
0
 45
0
  0
INSERT
  5
24C
100
AcDbEntity
  8
Window
  6
ByLayer
 62
  256
370
   -1
100
AcDbBlockReference
  2
Door 1
 10
456
 20
8.398084801949153
 30
0
 41
1
 42
1
 43
0
 50
270
 70
    1
 71
    1
 44
0
 45
0
  0
INSERT
  5
24D
100
AcDbEntity
  8
Window
  6
ByLayer
 62
  256
370
   -1
100
AcDbBlockReference
  2
Door 2
 10
197.0886117752143
 20
-12
 30
0
 41
1
 42
1
 43
0
 50
0
 70
    1
 71
    1
 44
0
 45
0
  0
INSERT
  5
24E
100
AcDbEntity
  8
Window
  6
ByLayer
 62
  256
370
   -1
100
AcDbBlockReference
  2
Window 1
 10
456
 20
76.61635474256127
 30
0
 41
1
 42
1
 43
0
 50
270
 70
    1
 71
    1
 44
0
 45
0
  0
INSERT
  5
24F
100
AcDbEntity
  8
Window
  6
ByLayer
 62
  256
370
   -1
100
AcDbBlockReference
  2
Window 1
 10
172.3251647826073
 20
180
 30
0
 41
1
 42
1
 43
0
 50
0
 70
    1
 71
    1
 44
0
 45
0
  0
INSERT
  5
250
100
AcDbEntity
  8
Window
  6
ByLayer
 62
  256
370
   -1
100
AcDbBlockReference
  2
Window 2 real
 10
-12
 20
250.1980170326424
 30
0
 41
1
 42
1
 43
0
 50
270
 70
    1
 71
    1
 44
0
 45
0
  0
INSERT
  5
251
100
AcDbEntity
  8
Window
  6
ByLayer
 62
  256
370
   -1
100
AcDbBlockReference
  2
Window 2 real
 10
359.2975873569976
 20
-12
 30
0
 41
1
 42
1
 43
0
 50
0
 70
    1
 71
    1
 44
0
 45
0
  0
INSERT
  5
252
100
AcDbEntity
  8
Window
  6
ByLayer
 62
  256
370
   -1
100
AcDbBlockReference
  2
Window 2 real
 10
600
 20
259.2354847235929
 30
0
 41
1
 42
1
 43
0
 50
270
 70
    1
 71
    1
 44
0
 45
0
  0
INSERT
  5
253
100
AcDbEntity
  8
Window
  6
ByLayer
 62
  256
370
   -1
100
AcDbBlockReference
  2
Window 2 real
 10
600
 20
65.00249280773458
 30
0
 41
1
 42
1
 43
0
 50
270
 70
    1
 71
    1
 44
0
 45
0
  0
INSERT
  5
254
100
AcDbEntity
  8
Window
  6
ByLayer
 62
  256
370
   -1
100
AcDbBlockReference
  2
Window 2 real
 10
535.8659399321186
 20
372
 30
0
 41
1
 42
1
 43
0
 50
0
 70
    1
 71
    1
 44
0
 45
0
  0
LINE
  5
255
100
AcDbEntity
  8
0
  6
ByLayer
 62
  256
370
   -1
100
AcDbLine
 10
13.75485441066303
 20
186
 11
0
 21
186
  0
LINE
  5
256
100
AcDbEntity
  8
0
  6
ByLayer
 62
  256
370
   -1
100
AcDbLine
 10
10.75485441066303
 20
180
 11
0
 21
180
  0
LINE
  5
257
100
AcDbEntity
  8
0
  6
ByLayer
 62
  256
370
   -1
100
AcDbLine
 10
278.5016865373091
 20
186
 11
264
 21
186
  0
LINE
  5
258
100
AcDbEntity
  8
0
  6
ByLayer
 62
  256
370
   -1
100
AcDbLine
 10
275.5016865373091
 20
180
 11
264
 21
180
  0
LINE
  5
259
100
AcDbEntity
  8
0
  6
ByLayer
 62
  256
370
   -1
100
AcDbLine
 10
404.3102373481196
 20
186
 11
390
 21
186
  0
LINE
  5
25A
100
AcDbEntity
  8
0
  6
ByLayer
 62
  256
370
   -1
100
AcDbLine
 10
401.3102373481196
 20
180
 11
384
 21
180
  0
LWPOLYLINE
  5
25B
100
AcDbEntity
  8
0
  6
ByLayer
 62
  256
370
   -1
100
AcDbPolyline
 90
    2
 70
    0
 43
0
 10
154.5850904738119
 20
0
 10
155.5921330766166
 20
0
  0
LWPOLYLINE
  5
25C
100
AcDbEntity
  8
0
  6
ByLayer
 62
  256
370
   -1
100
AcDbPolyline
 90
    2
 70
    0
 43
0
 10
191.0886117752143
 20
0
 10
456
 20
0
  0
LINE
  5
25D
100
AcDbEntity
  8
0
  6
ByLayer
 62
  256
370
   -1
100
AcDbLine
 10
462
 20
14.39808480194915
 11
462
 21
0
  0
LINE
  5
25E
100
AcDbEntity
  8
0
  6
ByLayer
 62
  256
370
   -1
100
AcDbLine
 10
456
 20
11.39808480194915
 11
456
 21
0
  0
INSERT
  5
25F
100
AcDbEntity
  8
Blocks
  6
ByLayer
 62
  256
370
   -1
100
AcDbBlockReference
  2
Sink - Oval top
 10
285.5525661790538
 20
281.9891286920565
 30
0
 41
1
 42
1
 43
0
 50
0
 70
    1
 71
    1
 44
0
 45
0
  0
INSERT
  5
260
100
AcDbEntity
  8
Blocks
  6
ByLayer
 62
  256
370
   -1
100
AcDbBlockReference
  2
Toilet - top
 10
384
 20
282.8537462306731
 30
0
 41
1
 42
1
 43
0
 50
270
 70
    1
 71
    1
 44
0
 45
0
  0
INSERT
  5
261
100
AcDbEntity
  8
Blocks
  6
ByLayer
 62
  256
370
   -1
100
AcDbBlockReference
  2
Bed - Queen
 10
258
 20
338.99999
 30
0
 41
1
 42
1
 43
0
 50
269.9999999999999
 70
    1
 71
    1
 44
0
 45
0
  0
INSERT
  5
262
100
AcDbEntity
  8
Blocks
  6
ByLayer
 62
  256
370
   -1
100
AcDbBlockReference
  2
Dining Set - 36 x 72 in.
 10
374.5097999145037
 20
83.51667642704159
 30
0
 41
1
 42
1
 43
0
 50
270
 70
    1
 71
    1
 44
0
 45
0
  0
INSERT
  5
263
100
AcDbEntity
  8
Blocks
  6
ByLayer
 62
  256
370
   -1
100
AcDbBlockReference
  2
Plant - Rubber or Philodendron
 10
30.71841654857235
 20
344.8257383818727
 30
0
 41
1
 42
1
 43
0
 50
0
 70
    1
 71
    1
 44
0
 45
0
  0
INSERT
  5
264
100
AcDbEntity
  8
Blocks
  6
ByLayer
 62
  256
370
   -1
100
AcDbBlockReference
  2
Lamp - Table
 10
244.7475191541653
 20
357.381488802479
 30
0
 41
1
 42
1
 43
0
 50
0
 70
    1
 71
    1
 44
0
 45
0
  0
INSERT
  5
265
100
AcDbEntity
  8
Blocks
  6
ByLayer
 62
  256
370
   -1
100
AcDbBlockReference
  2
Sink-double - 36 in top
 10
538.6203553184459
 20
180
 30
0
 41
1
 42
1
 43
0
 50
0
 70
    1
 71
    1
 44
0
 45
0
  0
INSERT
  5
266
100
AcDbEntity
  8
Blocks
  6
ByLayer
 62
  256
370
   -1
100
AcDbBlockReference
  2
Refrigerator-2 door - 36 in top
 10
465.0043303773673
 20
176.5854785282563
 30
0
 41
1
 42
1
 43
0
 50
0
 70
    1
 71
    1
 44
0
 45
0
  0
INSERT
  5
267
100
AcDbEntity
  8
Blocks
  6
ByLayer
 62
  256
370
   -1
100
AcDbBlockReference
  2
Range-Oven - 30 in top
 10
600
 20
112.5380426491747
 30
0
 41
1
 42
1
 43
0
 50
270
 70
    1
 71
    1
 44
0
 45
0
  0
LWPOLYLINE
  5
268
100
AcDbEntity
  8
Blocks
  6
ByLayer
 62
  256
370
   -1
100
AcDbPolyline
 90
    4
 70
    1
 43
0
 10
226.7035629538259
 20
262.0377703136446
 10
252.1185448923479
 20
262.0377703136446
 10
252.1185448923479
 20
226.3483125245148
 10
226.7035629538259
 20
226.3483125245148
  0
INSERT
  5
269
100
AcDbEntity
  8
Blocks
  6
ByLayer
 62
  256
370
   -1
100
AcDbBlockReference
  2
Bed - Queen
 10
594.1506055914496
 20
336.7953433920036
 30
0
 41
1
 42
1
 43
0
 50
269.9999999999999
 70
    1
 71
    1
 44
0
 45
0
  0
INSERT
  5
26A
100
AcDbEntity
  8
Blocks
  6
ByLayer
 62
  256
370
   -1
100
AcDbBlockReference
  2
Lamp - Table
 10
580.8981247456148
 20
355.1768421944826
 30
0
 41
1
 42
1
 43
0
 50
0
 70
    1
 71
    1
 44
0
 45
0
  0
LWPOLYLINE
  5
26B
100
AcDbEntity
  8
Blocks
  6
ByLayer
 62
  256
370
   -1
100
AcDbPolyline
 90
    4
 70
    1
 43
0
 10
562.8541685452755
 20
259.8331237056482
 10
588.2691504837975
 20
259.8331237056482
 10
588.2691504837975
 20
224.1436659165183
 10
562.8541685452755
 20
224.1436659165183
  0
INSERT
  5
26C
100
AcDbEntity
  8
Blocks
  6
ByLayer
 62
  256
370
   -1
100
AcDbBlockReference
  2
Bath Tub - 26 x 60 in.
 10
384
 20
246
 30
0
 41
1
 42
1
 43
0
 50
270
 70
    1
 71
    1
 44
0
 45
0
  0
INSERT
  5
26D
100
AcDbEntity
  8
Blocks
  6
ByLayer
 62
  256
370
   -1
100
AcDbBlockReference
  2
Sofa - Roundback 7 ft.
 10
158.2266654756511
 20
166.0683950019838
 30
0
 41
1
 42
1
 43
0
 50
0
 70
    1
 71
    1
 44
0
 45
0
  0
INSERT
  5
26E
100
AcDbEntity
  8
Blocks
  6
ByLayer
 62
  256
370
   -1
100
AcDbBlockReference
  2
Sofa - Roundback 7 ft.
 10
246.6662324100416
 20
83.06852679896929
 30
0
 41
1
 42
1
 43
0
 50
270
 70
    1
 71
    1
 44
0
 45
0
  0
LWPOLYLINE
  5
26F
100
AcDbEntity
  8
Blocks
  6
ByLayer
 62
  256
370
   -1
100
AcDbPolyline
 90
    8
 70
    1
 43
0
 10
135.4913149379554
 20
113.6134390850329
 10
182.31215375809
 20
113.6134390850329
 42
-0.4142135623730955
 10
190.4575120953141
 20
105.4680807478089
 10
190.4575120953141
 20
61.16162835299657
 42
-0.4142135623730955
 10
182.31215375809
 20
53.01627001577252
 10
135.4913149379554
 20
53.01627001577253
 42
-0.4142135623730955
 10
127.3459566007314
 20
61.16162835299656
 10
127.3459566007314
 20
105.4680807478089
 42
-0.414213562373095
  0
LWPOLYLINE
  5
270
100
AcDbEntity
  8
Blocks
  6
ByLayer
 62
  256
370
   -1
100
AcDbPolyline
 90
    4
 70
    1
 43
0
 10
0
 20
125.7322209478643
 10
7.934201032756391
 20
125.7322209478643
 10
7.934201032756391
 20
50.26495924957453
 10
0
 20
50.26495924957453
  0
INSERT
  5
271
100
AcDbEntity
  8
Blocks
  6
ByLayer
 62
  256
370
   -1
100
AcDbBlockReference
  2
Plant - Rubber or Philodendron
 10
24.11711024830604
 20
23.70635511640762
 30
0
 41
1
 42
1
 43
0
 50
0
 70
    1
 71
    1
 44
0
 45
0
  0
LINE
  5
272
100
AcDbEntity
  8
Blocks
  6
ByLayer
 62
  256
370
   -1
100
AcDbLine
 10
511.0640838810013
 20
180
 11
511.0640838810013
 21
144
  0
LINE
  5
273
100
AcDbEntity
  8
Blocks
  6
ByLayer
 62
  256
370
   -1
100
AcDbLine
 10
511.0640838810013
 20
144
 11
564
 21
144
  0
LINE
  5
274
100
AcDbEntity
  8
Blocks
  6
ByLayer
 62
  256
370
   -1
100
AcDbLine
 10
564
 20
0
 11
564
 21
144
  0
HATCH
  5
275
100
AcDbEntity
  8
Hatch
  6
ByLayer
 62
  256
370
   -1
100
AcDbHatch
 10
0
 20
0
 30
0
210
0
220
0
230
1
  2
SOLID
 70
    1
 71
    0
 91
    9
 92
    0
 93
   25
 72
    1
 10
463.8659399321186
 20
384
 11
-12
 21
384
 72
    1
 10
-12
 20
384
 11
-12
 21
322.1980170326424
 72
    1
 10
-12
 20
322.1980170326424
 11
1.42e-14
 21
322.1980170326424
 72
    1
 10
1.42e-14
 20
322.1980170326424
 11
-1.42e-14
 21
372
 72
    1
 10
-1.42e-14
 20
372
 11
258
 21
372
 72
    1
 10
258
 20
372
 11
258
 21
186
 72
    1
 10
258
 20
186
 11
172.3251647826073
 21
185.9999999999999
 72
    1
 10
172.3251647826073
 20
185.9999999999999
 11
172.3251647826073
 21
180
 72
    1
 10
172.3251647826073
 20
180
 11
264
 21
180
 72
    1
 10
264
 20
180
 11
272.5016865373091
 21
180
 72
    1
 10
272.5016865373091
 20
180
 11
272.5016865373091
 21
185.9999999999999
 72
    1
 10
272.5016865373091
 20
185.9999999999999
 11
264
 21
186
 72
    1
 10
264
 20
186
 11
264
 21
306
 72
    1
 10
264
 20
306
 11
384
 21
306
 72
    1
 10
384
 20
306
 11
384
 21
186
 72
    1
 10
384
 20
186
 11
348
 21
186
 72
    1
 10
348
 20
186
 11
317.5016865373091
 21
186
 72
    1
 10
317.5016865373091
 20
186
 11
317.5016865373091
 21
180
 72
    1
 10
317.5016865373091
 20
180
 11
384
 21
180
 72
    1
 10
384
 20
180
 11
398.3102373481196
 21
180
 72
    1
 10
398.3102373481196
 20
180
 11
398.3102373481196
 21
186
 72
    1
 10
398.3102373481196
 20
186
 11
390
 21
186
 72
    1
 10
390
 20
186
 11
390
 21
372
 72
    1
 10
390
 20
372
 11
463.8659399321186
 21
372
 72
    1
 10
463.8659399321186
 20
372
 11
463.8659399321186
 21
384
 97
    0
 92
    0
 93
    4
 72
    1
 10
264
 20
372
 11
384
 21
372
 72
    1
 10
384
 20
372
 11
384
 21
312
 72
    1
 10
384
 20
312
 11
264
 21
312
 72
    1
 10
264
 20
312
 11
264
 21
372
 97
    0
 92
    0
 93
   12
 72
    1
 10
0
 20
250.1980170326424
 11
-12
 21
250.1980170326424
 72
    1
 10
-12
 20
250.1980170326424
 11
-12.00000000000001
 21
-11.99999999999994
 72
    1
 10
-12.00000000000001
 20
-11.99999999999994
 11
113.0886117752143
 21
-12
 72
    1
 10
113.0886117752143
 20
-12
 11
113.0886117752143
 21
-6
 72
    1
 10
113.0886117752143
 20
-6
 11
116.0886117752143
 21
-5.999999999999943
 72
    1
 10
116.0886117752143
 20
-5.999999999999943
 11
116.0886117752143
 21
0
 72
    1
 10
116.0886117752143
 20
0
 11
0
 21
0
 72
    1
 10
0
 20
0
 11
1.42e-14
 21
180
 72
    1
 10
1.42e-14
 20
180
 11
7.754854410663028
 21
180
 72
    1
 10
7.754854410663028
 20
180
 11
7.754854410663028
 21
186
 72
    1
 10
7.754854410663028
 20
186
 11
1.42e-14
 21
185.9999999999999
 72
    1
 10
1.42e-14
 20
185.9999999999999
 11
0
 21
250.1980170326424
 97
    0
 92
    0
 93
    4
 72
    1
 10
112.3251647826073
 20
186
 11
52.75485441066303
 21
186
 72
    1
 10
52.75485441066303
 20
186
 11
52.75485441066303
 21
180
 72
    1
 10
52.75485441066303
 20
180
 11
112.3251647826073
 21
180
 72
    1
 10
112.3251647826073
 20
180
 11
112.3251647826073
 21
186
 97
    0
 92
    0
 93
    6
 72
    1
 10
287.2975873569976
 20
0
 11
194.0886117752143
 21
0
 72
    1
 10
194.0886117752143
 20
0
 11
194.0886117752143
 21
-6
 72
    1
 10
194.0886117752143
 20
-6
 11
197.0886117752143
 21
-6
 72
    1
 10
197.0886117752143
 20
-6
 11
197.0886117752143
 21
-12
 72
    1
 10
197.0886117752143
 20
-12
 11
287.2975873569976
 21
-12.00000000000005
 72
    1
 10
287.2975873569976
 20
-12.00000000000005
 11
287.2975873569976
 21
0
 97
    0
 92
    0
 93
   10
 72
    1
 10
612
 20
65.00249280773458
 11
600
 21
65.00249280773458
 72
    1
 10
600
 20
65.00249280773458
 11
600
 21
0
 72
    1
 10
600
 20
0
 11
462
 21
0
 72
    1
 10
462
 20
0
 11
462
 21
8.398084801949153
 72
    1
 10
462
 20
8.398084801949153
 11
456
 21
8.39808480194921
 72
    1
 10
456
 20
8.39808480194921
 11
456
 21
0
 72
    1
 10
456
 20
0
 11
359.2975873569976
 21
0
 72
    1
 10
359.2975873569976
 20
0
 11
359.2975873569976
 21
-12
 72
    1
 10
359.2975873569976
 20
-12
 11
612
 21
-12.00000000000005
 72
    1
 10
612
 20
-12.00000000000005
 11
612
 21
65.00249280773458
 97
    0
 92
    0
 93
   13
 72
    1
 10
612
 20
259.2354847235929
 11
600
 21
259.2354847235929
 72
    1
 10
600
 20
259.2354847235929
 11
600
 21
186
 72
    1
 10
600
 20
186
 11
456
 21
186
 72
    1
 10
456
 20
186
 11
443.3102373481196
 21
186
 72
    1
 10
443.3102373481196
 20
186
 11
443.3102373481196
 21
180
 72
    1
 10
443.3102373481196
 20
180
 11
456
 21
180
 72
    1
 10
456
 20
180
 11
456
 21
136.6163547425612
 72
    1
 10
456
 20
136.6163547425612
 11
462
 21
136.6163547425612
 72
    1
 10
462
 20
136.6163547425612
 11
461.9999999999999
 21
180
 72
    1
 10
461.9999999999999
 20
180
 11
600
 21
180
 72
    1
 10
600
 20
180
 11
600
 21
137.0024928077346
 72
    1
 10
600
 20
137.0024928077346
 11
612
 21
137.0024928077346
 72
    1
 10
612
 20
137.0024928077346
 11
612
 21
259.2354847235929
 97
    0
 92
    0
 93
    4
 72
    1
 10
461.9999999999999
 20
76.61635474256127
 11
456
 21
76.61635474256127
 72
    1
 10
456
 20
76.61635474256127
 11
456
 21
53.39808480194915
 72
    1
 10
456
 20
53.39808480194915
 11
462
 21
53.39808480194915
 72
    1
 10
462
 20
53.39808480194915
 11
461.9999999999999
 21
76.61635474256127
 97
    0
 92
    0
 93
    6
 72
    1
 10
612
 20
384
 11
535.8659399321186
 21
384
 72
    1
 10
535.8659399321186
 20
384
 11
535.8659399321186
 21
372
 72
    1
 10
535.8659399321186
 20
372
 11
600
 21
372
 72
    1
 10
600
 20
372
 11
600
 21
331.2354847235929
 72
    1
 10
600
 20
331.2354847235929
 11
612
 21
331.2354847235929
 72
    1
 10
612
 20
331.2354847235929
 11
612
 21
384
 97
    0
 75
    0
 76
    1
 98
    0
  0
DIMENSION
  5
276
100
AcDbEntity
  8
Dim
  6
ByLayer
 62
  256
370
   -1
100
AcDbDimension
  2
*D1
 10
600
 20
430
 30
0
 11
300
 21
430
 31
0
 70
   32
 71
    5
 72
    0
  3
ISO-25
 53
0
210
0
220
0
230
1
100
AcDbAlignedDimension
 13
0
 23
372
 33
0
 14
600
 24
372
 34
0
100
AcDbRotatedDimension
  0
DIMENSION
  5
277
100
AcDbEntity
  8
Dim
  6
ByLayer
 62
  256
370
   -1
100
AcDbDimension
  2
*D2
 10
670.0000000000005
 20
1.13e-14
 30
0
 11
670.0000000000003
 21
185.9999999999999
 31
0
 70
   32
 71
    5
 72
    0
  3
ISO-25
 53
0
210
0
220
0
230
1
100
AcDbAlignedDimension
 13
600
 23
372
 33
0
 14
600
 24
0
 34
0
 50
90
100
AcDbRotatedDimension
  0
DIMENSION
  5
278
100
AcDbEntity
  8
Dim
  6
ByLayer
 62
  256
370
   -1
100
AcDbDimension
  2
*D3
 10
600
 20
410
 30
0
 11
495
 21
410
 31
0
 70
   32
 71
    5
 72
    0
  3
ISO-25
 53
0
210
0
220
0
230
1
100
AcDbAlignedDimension
 13
390
 23
372
 33
0
 14
600
 24
372
 34
0
100
AcDbRotatedDimension
  0
DIMENSION
  5
279
100
AcDbEntity
  8
Dim
  6
ByLayer
 62
  256
370
   -1
100
AcDbDimension
  2
*D4
 10
600
 20
-40.00000000000002
 30
0
 11
531
 21
-40.00000000000002
 31
0
 70
   32
 71
    5
 72
    0
  3
ISO-25
 53
0
210
0
220
0
230
1
100
AcDbAlignedDimension
 13
462
 23
0
 33
0
 14
600
 24
0
 34
0
100
AcDbRotatedDimension
  0
DIMENSION
  5
27A
100
AcDbEntity
  8
Dim
  6
ByLayer
 62
  256
370
   -1
100
AcDbDimension
  2
*D5
 10
384.0000000000001
 20
409.744038815259
 30
0
 11
324
 21
409.744038815259
 31
0
 70
   32
 71
    5
 72
    0
  3
ISO-25
 53
0
210
0
220
0
230
1
100
AcDbAlignedDimension
 13
264
 23
372
 33
0
 14
384.0000000000001
 24
372
 34
0
100
AcDbRotatedDimension
  0
DIMENSION
  5
27B
100
AcDbEntity
  8
Dim
  6
ByLayer
 62
  256
370
   -1
100
AcDbDimension
  2
*D6
 10
-48.24045484114872
 20
186
 30
0
 11
-48.24045484114865
 21
279
 31
0
 70
   32
 71
    5
 72
    0
  3
ISO-25
 53
0
210
0
220
0
230
1
100
AcDbAlignedDimension
 13
0
 23
372
 33
0
 14
0
 24
186
 34
0
 50
90
100
AcDbRotatedDimension
  0
DIMENSION
  5
27C
100
AcDbEntity
  8
Dim
  6
ByLayer
 62
  256
370
   -1
100
AcDbDimension
  2
*D7
 10
366.9128795829658
 20
312.0000000000001
 30
0
 11
366.9128795829658
 21
342
 31
0
 70
   32
 71
    5
 72
    0
  3
ISO-25
 53
0
210
0
220
0
230
1
100
AcDbAlignedDimension
 13
384
 23
372
 33
0
 14
384
 24
312
 34
0
 50
90
100
AcDbRotatedDimension
  0
ENDSEC
  0
SECTION
  2
OBJECTS
  0
DICTIONARY
  5
C
330
0
100
AcDbDictionary
281
    1
  3
ACAD_GROUP
350
D
  0
DICTIONARY
  5
D
330
C
100
AcDbDictionary
281
    1
  0
PLOTSETTINGS
  5
27D
100
AcDbPlotSettings
  6
1x1
 40
0
 41
0
 42
0
 43
0
  0
ENDSEC
  0
EOF
